<?xml version="1.0" encoding="UTF-8" standalone="no"?>
<!-- Created with Inkscape (http://www.inkscape.org/) -->

<svg
   xmlns:dc="http://purl.org/dc/elements/1.1/"
   xmlns:cc="http://creativecommons.org/ns#"
   xmlns:rdf="http://www.w3.org/1999/02/22-rdf-syntax-ns#"
   xmlns:svg="http://www.w3.org/2000/svg"
   xmlns="http://www.w3.org/2000/svg"
   xmlns:sodipodi="http://sodipodi.sourceforge.net/DTD/sodipodi-0.dtd"
   xmlns:inkscape="http://www.inkscape.org/namespaces/inkscape"
   width="744.09448819"
   height="1052.3622047"
   id="svg2"
   version="1.1"
   inkscape:version="0.48.1 r9760"
   sodipodi:docname="faces.svg">
  <defs
     id="defs4" />
  <sodipodi:namedview
     id="base"
     pagecolor="#ffffff"
     bordercolor="#666666"
     borderopacity="1.0"
     inkscape:pageopacity="0.0"
     inkscape:pageshadow="2"
     inkscape:zoom="0.81811814"
     inkscape:cx="336.5875"
     inkscape:cy="-70.569754"
     inkscape:document-units="px"
     inkscape:current-layer="layer1"
     showgrid="false"
     inkscape:window-width="1280"
     inkscape:window-height="749"
     inkscape:window-x="0"
     inkscape:window-y="24"
     inkscape:window-maximized="1" />
  <metadata
     id="metadata7">
    <rdf:RDF>
      <cc:Work
         rdf:about="">
        <dc:format>image/svg+xml</dc:format>
        <dc:type
           rdf:resource="http://purl.org/dc/dcmitype/StillImage" />
        <dc:title />
      </cc:Work>
    </rdf:RDF>
  </metadata>
  <g
     inkscape:label="Layer 1"
     inkscape:groupmode="layer"
     id="layer1">
    <g
       id="g3515"
       transform="translate(-106.29921,-308.26771)">
      <g
         transform="translate(165.62354,403.44369)"
         id="text2985"
         style="font-size:40px;font-style:normal;font-variant:normal;font-weight:normal;font-stretch:normal;line-height:125%;letter-spacing:0px;word-spacing:0px;fill:none;stroke:none;font-family:SF Cartoonist Hand;-inkscape-font-specification:SF Cartoonist Hand">
        <path
           inkscape:connector-curvature="0"
           id="path3475"
           transform="translate(-165.62354,-403.44369)"
           d="m 141.9375,326.1875 c -9.81496,0 -17.71875,7.90379 -17.71875,17.71875 l 0,105.90625 c 0,9.81497 7.90379,17.71875 17.71875,17.71875 l 105.90625,0 c 9.81496,0 17.71875,-7.90378 17.71875,-17.71875 l 0,-105.90625 c 0,-9.81496 -7.90379,-17.71875 -17.71875,-17.71875 l -105.90625,0 z m 73.59375,41.53125 c 3.18745,6e-5 4.7812,3.32818 4.78125,10.03125 -5e-5,3.56255 -0.1563,8.81254 -0.4375,15.75 -0.2813,6.89065 -0.4063,12.0469 -0.40625,15.46875 -5e-5,4.40626 0.2812,8.50001 0.84375,12.25 -2.20318,2.48438 -4.07818,3.73438 -5.625,3.78125 -1.45317,0 -2.34379,-2.0625 -2.625,-6.1875 -6.14066,4.78125 -12.54691,7.1875 -19.25,7.1875 -7.40627,0 -13.28126,-2.82812 -17.59375,-8.5 -3.84375,-4.96874 -5.75,-11.34373 -5.75,-19.125 0,-7.87496 3.01562,-14.85933 9.0625,-20.90625 6.04686,-6.04682 12.99998,-9.06244 20.875,-9.0625 4.31246,6e-5 8.31246,0.92193 11.96875,2.75 0.56245,-2.29682 1.95308,-3.43744 4.15625,-3.4375 z m -16.25,10.03125 c -5.57815,5e-5 -10.37502,2.1563 -14.40625,6.46875 -4.03126,4.31254 -6.06251,9.26566 -6.0625,14.84375 -1e-5,4.50002 1.10936,8.43752 3.3125,11.8125 2.39061,3.75001 5.79685,5.62501 10.25,5.625 6.51559,10e-6 12.76559,-3.01561 18.71875,-9.0625 l 0,-12.8125 c 0.2812,-6.04684 0.4062,-10.37496 0.40625,-13 -1.45317,-0.37496 -3.45317,-1.14058 -6.03125,-2.3125 -2.29691,-1.07808 -4.35941,-1.60933 -6.1875,-1.5625 z"
           style="font-size:144px;fill:none" />
      </g>
      <rect
         y="308.46725"
         x="106.49876"
         height="176.76625"
         width="176.76627"
         id="rect3077"
         style="fill:none;stroke:#000000;stroke-width:0.39909893;stroke-linecap:butt;stroke-linejoin:miter;stroke-miterlimit:4;stroke-opacity:1;stroke-dasharray:none;stroke-dashoffset:3" />
    </g>
    <g
       transform="scale(-1,-1)"
       style="font-size:40px;font-style:normal;font-variant:normal;font-weight:normal;font-stretch:normal;line-height:125%;letter-spacing:0px;word-spacing:0px;fill:#000000;fill-opacity:1;stroke:none;font-family:SF Cartoonist Hand;-inkscape-font-specification:SF Cartoonist Hand"
       id="text3029-1" />
    <g
       id="g3581"
       transform="translate(183.44062,-187.60798)">
      <g
         transform="translate(3.666952,293.35616)"
         id="text2989"
         style="font-size:40px;font-style:normal;font-variant:normal;font-weight:normal;font-stretch:normal;line-height:125%;letter-spacing:0px;word-spacing:0px;fill:none;stroke:none;font-family:SF Cartoonist Hand;-inkscape-font-specification:SF Cartoonist Hand">
        <path
           inkscape:connector-curvature="0"
           id="path3472"
           d="m 37.489298,-87.82491 c -9.81496,0 -17.71875,7.90379 -17.71875,17.71875 l 0,105.875 c 0,9.81497 7.90379,17.71875 17.71875,17.71875 l 105.906252,0 c 9.81496,0 17.71875,-7.90378 17.71875,-17.71875 l 0,-105.875 c 0,-9.81496 -7.90379,-17.71875 -17.71875,-17.71875 l -105.906252,0 z m 33.03125,22.625 c 3.093737,1e-4 4.624986,2.85947 4.625,8.53125 l 0,34.9375 c 3.468732,-3.18745 8.124978,-4.76557 13.9375,-4.71875 7.96872,6e-5 14.453082,3.01568 19.468752,9.0625 4.78119,5.76567 7.18745,12.65629 7.1875,20.625 -5e-5,7.59377 -2.5313,14.06251 -7.59375,19.40625 -5.20317,5.48438 -11.562532,8.21875 -19.062502,8.21875 -6.140647,0 -11.468767,-2.0625 -15.96875,-6.1875 l -0.125,2.75 c -1.875011,1.45313 -3.625009,2.15625 -5.21875,2.15625 -1.734381,-0.04687 -2.593754,-2.25 -2.59375,-6.65625 -4e-6,-14.67185 0.10937,-27.93747 0.34375,-39.75 0.281245,-17.76556 0.437494,-30.99992 0.4375,-39.71875 -6e-6,-5.76553 1.515618,-8.65615 4.5625,-8.65625 z m 18.5625,47.53125 c -5.671898,5e-5 -10.750018,2.31255 -15.25,6.90625 l 0,20.875 c -0.187513,0.37502 -0.04689,0.85939 0.46875,1.46875 2.296859,3.46877 4.421857,5.87501 6.34375,7.1875 2.484353,1.92189 5.468724,2.87501 8.9375,2.875 0.187469,10e-6 0.74997,-0.09374 1.6875,-0.28125 10.265582,-2.29686 15.374952,-8.48436 15.375002,-18.5625 -5e-5,-5.39059 -1.51567,-10.06246 -4.5625,-14 -3.468792,-4.31245 -7.796915,-6.4687 -13.000002,-6.46875 z"
           style="font-size:144px;fill:none" />
      </g>
      <rect
         y="187.80753"
         x="5.7352977"
         height="176.76625"
         width="176.76627"
         id="rect3077-3"
         style="fill:none;stroke:#000000;stroke-width:0.39909893;stroke-linecap:butt;stroke-linejoin:miter;stroke-miterlimit:4;stroke-opacity:1;stroke-dasharray:none;stroke-dashoffset:3" />
    </g>
    <g
       id="g3586"
       transform="translate(167.06762,-187.60798)">
      <g
         transform="translate(138.47353,282.10942)"
         id="text2993"
         style="font-size:40px;font-style:normal;font-variant:normal;font-weight:normal;font-stretch:normal;line-height:125%;letter-spacing:0px;word-spacing:0px;fill:none;stroke:none;font-family:SF Cartoonist Hand;-inkscape-font-specification:SF Cartoonist Hand">
        <path
           id="path3469"
           transform="translate(-138.47353,-282.10942)"
           d="m 246.53125,205.53125 c -9.81496,0 -17.71875,7.90379 -17.71875,17.71875 l 0,105.875 c 0,9.81497 7.90379,17.71875 17.71875,17.71875 l 105.875,0 c 9.81496,0 17.71875,-7.90378 17.71875,-17.71875 l 0,-105.875 c 0,-9.81496 -7.90379,-17.71875 -17.71875,-17.71875 l -105.875,0 z m 58.78125,41.875 c 3.28122,6e-5 6.39058,1.23443 9.34375,3.71875 2.85933,2.39068 4.57808,5.37505 5.1875,8.9375 -1.82817,2.67192 -3.45317,4.00004 -4.90625,4 -0.37505,4e-5 -1.51566,-1.29683 -3.4375,-3.875 -1.82816,-2.48433 -3.79691,-3.7187 -5.90625,-3.71875 -4.78127,5e-5 -9.4219,2.37505 -13.875,7.15625 -4.50001,4.96879 -6.75001,9.79691 -6.75,14.4375 -10e-6,5.1094 0.98437,9.07814 2.90625,11.9375 2.29686,3.65626 5.79685,5.50001 10.53125,5.5 3.37497,10e-6 7.46872,-1.74999 12.25,-5.21875 4.78121,-3.46873 7.43745,-5.18748 8,-5.1875 1.26558,2e-5 2.37495,0.48439 3.3125,1.46875 0.98432,0.93752 1.4687,2.04689 1.46875,3.3125 -5e-5,0.37501 -0.2188,1.04689 -0.6875,2.03125 -2.39067,3.75001 -5.92192,6.85938 -10.5625,9.34375 -4.59379,2.48438 -9.18753,3.71875 -13.78125,3.71875 -6.60939,0 -12.17188,-2.54687 -16.71875,-7.65625 -4.125,-4.78124 -6.1875,-10.60936 -6.1875,-17.5 0,-6.42184 1.81249,-12.32809 5.46875,-17.71875 3.84374,-5.67183 8.64061,-9.76557 14.40625,-12.25 3.56248,-1.64057 6.8906,-2.43744 9.9375,-2.4375 z"
           style="font-size:144px;fill:none"
           inkscape:connector-curvature="0" />
      </g>
      <rect
         y="187.80753"
         x="211.08464"
         height="176.76625"
         width="176.76627"
         id="rect3077-2"
         style="fill:none;stroke:#000000;stroke-width:0.39909893;stroke-linecap:butt;stroke-linejoin:miter;stroke-miterlimit:4;stroke-opacity:1;stroke-dasharray:none;stroke-dashoffset:3" />
    </g>
    <g
       id="g3591"
       transform="translate(159.25095,-187.60799)">
      <g
         transform="translate(272.86685,304.85483)"
         id="text2997"
         style="font-size:40px;font-style:normal;font-variant:normal;font-weight:normal;font-stretch:normal;line-height:125%;letter-spacing:0px;word-spacing:0px;fill:none;stroke:none;font-family:SF Cartoonist Hand;-inkscape-font-specification:SF Cartoonist Hand">
        <path
           id="path3466"
           transform="translate(-272.86685,-304.85483)"
           d="m 443.3125,205.53125 c -9.81496,0 -17.71875,7.90379 -17.71875,17.71875 l 0,105.875 c 0,9.81497 7.90379,17.71875 17.71875,17.71875 l 105.90625,0 c 9.81496,0 17.71875,-7.90378 17.71875,-17.71875 l 0,-105.875 c 0,-9.81496 -7.90379,-17.71875 -17.71875,-17.71875 l -105.90625,0 z m 70.09375,22.625 c 2.10933,1e-4 3.56245,1.35947 4.3125,4.03125 0.37495,1.17197 0.57808,4.09384 0.625,8.78125 0.37495,12.56257 0.56245,26.89068 0.5625,42.96875 -5e-5,15.37502 0.4062,27.75001 1.25,37.125 -1.92192,1.54688 -3.73442,2.3125 -5.46875,2.3125 -1.50004,0 -2.23441,-1.14062 -2.1875,-3.4375 -4e-5,-0.375 0.0156,-0.79687 0.0625,-1.21875 -4.78129,3.65625 -9.8594,5.5 -15.25,5.5 -7.21876,0 -13.21876,-2.82812 -18,-8.5 -4.64062,-5.24999 -6.96875,-11.62498 -6.96875,-19.125 0,-7.49996 2.48437,-14.29683 7.40625,-20.34375 5.39061,-6.51557 11.70311,-9.74994 18.96875,-9.75 3.84372,6e-5 7.74996,1.17193 11.6875,3.5625 l 0,-17.15625 c -4e-5,-2.2968 -0.15628,-5.71867 -0.4375,-10.3125 -0.28128,-4.64054 -0.40629,-8.10928 -0.40625,-10.40625 -4e-5,-2.67178 1.26558,-4.03115 3.84375,-4.03125 z m -14.8125,47.53125 c -4.78127,5e-5 -8.81252,2.25005 -12.09375,6.75 -3.28126,4.45316 -4.93751,9.03128 -4.9375,13.71875 -10e-6,4.87502 1.37499,9.25002 4.09375,13.09375 2.95311,4.03126 6.82811,6.03126 11.65625,6.03125 5.85935,10e-6 10.60934,-2.09374 14.21875,-6.3125 -0.56254,-6.60935 -0.84379,-15.78122 -0.84375,-27.5 -3.84379,-3.8437 -7.87503,-5.7812 -12.09375,-5.78125 z"
           style="font-size:144px;fill:none"
           inkscape:connector-curvature="0" />
      </g>
      <rect
         y="187.80754"
         x="407.87772"
         height="176.76625"
         width="176.76627"
         id="rect3077-2-0"
         style="fill:none;stroke:#000000;stroke-width:0.39909893;stroke-linecap:butt;stroke-linejoin:miter;stroke-miterlimit:4;stroke-opacity:1;stroke-dasharray:none;stroke-dashoffset:3" />
    </g>
    <g
       id="g3596"
       transform="translate(-604.47123,-1.445493)">
      <g
         transform="translate(401.97804,284.41221)"
         id="text3001"
         style="font-size:40px;font-style:normal;font-variant:normal;font-weight:normal;font-stretch:normal;line-height:125%;letter-spacing:0px;word-spacing:0px;fill:none;stroke:none;font-family:SF Cartoonist Hand;-inkscape-font-specification:SF Cartoonist Hand">
        <path
           id="path3463"
           transform="translate(-401.97804,-284.41221)"
           d="m 640.09375,204.3125 c -9.81496,0 -17.71875,7.90379 -17.71875,17.71875 l 0,105.875 c 0,9.81497 7.90379,17.71875 17.71875,17.71875 l 105.90625,0 c 9.81496,0 17.71875,-7.90378 17.71875,-17.71875 l 0,-105.875 c 0,-9.81496 -7.90379,-17.71875 -17.71875,-17.71875 l -105.90625,0 z m 54.0625,41.78125 c 4.96872,6e-5 9.37496,2.15631 13.21875,6.46875 3.37495,3.6563 5.76557,8.12504 7.21875,13.375 0.56245,1.73441 0.8437,2.98441 0.84375,3.78125 -5e-5,1.92191 -1.35942,3.31253 -4.125,4.15625 -3.93754,1.1719 -11.62503,1.75003 -23.0625,1.75 -5.57814,3e-5 -9.42189,-0.10935 -11.53125,-0.34375 -10e-6,5.39065 1.78124,9.90627 5.34375,13.5625 3.60935,3.75001 7.92185,5.62501 12.9375,5.625 2.95309,10e-6 6.65621,-1.23436 11.15625,-3.71875 4.54683,-2.53123 7.12495,-3.78123 7.6875,-3.78125 1.26557,2e-5 2.3437,0.42189 3.28125,1.3125 0.98432,0.84376 1.49995,1.85939 1.5,3.03125 -5e-5,0.84376 -0.43756,1.79689 -1.28125,2.875 -2.01568,2.67188 -5.39068,4.98438 -10.125,6.90625 -4.50004,1.82813 -8.56253,2.75 -12.21875,2.75 -7.40627,0 -13.85939,-2.78125 -19.34375,-8.3125 -5.4375,-5.57811 -8.15625,-12.06248 -8.15625,-19.46875 0,-7.31247 2.54686,-14.04683 7.65625,-20.1875 5.48435,-6.51557 11.8281,-9.78119 19,-9.78125 z m -0.4375,9.21875 c -3.09378,5e-5 -6.07815,1.39067 -8.9375,4.15625 -2.43752,2.29692 -4.43751,5.03129 -6.03125,8.21875 4.87498,4e-5 13.85935,-0.57809 26.9375,-1.75 -2.57816,-7.12495 -6.57816,-10.67183 -11.96875,-10.625 z"
           style="font-size:144px;fill:none"
           inkscape:connector-curvature="0" />
      </g>
      <rect
         y="186.58524"
         x="604.67078"
         height="176.76625"
         width="176.76627"
         id="rect3077-2-9"
         style="fill:none;stroke:#000000;stroke-width:0.39909893;stroke-linecap:butt;stroke-linejoin:miter;stroke-miterlimit:4;stroke-opacity:1;stroke-dasharray:none;stroke-dashoffset:3" />
    </g>
    <g
       id="g3684"
       transform="translate(202.9977,29.112429)">
      <g
         transform="translate(-278.06396,275.62055)"
         id="text3005"
         style="font-size:40px;font-style:normal;font-variant:normal;font-weight:normal;font-stretch:normal;line-height:125%;letter-spacing:0px;word-spacing:0px;fill:none;stroke:none;font-family:SF Cartoonist Hand;-inkscape-font-specification:SF Cartoonist Hand">
        <path
           id="path3460"
           transform="translate(278.06396,-275.62055)"
           d="m 21.625,173.75 c -9.81496,0 -17.71875,7.90379 -17.71875,17.71875 l 0,105.90625 c 0,9.81497 7.90379,17.6875 17.71875,17.6875 l 105.875,0 c 9.81496,0 17.71875,-7.87253 17.71875,-17.6875 l 0,-105.90625 c 0,-9.81496 -7.90379,-17.71875 -17.71875,-17.71875 l -105.875,0 z m 60.25,22.625 c 4.96871,1e-4 8.99995,1.93759 12.09375,5.78125 2.95307,3.37509 4.45307,7.59383 4.5,12.65625 -5e-5,3.84382 -1.56255,5.75007 -4.65625,5.75 -2.10942,7e-5 -3.45317,-1.2343 -4.0625,-3.71875 -0.56255,-2.4843 -1.09379,-4.93742 -1.5625,-7.375 -0.93754,-2.57804 -2.84379,-3.87491 -5.75,-3.875 -0.46879,9e-5 -1.00003,0.15634 -1.5625,0.4375 -9.0469,3.75008 -13.56252,16.54694 -13.5625,38.4375 5.48435,-0.2812 10.98435,-0.4062 16.46875,-0.40625 3.84371,5e-5 5.74996,1.32817 5.75,4 -4e-5,2.48442 -7.34378,3.71879 -22.0625,3.71875 1.07811,10.7344 2.15623,23.43752 3.28125,38.0625 -2.39064,1.73438 -4.39065,2.59375 -6.03125,2.59375 -1.17189,0 -1.98439,-0.82812 -2.40625,-2.46875 -0.46876,-1.73437 -0.70314,-3.70312 -0.75,-5.90625 -1e-5,-1.17187 -0.04685,-2.21874 -0.09375,-3.15625 -0.0469,-0.93749 -0.07818,-1.65624 -0.125,-2.125 l -0.0625,-0.625 c -0.28126,-2.95311 -0.75001,-7.2031 -1.40625,-12.78125 -0.75001,-5.57809 -1.17188,-9.79684 -1.21875,-12.65625 l -6.03125,0 c -1.31251,-1.92183 -1.96876,-3.67183 -1.96875,-5.21875 -1e-5,-1.54683 2.5625,-2.31245 7.71875,-2.3125 -1e-5,-13.07807 1.31249,-23.20305 3.9375,-30.375 4.49998,-12.28116 11.03122,-18.4374 19.5625,-18.4375 z"
           style="font-size:144px;fill:none"
           inkscape:connector-curvature="0" />
      </g>
      <rect
         y="156.02731"
         x="-13.821794"
         height="176.76625"
         width="176.76627"
         id="rect3077-2-9-0"
         style="fill:none;stroke:#000000;stroke-width:0.39909893;stroke-linecap:butt;stroke-linejoin:miter;stroke-miterlimit:4;stroke-opacity:1;stroke-dasharray:none;stroke-dashoffset:3" />
    </g>
    <g
       id="g3689"
       transform="translate(195.18096,27.890139)">
      <g
         transform="translate(-137.93268,237.27021)"
         id="text3009"
         style="font-size:40px;font-style:normal;font-variant:normal;font-weight:normal;font-stretch:normal;line-height:125%;letter-spacing:0px;word-spacing:0px;fill:none;stroke:none;font-family:SF Cartoonist Hand;-inkscape-font-specification:SF Cartoonist Hand">
        <path
           id="path3457"
           transform="translate(137.93268,-237.27021)"
           d="m 218.40625,174.96875 c -9.81496,0 -17.71875,7.90379 -17.71875,17.71875 l 0,105.90625 c 0,9.81497 7.90379,17.71875 17.71875,17.71875 l 105.90625,0 c 9.81496,0 17.71875,-7.90378 17.71875,-17.71875 l 0,-105.90625 c 0,-9.81496 -7.90379,-17.71875 -17.71875,-17.71875 l -105.90625,0 z m 54.5,28.125 c 4.59372,6e-5 8.71872,1.20318 12.375,3.59375 2.29684,-1.45307 4.29683,-2.18744 6.03125,-2.1875 1.26558,6e-5 2.07808,0.92193 2.40625,2.75 0.37496,1.92193 0.57807,4.68755 0.625,8.34375 -5e-5,2.29692 0.24995,6.70316 0.71875,13.21875 0.37495,5.2969 0.56245,9.75002 0.5625,13.3125 -5e-5,30.70311 -7.68754,46.03122 -23.0625,46.03125 -4.03127,-3e-5 -8.06252,-1.26565 -12.09375,-3.84375 -4.12501,-2.6719 -7.07813,-5.81252 -8.8125,-9.375 -0.37501,-0.75001 -0.56251,-1.51564 -0.5625,-2.3125 -1e-5,-1.17189 0.51562,-2.18751 1.5,-3.03125 1.07812,-0.84376 2.15624,-1.25001 3.28125,-1.25 1.12499,-10e-6 3.28124,1.70312 6.46875,5.125 3.18748,3.46873 6.5156,5.21873 9.9375,5.21875 7.40622,-2e-5 11.95309,-7.26564 13.6875,-21.75 -4.40629,2.48438 -8.75003,3.75 -13.0625,3.75 -7.31252,0 -13.51564,-3.14062 -18.625,-9.375 -4.78125,-5.76561 -7.18751,-12.43748 -7.1875,-20.03125 -1e-5,-7.68746 2.40625,-14.18746 7.1875,-19.53125 4.87499,-5.76557 11.07811,-8.65619 18.625,-8.65625 z m 0.40625,8.78125 c -4.78127,5e-5 -8.81252,1.93755 -12.09375,5.78125 -3.28126,3.84379 -4.90626,8.25003 -4.90625,13.21875 -10e-6,5.20315 1.59374,9.81252 4.78125,13.84375 3.46873,4.50001 7.62498,6.75001 12.5,6.75 2.01559,1e-5 4.26559,-0.67187 6.75,-2.03125 l 6.1875,-3.46875 c -4e-5,-5.29685 -0.50004,-14.81247 -1.53125,-28.59375 -3.28128,-3.6562 -7.18753,-5.49995 -11.6875,-5.5 z"
           style="font-size:144px;fill:none"
           inkscape:connector-curvature="0" />
      </g>
      <rect
         y="157.2496"
         x="182.97131"
         height="176.76625"
         width="176.76627"
         id="rect3077-2-9-0-8"
         style="fill:none;stroke:#000000;stroke-width:0.39909893;stroke-linecap:butt;stroke-linejoin:miter;stroke-miterlimit:4;stroke-opacity:1;stroke-dasharray:none;stroke-dashoffset:3" />
    </g>
    <g
       id="g3694"
       transform="translate(186.14194,26.667819)">
      <g
         transform="translate(-10.566685,280.56047)"
         id="text3013"
         style="font-size:40px;font-style:normal;font-variant:normal;font-weight:normal;font-stretch:normal;line-height:125%;letter-spacing:0px;word-spacing:0px;fill:none;stroke:none;font-family:SF Cartoonist Hand;-inkscape-font-specification:SF Cartoonist Hand">
        <path
           id="path3454"
           transform="translate(10.566685,-280.56047)"
           d="m 416.40625,176.1875 c -9.81496,0 -17.6875,7.90379 -17.6875,17.71875 l 0,105.90625 c 0,9.81497 7.87254,17.71875 17.6875,17.71875 l 105.90625,0 c 9.81496,0 17.71875,-7.90378 17.71875,-17.71875 l 0,-105.90625 c 0,-9.81496 -7.90379,-17.71875 -17.71875,-17.71875 l -105.90625,0 z m 31.6875,22.65625 c 2.10937,1e-4 3.59374,1.35947 4.4375,4.125 0.46874,1.92197 0.73436,5.76571 0.78125,11.53125 l 0,16.1875 c 0.37498,6.89068 0.65623,12.25005 0.84375,16.09375 5.3906,-7.21869 12.09372,-10.81244 20.15625,-10.8125 8.3437,6e-5 14.10932,3.68755 17.25,11.09375 2.10932,4.87504 3.1562,12.17191 3.15625,21.875 -5e-5,10.17189 -0.6563,17.42188 -1.96875,21.78125 -0.8438,2.76563 -2.43755,4.15625 -4.78125,4.15625 -2.76567,0 -4.15629,-1.39062 -4.15625,-4.15625 -4e-5,-4.12499 0.28121,-8.54686 0.84375,-13.28125 0.65621,-5.48435 0.99995,-9.8906 1,-13.21875 -5e-5,-12.93746 -4.03129,-19.42183 -12.09375,-19.46875 -4.68753,5e-5 -8.90628,2.42192 -12.65625,7.25 -2.8594,3.65629 -4.98439,8.18753 -6.34375,13.625 -10e-6,12.09377 -0.28126,21.17188 -0.84375,27.21875 -1.92188,1.35938 -3.70313,2.03125 -5.34375,2.03125 -1.73438,0 -2.59376,-2.25 -2.59375,-6.75 l 0,-11.25 c 0.0469,-1.49998 0.0625,-3.03123 0.0625,-4.625 0,-1.03123 -0.0156,-2.29685 -0.0625,-3.75 l 0,-2.875 0,-48.375 c -1.17188,-9.46866 -1.75001,-14.89053 -1.75,-16.25 -10e-6,-1.45303 1.34375,-2.15615 4.0625,-2.15625 z"
           style="font-size:144px;fill:none"
           inkscape:connector-curvature="0" />
      </g>
      <rect
         y="158.47192"
         x="380.98672"
         height="176.76625"
         width="176.76627"
         id="rect3077-2-9-0-1"
         style="fill:none;stroke:#000000;stroke-width:0.39909893;stroke-linecap:butt;stroke-linejoin:miter;stroke-miterlimit:4;stroke-opacity:1;stroke-dasharray:none;stroke-dashoffset:3" />
    </g>
    <g
       id="g3699"
       transform="translate(-576.35795,213.90554)">
      <g
         transform="translate(140.54404,269.8759)"
         id="text3017"
         style="font-size:40px;font-style:normal;font-variant:normal;font-weight:normal;font-stretch:normal;line-height:125%;letter-spacing:0px;word-spacing:0px;fill:none;stroke:none;font-family:SF Cartoonist Hand;-inkscape-font-specification:SF Cartoonist Hand">
        <path
           id="path3451"
           transform="translate(-140.54404,-269.8759)"
           d="m 612,174.96875 c -9.81496,0 -17.71875,7.90379 -17.71875,17.71875 l 0,105.90625 c 0,9.81497 7.90379,17.71875 17.71875,17.71875 l 105.875,0 c 9.81496,0 17.71875,-7.90378 17.71875,-17.71875 l 0,-105.90625 c 0,-9.81496 -7.90379,-17.71875 -17.71875,-17.71875 l -105.875,0 z m 52.59375,31.625 c 1.64062,8e-5 2.96874,0.5157 4,1.5 1.07811,0.93758 1.62499,2.10945 1.625,3.5625 -10e-6,1.40632 -0.45314,2.67194 -1.34375,3.75 -0.84376,1.03132 -1.95314,1.53132 -3.3125,1.53125 -1.26563,7e-5 -2.50001,-0.49993 -3.71875,-1.53125 -1.17188,-1.03118 -1.75,-2.2968 -1.75,-3.75 0,-3.37492 1.5,-5.06242 4.5,-5.0625 z m 0.96875,21.59375 c 2.48436,6e-5 3.74999,1.37505 3.75,4.09375 0.28124,1.45318 0.40623,3.0938 0.40625,4.96875 -2e-5,2.48442 -0.21876,5.18754 -0.6875,8.09375 -0.0938,2.29691 -0.18751,4.89066 -0.28125,7.75 -0.0938,2.81253 -0.15627,4.53128 -0.15625,5.1875 -0.0938,2.76565 -0.12501,6.95314 -0.125,12.53125 -0.28126,5.39063 -0.79689,9.625 -1.5,12.71875 -1.54688,0.75 -3.00001,1.125 -4.40625,1.125 -1.92188,0 -2.90625,-1.29687 -2.90625,-3.875 l 0,-11.8125 c 0.46875,-6.23435 0.71875,-14.65622 0.71875,-25.25 0,-5.48433 0.35937,-9.35933 1.0625,-11.65625 0.75,-2.57807 2.10937,-3.87494 4.125,-3.875 z"
           style="font-size:144px;fill:none"
           inkscape:connector-curvature="0" />
      </g>
      <rect
         y="157.2496"
         x="576.5575"
         height="176.76625"
         width="176.76627"
         id="rect3077-2-9-0-5"
         style="fill:none;stroke:#000000;stroke-width:0.39909893;stroke-linecap:butt;stroke-linejoin:miter;stroke-miterlimit:4;stroke-opacity:1;stroke-dasharray:none;stroke-dashoffset:3" />
    </g>
    <g
       id="g3719"
       transform="translate(201.77537,13.445488)">
      <g
         transform="translate(-469.15076,440.31545)"
         id="text3021"
         style="font-size:40px;font-style:normal;font-variant:normal;font-weight:normal;font-stretch:normal;line-height:125%;letter-spacing:0px;word-spacing:0px;fill:none;stroke:none;font-family:SF Cartoonist Hand;-inkscape-font-specification:SF Cartoonist Hand">
        <path
           id="path3448"
           transform="translate(469.15076,-440.31545)"
           d="m 22.84375,375.4375 c -9.81496,0 -17.71875,7.90379 -17.71875,17.71875 l 0,105.875 c 0,9.81497 7.90379,17.71875 17.71875,17.71875 l 105.875,0 c 9.81496,0 17.71875,-7.90378 17.71875,-17.71875 l 0,-105.875 c 0,-9.81496 -7.90379,-17.71875 -17.71875,-17.71875 l -105.875,0 z M 88.25,392.5 c 3.84371,8e-5 5.76559,1.78133 5.71875,5.34375 -4e-5,1.35945 -0.54691,2.46882 -1.625,3.3125 -1.03128,0.84382 -2.21879,1.28132 -3.53125,1.28125 -3.46878,7e-5 -5.18753,-1.84368 -5.1875,-5.5 -3e-5,-2.95305 1.53122,-4.43742 4.625,-4.4375 z m 1.28125,21.75 c 2.76559,6e-5 4.15621,2.00005 4.15625,6.03125 -4e-5,1.26567 0.18746,7.17192 0.5625,17.71875 0.42184,10.5469 0.62496,16.51564 0.625,17.875 -0.56254,10.54688 -1.67191,19.56249 -3.3125,27.0625 -3.46878,11.15623 -9.37502,16.71872 -17.71875,16.71875 -5.39063,-3e-5 -9.71876,-2.64065 -13,-7.9375 -2.76562,-4.50002 -4.15625,-9.57814 -4.15625,-15.25 1.92188,-1.35938 3.85937,-2.03125 5.78125,-2.03125 0.93749,0 1.54686,0.67187 1.875,2.03125 0.93749,4.21874 1.74999,7.29686 2.40625,9.21875 1.64062,3.74998 3.87499,5.62498 6.6875,5.625 4.96873,-2e-5 8.48435,-4.82814 10.59375,-14.4375 1.17184,-5.76563 1.78122,-12.56249 1.78125,-20.4375 -3e-5,-3.93748 -0.1719,-9.79685 -0.5,-17.53125 -0.28128,-7.78121 -0.43753,-13.62496 -0.4375,-17.5625 -3e-5,-4.68745 1.56247,-7.04682 4.65625,-7.09375 z"
           style="font-size:144px;fill:none"
           inkscape:connector-curvature="0" />
      </g>
      <rect
         y="357.70966"
         x="-12.599438"
         height="176.76625"
         width="176.76627"
         id="rect3077-2-9-0-87"
         style="fill:none;stroke:#000000;stroke-width:0.39909893;stroke-linecap:butt;stroke-linejoin:miter;stroke-miterlimit:4;stroke-opacity:1;stroke-dasharray:none;stroke-dashoffset:3" />
    </g>
    <g
       id="g3714"
       transform="translate(191.51401,14.667808)">
      <g
         transform="translate(-332.25013,475.35549)"
         id="text3025"
         style="font-size:40px;font-style:normal;font-variant:normal;font-weight:normal;font-stretch:normal;line-height:125%;letter-spacing:0px;word-spacing:0px;fill:none;stroke:none;font-family:SF Cartoonist Hand;-inkscape-font-specification:SF Cartoonist Hand">
        <path
           id="path3445"
           transform="translate(332.25013,-475.35549)"
           d="m 222.0625,374.21875 c -9.81496,0 -17.71875,7.87254 -17.71875,17.6875 l 0,105.90625 c 0,9.81497 7.90379,17.71875 17.71875,17.71875 l 105.90625,0 c 9.81496,0 17.71875,-7.90378 17.71875,-17.71875 l 0,-105.90625 c 0,-9.81496 -7.90379,-17.6875 -17.71875,-17.6875 l -105.90625,0 z m 33.125,22.625 c 2.20311,10e-5 3.59374,1.10947 4.15625,3.3125 0.0937,0.56259 0.12499,3.95321 0.125,10.1875 -10e-6,0.93758 0.14061,5.17195 0.375,12.71875 0.0937,3.75007 0.12499,8.03131 0.125,12.8125 l 0,24.875 L 274.8125,450 c 4.12497,-2.95308 10.04684,-7.7187 17.78125,-14.28125 4.2187,0.46881 6.35932,1.48443 6.40625,3.03125 -5e-5,0.18755 -0.20318,0.56255 -0.625,1.125 -2.95318,4.31255 -10.21879,10.60942 -21.75,18.90625 2.67184,3.09378 6.85934,8.2344 12.53125,15.40625 6.60932,8.43751 9.92183,13.42188 9.96875,14.96875 -5e-5,0.9375 -0.48443,1.82813 -1.46875,2.625 -0.93755,0.75 -1.95317,1.125 -3.03125,1.125 -1.03129,0 -2.17192,-0.64063 -3.4375,-1.90625 -0.65629,-0.65625 -2.90629,-3.73437 -6.75,-9.21875 -5.57816,-7.87498 -10.18753,-14.09372 -13.84375,-18.6875 l -11.125,8.0625 c -0.18751,9.04689 -0.59376,15.93751 -1.25,20.625 -1.54689,0.75 -3.10938,1.125 -4.65625,1.125 -1.78125,0 -2.65626,-1.35937 -2.65625,-4.03125 -1e-5,-6.60936 0.0937,-12.51561 0.28125,-17.71875 0.28124,-7.78122 0.40625,-22.92183 0.40625,-45.46875 0,-0.84368 -0.0937,-4.93743 -0.28125,-12.25 -0.0937,-3.65617 -0.12501,-7.85929 -0.125,-12.59375 -1e-5,-2.67178 1.32812,-3.9999 4,-4 z"
           style="font-size:144px;fill:none"
           inkscape:connector-curvature="0" />
      </g>
      <rect
         y="356.48734"
         x="186.63828"
         height="176.76625"
         width="176.76627"
         id="rect3077-2-9-0-3"
         style="fill:none;stroke:#000000;stroke-width:0.39909893;stroke-linecap:butt;stroke-linejoin:miter;stroke-miterlimit:4;stroke-opacity:1;stroke-dasharray:none;stroke-dashoffset:3" />
    </g>
    <g
       id="g3709"
       transform="translate(186.14194,14.667808)">
      <g
         transform="translate(-182.51239,480.44745)"
         id="text3029"
         style="font-size:40px;font-style:normal;font-variant:normal;font-weight:normal;font-stretch:normal;line-height:125%;letter-spacing:0px;word-spacing:0px;fill:none;stroke:none;font-family:SF Cartoonist Hand;-inkscape-font-specification:SF Cartoonist Hand">
        <path
           id="path3442"
           transform="translate(182.51239,-480.44745)"
           d="m 416.40625,374.21875 c -9.81496,0 -17.6875,7.87254 -17.6875,17.6875 l 0,105.90625 c 0,9.81497 7.87254,17.71875 17.6875,17.71875 l 105.90625,0 c 9.81496,0 17.71875,-7.90378 17.71875,-17.71875 l 0,-105.90625 c 0,-9.81496 -7.90379,-17.6875 -17.71875,-17.6875 l -105.90625,0 z m 52.0625,22.625 c 3.09374,10e-5 4.60937,3.20322 4.5625,9.625 -10e-6,1.26571 -0.0625,2.37508 -0.15625,3.3125 l 0,3.3125 c -10e-6,4.96882 0.24999,14.65631 0.71875,29.09375 0.51561,14.39066 0.78124,24.1094 0.78125,29.125 -10e-6,7.59376 -0.35939,14.06251 -1.0625,19.40625 -2.01563,1.45313 -3.79688,2.1875 -5.34375,2.1875 -1.73438,0 -2.57813,-2.21875 -2.53125,-6.625 l 0,-4.34375 c 0.0937,-1.35936 0.12499,-2.81249 0.125,-4.3125 -10e-6,-10.17185 -0.20313,-22.67184 -0.625,-37.53125 -0.37501,-14.90618 -0.56251,-27.45305 -0.5625,-37.625 -10e-6,-3.74991 1.375,-5.6249 4.09375,-5.625 z"
           style="font-size:144px;fill:none"
           inkscape:connector-curvature="0" />
      </g>
      <rect
         y="356.48734"
         x="380.98672"
         height="176.76625"
         width="176.76627"
         id="rect3077-2-9-0-15"
         style="fill:none;stroke:#000000;stroke-width:0.39909893;stroke-linecap:butt;stroke-linejoin:miter;stroke-miterlimit:4;stroke-opacity:1;stroke-dasharray:none;stroke-dashoffset:3" />
    </g>
    <g
       id="g3704"
       transform="translate(-577.5803,201.79395)">
      <g
         transform="translate(-54.71966,461.15544)"
         id="text3033"
         style="font-size:40px;font-style:normal;font-variant:normal;font-weight:normal;font-stretch:normal;line-height:125%;letter-spacing:0px;word-spacing:0px;fill:none;stroke:none;font-family:SF Cartoonist Hand;-inkscape-font-specification:SF Cartoonist Hand">
        <path
           id="path3439"
           transform="translate(54.71966,-461.15544)"
           d="m 613.21875,375.4375 c -9.81496,0 -17.71875,7.90379 -17.71875,17.71875 l 0,105.875 c 0,9.81497 7.90379,17.71875 17.71875,17.71875 l 105.90625,0 c 9.81496,0 17.71875,-7.90378 17.71875,-17.71875 l 0,-105.875 c 0,-9.81496 -7.90379,-17.71875 -17.71875,-17.71875 l -105.90625,0 z m 38.90625,41.71875 c 6.60934,6e-5 11.53121,2.82818 14.71875,8.5 4.0312,-5.48432 9.01558,-8.21869 14.96875,-8.21875 12.37493,6e-5 18.56243,9.45317 18.5625,28.34375 -7e-5,0.84378 -0.18757,5.00002 -0.5625,12.5 -0.28132,5.62501 -0.43758,9.82813 -0.4375,12.59375 -8e-5,2.76563 -1.42194,4.15625 -4.28125,4.15625 -2.95319,0 -4.45318,-2.82812 -4.5,-8.5 -6e-5,-2.43749 0.15618,-6.04686 0.4375,-10.78125 0.28118,-4.78123 0.40619,-8.34372 0.40625,-10.6875 -6e-5,-12.74996 -3.26569,-19.12495 -9.78125,-19.125 -5.29693,5e-5 -9.23442,3.26567 -11.8125,9.78125 0.4687,2.57816 0.71871,5.78128 0.71875,9.625 -4e-5,3.37503 -0.18754,7.57815 -0.5625,12.59375 -0.37504,4.96876 -0.56254,9.10938 -0.5625,12.4375 -4e-5,2.85938 -1.39066,4.32813 -4.15625,4.375 -3.09378,0 -4.62503,-2.89062 -4.625,-8.65625 -3e-5,-0.74999 0.18746,-4.31249 0.5625,-10.6875 0.28121,-4.78123 0.40622,-8.3281 0.40625,-10.625 -3e-5,-12.74996 -3.20316,-19.12495 -9.625,-19.125 -4.78127,5e-5 -8.59377,2.87505 -11.40625,8.59375 -0.0938,5.20316 -0.12501,16.18752 -0.125,32.96875 -10e-6,5.20313 -1.48438,7.8125 -4.4375,7.8125 -2.71875,0 -4.06251,-1.875 -4.0625,-5.625 l 0,-23.90625 c 0.18749,-7.49996 0.29687,-15.99995 0.34375,-25.46875 2.39062,-1.35932 4.34374,-2.03119 5.84375,-2.03125 1.54686,6e-5 2.21874,1.23443 2.03125,3.71875 3.56248,-3.09369 7.53123,-4.60932 11.9375,-4.5625 z"
           style="font-size:144px;fill:none"
           inkscape:connector-curvature="0" />
      </g>
      <rect
         y="357.70966"
         x="577.77985"
         height="176.76625"
         width="176.76627"
         id="rect3077-2-9-0-55"
         style="fill:none;stroke:#000000;stroke-width:0.39909893;stroke-linecap:butt;stroke-linejoin:miter;stroke-miterlimit:4;stroke-opacity:1;stroke-dasharray:none;stroke-dashoffset:3" />
    </g>
    <g
       style="font-size:40px;font-style:normal;font-variant:normal;font-weight:normal;font-stretch:normal;line-height:125%;letter-spacing:0px;word-spacing:0px;fill:none;stroke:none;font-family:SF Cartoonist Hand;-inkscape-font-specification:SF Cartoonist Hand"
       id="text3033-2"
       transform="translate(-651.21056,258.25075)" />
    <g
       id="g3912"
       transform="translate(207.88698,404.69864)">
      <g
         transform="translate(44.633683,166.09294)"
         id="text3037"
         style="font-size:40px;font-style:normal;font-variant:normal;font-weight:normal;font-stretch:normal;line-height:125%;letter-spacing:0px;word-spacing:0px;fill:none;stroke:none;font-family:SF Cartoonist Hand;-inkscape-font-specification:SF Cartoonist Hand">
        <path
           id="path3436"
           transform="translate(-44.633683,-166.09294)"
           d="M 16.71875,172.53125 C 6.90379,172.53125 -1,180.43504 -1,190.25 l 0,105.875 c 0,9.81497 7.90379,17.71875 17.71875,17.71875 l 105.90625,0 c 9.81496,0 17.71875,-7.90378 17.71875,-17.71875 l 0,-105.875 c 0,-9.81496 -7.90379,-17.71875 -17.71875,-17.71875 l -105.90625,0 z m 54.125,41.71875 c 13.921833,6e-5 20.874952,9.35942 20.875,28.0625 -4.8e-5,3.46878 -0.187548,7.68752 -0.5625,12.65625 -0.468797,6.23439 -0.687547,10.39064 -0.6875,12.5 -4.7e-5,1.35938 -0.421922,2.45313 -1.21875,3.25 -0.843796,0.84375 -1.828169,1.25 -3,1.25 -2.953165,0 -4.437539,-2.85938 -4.4375,-8.625 -3.9e-5,-2.48436 0.124961,-6.03124 0.40625,-10.625 0.37496,-6.1406 0.56246,-9.67185 0.5625,-10.5625 -4e-5,-12.93746 -4.062536,-19.4062 -12.21875,-19.40625 -6.328146,5e-5 -11.125016,3.07817 -14.40625,9.21875 l 0,31.9375 c -1.3e-5,5.48437 -1.484387,8.21875 -4.4375,8.21875 -2.718756,0 -4.093754,-1.875 -4.09375,-5.625 l 0,-23.90625 c 0.187495,-7.49996 0.32812,-15.99996 0.375,-25.46875 2.390618,-1.35932 4.218741,-2.03119 5.53125,-2.03125 1.734363,6e-5 2.531237,1.59381 2.34375,4.78125 4.312483,-3.74994 9.296853,-5.62494 14.96875,-5.625 z"
           style="font-size:144px;fill:none"
           inkscape:connector-curvature="0" />
      </g>
      <rect
         y="154.80496"
         x="-18.711054"
         height="176.76625"
         width="176.76627"
         id="rect3077-2-9-0-55-1"
         style="fill:none;stroke:#000000;stroke-width:0.39909893;stroke-linecap:butt;stroke-linejoin:miter;stroke-miterlimit:4;stroke-opacity:1;stroke-dasharray:none;stroke-dashoffset:3" />
    </g>
    <g
       style="font-size:40px;font-style:normal;font-variant:normal;font-weight:normal;font-stretch:normal;line-height:125%;letter-spacing:0px;word-spacing:0px;fill:none;stroke:none;font-family:SF Cartoonist Hand;-inkscape-font-specification:SF Cartoonist Hand"
       id="text3033-2-8"
       transform="translate(-458.08441,259.47308)" />
    <g
       id="g3917"
       transform="translate(203.73717,403.47632)">
      <g
         transform="translate(179.79197,165.27412)"
         id="text3041"
         style="font-size:40px;font-style:normal;font-variant:normal;font-weight:normal;font-stretch:normal;line-height:125%;letter-spacing:0px;word-spacing:0px;fill:none;stroke:none;font-family:SF Cartoonist Hand;-inkscape-font-specification:SF Cartoonist Hand">
        <path
           id="path3433"
           transform="translate(-179.79197,-165.27412)"
           d="m 209.84375,173.75 c -9.81496,0 -17.71875,7.90379 -17.71875,17.71875 l 0,105.875 c 0,9.81497 7.90379,17.71875 17.71875,17.71875 l 105.90625,0 c 9.81496,0 17.71875,-7.90378 17.71875,-17.71875 l 0,-105.875 c 0,-9.81496 -7.90379,-17.71875 -17.71875,-17.71875 l -105.90625,0 z m 53.75,41.59375 c 7.21872,6e-5 12.93746,3.01568 17.15625,9.0625 3.56245,5.29692 5.3437,11.73441 5.34375,19.28125 -5e-5,8.06252 -1.87505,14.82814 -5.625,20.3125 -4.31254,6.32813 -10.28128,9.5 -17.875,9.5 -7.21877,0 -12.93751,-2.70312 -17.15625,-8.09375 -3.9375,-5.06249 -5.90625,-11.21873 -5.90625,-18.4375 0,-8.24997 1.9375,-15.32808 5.78125,-21.28125 4.40624,-6.89057 10.49998,-10.34369 18.28125,-10.34375 z m -0.15625,8.78125 c -10.17189,5e-5 -15.25001,7.29692 -15.25,21.875 -1e-5,12.46877 4.95311,18.68751 14.84375,18.6875 4.78122,10e-6 8.46871,-2.43749 11.09375,-7.3125 2.10934,-3.84373 3.15621,-8.3906 3.15625,-13.6875 -4e-5,-4.78122 -1.07816,-9.06246 -3.28125,-12.8125 -2.48441,-4.49995 -6.01566,-6.74995 -10.5625,-6.75 z"
           style="font-size:144px;fill:none"
           inkscape:connector-curvature="0" />
      </g>
      <rect
         y="156.02728"
         x="174.4151"
         height="176.76625"
         width="176.76627"
         id="rect3077-2-9-0-55-1-0"
         style="fill:none;stroke:#000000;stroke-width:0.39909893;stroke-linecap:butt;stroke-linejoin:miter;stroke-miterlimit:4;stroke-opacity:1;stroke-dasharray:none;stroke-dashoffset:3" />
    </g>
    <g
       style="font-size:40px;font-style:normal;font-variant:normal;font-weight:normal;font-stretch:normal;line-height:125%;letter-spacing:0px;word-spacing:0px;fill:none;stroke:none;font-family:SF Cartoonist Hand;-inkscape-font-specification:SF Cartoonist Hand"
       id="text3033-2-7"
       transform="translate(-262.51363,261.91771)" />
    <g
       id="g3922"
       transform="translate(197.14279,401.03168)">
      <g
         transform="translate(318.99043,156.37608)"
         id="text3041-2"
         style="font-size:40px;font-style:normal;font-variant:normal;font-weight:normal;font-stretch:normal;line-height:125%;letter-spacing:0px;word-spacing:0px;fill:none;stroke:none;font-family:SF Cartoonist Hand;-inkscape-font-specification:SF Cartoonist Hand">
        <path
           id="path3406"
           transform="translate(-318.99043,-156.37608)"
           d="m 405.4375,176.1875 c -9.81496,0 -17.71875,7.90379 -17.71875,17.71875 l 0,105.875 c 0,9.81497 7.90379,17.71875 17.71875,17.71875 l 105.90625,0 c 9.81496,0 17.71875,-7.90378 17.71875,-17.71875 l 0,-105.875 c 0,-9.81496 -7.90379,-17.71875 -17.71875,-17.71875 l -105.90625,0 z m 33.59375,29.84375 c 2.85937,6e-5 4.34374,1.45318 4.4375,4.3125 3.18749,-2.48432 7.21873,-3.74994 12.09375,-3.75 7.49997,6e-5 13.85934,3.17193 19.0625,9.5 4.87495,6.04692 7.31245,12.87504 7.3125,20.46875 -5e-5,7.21877 -2.12504,13.43751 -6.34375,18.6875 -4.59379,5.57812 -10.34379,8.375 -17.28125,8.375 -4.21877,0 -8.53127,-1.23437 -12.9375,-3.71875 -2e-5,1.82813 0.0313,3.70313 0.125,5.625 l 0,5.40625 c -10e-6,5.76562 -0.31252,10.53123 -0.96875,14.28125 -1.26564,1.6406 -2.67189,2.46872 -4.21875,2.46875 -2.39063,-3e-5 -3.59375,-3.07814 -3.59375,-9.21875 0,-0.23439 -0.0156,-0.70314 -0.0625,-1.40625 l 0,-1.6875 c -10e-6,-0.70313 0.0156,-1.42189 0.0625,-2.125 0.0937,-1.54689 0.15624,-3.18751 0.15625,-4.96875 -10e-6,-7.3125 -0.35938,-17.03124 -1.0625,-29.125 -0.65626,-12.09371 -1,-21.7812 -1,-29.09375 0,-2.67182 1.40625,-4.03119 4.21875,-4.03125 z m 15.4375,9.09375 c -4.66097,0.2692 -8.02833,2.5684 -10.09375,6.875 0.28124,6.79691 0.43749,15.78128 0.4375,26.9375 4.87498,3.84376 9.37498,5.75001 13.5,5.75 4.21872,1e-5 7.81247,-1.99999 10.8125,-6.03125 2.57809,-3.60936 3.87496,-7.6406 3.875,-12.09375 -4e-5,-5.29684 -1.51567,-10.15621 -4.5625,-14.5625 -3.37504,-4.5937 -7.70316,-6.87495 -13,-6.875 -0.32227,0 -0.65802,-0.018 -0.96875,0 z"
           style="font-size:144px;fill:none"
           inkscape:connector-curvature="0" />
      </g>
      <rect
         y="158.47192"
         x="369.98587"
         height="176.76625"
         width="176.76627"
         id="rect3077-2-9-0-55-1-1"
         style="fill:none;stroke:#000000;stroke-width:0.39909893;stroke-linecap:butt;stroke-linejoin:miter;stroke-miterlimit:4;stroke-opacity:1;stroke-dasharray:none;stroke-dashoffset:3" />
    </g>
    <g
       style="font-size:40px;font-style:normal;font-variant:normal;font-weight:normal;font-stretch:normal;line-height:125%;letter-spacing:0px;word-spacing:0px;fill:none;stroke:none;font-family:SF Cartoonist Hand;-inkscape-font-specification:SF Cartoonist Hand"
       id="text3033-2-70"
       transform="translate(-66.942861,260.6954)" />
    <g
       id="g3927"
       transform="translate(-565.35709,590.49087)">
      <g
         transform="translate(458.60513,154.6351)"
         id="text3041-8"
         style="font-size:40px;font-style:normal;font-variant:normal;font-weight:normal;font-stretch:normal;line-height:125%;letter-spacing:0px;word-spacing:0px;fill:none;stroke:none;font-family:SF Cartoonist Hand;-inkscape-font-specification:SF Cartoonist Hand">
        <path
           id="path3403"
           transform="translate(-458.60513,-154.6351)"
           d="m 601,174.96875 c -9.81496,0 -17.71875,7.90379 -17.71875,17.71875 l 0,105.875 c 0,9.81497 7.90379,17.71875 17.71875,17.71875 l 105.90625,0 c 9.81496,0 17.71875,-7.90378 17.71875,-17.71875 l 0,-105.875 c 0,-9.81496 -7.90379,-17.71875 -17.71875,-17.71875 l -105.90625,0 z m 71.5,29.71875 c 2.81245,6e-5 4.2187,2.06256 4.21875,6.1875 l 0,24.875 0,48.53125 c -3.0938,1.54685 -5.29692,2.31248 -6.65625,2.3125 -1.17191,-2e-5 -1.73441,-0.76565 -1.6875,-2.3125 l 0,-24.625 c -3.46879,2.29688 -7.31253,3.4375 -11.53125,3.4375 -7.03127,0 -13.09376,-2.54687 -18.15625,-7.65625 -5.01562,-4.96873 -7.53125,-11.09373 -7.53125,-18.40625 0,-7.49997 2.48437,-14.57808 7.40625,-21.1875 5.29686,-7.12494 11.5781,-10.64057 18.84375,-10.59375 4.12497,6e-5 7.87496,1.32818 11.25,4 -0.18754,-3.09369 1.07808,-4.60932 3.84375,-4.5625 z m -14.6875,9.34375 c -4.87502,5e-5 -9.09376,2.75005 -12.65625,8.28125 -3.37501,5.10941 -5.06251,10.15628 -5.0625,15.125 -10e-6,4.78127 1.68749,8.87502 5.0625,12.25 3.37499,3.37501 7.46873,5.06251 12.25,5.0625 4.31247,1e-5 8.15621,-1.93749 11.53125,-5.78125 l 0,-27.5 c -3.18754,-4.9687 -6.90628,-7.43745 -11.125,-7.4375 z"
           style="font-size:144px;fill:none"
           inkscape:connector-curvature="0" />
      </g>
      <rect
         y="157.2496"
         x="565.55664"
         height="176.76625"
         width="176.76627"
         id="rect3077-2-9-0-55-1-3"
         style="fill:none;stroke:#000000;stroke-width:0.39909893;stroke-linecap:butt;stroke-linejoin:miter;stroke-miterlimit:4;stroke-opacity:1;stroke-dasharray:none;stroke-dashoffset:3" />
    </g>
    <g
       style="font-size:40px;font-style:normal;font-variant:normal;font-weight:normal;font-stretch:normal;line-height:125%;letter-spacing:0px;word-spacing:0px;fill:none;stroke:none;font-family:SF Cartoonist Hand;-inkscape-font-specification:SF Cartoonist Hand"
       id="text3033-2-708"
       transform="translate(-653.65519,452.59922)" />
    <g
       id="g3947"
       transform="translate(210.33161,398.58706)">
      <g
         transform="translate(-190.95384,354.05113)"
         id="text3041-3"
         style="font-size:40px;font-style:normal;font-variant:normal;font-weight:normal;font-stretch:normal;line-height:125%;letter-spacing:0px;word-spacing:0px;fill:none;stroke:none;font-family:SF Cartoonist Hand;-inkscape-font-specification:SF Cartoonist Hand">
        <path
           id="path3400"
           transform="translate(190.95384,-354.05113)"
           d="m 14.28125,366.875 c -9.81496,0 -17.71875,7.90379 -17.71875,17.71875 l 0,105.875 c 0,9.81497 7.90379,17.71875 17.71875,17.71875 l 105.90625,0 c 9.81496,0 17.71875,-7.90378 17.71875,-17.71875 l 0,-105.875 c 0,-9.81496 -7.90379,-17.71875 -17.71875,-17.71875 l -105.90625,0 z m 35.3125,42 c 2.76561,6e-5 4.15623,1.93755 4.15625,5.78125 -2e-5,1.17192 -0.06252,2.18755 -0.15625,3.03125 5.29686,-5.76557 11.0156,-8.65619 17.15625,-8.65625 6.32809,6e-5 11.12496,2.64068 14.40625,7.9375 2.76558,4.31254 4.1562,9.85941 4.15625,16.65625 -5e-5,2.76566 -1.32817,4.1719 -4,4.21875 -2.57817,3e-5 -4.23441,-1.71872 -4.9375,-5.1875 -0.75004,-4.03121 -1.34379,-7.29683 -1.8125,-9.78125 -1.31254,-3.4687 -3.76566,-5.18745 -7.375,-5.1875 -4.31253,5e-5 -8.40627,1.9063 -12.25,5.75 -3.93751,3.93754 -5.90626,8.03128 -5.90625,12.25 l 0,28.46875 c -2.39063,1.35937 -4.29689,2.03125 -5.75,2.03125 -1.35938,0 -2.01563,-1.32813 -1.96875,-4 -1e-5,-0.375 -0.04685,-1.3125 -0.09375,-2.8125 -0.0469,-1.49999 -0.0625,-2.79686 -0.0625,-3.875 l 0,-35.5 c 0,-3.18745 0.1875,-5.60932 0.5625,-7.25 0.56249,-2.57807 1.85937,-3.87494 3.875,-3.875 z"
           style="font-size:144px;fill:none"
           inkscape:connector-curvature="0" />
      </g>
      <rect
         y="349.15341"
         x="-21.155685"
         height="176.76625"
         width="176.76627"
         id="rect3077-2-9-0-55-1-8"
         style="fill:none;stroke:#000000;stroke-width:0.39909893;stroke-linecap:butt;stroke-linejoin:miter;stroke-miterlimit:4;stroke-opacity:1;stroke-dasharray:none;stroke-dashoffset:3" />
    </g>
    <g
       style="font-size:40px;font-style:normal;font-variant:normal;font-weight:normal;font-stretch:normal;line-height:125%;letter-spacing:0px;word-spacing:0px;fill:none;stroke:none;font-family:SF Cartoonist Hand;-inkscape-font-specification:SF Cartoonist Hand"
       id="text3033-2-6"
       transform="translate(-460.52905,453.82153)" />
    <g
       id="g3942"
       transform="translate(206.18181,397.36471)">
      <g
         transform="translate(-49.680215,354.47168)"
         id="text3045"
         style="font-size:40px;font-style:normal;font-variant:normal;font-weight:normal;font-stretch:normal;line-height:125%;letter-spacing:0px;word-spacing:0px;fill:none;stroke:none;font-family:SF Cartoonist Hand;-inkscape-font-specification:SF Cartoonist Hand">
        <path
           id="path3430"
           transform="translate(49.680215,-354.47168)"
           d="m 207.40625,368.09375 c -9.81496,0 -17.71875,7.90379 -17.71875,17.71875 l 0,105.875 c 0,9.81497 7.90379,17.71875 17.71875,17.71875 l 105.90625,0 c 9.81496,0 17.71875,-7.90378 17.71875,-17.71875 l 0,-105.875 c 0,-9.81496 -7.90379,-17.71875 -17.71875,-17.71875 l -105.90625,0 z m 52.125,41.8125 c 2.5781,6e-5 5.62497,0.59381 9.1875,1.8125 4.21871,1.45318 6.34371,3.32818 6.34375,5.625 -4e-5,1.07817 -0.43754,2.12505 -1.28125,3.15625 -0.84379,0.93755 -1.89066,1.45317 -3.15625,1.5 -0.84378,5e-5 -2.43753,-0.4687 -4.78125,-1.40625 -2.2969,-0.98433 -4.20315,-1.49995 -5.75,-1.5 -5.57814,5e-5 -9.00001,1.39067 -10.21875,4.15625 1.73436,2.67192 5.67186,5.50004 11.8125,8.5 6.79684,3.37503 11.35933,5.9844 13.65625,7.8125 4.4062,3.56252 6.59371,8.15627 6.59375,13.78125 -4e-5,4.45314 -2.15629,8.07813 -6.46875,10.84375 -3.75003,2.29688 -8.00003,3.4375 -12.78125,3.4375 -9.89065,0 -17.85939,-3.8125 -23.90625,-11.40625 0.84374,-4.03124 2.04687,-6.03123 3.59375,-6.03125 -0.0469,2e-5 -0.0937,0.0156 -0.0937,0.0625 0,0.28127 2.23437,1.79689 6.6875,4.5625 4.96873,3.09376 9.4531,4.64063 13.4375,4.59375 6.04684,10e-6 9.68747,-1.84373 10.90625,-5.5 -0.0938,-3.93748 -2.96879,-7.60935 -8.59375,-11.03125 l -15.46875,-8.5 c -5.57813,-3.56246 -8.32813,-7.28121 -8.28125,-11.125 0,-4.0312 2.15625,-7.32807 6.46875,-9.90625 3.74999,-2.29682 7.78123,-3.43744 12.09375,-3.4375 z"
           style="font-size:144px;fill:none"
           inkscape:connector-curvature="0" />
      </g>
      <rect
         y="350.37576"
         x="171.97046"
         height="176.76625"
         width="176.76627"
         id="rect3077-2-9-0-55-1-6"
         style="fill:none;stroke:#000000;stroke-width:0.39909893;stroke-linecap:butt;stroke-linejoin:miter;stroke-miterlimit:4;stroke-opacity:1;stroke-dasharray:none;stroke-dashoffset:3" />
    </g>
    <g
       style="font-size:40px;font-style:normal;font-variant:normal;font-weight:normal;font-stretch:normal;line-height:125%;letter-spacing:0px;word-spacing:0px;fill:none;stroke:none;font-family:SF Cartoonist Hand;-inkscape-font-specification:SF Cartoonist Hand"
       id="text3033-2-68"
       transform="translate(-256.40205,457.48849)" />
    <g
       id="g3937"
       transform="translate(191.03122,393.69778)">
      <g
         transform="translate(107.05571,373.28485)"
         id="text3049"
         style="font-size:40px;font-style:normal;font-variant:normal;font-weight:normal;font-stretch:normal;line-height:125%;letter-spacing:0px;word-spacing:0px;fill:none;stroke:none;font-family:SF Cartoonist Hand;-inkscape-font-specification:SF Cartoonist Hand">
        <path
           id="path3427"
           transform="translate(-107.05571,-373.28485)"
           d="m 411.53125,371.78125 c -9.81496,0 -17.71875,7.90379 -17.71875,17.71875 l 0,105.875 c 0,9.81497 7.90379,17.71875 17.71875,17.71875 l 105.90625,0 c 9.81496,0 17.71875,-7.90378 17.71875,-17.71875 l 0,-105.875 c 0,-9.81496 -7.90379,-17.71875 -17.71875,-17.71875 l -105.90625,0 z m 52.1875,25.5625 c 2.67185,9e-5 3.99998,1.26571 4,3.75 l 0,27.625 c 3.65622,-0.0937 8.17185,-0.15619 13.5625,-0.15625 2.76559,6e-5 4.15621,1.31256 4.15625,3.9375 -4e-5,2.39068 -1.39066,3.87505 -4.15625,4.4375 -1.45316,0.2813 -5.90629,0.43755 -13.40625,0.4375 l 0,47.9375 c -2.8594,1.45313 -5.07814,2.1875 -6.625,2.1875 -1.17189,0 -1.73439,-0.73437 -1.6875,-2.1875 -10e-6,-0.5625 0.0156,-1.96875 0.0625,-4.21875 0.0469,-2.24999 0.0937,-4.20311 0.0937,-5.84375 -2e-5,-0.0937 0.0156,-4.32811 0.0625,-12.71875 0.0469,-8.43747 0.0625,-16.78121 0.0625,-25.03125 l -4.90625,0 c -4.21876,5e-5 -7.45312,-0.18745 -9.65625,-0.5625 -1.17187,-2.29682 -1.75,-3.98432 -1.75,-5.0625 0,-0.74994 0.64062,-1.43744 1.90625,-2.09375 1.17187,-0.56244 5.96874,-0.89057 14.40625,-0.9375 l 0,-27.75 c -1e-5,-2.48429 1.29686,-3.74991 3.875,-3.75 z"
           style="font-size:144px;fill:none"
           inkscape:connector-curvature="0" />
      </g>
      <rect
         y="354.04269"
         x="376.09744"
         height="176.76625"
         width="176.76627"
         id="rect3077-2-9-0-55-1-5"
         style="fill:none;stroke:#000000;stroke-width:0.39909893;stroke-linecap:butt;stroke-linejoin:miter;stroke-miterlimit:4;stroke-opacity:1;stroke-dasharray:none;stroke-dashoffset:3" />
    </g>
    <g
       style="font-size:40px;font-style:normal;font-variant:normal;font-weight:normal;font-stretch:normal;line-height:125%;letter-spacing:0px;word-spacing:0px;fill:none;stroke:none;font-family:SF Cartoonist Hand;-inkscape-font-specification:SF Cartoonist Hand"
       id="text3033-2-72"
       transform="translate(-58.386634,453.82153)" />
    <g
       id="g3932"
       transform="translate(-573.9133,588.04623)">
      <g
         transform="translate(252.04425,353.9379)"
         id="text3053"
         style="font-size:40px;font-style:normal;font-variant:normal;font-weight:normal;font-stretch:normal;line-height:125%;letter-spacing:0px;word-spacing:0px;fill:none;stroke:none;font-family:SF Cartoonist Hand;-inkscape-font-specification:SF Cartoonist Hand">
        <path
           id="path3424"
           transform="translate(-252.04425,-353.9379)"
           d="m 609.5625,368.09375 c -9.81496,0 -17.71875,7.90379 -17.71875,17.71875 l 0,105.875 c 0,9.81497 7.90379,17.71875 17.71875,17.71875 l 105.90625,0 c 9.81496,0 17.71875,-7.90378 17.71875,-17.71875 l 0,-105.875 c 0,-9.81496 -7.90379,-17.71875 -17.71875,-17.71875 l -105.90625,0 z M 644.21875,409.75 c 3.28124,6e-5 4.93748,1.42193 4.9375,4.28125 -2e-5,1.92193 -0.17189,4.7813 -0.5,8.53125 -0.28126,3.75004 -0.43752,6.51566 -0.4375,8.34375 -2e-5,6.70316 0.73436,12.40627 2.1875,17.09375 2.29686,7.21876 5.95311,10.84376 10.96875,10.84375 4.49997,10e-6 8.34372,-2.21874 11.53125,-6.625 2.71871,-3.89061 4.29683,-8.21873 4.71875,-13 0.0937,-1.4531 0.12495,-5.95309 0.125,-13.5 -5e-5,-5.76558 0.35933,-10.17182 1.0625,-13.21875 1.82808,-1.07807 3.49995,-1.62494 5,-1.625 1.64057,6e-5 2.4687,1.9688 2.46875,5.90625 -5e-5,2.10942 -0.0625,3.98442 -0.15625,5.625 l 0,25.46875 c -5e-5,0.37502 0.0156,1.45314 0.0625,3.28125 0.0468,1.82814 0.0937,3.39063 0.0937,4.65625 l 0,8.09375 c -5e-5,2.57813 -1.29692,3.84375 -3.875,3.84375 -2.10942,0 -3.48442,-1.07812 -4.09375,-3.28125 -0.2813,-0.84374 -0.40629,-2.81249 -0.40625,-5.90625 -4.40629,6.14063 -9.92191,9.1875 -16.53125,9.1875 -15.09376,0 -22.62501,-13.96874 -22.625,-41.90625 -10e-6,-6.70308 0.40625,-11.04682 1.25,-13.0625 0.89062,-2.01557 2.29687,-3.03119 4.21875,-3.03125 z"
           style="font-size:144px;fill:none"
           inkscape:connector-curvature="0" />
      </g>
      <rect
         y="350.37576"
         x="574.11285"
         height="176.76625"
         width="176.76627"
         id="rect3077-2-9-0-55-1-4"
         style="fill:none;stroke:#000000;stroke-width:0.39909893;stroke-linecap:butt;stroke-linejoin:miter;stroke-miterlimit:4;stroke-opacity:1;stroke-dasharray:none;stroke-dashoffset:3" />
    </g>
    <g
       style="font-size:40px;font-style:normal;font-variant:normal;font-weight:normal;font-stretch:normal;line-height:125%;letter-spacing:0px;word-spacing:0px;fill:none;stroke:none;font-family:SF Cartoonist Hand;-inkscape-font-specification:SF Cartoonist Hand"
       id="text3033-2-689"
       transform="translate(-643.87665,642.05841)" />
    <g
       id="g3952"
       transform="translate(200.55309,399.80938)">
      <g
         transform="translate(-397.94151,542.88448)"
         id="text3057"
         style="font-size:40px;font-style:normal;font-variant:normal;font-weight:normal;font-stretch:normal;line-height:125%;letter-spacing:0px;word-spacing:0px;fill:none;stroke:none;font-family:SF Cartoonist Hand;-inkscape-font-specification:SF Cartoonist Hand">
        <path
           id="path3421"
           transform="translate(397.94151,-542.88448)"
           d="m 24.0625,556.34375 c -9.81496,0 -17.71875,7.90379 -17.71875,17.71875 l 0,105.875 c 0,9.81497 7.90379,17.71875 17.71875,17.71875 l 105.90625,0 c 9.81496,0 17.71875,-7.90378 17.71875,-17.71875 l 0,-105.875 c 0,-9.81496 -7.90379,-17.71875 -17.71875,-17.71875 l -105.90625,0 z m 71.96875,41.25 c 2.85933,6e-5 4.28121,1.28131 4.28125,3.8125 -4e-5,4.68755 -2.43754,13.40629 -7.3125,26.15625 -3.93753,10.45314 -7.68753,19.06251 -11.25,25.8125 -1.1719,2.01563 -2.50003,3 -4,3 -1.45315,0 -2.8594,-0.95313 -4.21875,-2.875 -1.31252,-1.92187 -2.5469,-4.5625 -3.71875,-7.9375 L 66.78125,637.25 59.75,620.09375 c -2.20313,-5.39058 -4.20313,-11.23433 -6.03125,-17.5625 1.92187,-2.29682 3.62499,-3.43744 5.125,-3.4375 0.65624,6e-5 1.29686,0.46881 1.90625,1.40625 0.56249,1.54693 1.24999,3.42193 2.09375,5.625 0.89061,2.20317 1.98436,4.7813 3.25,7.78125 l 11.8125,27.65625 c 1.64059,-4.12498 5.5156,-15.1406 11.65625,-33 0.37496,-1.64058 1.21871,-4.31245 2.53125,-8.0625 1.07809,-1.92182 2.39058,-2.90619 3.9375,-2.90625 z"
           style="font-size:144px;fill:none"
           inkscape:connector-curvature="0" />
      </g>
      <rect
         y="538.61261"
         x="-11.377154"
         height="176.76625"
         width="176.76627"
         id="rect3077-2-9-0-55-1-50"
         style="fill:none;stroke:#000000;stroke-width:0.39909893;stroke-linecap:butt;stroke-linejoin:miter;stroke-miterlimit:4;stroke-opacity:1;stroke-dasharray:none;stroke-dashoffset:3" />
    </g>
    <g
       style="font-size:40px;font-style:normal;font-variant:normal;font-weight:normal;font-stretch:normal;line-height:125%;letter-spacing:0px;word-spacing:0px;fill:none;stroke:none;font-family:SF Cartoonist Hand;-inkscape-font-specification:SF Cartoonist Hand"
       id="text3033-2-0"
       transform="translate(-448.30587,645.72536)" />
    <g
       id="g3957"
       transform="translate(193.95863,396.14239)">
      <g
         transform="translate(-266.13125,545.75345)"
         id="text3061"
         style="font-size:40px;font-style:normal;font-variant:normal;font-weight:normal;font-stretch:normal;line-height:125%;letter-spacing:0px;word-spacing:0px;fill:none;stroke:none;font-family:SF Cartoonist Hand;-inkscape-font-specification:SF Cartoonist Hand">
        <path
           id="path3418"
           transform="translate(266.13125,-545.75345)"
           d="m 219.625,560 c -9.81496,0 -17.71875,7.90379 -17.71875,17.71875 l 0,105.875 c 0,9.81497 7.90379,17.71875 17.71875,17.71875 l 105.90625,0 c 9.81496,0 17.71875,-7.90378 17.71875,-17.71875 l 0,-105.875 C 343.25,567.90379 335.34621,560 325.53125,560 L 219.625,560 z m 53.3125,41.28125 c 1.35934,6e-5 2.60933,0.76568 3.78125,2.3125 1.26558,1.73443 4.68745,14.09379 10.21875,37.0625 0.56245,-1.8281 2.93745,-10.06247 7.15625,-24.6875 0.37495,-2.39058 1.48432,-6.32807 3.3125,-11.8125 1.07806,-1.92182 2.32806,-2.87494 3.78125,-2.875 2.6718,6e-5 4.03118,1.31256 4.03125,3.9375 -7e-5,2.29693 -2.25007,11.12504 -6.75,26.5 -4.59381,15.56252 -7.39068,24.00001 -8.375,25.3125 -0.93755,1.54688 -2.17193,2.31251 -3.71875,2.3125 -1.54692,10e-6 -2.75005,-0.92188 -3.59375,-2.75 -0.37505,-0.9375 -1.04692,-3.79687 -2.03125,-8.625 -0.37505,-2.01561 -2.95317,-11.5781 -7.6875,-28.6875 l -7.03125,25.65625 c -0.46878,2.57814 -1.70315,6.60939 -3.71875,12.09375 -1.07815,2.01563 -2.57814,3.03125 -4.5,3.03125 -1.73439,0 -3.06252,-0.92187 -4,-2.75 -2.29689,-3.74999 -5.03126,-12.09374 -8.21875,-25.03125 -2.67188,-10.64059 -4.54688,-19.6562 -5.625,-27.0625 1.82812,-1.54682 3.54687,-2.34369 5.1875,-2.34375 1.73437,6e-5 3.57811,3.9063 5.5,11.6875 l 3.15625,14.6875 c 0.93748,3.93753 2.3281,8.82815 4.15625,14.6875 l 7.65625,-28.25 c 0.56247,-2.76558 1.76559,-6.60932 3.59375,-11.53125 1.07809,-1.92182 2.31247,-2.87494 3.71875,-2.875 z"
           style="font-size:144px;fill:none"
           inkscape:connector-curvature="0" />
      </g>
      <rect
         y="542.2796"
         x="184.19363"
         height="176.76625"
         width="176.76627"
         id="rect3077-2-9-0-55-1-80"
         style="fill:none;stroke:#000000;stroke-width:0.39909893;stroke-linecap:butt;stroke-linejoin:miter;stroke-miterlimit:4;stroke-opacity:1;stroke-dasharray:none;stroke-dashoffset:3" />
    </g>
    <g
       style="font-size:40px;font-style:normal;font-variant:normal;font-weight:normal;font-stretch:normal;line-height:125%;letter-spacing:0px;word-spacing:0px;fill:none;stroke:none;font-family:SF Cartoonist Hand;-inkscape-font-specification:SF Cartoonist Hand"
       id="text3033-2-4"
       transform="translate(-250.29046,649.39231)" />
    <g
       id="g3962"
       transform="translate(184.91962,392.47546)">
      <g
         transform="translate(-133.15094,551.67208)"
         id="text3065"
         style="font-size:40px;font-style:normal;font-variant:normal;font-weight:normal;font-stretch:normal;line-height:125%;letter-spacing:0px;word-spacing:0px;fill:none;stroke:none;font-family:SF Cartoonist Hand;-inkscape-font-specification:SF Cartoonist Hand">
        <path
           id="path3415"
           transform="translate(133.15094,-551.67208)"
           d="m 417.65625,563.6875 c -9.81496,0 -17.71875,7.90379 -17.71875,17.71875 l 0,105.875 c 0,9.81497 7.90379,17.71875 17.71875,17.71875 l 105.90625,0 c 9.81496,0 17.71875,-7.90378 17.71875,-17.71875 l 0,-105.875 c 0,-9.81496 -7.90379,-17.71875 -17.71875,-17.71875 l -105.90625,0 z M 488.25,605.40625 c 0.15308,-0.0146 0.3164,-0.006 0.46875,0 1.26558,6e-5 2.31245,0.37506 3.15625,1.125 0.93745,0.84381 1.4062,1.79693 1.40625,2.875 -5e-5,1.26568 -6.00005,10.06254 -18,26.375 3.84371,5.39065 7.40621,10.09377 10.6875,14.125 1.07808,1.07814 2.85933,3.23438 5.34375,6.46875 0.74995,1.07813 1.12495,1.93751 1.125,2.59375 -5e-5,1.26563 -0.37505,2.28125 -1.125,3.03125 -0.8438,0.84375 -1.79692,1.25 -2.875,1.25 -2.57816,0 -8.57816,-6.85937 -18,-20.59375 L 456,661.84375 c -1.45314,0.5625 -2.87501,0.84375 -4.28125,0.84375 -2.53126,-0.0469 -3.78125,-1.39062 -3.78125,-4.0625 0,-0.9375 0.48437,-2.07812 1.46875,-3.4375 l 15.40625,-20.625 c -4.96876,-7.31246 -10.59376,-14.82808 -16.875,-22.5625 0.84375,-3.84369 2.09374,-5.74994 3.78125,-5.75 2.20311,6e-5 8.26561,7.14067 18.15625,21.4375 l 10.1875,-13.78125 c 1.07808,-1.64057 2.70309,-3.87495 4.90625,-6.6875 1.10738,-1.10737 2.20969,-1.70992 3.28125,-1.8125 z"
           style="font-size:144px;fill:none"
           inkscape:connector-curvature="0" />
      </g>
      <rect
         y="545.94653"
         x="382.20905"
         height="176.76625"
         width="176.76627"
         id="rect3077-2-9-0-55-1-40"
         style="fill:none;stroke:#000000;stroke-width:0.39909893;stroke-linecap:butt;stroke-linejoin:miter;stroke-miterlimit:4;stroke-opacity:1;stroke-dasharray:none;stroke-dashoffset:3" />
    </g>
    <g
       style="font-size:40px;font-style:normal;font-variant:normal;font-weight:normal;font-stretch:normal;line-height:125%;letter-spacing:0px;word-spacing:0px;fill:none;stroke:none;font-family:SF Cartoonist Hand;-inkscape-font-specification:SF Cartoonist Hand"
       id="text3033-2-69"
       transform="translate(-51.052736,649.39231)" />
    <g
       id="g3967"
       transform="translate(-392.27084,580.16125)">
      <g
         transform="translate(6.2484075,540.55861)"
         id="text3069"
         style="font-size:40px;font-style:normal;font-variant:normal;font-weight:normal;font-stretch:normal;line-height:125%;letter-spacing:0px;word-spacing:0px;fill:none;stroke:none;font-family:SF Cartoonist Hand;-inkscape-font-specification:SF Cartoonist Hand">
        <path
           id="path3412"
           transform="translate(-6.2484075,-540.55861)"
           d="m 616.875,563.6875 c -9.81496,0 -17.71875,7.90379 -17.71875,17.71875 l 0,105.875 c 0,9.81497 7.90379,17.71875 17.71875,17.71875 l 105.90625,0 C 732.59621,705 740.5,697.09622 740.5,687.28125 l 0,-105.875 c 0,-9.81496 -7.90379,-17.71875 -17.71875,-17.71875 l -105.90625,0 z m 74.21875,29.75 c 1.26557,6e-5 2.3437,0.37506 3.1875,1.125 1.07807,0.84381 1.57807,1.79693 1.53125,2.875 -6e-5,0.14068 -0.12505,0.5938 -0.40625,1.34375 -5.29692,13.07816 -11.17192,26.12503 -17.59375,39.15625 -7.68753,15.65625 -14.46877,28.09373 -20.375,37.28125 l -0.65625,0 c -4.21876,-3e-5 -6.31251,-0.82815 -6.3125,-2.46875 -10e-6,-0.18752 4.57811,-8.81251 13.71875,-25.875 L 648.5,609.53125 c -1.45313,-2.85933 -3.01563,-6.89058 -4.65625,-12.09375 1.73437,-2.57807 3.48437,-3.84369 5.21875,-3.84375 0.46875,6e-5 0.9375,0.28131 1.40625,0.84375 0.93749,1.35943 2.81249,5.32818 5.625,11.9375 l 13.28125,30.25 c 5.57809,-11.15622 9.95309,-20.76559 13.09375,-28.78125 0.93746,-2.67183 2.74995,-6.81245 5.46875,-12.4375 1.07807,-1.35932 2.12495,-2.01557 3.15625,-1.96875 z"
           style="font-size:144px;fill:none"
           inkscape:connector-curvature="0" />
      </g>
      <rect
         y="545.94653"
         x="581.44678"
         height="176.76625"
         width="176.76627"
         id="rect3077-2-9-0-55-1-7"
         style="fill:none;stroke:#000000;stroke-width:0.39909893;stroke-linecap:butt;stroke-linejoin:miter;stroke-miterlimit:4;stroke-opacity:1;stroke-dasharray:none;stroke-dashoffset:3" />
    </g>
    <g
       style="font-size:40px;font-style:normal;font-variant:normal;font-weight:normal;font-stretch:normal;line-height:125%;letter-spacing:0px;word-spacing:0px;fill:none;stroke:none;font-family:SF Cartoonist Hand;-inkscape-font-specification:SF Cartoonist Hand"
       id="text3033-2-1"
       transform="translate(-351.7428,847.40772)" />
    <g
       id="g3972"
       transform="translate(97.39555,382.14581)">
      <g
         transform="translate(-355.72315,759.25261)"
         id="text3073"
         style="font-size:40px;font-style:normal;font-variant:normal;font-weight:normal;font-stretch:normal;line-height:125%;letter-spacing:0px;word-spacing:0px;fill:none;stroke:none;font-family:SF Cartoonist Hand;-inkscape-font-specification:SF Cartoonist Hand">
        <path
           transform="translate(355.72315,-759.25261)"
           id="path3409"
           d="m 316.1875,761.6875 c -9.81496,0 -17.71875,7.90379 -17.71875,17.71875 l 0,105.875 c 0,9.81497 7.90379,17.71875 17.71875,17.71875 l 105.90625,0 c 9.81496,0 17.71875,-7.90378 17.71875,-17.71875 l 0,-105.875 c 0,-9.81496 -7.90379,-17.71875 -17.71875,-17.71875 l -105.90625,0 z m 60.0625,41.71875 5.90625,0 5.78125,0 c 1.07808,6e-5 2.0312,0.45318 2.875,1.34375 0.89057,0.84381 1.3437,1.81256 1.34375,2.9375 -5e-5,0.93755 -1.78129,3.79692 -5.34375,8.53125 l -6.75,8.78125 -10.84375,14.28125 c -3.84377,4.96877 -7.71876,9.50001 -11.65625,13.625 13.8281,-0.37499 22.84371,-0.56249 27.0625,-0.5625 4.68745,10e-6 7.0312,1.50001 7.03125,4.5 -5e-5,2.95313 -2.62505,4.4375 -7.875,4.4375 -0.28129,0 -0.93754,-0.0156 -1.96875,-0.0625 -0.98442,-0.0469 -1.89066,-0.0937 -2.6875,-0.0937 l -4.6875,0 -10.125,0 c -1.73439,0 -3.75002,0.0468 -6,0.0937 -2.25001,0.0469 -3.65626,0.0625 -4.21875,0.0625 -4.78125,0 -7.35937,-0.64062 -7.78125,-1.90625 -0.0937,-0.28125 -0.15625,-0.875 -0.15625,-1.8125 0,-1.73437 0.57812,-3.48437 1.75,-5.21875 l 10.5,-12.375 20.875,-27.625 -19.40625,0 c -4.17189,5e-5 -7.46876,-0.1562 -9.90625,-0.4375 -1.45313,-2.01557 -2.18751,-3.82807 -2.1875,-5.46875 -10e-6,-1.03119 0.73437,-1.76557 2.1875,-2.1875 2.01562,-0.56244 10.76561,-0.84369 26.28125,-0.84375 z"
           style="font-size:144px;fill:none"
           inkscape:connector-curvature="0" />
      </g>
      <rect
         y="743.96198"
         x="280.75671"
         height="176.76625"
         width="176.76627"
         id="rect3077-2-9-0-55-1-89"
         style="fill:none;stroke:#000000;stroke-width:0.39909893;stroke-linecap:butt;stroke-linejoin:miter;stroke-miterlimit:4;stroke-opacity:1;stroke-dasharray:none;stroke-dashoffset:3" />
    </g>
  </g>
</svg>
