999
DXF created by Inkscape
  0
SECTION
  2
HEADER
  9
$ACADVER
  1
AC1014
  9
$HANDSEED
  5
FFFF
  9
$MEASUREMENT
 70
     1
  0
ENDSEC
  0
SECTION
  2
TABLES
  0
TABLE
  2
VPORT
  5
8
330
0
100
AcDbSymbolTable
 70
     4
  0
VPORT
  5
2E
330
8
100
AcDbSymbolTableRecord
100
AcDbViewportTableRecord
  2
*ACTIVE
 70
     0
 10
0.0
 20
0.0
 11
1.0
 21
1.0
 12
210.0
 22
148.5
 13
0.0
 23
0.0
 14
10.0
 24
10.0
 15
10.0
 25
10.0
 16
0.0
 26
0.0
 36
1.0
 17
0.0
 27
0.0
 37
0.0
 40
341.0
 41
1.24
 42
50.0
 43
0.0
 44
0.0
 50
0.0
 51
0.0
 71
     0
 72
   100
 73
     1
 74
     3
 75
     0
 76
     0
 77
     0
 78
     0
  0
ENDTAB
  0
TABLE
  2
LTYPE
  5
5
330
0
100
AcDbSymbolTable
 70
     1
  0
LTYPE
  5
14
330
5
100
AcDbSymbolTableRecord
100
AcDbLinetypeTableRecord
  2
BYBLOCK
 70
     0
  3

 72
    65
 73
     0
 40
0.0
  0
LTYPE
  5
15
330
5
100
AcDbSymbolTableRecord
100
AcDbLinetypeTableRecord
  2
BYLAYER
 70
     0
  3

 72
    65
 73
     0
 40
0.0
  0
LTYPE
  5
16
330
5
100
AcDbSymbolTableRecord
100
AcDbLinetypeTableRecord
  2
CONTINUOUS
 70
     0
  3
Solid line
 72
    65
 73
     0
 40
0.0
  0
ENDTAB
  0
TABLE
  2
LAYER
  5
2
100
AcDbSymbolTable
 70
2
  0
LAYER
  5
50
100
AcDbSymbolTableRecord
100
AcDbLayerTableRecord
  2
0
 70
0
  6
CONTINUOUS
  0
LAYER
  5
51
100
AcDbSymbolTableRecord
100
AcDbLayerTableRecord
  2
Layer_1
 70
0
  6
CONTINUOUS
  0
ENDTAB
  0
TABLE
  2
STYLE
  5
3
330
0
100
AcDbSymbolTable
 70
     1
  0
STYLE
  5
11
330
3
100
AcDbSymbolTableRecord
100
AcDbTextStyleTableRecord
  2
STANDARD
 70
     0
 40
0.0
 41
1.0
 50
0.0
 71
     0
 42
2.5
  3
txt
  4

  0
ENDTAB
  0
TABLE
  2
VIEW
  5
6
330
0
100
AcDbSymbolTable
 70
     0
  0
ENDTAB
  0
TABLE
  2
UCS
  5
7
330
0
100
AcDbSymbolTable
 70
     0
  0
ENDTAB
  0
TABLE
  2
APPID
  5
9
330
0
100
AcDbSymbolTable
 70
     2
  0
APPID
  5
12
330
9
100
AcDbSymbolTableRecord
100
AcDbRegAppTableRecord
  2
ACAD
 70
     0
  0
ENDTAB
  0
TABLE
  2
DIMSTYLE
  5
A
330
0
100
AcDbSymbolTable
 70
     1
  0
DIMSTYLE
105
27
330
A
100
AcDbSymbolTableRecord
100
AcDbDimStyleTableRecord
  2
ISO-25
 70
     0
  3

  4

  5

  6

  7

 40
1.0
 41
2.5
 42
0.625
 43
3.75
 44
1.25
 45
0.0
 46
0.0
 47
0.0
 48
0.0
140
2.5
141
2.5
142
0.0
143
0.03937007874016
144
1.0
145
0.0
146
1.0
147
0.625
 71
     0
 72
     0
 73
     0
 74
     0
 75
     0
 76
     0
 77
     1
 78
     8
170
     0
171
     3
172
     1
173
     0
174
     0
175
     0
176
     0
177
     0
178
     0
270
     2
271
     2
272
     2
273
     2
274
     3
340
11
275
     0
280
     0
281
     0
282
     0
283
     0
284
     8
285
     0
286
     0
287
     3
288
     0
  0
ENDTAB
  0
TABLE
  2
BLOCK_RECORD
  5
1
330
0
100
AcDbSymbolTable
 70
     1
  0
BLOCK_RECORD
  5
1F
330
1
100
AcDbSymbolTableRecord
100
AcDbBlockTableRecord
  2
*MODEL_SPACE
  0
BLOCK_RECORD
  5
1B
330
1
100
AcDbSymbolTableRecord
100
AcDbBlockTableRecord
  2
*PAPER_SPACE
  0
ENDTAB
  0
ENDSEC
  0
SECTION
  2
BLOCKS
  0
BLOCK
  5
20
330
1F
100
AcDbEntity
  8
0
100
AcDbBlockBegin
  2
*MODEL_SPACE
 70
     0
 10
0.0
 20
0.0
 30
0.0
  3
*MODEL_SPACE
  1

  0
ENDBLK
  5
21
330
1F
100
AcDbEntity
  8
0
100
AcDbBlockEnd
  0
BLOCK
  5
1C
330
1B
100
AcDbEntity
 67
     1
  8
0
100
AcDbBlockBegin
  2
*PAPER_SPACE
  1

  0
ENDBLK
  5
1D
330
1B
100
AcDbEntity
 67
     1
  8
0
100
AcDbBlockEnd
  0
ENDSEC
  0
SECTION
  2
ENTITIES
  0
LINE
  5
100
100
AcDbEntity
  8
Layer_1
 62
7
100
AcDbLine
 10
80.833736
 20
31.757063
 30
0.0
 11
87.973958
 21
31.757063
 31
0.0
  0
LINE
  5
101
100
AcDbEntity
  8
Layer_1
 62
7
100
AcDbLine
 10
87.973958
 20
34.755674
 30
0.0
 11
87.973958
 21
31.757063
 31
0.0
  0
LINE
  5
102
100
AcDbEntity
  8
Layer_1
 62
7
100
AcDbLine
 10
87.973958
 20
34.755674
 30
0.0
 11
95.117708
 21
34.755674
 31
0.0
  0
LINE
  5
103
100
AcDbEntity
  8
Layer_1
 62
7
100
AcDbLine
 10
95.117708
 20
34.755674
 30
0.0
 11
95.117708
 21
31.757063
 31
0.0
  0
LINE
  5
104
100
AcDbEntity
  8
Layer_1
 62
7
100
AcDbLine
 10
95.117708
 20
31.757063
 30
0.0
 11
102.261458
 21
31.757063
 31
0.0
  0
LINE
  5
105
100
AcDbEntity
  8
Layer_1
 62
7
100
AcDbLine
 10
102.261458
 20
34.755674
 30
0.0
 11
102.261458
 21
31.757063
 31
0.0
  0
LINE
  5
106
100
AcDbEntity
  8
Layer_1
 62
7
100
AcDbLine
 10
102.261458
 20
34.755674
 30
0.0
 11
109.405208
 21
34.755674
 31
0.0
  0
LINE
  5
107
100
AcDbEntity
  8
Layer_1
 62
7
100
AcDbLine
 10
109.405208
 20
34.755674
 30
0.0
 11
109.405208
 21
31.757063
 31
0.0
  0
LINE
  5
108
100
AcDbEntity
  8
Layer_1
 62
7
100
AcDbLine
 10
109.405208
 20
31.757063
 30
0.0
 11
116.545431
 21
31.757063
 31
0.0
  0
LINE
  5
109
100
AcDbEntity
  8
Layer_1
 62
7
100
AcDbLine
 10
116.545431
 20
34.755674
 30
0.0
 11
116.545431
 21
31.757063
 31
0.0
  0
LINE
  5
10a
100
AcDbEntity
  8
Layer_1
 62
7
100
AcDbLine
 10
116.545431
 20
34.755674
 30
0.0
 11
123.689181
 21
34.755674
 31
0.0
  0
LINE
  5
10b
100
AcDbEntity
  8
Layer_1
 62
7
100
AcDbLine
 10
123.689181
 20
34.755674
 30
0.0
 11
123.689181
 21
31.757063
 31
0.0
  0
LINE
  5
10c
100
AcDbEntity
  8
Layer_1
 62
7
100
AcDbLine
 10
123.689181
 20
31.757063
 30
0.0
 11
127.830792
 21
31.757063
 31
0.0
  0
LINE
  5
10d
100
AcDbEntity
  8
Layer_1
 62
7
100
AcDbLine
 10
80.833736
 20
81.756257
 30
0.0
 11
87.973958
 21
81.756257
 31
0.0
  0
LINE
  5
10e
100
AcDbEntity
  8
Layer_1
 62
7
100
AcDbLine
 10
87.973958
 20
81.756257
 30
0.0
 11
87.973958
 21
78.754118
 31
0.0
  0
LINE
  5
10f
100
AcDbEntity
  8
Layer_1
 62
7
100
AcDbLine
 10
87.973958
 20
78.754118
 30
0.0
 11
95.117708
 21
78.754118
 31
0.0
  0
LINE
  5
110
100
AcDbEntity
  8
Layer_1
 62
7
100
AcDbLine
 10
95.117708
 20
81.756257
 30
0.0
 11
95.117708
 21
78.754118
 31
0.0
  0
LINE
  5
111
100
AcDbEntity
  8
Layer_1
 62
7
100
AcDbLine
 10
95.117708
 20
81.756257
 30
0.0
 11
102.261458
 21
81.756257
 31
0.0
  0
LINE
  5
112
100
AcDbEntity
  8
Layer_1
 62
7
100
AcDbLine
 10
102.261458
 20
81.756257
 30
0.0
 11
102.261458
 21
78.754118
 31
0.0
  0
LINE
  5
113
100
AcDbEntity
  8
Layer_1
 62
7
100
AcDbLine
 10
102.261458
 20
78.754118
 30
0.0
 11
109.405208
 21
78.754118
 31
0.0
  0
LINE
  5
114
100
AcDbEntity
  8
Layer_1
 62
7
100
AcDbLine
 10
109.405208
 20
81.756257
 30
0.0
 11
109.405208
 21
78.754118
 31
0.0
  0
LINE
  5
115
100
AcDbEntity
  8
Layer_1
 62
7
100
AcDbLine
 10
109.405208
 20
81.756257
 30
0.0
 11
116.545431
 21
81.756257
 31
0.0
  0
LINE
  5
116
100
AcDbEntity
  8
Layer_1
 62
7
100
AcDbLine
 10
116.545431
 20
81.756257
 30
0.0
 11
116.545431
 21
78.754118
 31
0.0
  0
LINE
  5
117
100
AcDbEntity
  8
Layer_1
 62
7
100
AcDbLine
 10
116.545431
 20
78.754118
 30
0.0
 11
123.689181
 21
78.754118
 31
0.0
  0
LINE
  5
118
100
AcDbEntity
  8
Layer_1
 62
7
100
AcDbLine
 10
123.689181
 20
81.756257
 30
0.0
 11
123.689181
 21
78.754118
 31
0.0
  0
LINE
  5
119
100
AcDbEntity
  8
Layer_1
 62
7
100
AcDbLine
 10
123.689181
 20
81.756257
 30
0.0
 11
127.830792
 21
81.756257
 31
0.0
  0
LINE
  5
11a
100
AcDbEntity
  8
Layer_1
 62
7
100
AcDbLine
 10
80.833736
 20
31.757063
 30
0.0
 11
80.833736
 21
38.897285
 31
0.0
  0
LINE
  5
11b
100
AcDbEntity
  8
Layer_1
 62
7
100
AcDbLine
 10
83.832347
 20
38.897285
 30
0.0
 11
80.833736
 21
38.897285
 31
0.0
  0
LINE
  5
11c
100
AcDbEntity
  8
Layer_1
 62
7
100
AcDbLine
 10
83.832347
 20
38.897285
 30
0.0
 11
83.832347
 21
46.041035
 31
0.0
  0
LINE
  5
11d
100
AcDbEntity
  8
Layer_1
 62
7
100
AcDbLine
 10
83.832347
 20
46.041035
 30
0.0
 11
80.833736
 21
46.041035
 31
0.0
  0
LINE
  5
11e
100
AcDbEntity
  8
Layer_1
 62
7
100
AcDbLine
 10
80.833736
 20
46.041035
 30
0.0
 11
80.833736
 21
53.184785
 31
0.0
  0
LINE
  5
11f
100
AcDbEntity
  8
Layer_1
 62
7
100
AcDbLine
 10
83.832347
 20
53.184785
 30
0.0
 11
80.833736
 21
53.184785
 31
0.0
  0
LINE
  5
120
100
AcDbEntity
  8
Layer_1
 62
7
100
AcDbLine
 10
83.832347
 20
53.184785
 30
0.0
 11
83.832347
 21
60.328535
 31
0.0
  0
LINE
  5
121
100
AcDbEntity
  8
Layer_1
 62
7
100
AcDbLine
 10
83.832347
 20
60.328535
 30
0.0
 11
80.833736
 21
60.328535
 31
0.0
  0
LINE
  5
122
100
AcDbEntity
  8
Layer_1
 62
7
100
AcDbLine
 10
80.833736
 20
60.328535
 30
0.0
 11
80.833736
 21
67.468757
 31
0.0
  0
LINE
  5
123
100
AcDbEntity
  8
Layer_1
 62
7
100
AcDbLine
 10
83.832347
 20
67.468757
 30
0.0
 11
80.833736
 21
67.468757
 31
0.0
  0
LINE
  5
124
100
AcDbEntity
  8
Layer_1
 62
7
100
AcDbLine
 10
83.832347
 20
67.468757
 30
0.0
 11
83.832347
 21
74.612507
 31
0.0
  0
LINE
  5
125
100
AcDbEntity
  8
Layer_1
 62
7
100
AcDbLine
 10
83.832347
 20
74.612507
 30
0.0
 11
80.833736
 21
74.612507
 31
0.0
  0
LINE
  5
126
100
AcDbEntity
  8
Layer_1
 62
7
100
AcDbLine
 10
80.833736
 20
74.612507
 30
0.0
 11
80.833736
 21
81.756257
 31
0.0
  0
LINE
  5
127
100
AcDbEntity
  8
Layer_1
 62
7
100
AcDbLine
 10
127.830792
 20
31.757063
 30
0.0
 11
127.830792
 21
38.897285
 31
0.0
  0
LINE
  5
128
100
AcDbEntity
  8
Layer_1
 62
7
100
AcDbLine
 10
130.832931
 20
38.897285
 30
0.0
 11
127.830792
 21
38.897285
 31
0.0
  0
LINE
  5
129
100
AcDbEntity
  8
Layer_1
 62
7
100
AcDbLine
 10
130.832931
 20
38.897285
 30
0.0
 11
130.832931
 21
46.041035
 31
0.0
  0
LINE
  5
12a
100
AcDbEntity
  8
Layer_1
 62
7
100
AcDbLine
 10
130.832931
 20
46.041035
 30
0.0
 11
127.830792
 21
46.041035
 31
0.0
  0
LINE
  5
12b
100
AcDbEntity
  8
Layer_1
 62
7
100
AcDbLine
 10
127.830792
 20
46.041035
 30
0.0
 11
127.830792
 21
53.184785
 31
0.0
  0
LINE
  5
12c
100
AcDbEntity
  8
Layer_1
 62
7
100
AcDbLine
 10
130.832931
 20
53.184785
 30
0.0
 11
127.830792
 21
53.184785
 31
0.0
  0
LINE
  5
12d
100
AcDbEntity
  8
Layer_1
 62
7
100
AcDbLine
 10
130.832931
 20
53.184785
 30
0.0
 11
130.832931
 21
60.328535
 31
0.0
  0
LINE
  5
12e
100
AcDbEntity
  8
Layer_1
 62
7
100
AcDbLine
 10
130.832931
 20
60.328535
 30
0.0
 11
127.830792
 21
60.328535
 31
0.0
  0
LINE
  5
12f
100
AcDbEntity
  8
Layer_1
 62
7
100
AcDbLine
 10
127.830792
 20
60.328535
 30
0.0
 11
127.830792
 21
67.468757
 31
0.0
  0
LINE
  5
130
100
AcDbEntity
  8
Layer_1
 62
7
100
AcDbLine
 10
130.832931
 20
67.468757
 30
0.0
 11
127.830792
 21
67.468757
 31
0.0
  0
LINE
  5
131
100
AcDbEntity
  8
Layer_1
 62
7
100
AcDbLine
 10
130.832931
 20
67.468757
 30
0.0
 11
130.832931
 21
74.612507
 31
0.0
  0
LINE
  5
132
100
AcDbEntity
  8
Layer_1
 62
7
100
AcDbLine
 10
130.832931
 20
74.612507
 30
0.0
 11
127.830792
 21
74.612507
 31
0.0
  0
LINE
  5
133
100
AcDbEntity
  8
Layer_1
 62
7
100
AcDbLine
 10
127.830792
 20
74.612507
 30
0.0
 11
127.830792
 21
81.756257
 31
0.0
  0
LINE
  5
134
100
AcDbEntity
  8
Layer_1
 62
7
100
AcDbLine
 10
20.833292
 20
91.757507
 30
0.0
 11
27.973514
 21
91.757507
 31
0.0
  0
LINE
  5
135
100
AcDbEntity
  8
Layer_1
 62
7
100
AcDbLine
 10
27.973514
 20
94.756118
 30
0.0
 11
27.973514
 21
91.757507
 31
0.0
  0
LINE
  5
136
100
AcDbEntity
  8
Layer_1
 62
7
100
AcDbLine
 10
27.973514
 20
94.756118
 30
0.0
 11
35.117264
 21
94.756118
 31
0.0
  0
LINE
  5
137
100
AcDbEntity
  8
Layer_1
 62
7
100
AcDbLine
 10
35.117264
 20
94.756118
 30
0.0
 11
35.117264
 21
91.757507
 31
0.0
  0
LINE
  5
138
100
AcDbEntity
  8
Layer_1
 62
7
100
AcDbLine
 10
35.117264
 20
91.757507
 30
0.0
 11
42.261014
 21
91.757507
 31
0.0
  0
LINE
  5
139
100
AcDbEntity
  8
Layer_1
 62
7
100
AcDbLine
 10
42.261014
 20
94.756118
 30
0.0
 11
42.261014
 21
91.757507
 31
0.0
  0
LINE
  5
13a
100
AcDbEntity
  8
Layer_1
 62
7
100
AcDbLine
 10
42.261014
 20
94.756118
 30
0.0
 11
49.404764
 21
94.756118
 31
0.0
  0
LINE
  5
13b
100
AcDbEntity
  8
Layer_1
 62
7
100
AcDbLine
 10
49.404764
 20
94.756118
 30
0.0
 11
49.404764
 21
91.757507
 31
0.0
  0
LINE
  5
13c
100
AcDbEntity
  8
Layer_1
 62
7
100
AcDbLine
 10
49.404764
 20
91.757507
 30
0.0
 11
56.544986
 21
91.757507
 31
0.0
  0
LINE
  5
13d
100
AcDbEntity
  8
Layer_1
 62
7
100
AcDbLine
 10
56.544986
 20
94.756118
 30
0.0
 11
56.544986
 21
91.757507
 31
0.0
  0
LINE
  5
13e
100
AcDbEntity
  8
Layer_1
 62
7
100
AcDbLine
 10
56.544986
 20
94.756118
 30
0.0
 11
63.688736
 21
94.756118
 31
0.0
  0
LINE
  5
13f
100
AcDbEntity
  8
Layer_1
 62
7
100
AcDbLine
 10
63.688736
 20
94.756118
 30
0.0
 11
63.688736
 21
91.757507
 31
0.0
  0
LINE
  5
140
100
AcDbEntity
  8
Layer_1
 62
7
100
AcDbLine
 10
63.688736
 20
91.757507
 30
0.0
 11
67.830347
 21
91.757507
 31
0.0
  0
LINE
  5
141
100
AcDbEntity
  8
Layer_1
 62
7
100
AcDbLine
 10
20.833292
 20
141.756701
 30
0.0
 11
27.973514
 21
141.756701
 31
0.0
  0
LINE
  5
142
100
AcDbEntity
  8
Layer_1
 62
7
100
AcDbLine
 10
27.973514
 20
141.756701
 30
0.0
 11
27.973514
 21
138.754563
 31
0.0
  0
LINE
  5
143
100
AcDbEntity
  8
Layer_1
 62
7
100
AcDbLine
 10
27.973514
 20
138.754563
 30
0.0
 11
35.117264
 21
138.754563
 31
0.0
  0
LINE
  5
144
100
AcDbEntity
  8
Layer_1
 62
7
100
AcDbLine
 10
35.117264
 20
141.756701
 30
0.0
 11
35.117264
 21
138.754563
 31
0.0
  0
LINE
  5
145
100
AcDbEntity
  8
Layer_1
 62
7
100
AcDbLine
 10
35.117264
 20
141.756701
 30
0.0
 11
42.261014
 21
141.756701
 31
0.0
  0
LINE
  5
146
100
AcDbEntity
  8
Layer_1
 62
7
100
AcDbLine
 10
42.261014
 20
141.756701
 30
0.0
 11
42.261014
 21
138.754563
 31
0.0
  0
LINE
  5
147
100
AcDbEntity
  8
Layer_1
 62
7
100
AcDbLine
 10
42.261014
 20
138.754563
 30
0.0
 11
49.404764
 21
138.754563
 31
0.0
  0
LINE
  5
148
100
AcDbEntity
  8
Layer_1
 62
7
100
AcDbLine
 10
49.404764
 20
141.756701
 30
0.0
 11
49.404764
 21
138.754563
 31
0.0
  0
LINE
  5
149
100
AcDbEntity
  8
Layer_1
 62
7
100
AcDbLine
 10
49.404764
 20
141.756701
 30
0.0
 11
56.544986
 21
141.756701
 31
0.0
  0
LINE
  5
14a
100
AcDbEntity
  8
Layer_1
 62
7
100
AcDbLine
 10
56.544986
 20
141.756701
 30
0.0
 11
56.544986
 21
138.754563
 31
0.0
  0
LINE
  5
14b
100
AcDbEntity
  8
Layer_1
 62
7
100
AcDbLine
 10
56.544986
 20
138.754563
 30
0.0
 11
63.688736
 21
138.754563
 31
0.0
  0
LINE
  5
14c
100
AcDbEntity
  8
Layer_1
 62
7
100
AcDbLine
 10
63.688736
 20
141.756701
 30
0.0
 11
63.688736
 21
138.754563
 31
0.0
  0
LINE
  5
14d
100
AcDbEntity
  8
Layer_1
 62
7
100
AcDbLine
 10
63.688736
 20
141.756701
 30
0.0
 11
67.830347
 21
141.756701
 31
0.0
  0
LINE
  5
14e
100
AcDbEntity
  8
Layer_1
 62
7
100
AcDbLine
 10
20.833292
 20
91.757507
 30
0.0
 11
20.833292
 21
98.897729
 31
0.0
  0
LINE
  5
14f
100
AcDbEntity
  8
Layer_1
 62
7
100
AcDbLine
 10
23.831903
 20
98.897729
 30
0.0
 11
20.833292
 21
98.897729
 31
0.0
  0
LINE
  5
150
100
AcDbEntity
  8
Layer_1
 62
7
100
AcDbLine
 10
23.831903
 20
98.897729
 30
0.0
 11
23.831903
 21
106.041479
 31
0.0
  0
LINE
  5
151
100
AcDbEntity
  8
Layer_1
 62
7
100
AcDbLine
 10
23.831903
 20
106.041479
 30
0.0
 11
20.833292
 21
106.041479
 31
0.0
  0
LINE
  5
152
100
AcDbEntity
  8
Layer_1
 62
7
100
AcDbLine
 10
20.833292
 20
106.041479
 30
0.0
 11
20.833292
 21
113.185229
 31
0.0
  0
LINE
  5
153
100
AcDbEntity
  8
Layer_1
 62
7
100
AcDbLine
 10
23.831903
 20
113.185229
 30
0.0
 11
20.833292
 21
113.185229
 31
0.0
  0
LINE
  5
154
100
AcDbEntity
  8
Layer_1
 62
7
100
AcDbLine
 10
23.831903
 20
113.185229
 30
0.0
 11
23.831903
 21
120.328979
 31
0.0
  0
LINE
  5
155
100
AcDbEntity
  8
Layer_1
 62
7
100
AcDbLine
 10
23.831903
 20
120.328979
 30
0.0
 11
20.833292
 21
120.328979
 31
0.0
  0
LINE
  5
156
100
AcDbEntity
  8
Layer_1
 62
7
100
AcDbLine
 10
20.833292
 20
120.328979
 30
0.0
 11
20.833292
 21
127.469201
 31
0.0
  0
LINE
  5
157
100
AcDbEntity
  8
Layer_1
 62
7
100
AcDbLine
 10
23.831903
 20
127.469201
 30
0.0
 11
20.833292
 21
127.469201
 31
0.0
  0
LINE
  5
158
100
AcDbEntity
  8
Layer_1
 62
7
100
AcDbLine
 10
23.831903
 20
127.469201
 30
0.0
 11
23.831903
 21
134.612951
 31
0.0
  0
LINE
  5
159
100
AcDbEntity
  8
Layer_1
 62
7
100
AcDbLine
 10
23.831903
 20
134.612951
 30
0.0
 11
20.833292
 21
134.612951
 31
0.0
  0
LINE
  5
15a
100
AcDbEntity
  8
Layer_1
 62
7
100
AcDbLine
 10
20.833292
 20
134.612951
 30
0.0
 11
20.833292
 21
141.756701
 31
0.0
  0
LINE
  5
15b
100
AcDbEntity
  8
Layer_1
 62
7
100
AcDbLine
 10
67.830347
 20
91.757507
 30
0.0
 11
67.830347
 21
98.897729
 31
0.0
  0
LINE
  5
15c
100
AcDbEntity
  8
Layer_1
 62
7
100
AcDbLine
 10
70.832486
 20
98.897729
 30
0.0
 11
67.830347
 21
98.897729
 31
0.0
  0
LINE
  5
15d
100
AcDbEntity
  8
Layer_1
 62
7
100
AcDbLine
 10
70.832486
 20
98.897729
 30
0.0
 11
70.832486
 21
106.041479
 31
0.0
  0
LINE
  5
15e
100
AcDbEntity
  8
Layer_1
 62
7
100
AcDbLine
 10
70.832486
 20
106.041479
 30
0.0
 11
67.830347
 21
106.041479
 31
0.0
  0
LINE
  5
15f
100
AcDbEntity
  8
Layer_1
 62
7
100
AcDbLine
 10
67.830347
 20
106.041479
 30
0.0
 11
67.830347
 21
113.185229
 31
0.0
  0
LINE
  5
160
100
AcDbEntity
  8
Layer_1
 62
7
100
AcDbLine
 10
70.832486
 20
113.185229
 30
0.0
 11
67.830347
 21
113.185229
 31
0.0
  0
LINE
  5
161
100
AcDbEntity
  8
Layer_1
 62
7
100
AcDbLine
 10
70.832486
 20
113.185229
 30
0.0
 11
70.832486
 21
120.328979
 31
0.0
  0
LINE
  5
162
100
AcDbEntity
  8
Layer_1
 62
7
100
AcDbLine
 10
70.832486
 20
120.328979
 30
0.0
 11
67.830347
 21
120.328979
 31
0.0
  0
LINE
  5
163
100
AcDbEntity
  8
Layer_1
 62
7
100
AcDbLine
 10
67.830347
 20
120.328979
 30
0.0
 11
67.830347
 21
127.469201
 31
0.0
  0
LINE
  5
164
100
AcDbEntity
  8
Layer_1
 62
7
100
AcDbLine
 10
70.832486
 20
127.469201
 30
0.0
 11
67.830347
 21
127.469201
 31
0.0
  0
LINE
  5
165
100
AcDbEntity
  8
Layer_1
 62
7
100
AcDbLine
 10
70.832486
 20
127.469201
 30
0.0
 11
70.832486
 21
134.612951
 31
0.0
  0
LINE
  5
166
100
AcDbEntity
  8
Layer_1
 62
7
100
AcDbLine
 10
70.832486
 20
134.612951
 30
0.0
 11
67.830347
 21
134.612951
 31
0.0
  0
LINE
  5
167
100
AcDbEntity
  8
Layer_1
 62
7
100
AcDbLine
 10
67.830347
 20
134.612951
 30
0.0
 11
67.830347
 21
141.756701
 31
0.0
  0
LINE
  5
168
100
AcDbEntity
  8
Layer_1
 62
7
100
AcDbLine
 10
83.832347
 20
94.756118
 30
0.0
 11
87.973958
 21
94.756118
 31
0.0
  0
LINE
  5
169
100
AcDbEntity
  8
Layer_1
 62
7
100
AcDbLine
 10
87.973958
 20
94.756118
 30
0.0
 11
87.973958
 21
91.757507
 31
0.0
  0
LINE
  5
16a
100
AcDbEntity
  8
Layer_1
 62
7
100
AcDbLine
 10
87.973958
 20
91.757507
 30
0.0
 11
95.117708
 21
91.757507
 31
0.0
  0
LINE
  5
16b
100
AcDbEntity
  8
Layer_1
 62
7
100
AcDbLine
 10
95.117708
 20
94.756118
 30
0.0
 11
95.117708
 21
91.757507
 31
0.0
  0
LINE
  5
16c
100
AcDbEntity
  8
Layer_1
 62
7
100
AcDbLine
 10
95.117708
 20
94.756118
 30
0.0
 11
102.261458
 21
94.756118
 31
0.0
  0
LINE
  5
16d
100
AcDbEntity
  8
Layer_1
 62
7
100
AcDbLine
 10
102.261458
 20
94.756118
 30
0.0
 11
102.261458
 21
91.757507
 31
0.0
  0
LINE
  5
16e
100
AcDbEntity
  8
Layer_1
 62
7
100
AcDbLine
 10
102.261458
 20
91.757507
 30
0.0
 11
109.405208
 21
91.757507
 31
0.0
  0
LINE
  5
16f
100
AcDbEntity
  8
Layer_1
 62
7
100
AcDbLine
 10
109.405208
 20
94.756118
 30
0.0
 11
109.405208
 21
91.757507
 31
0.0
  0
LINE
  5
170
100
AcDbEntity
  8
Layer_1
 62
7
100
AcDbLine
 10
109.405208
 20
94.756118
 30
0.0
 11
116.545431
 21
94.756118
 31
0.0
  0
LINE
  5
171
100
AcDbEntity
  8
Layer_1
 62
7
100
AcDbLine
 10
116.545431
 20
94.756118
 30
0.0
 11
116.545431
 21
91.757507
 31
0.0
  0
LINE
  5
172
100
AcDbEntity
  8
Layer_1
 62
7
100
AcDbLine
 10
116.545431
 20
91.757507
 30
0.0
 11
123.689181
 21
91.757507
 31
0.0
  0
LINE
  5
173
100
AcDbEntity
  8
Layer_1
 62
7
100
AcDbLine
 10
123.689181
 20
94.756118
 30
0.0
 11
123.689181
 21
91.757507
 31
0.0
  0
LINE
  5
174
100
AcDbEntity
  8
Layer_1
 62
7
100
AcDbLine
 10
123.689181
 20
94.756118
 30
0.0
 11
127.830792
 21
94.756118
 31
0.0
  0
LINE
  5
175
100
AcDbEntity
  8
Layer_1
 62
7
100
AcDbLine
 10
83.832347
 20
138.754563
 30
0.0
 11
87.973958
 21
138.754563
 31
0.0
  0
LINE
  5
176
100
AcDbEntity
  8
Layer_1
 62
7
100
AcDbLine
 10
87.973958
 20
141.756701
 30
0.0
 11
87.973958
 21
138.754563
 31
0.0
  0
LINE
  5
177
100
AcDbEntity
  8
Layer_1
 62
7
100
AcDbLine
 10
87.973958
 20
141.756701
 30
0.0
 11
95.117708
 21
141.756701
 31
0.0
  0
LINE
  5
178
100
AcDbEntity
  8
Layer_1
 62
7
100
AcDbLine
 10
95.117708
 20
141.756701
 30
0.0
 11
95.117708
 21
138.754563
 31
0.0
  0
LINE
  5
179
100
AcDbEntity
  8
Layer_1
 62
7
100
AcDbLine
 10
95.117708
 20
138.754563
 30
0.0
 11
102.261458
 21
138.754563
 31
0.0
  0
LINE
  5
17a
100
AcDbEntity
  8
Layer_1
 62
7
100
AcDbLine
 10
102.261458
 20
141.756701
 30
0.0
 11
102.261458
 21
138.754563
 31
0.0
  0
LINE
  5
17b
100
AcDbEntity
  8
Layer_1
 62
7
100
AcDbLine
 10
102.261458
 20
141.756701
 30
0.0
 11
109.405208
 21
141.756701
 31
0.0
  0
LINE
  5
17c
100
AcDbEntity
  8
Layer_1
 62
7
100
AcDbLine
 10
109.405208
 20
141.756701
 30
0.0
 11
109.405208
 21
138.754563
 31
0.0
  0
LINE
  5
17d
100
AcDbEntity
  8
Layer_1
 62
7
100
AcDbLine
 10
109.405208
 20
138.754563
 30
0.0
 11
116.545431
 21
138.754563
 31
0.0
  0
LINE
  5
17e
100
AcDbEntity
  8
Layer_1
 62
7
100
AcDbLine
 10
116.545431
 20
141.756701
 30
0.0
 11
116.545431
 21
138.754563
 31
0.0
  0
LINE
  5
17f
100
AcDbEntity
  8
Layer_1
 62
7
100
AcDbLine
 10
116.545431
 20
141.756701
 30
0.0
 11
123.689181
 21
141.756701
 31
0.0
  0
LINE
  5
180
100
AcDbEntity
  8
Layer_1
 62
7
100
AcDbLine
 10
123.689181
 20
141.756701
 30
0.0
 11
123.689181
 21
138.754563
 31
0.0
  0
LINE
  5
181
100
AcDbEntity
  8
Layer_1
 62
7
100
AcDbLine
 10
123.689181
 20
138.754563
 30
0.0
 11
127.830792
 21
138.754563
 31
0.0
  0
LINE
  5
182
100
AcDbEntity
  8
Layer_1
 62
7
100
AcDbLine
 10
83.832347
 20
94.756118
 30
0.0
 11
83.832347
 21
98.897729
 31
0.0
  0
LINE
  5
183
100
AcDbEntity
  8
Layer_1
 62
7
100
AcDbLine
 10
83.832347
 20
98.897729
 30
0.0
 11
80.833736
 21
98.897729
 31
0.0
  0
LINE
  5
184
100
AcDbEntity
  8
Layer_1
 62
7
100
AcDbLine
 10
80.833736
 20
98.897729
 30
0.0
 11
80.833736
 21
106.041479
 31
0.0
  0
LINE
  5
185
100
AcDbEntity
  8
Layer_1
 62
7
100
AcDbLine
 10
83.832347
 20
106.041479
 30
0.0
 11
80.833736
 21
106.041479
 31
0.0
  0
LINE
  5
186
100
AcDbEntity
  8
Layer_1
 62
7
100
AcDbLine
 10
83.832347
 20
106.041479
 30
0.0
 11
83.832347
 21
113.185229
 31
0.0
  0
LINE
  5
187
100
AcDbEntity
  8
Layer_1
 62
7
100
AcDbLine
 10
83.832347
 20
113.185229
 30
0.0
 11
80.833736
 21
113.185229
 31
0.0
  0
LINE
  5
188
100
AcDbEntity
  8
Layer_1
 62
7
100
AcDbLine
 10
80.833736
 20
113.185229
 30
0.0
 11
80.833736
 21
120.328979
 31
0.0
  0
LINE
  5
189
100
AcDbEntity
  8
Layer_1
 62
7
100
AcDbLine
 10
83.832347
 20
120.328979
 30
0.0
 11
80.833736
 21
120.328979
 31
0.0
  0
LINE
  5
18a
100
AcDbEntity
  8
Layer_1
 62
7
100
AcDbLine
 10
83.832347
 20
120.328979
 30
0.0
 11
83.832347
 21
127.469201
 31
0.0
  0
LINE
  5
18b
100
AcDbEntity
  8
Layer_1
 62
7
100
AcDbLine
 10
83.832347
 20
127.469201
 30
0.0
 11
80.833736
 21
127.469201
 31
0.0
  0
LINE
  5
18c
100
AcDbEntity
  8
Layer_1
 62
7
100
AcDbLine
 10
80.833736
 20
127.469201
 30
0.0
 11
80.833736
 21
134.612951
 31
0.0
  0
LINE
  5
18d
100
AcDbEntity
  8
Layer_1
 62
7
100
AcDbLine
 10
83.832347
 20
134.612951
 30
0.0
 11
80.833736
 21
134.612951
 31
0.0
  0
LINE
  5
18e
100
AcDbEntity
  8
Layer_1
 62
7
100
AcDbLine
 10
83.832347
 20
134.612951
 30
0.0
 11
83.832347
 21
138.754563
 31
0.0
  0
LINE
  5
18f
100
AcDbEntity
  8
Layer_1
 62
7
100
AcDbLine
 10
127.830792
 20
94.756118
 30
0.0
 11
127.830792
 21
98.897729
 31
0.0
  0
LINE
  5
190
100
AcDbEntity
  8
Layer_1
 62
7
100
AcDbLine
 10
130.832931
 20
98.897729
 30
0.0
 11
127.830792
 21
98.897729
 31
0.0
  0
LINE
  5
191
100
AcDbEntity
  8
Layer_1
 62
7
100
AcDbLine
 10
130.832931
 20
98.897729
 30
0.0
 11
130.832931
 21
106.041479
 31
0.0
  0
LINE
  5
192
100
AcDbEntity
  8
Layer_1
 62
7
100
AcDbLine
 10
130.832931
 20
106.041479
 30
0.0
 11
127.830792
 21
106.041479
 31
0.0
  0
LINE
  5
193
100
AcDbEntity
  8
Layer_1
 62
7
100
AcDbLine
 10
127.830792
 20
106.041479
 30
0.0
 11
127.830792
 21
113.185229
 31
0.0
  0
LINE
  5
194
100
AcDbEntity
  8
Layer_1
 62
7
100
AcDbLine
 10
130.832931
 20
113.185229
 30
0.0
 11
127.830792
 21
113.185229
 31
0.0
  0
LINE
  5
195
100
AcDbEntity
  8
Layer_1
 62
7
100
AcDbLine
 10
130.832931
 20
113.185229
 30
0.0
 11
130.832931
 21
120.328979
 31
0.0
  0
LINE
  5
196
100
AcDbEntity
  8
Layer_1
 62
7
100
AcDbLine
 10
130.832931
 20
120.328979
 30
0.0
 11
127.830792
 21
120.328979
 31
0.0
  0
LINE
  5
197
100
AcDbEntity
  8
Layer_1
 62
7
100
AcDbLine
 10
127.830792
 20
120.328979
 30
0.0
 11
127.830792
 21
127.469201
 31
0.0
  0
LINE
  5
198
100
AcDbEntity
  8
Layer_1
 62
7
100
AcDbLine
 10
130.832931
 20
127.469201
 30
0.0
 11
127.830792
 21
127.469201
 31
0.0
  0
LINE
  5
199
100
AcDbEntity
  8
Layer_1
 62
7
100
AcDbLine
 10
130.832931
 20
127.469201
 30
0.0
 11
130.832931
 21
134.612951
 31
0.0
  0
LINE
  5
19a
100
AcDbEntity
  8
Layer_1
 62
7
100
AcDbLine
 10
130.832931
 20
134.612951
 30
0.0
 11
127.830792
 21
134.612951
 31
0.0
  0
LINE
  5
19b
100
AcDbEntity
  8
Layer_1
 62
7
100
AcDbLine
 10
127.830792
 20
134.612951
 30
0.0
 11
127.830792
 21
138.754563
 31
0.0
  0
LINE
  5
19c
100
AcDbEntity
  8
Layer_1
 62
7
100
AcDbLine
 10
140.830653
 20
91.757507
 30
0.0
 11
147.974403
 21
91.757507
 31
0.0
  0
LINE
  5
19d
100
AcDbEntity
  8
Layer_1
 62
7
100
AcDbLine
 10
147.974403
 20
94.756118
 30
0.0
 11
147.974403
 21
91.757507
 31
0.0
  0
LINE
  5
19e
100
AcDbEntity
  8
Layer_1
 62
7
100
AcDbLine
 10
147.974403
 20
94.756118
 30
0.0
 11
155.118153
 21
94.756118
 31
0.0
  0
LINE
  5
19f
100
AcDbEntity
  8
Layer_1
 62
7
100
AcDbLine
 10
155.118153
 20
94.756118
 30
0.0
 11
155.118153
 21
91.757507
 31
0.0
  0
LINE
  5
1a0
100
AcDbEntity
  8
Layer_1
 62
7
100
AcDbLine
 10
155.118153
 20
91.757507
 30
0.0
 11
162.261903
 21
91.757507
 31
0.0
  0
LINE
  5
1a1
100
AcDbEntity
  8
Layer_1
 62
7
100
AcDbLine
 10
162.261903
 20
94.756118
 30
0.0
 11
162.261903
 21
91.757507
 31
0.0
  0
LINE
  5
1a2
100
AcDbEntity
  8
Layer_1
 62
7
100
AcDbLine
 10
162.261903
 20
94.756118
 30
0.0
 11
169.402125
 21
94.756118
 31
0.0
  0
LINE
  5
1a3
100
AcDbEntity
  8
Layer_1
 62
7
100
AcDbLine
 10
169.402125
 20
94.756118
 30
0.0
 11
169.402125
 21
91.757507
 31
0.0
  0
LINE
  5
1a4
100
AcDbEntity
  8
Layer_1
 62
7
100
AcDbLine
 10
169.402125
 20
91.757507
 30
0.0
 11
176.545875
 21
91.757507
 31
0.0
  0
LINE
  5
1a5
100
AcDbEntity
  8
Layer_1
 62
7
100
AcDbLine
 10
176.545875
 20
94.756118
 30
0.0
 11
176.545875
 21
91.757507
 31
0.0
  0
LINE
  5
1a6
100
AcDbEntity
  8
Layer_1
 62
7
100
AcDbLine
 10
176.545875
 20
94.756118
 30
0.0
 11
183.689625
 21
94.756118
 31
0.0
  0
LINE
  5
1a7
100
AcDbEntity
  8
Layer_1
 62
7
100
AcDbLine
 10
183.689625
 20
94.756118
 30
0.0
 11
183.689625
 21
91.757507
 31
0.0
  0
LINE
  5
1a8
100
AcDbEntity
  8
Layer_1
 62
7
100
AcDbLine
 10
183.689625
 20
91.757507
 30
0.0
 11
187.831236
 21
91.757507
 31
0.0
  0
LINE
  5
1a9
100
AcDbEntity
  8
Layer_1
 62
7
100
AcDbLine
 10
140.830653
 20
141.756701
 30
0.0
 11
147.974403
 21
141.756701
 31
0.0
  0
LINE
  5
1aa
100
AcDbEntity
  8
Layer_1
 62
7
100
AcDbLine
 10
147.974403
 20
141.756701
 30
0.0
 11
147.974403
 21
138.754563
 31
0.0
  0
LINE
  5
1ab
100
AcDbEntity
  8
Layer_1
 62
7
100
AcDbLine
 10
147.974403
 20
138.754563
 30
0.0
 11
155.118153
 21
138.754563
 31
0.0
  0
LINE
  5
1ac
100
AcDbEntity
  8
Layer_1
 62
7
100
AcDbLine
 10
155.118153
 20
141.756701
 30
0.0
 11
155.118153
 21
138.754563
 31
0.0
  0
LINE
  5
1ad
100
AcDbEntity
  8
Layer_1
 62
7
100
AcDbLine
 10
155.118153
 20
141.756701
 30
0.0
 11
162.261903
 21
141.756701
 31
0.0
  0
LINE
  5
1ae
100
AcDbEntity
  8
Layer_1
 62
7
100
AcDbLine
 10
162.261903
 20
141.756701
 30
0.0
 11
162.261903
 21
138.754563
 31
0.0
  0
LINE
  5
1af
100
AcDbEntity
  8
Layer_1
 62
7
100
AcDbLine
 10
162.261903
 20
138.754563
 30
0.0
 11
169.402125
 21
138.754563
 31
0.0
  0
LINE
  5
1b0
100
AcDbEntity
  8
Layer_1
 62
7
100
AcDbLine
 10
169.402125
 20
141.756701
 30
0.0
 11
169.402125
 21
138.754563
 31
0.0
  0
LINE
  5
1b1
100
AcDbEntity
  8
Layer_1
 62
7
100
AcDbLine
 10
169.402125
 20
141.756701
 30
0.0
 11
176.545875
 21
141.756701
 31
0.0
  0
LINE
  5
1b2
100
AcDbEntity
  8
Layer_1
 62
7
100
AcDbLine
 10
176.545875
 20
141.756701
 30
0.0
 11
176.545875
 21
138.754563
 31
0.0
  0
LINE
  5
1b3
100
AcDbEntity
  8
Layer_1
 62
7
100
AcDbLine
 10
176.545875
 20
138.754563
 30
0.0
 11
183.689625
 21
138.754563
 31
0.0
  0
LINE
  5
1b4
100
AcDbEntity
  8
Layer_1
 62
7
100
AcDbLine
 10
183.689625
 20
141.756701
 30
0.0
 11
183.689625
 21
138.754563
 31
0.0
  0
LINE
  5
1b5
100
AcDbEntity
  8
Layer_1
 62
7
100
AcDbLine
 10
183.689625
 20
141.756701
 30
0.0
 11
187.831236
 21
141.756701
 31
0.0
  0
LINE
  5
1b6
100
AcDbEntity
  8
Layer_1
 62
7
100
AcDbLine
 10
140.830653
 20
91.757507
 30
0.0
 11
140.830653
 21
98.897729
 31
0.0
  0
LINE
  5
1b7
100
AcDbEntity
  8
Layer_1
 62
7
100
AcDbLine
 10
143.832792
 20
98.897729
 30
0.0
 11
140.830653
 21
98.897729
 31
0.0
  0
LINE
  5
1b8
100
AcDbEntity
  8
Layer_1
 62
7
100
AcDbLine
 10
143.832792
 20
98.897729
 30
0.0
 11
143.832792
 21
106.041479
 31
0.0
  0
LINE
  5
1b9
100
AcDbEntity
  8
Layer_1
 62
7
100
AcDbLine
 10
143.832792
 20
106.041479
 30
0.0
 11
140.830653
 21
106.041479
 31
0.0
  0
LINE
  5
1ba
100
AcDbEntity
  8
Layer_1
 62
7
100
AcDbLine
 10
140.830653
 20
106.041479
 30
0.0
 11
140.830653
 21
113.185229
 31
0.0
  0
LINE
  5
1bb
100
AcDbEntity
  8
Layer_1
 62
7
100
AcDbLine
 10
143.832792
 20
113.185229
 30
0.0
 11
140.830653
 21
113.185229
 31
0.0
  0
LINE
  5
1bc
100
AcDbEntity
  8
Layer_1
 62
7
100
AcDbLine
 10
143.832792
 20
113.185229
 30
0.0
 11
143.832792
 21
120.328979
 31
0.0
  0
LINE
  5
1bd
100
AcDbEntity
  8
Layer_1
 62
7
100
AcDbLine
 10
143.832792
 20
120.328979
 30
0.0
 11
140.830653
 21
120.328979
 31
0.0
  0
LINE
  5
1be
100
AcDbEntity
  8
Layer_1
 62
7
100
AcDbLine
 10
140.830653
 20
120.328979
 30
0.0
 11
140.830653
 21
127.469201
 31
0.0
  0
LINE
  5
1bf
100
AcDbEntity
  8
Layer_1
 62
7
100
AcDbLine
 10
143.832792
 20
127.469201
 30
0.0
 11
140.830653
 21
127.469201
 31
0.0
  0
LINE
  5
1c0
100
AcDbEntity
  8
Layer_1
 62
7
100
AcDbLine
 10
143.832792
 20
127.469201
 30
0.0
 11
143.832792
 21
134.612951
 31
0.0
  0
LINE
  5
1c1
100
AcDbEntity
  8
Layer_1
 62
7
100
AcDbLine
 10
143.832792
 20
134.612951
 30
0.0
 11
140.830653
 21
134.612951
 31
0.0
  0
LINE
  5
1c2
100
AcDbEntity
  8
Layer_1
 62
7
100
AcDbLine
 10
140.830653
 20
134.612951
 30
0.0
 11
140.830653
 21
141.756701
 31
0.0
  0
LINE
  5
1c3
100
AcDbEntity
  8
Layer_1
 62
7
100
AcDbLine
 10
187.831236
 20
91.757507
 30
0.0
 11
187.831236
 21
98.897729
 31
0.0
  0
LINE
  5
1c4
100
AcDbEntity
  8
Layer_1
 62
7
100
AcDbLine
 10
190.833375
 20
98.897729
 30
0.0
 11
187.831236
 21
98.897729
 31
0.0
  0
LINE
  5
1c5
100
AcDbEntity
  8
Layer_1
 62
7
100
AcDbLine
 10
190.833375
 20
98.897729
 30
0.0
 11
190.833375
 21
106.041479
 31
0.0
  0
LINE
  5
1c6
100
AcDbEntity
  8
Layer_1
 62
7
100
AcDbLine
 10
190.833375
 20
106.041479
 30
0.0
 11
187.831236
 21
106.041479
 31
0.0
  0
LINE
  5
1c7
100
AcDbEntity
  8
Layer_1
 62
7
100
AcDbLine
 10
187.831236
 20
106.041479
 30
0.0
 11
187.831236
 21
113.185229
 31
0.0
  0
LINE
  5
1c8
100
AcDbEntity
  8
Layer_1
 62
7
100
AcDbLine
 10
190.833375
 20
113.185229
 30
0.0
 11
187.831236
 21
113.185229
 31
0.0
  0
LINE
  5
1c9
100
AcDbEntity
  8
Layer_1
 62
7
100
AcDbLine
 10
190.833375
 20
113.185229
 30
0.0
 11
190.833375
 21
120.328979
 31
0.0
  0
LINE
  5
1ca
100
AcDbEntity
  8
Layer_1
 62
7
100
AcDbLine
 10
190.833375
 20
120.328979
 30
0.0
 11
187.831236
 21
120.328979
 31
0.0
  0
LINE
  5
1cb
100
AcDbEntity
  8
Layer_1
 62
7
100
AcDbLine
 10
187.831236
 20
120.328979
 30
0.0
 11
187.831236
 21
127.469201
 31
0.0
  0
LINE
  5
1cc
100
AcDbEntity
  8
Layer_1
 62
7
100
AcDbLine
 10
190.833375
 20
127.469201
 30
0.0
 11
187.831236
 21
127.469201
 31
0.0
  0
LINE
  5
1cd
100
AcDbEntity
  8
Layer_1
 62
7
100
AcDbLine
 10
190.833375
 20
127.469201
 30
0.0
 11
190.833375
 21
134.612951
 31
0.0
  0
LINE
  5
1ce
100
AcDbEntity
  8
Layer_1
 62
7
100
AcDbLine
 10
190.833375
 20
134.612951
 30
0.0
 11
187.831236
 21
134.612951
 31
0.0
  0
LINE
  5
1cf
100
AcDbEntity
  8
Layer_1
 62
7
100
AcDbLine
 10
187.831236
 20
134.612951
 30
0.0
 11
187.831236
 21
141.756701
 31
0.0
  0
LINE
  5
1d0
100
AcDbEntity
  8
Layer_1
 62
7
100
AcDbLine
 10
80.833736
 20
151.754424
 30
0.0
 11
87.973958
 21
151.754424
 31
0.0
  0
LINE
  5
1d1
100
AcDbEntity
  8
Layer_1
 62
7
100
AcDbLine
 10
87.973958
 20
154.756563
 30
0.0
 11
87.973958
 21
151.754424
 31
0.0
  0
LINE
  5
1d2
100
AcDbEntity
  8
Layer_1
 62
7
100
AcDbLine
 10
87.973958
 20
154.756563
 30
0.0
 11
95.117708
 21
154.756563
 31
0.0
  0
LINE
  5
1d3
100
AcDbEntity
  8
Layer_1
 62
7
100
AcDbLine
 10
95.117708
 20
154.756563
 30
0.0
 11
95.117708
 21
151.754424
 31
0.0
  0
LINE
  5
1d4
100
AcDbEntity
  8
Layer_1
 62
7
100
AcDbLine
 10
95.117708
 20
151.754424
 30
0.0
 11
102.261458
 21
151.754424
 31
0.0
  0
LINE
  5
1d5
100
AcDbEntity
  8
Layer_1
 62
7
100
AcDbLine
 10
102.261458
 20
154.756563
 30
0.0
 11
102.261458
 21
151.754424
 31
0.0
  0
LINE
  5
1d6
100
AcDbEntity
  8
Layer_1
 62
7
100
AcDbLine
 10
102.261458
 20
154.756563
 30
0.0
 11
109.405208
 21
154.756563
 31
0.0
  0
LINE
  5
1d7
100
AcDbEntity
  8
Layer_1
 62
7
100
AcDbLine
 10
109.405208
 20
154.756563
 30
0.0
 11
109.405208
 21
151.754424
 31
0.0
  0
LINE
  5
1d8
100
AcDbEntity
  8
Layer_1
 62
7
100
AcDbLine
 10
109.405208
 20
151.754424
 30
0.0
 11
116.545431
 21
151.754424
 31
0.0
  0
LINE
  5
1d9
100
AcDbEntity
  8
Layer_1
 62
7
100
AcDbLine
 10
116.545431
 20
154.756563
 30
0.0
 11
116.545431
 21
151.754424
 31
0.0
  0
LINE
  5
1da
100
AcDbEntity
  8
Layer_1
 62
7
100
AcDbLine
 10
116.545431
 20
154.756563
 30
0.0
 11
123.689181
 21
154.756563
 31
0.0
  0
LINE
  5
1db
100
AcDbEntity
  8
Layer_1
 62
7
100
AcDbLine
 10
123.689181
 20
154.756563
 30
0.0
 11
123.689181
 21
151.754424
 31
0.0
  0
LINE
  5
1dc
100
AcDbEntity
  8
Layer_1
 62
7
100
AcDbLine
 10
123.689181
 20
151.754424
 30
0.0
 11
127.830792
 21
151.754424
 31
0.0
  0
LINE
  5
1dd
100
AcDbEntity
  8
Layer_1
 62
7
100
AcDbLine
 10
80.833736
 20
201.757146
 30
0.0
 11
87.973958
 21
201.757146
 31
0.0
  0
LINE
  5
1de
100
AcDbEntity
  8
Layer_1
 62
7
100
AcDbLine
 10
87.973958
 20
201.757146
 30
0.0
 11
87.973958
 21
198.755007
 31
0.0
  0
LINE
  5
1df
100
AcDbEntity
  8
Layer_1
 62
7
100
AcDbLine
 10
87.973958
 20
198.755007
 30
0.0
 11
95.117708
 21
198.755007
 31
0.0
  0
LINE
  5
1e0
100
AcDbEntity
  8
Layer_1
 62
7
100
AcDbLine
 10
95.117708
 20
201.757146
 30
0.0
 11
95.117708
 21
198.755007
 31
0.0
  0
LINE
  5
1e1
100
AcDbEntity
  8
Layer_1
 62
7
100
AcDbLine
 10
95.117708
 20
201.757146
 30
0.0
 11
102.261458
 21
201.757146
 31
0.0
  0
LINE
  5
1e2
100
AcDbEntity
  8
Layer_1
 62
7
100
AcDbLine
 10
102.261458
 20
201.757146
 30
0.0
 11
102.261458
 21
198.755007
 31
0.0
  0
LINE
  5
1e3
100
AcDbEntity
  8
Layer_1
 62
7
100
AcDbLine
 10
102.261458
 20
198.755007
 30
0.0
 11
109.405208
 21
198.755007
 31
0.0
  0
LINE
  5
1e4
100
AcDbEntity
  8
Layer_1
 62
7
100
AcDbLine
 10
109.405208
 20
201.757146
 30
0.0
 11
109.405208
 21
198.755007
 31
0.0
  0
LINE
  5
1e5
100
AcDbEntity
  8
Layer_1
 62
7
100
AcDbLine
 10
109.405208
 20
201.757146
 30
0.0
 11
116.545431
 21
201.757146
 31
0.0
  0
LINE
  5
1e6
100
AcDbEntity
  8
Layer_1
 62
7
100
AcDbLine
 10
116.545431
 20
201.757146
 30
0.0
 11
116.545431
 21
198.755007
 31
0.0
  0
LINE
  5
1e7
100
AcDbEntity
  8
Layer_1
 62
7
100
AcDbLine
 10
116.545431
 20
198.755007
 30
0.0
 11
123.689181
 21
198.755007
 31
0.0
  0
LINE
  5
1e8
100
AcDbEntity
  8
Layer_1
 62
7
100
AcDbLine
 10
123.689181
 20
201.757146
 30
0.0
 11
123.689181
 21
198.755007
 31
0.0
  0
LINE
  5
1e9
100
AcDbEntity
  8
Layer_1
 62
7
100
AcDbLine
 10
123.689181
 20
201.757146
 30
0.0
 11
127.830792
 21
201.757146
 31
0.0
  0
LINE
  5
1ea
100
AcDbEntity
  8
Layer_1
 62
7
100
AcDbLine
 10
80.833736
 20
151.754424
 30
0.0
 11
80.833736
 21
158.898174
 31
0.0
  0
LINE
  5
1eb
100
AcDbEntity
  8
Layer_1
 62
7
100
AcDbLine
 10
83.832347
 20
158.898174
 30
0.0
 11
80.833736
 21
158.898174
 31
0.0
  0
LINE
  5
1ec
100
AcDbEntity
  8
Layer_1
 62
7
100
AcDbLine
 10
83.832347
 20
158.898174
 30
0.0
 11
83.832347
 21
166.041924
 31
0.0
  0
LINE
  5
1ed
100
AcDbEntity
  8
Layer_1
 62
7
100
AcDbLine
 10
83.832347
 20
166.041924
 30
0.0
 11
80.833736
 21
166.041924
 31
0.0
  0
LINE
  5
1ee
100
AcDbEntity
  8
Layer_1
 62
7
100
AcDbLine
 10
80.833736
 20
166.041924
 30
0.0
 11
80.833736
 21
173.185674
 31
0.0
  0
LINE
  5
1ef
100
AcDbEntity
  8
Layer_1
 62
7
100
AcDbLine
 10
83.832347
 20
173.185674
 30
0.0
 11
80.833736
 21
173.185674
 31
0.0
  0
LINE
  5
1f0
100
AcDbEntity
  8
Layer_1
 62
7
100
AcDbLine
 10
83.832347
 20
173.185674
 30
0.0
 11
83.832347
 21
180.325896
 31
0.0
  0
LINE
  5
1f1
100
AcDbEntity
  8
Layer_1
 62
7
100
AcDbLine
 10
83.832347
 20
180.325896
 30
0.0
 11
80.833736
 21
180.325896
 31
0.0
  0
LINE
  5
1f2
100
AcDbEntity
  8
Layer_1
 62
7
100
AcDbLine
 10
80.833736
 20
180.325896
 30
0.0
 11
80.833736
 21
187.469646
 31
0.0
  0
LINE
  5
1f3
100
AcDbEntity
  8
Layer_1
 62
7
100
AcDbLine
 10
83.832347
 20
187.469646
 30
0.0
 11
80.833736
 21
187.469646
 31
0.0
  0
LINE
  5
1f4
100
AcDbEntity
  8
Layer_1
 62
7
100
AcDbLine
 10
83.832347
 20
187.469646
 30
0.0
 11
83.832347
 21
194.613396
 31
0.0
  0
LINE
  5
1f5
100
AcDbEntity
  8
Layer_1
 62
7
100
AcDbLine
 10
83.832347
 20
194.613396
 30
0.0
 11
80.833736
 21
194.613396
 31
0.0
  0
LINE
  5
1f6
100
AcDbEntity
  8
Layer_1
 62
7
100
AcDbLine
 10
80.833736
 20
194.613396
 30
0.0
 11
80.833736
 21
201.757146
 31
0.0
  0
LINE
  5
1f7
100
AcDbEntity
  8
Layer_1
 62
7
100
AcDbLine
 10
127.830792
 20
151.754424
 30
0.0
 11
127.830792
 21
158.898174
 31
0.0
  0
LINE
  5
1f8
100
AcDbEntity
  8
Layer_1
 62
7
100
AcDbLine
 10
130.832931
 20
158.898174
 30
0.0
 11
127.830792
 21
158.898174
 31
0.0
  0
LINE
  5
1f9
100
AcDbEntity
  8
Layer_1
 62
7
100
AcDbLine
 10
130.832931
 20
158.898174
 30
0.0
 11
130.832931
 21
166.041924
 31
0.0
  0
LINE
  5
1fa
100
AcDbEntity
  8
Layer_1
 62
7
100
AcDbLine
 10
130.832931
 20
166.041924
 30
0.0
 11
127.830792
 21
166.041924
 31
0.0
  0
LINE
  5
1fb
100
AcDbEntity
  8
Layer_1
 62
7
100
AcDbLine
 10
127.830792
 20
166.041924
 30
0.0
 11
127.830792
 21
173.185674
 31
0.0
  0
LINE
  5
1fc
100
AcDbEntity
  8
Layer_1
 62
7
100
AcDbLine
 10
130.832931
 20
173.185674
 30
0.0
 11
127.830792
 21
173.185674
 31
0.0
  0
LINE
  5
1fd
100
AcDbEntity
  8
Layer_1
 62
7
100
AcDbLine
 10
130.832931
 20
173.185674
 30
0.0
 11
130.832931
 21
180.325896
 31
0.0
  0
LINE
  5
1fe
100
AcDbEntity
  8
Layer_1
 62
7
100
AcDbLine
 10
130.832931
 20
180.325896
 30
0.0
 11
127.830792
 21
180.325896
 31
0.0
  0
LINE
  5
1ff
100
AcDbEntity
  8
Layer_1
 62
7
100
AcDbLine
 10
127.830792
 20
180.325896
 30
0.0
 11
127.830792
 21
187.469646
 31
0.0
  0
LINE
  5
200
100
AcDbEntity
  8
Layer_1
 62
7
100
AcDbLine
 10
130.832931
 20
187.469646
 30
0.0
 11
127.830792
 21
187.469646
 31
0.0
  0
LINE
  5
201
100
AcDbEntity
  8
Layer_1
 62
7
100
AcDbLine
 10
130.832931
 20
187.469646
 30
0.0
 11
130.832931
 21
194.613396
 31
0.0
  0
LINE
  5
202
100
AcDbEntity
  8
Layer_1
 62
7
100
AcDbLine
 10
130.832931
 20
194.613396
 30
0.0
 11
127.830792
 21
194.613396
 31
0.0
  0
LINE
  5
203
100
AcDbEntity
  8
Layer_1
 62
7
100
AcDbLine
 10
127.830792
 20
194.613396
 30
0.0
 11
127.830792
 21
201.757146
 31
0.0
  0
LINE
  5
204
100
AcDbEntity
  8
Layer_1
 62
7
100
AcDbLine
 10
83.832347
 20
214.757007
 30
0.0
 11
87.973958
 21
214.757007
 31
0.0
  0
LINE
  5
205
100
AcDbEntity
  8
Layer_1
 62
7
100
AcDbLine
 10
87.973958
 20
214.757007
 30
0.0
 11
87.973958
 21
211.754868
 31
0.0
  0
LINE
  5
206
100
AcDbEntity
  8
Layer_1
 62
7
100
AcDbLine
 10
87.973958
 20
211.754868
 30
0.0
 11
95.117708
 21
211.754868
 31
0.0
  0
LINE
  5
207
100
AcDbEntity
  8
Layer_1
 62
7
100
AcDbLine
 10
95.117708
 20
214.757007
 30
0.0
 11
95.117708
 21
211.754868
 31
0.0
  0
LINE
  5
208
100
AcDbEntity
  8
Layer_1
 62
7
100
AcDbLine
 10
95.117708
 20
214.757007
 30
0.0
 11
102.261458
 21
214.757007
 31
0.0
  0
LINE
  5
209
100
AcDbEntity
  8
Layer_1
 62
7
100
AcDbLine
 10
102.261458
 20
214.757007
 30
0.0
 11
102.261458
 21
211.754868
 31
0.0
  0
LINE
  5
20a
100
AcDbEntity
  8
Layer_1
 62
7
100
AcDbLine
 10
102.261458
 20
211.754868
 30
0.0
 11
109.405208
 21
211.754868
 31
0.0
  0
LINE
  5
20b
100
AcDbEntity
  8
Layer_1
 62
7
100
AcDbLine
 10
109.405208
 20
214.757007
 30
0.0
 11
109.405208
 21
211.754868
 31
0.0
  0
LINE
  5
20c
100
AcDbEntity
  8
Layer_1
 62
7
100
AcDbLine
 10
109.405208
 20
214.757007
 30
0.0
 11
116.545431
 21
214.757007
 31
0.0
  0
LINE
  5
20d
100
AcDbEntity
  8
Layer_1
 62
7
100
AcDbLine
 10
116.545431
 20
214.757007
 30
0.0
 11
116.545431
 21
211.754868
 31
0.0
  0
LINE
  5
20e
100
AcDbEntity
  8
Layer_1
 62
7
100
AcDbLine
 10
116.545431
 20
211.754868
 30
0.0
 11
123.689181
 21
211.754868
 31
0.0
  0
LINE
  5
20f
100
AcDbEntity
  8
Layer_1
 62
7
100
AcDbLine
 10
123.689181
 20
214.757007
 30
0.0
 11
123.689181
 21
211.754868
 31
0.0
  0
LINE
  5
210
100
AcDbEntity
  8
Layer_1
 62
7
100
AcDbLine
 10
123.689181
 20
214.757007
 30
0.0
 11
127.830792
 21
214.757007
 31
0.0
  0
LINE
  5
211
100
AcDbEntity
  8
Layer_1
 62
7
100
AcDbLine
 10
83.832347
 20
258.755451
 30
0.0
 11
87.973958
 21
258.755451
 31
0.0
  0
LINE
  5
212
100
AcDbEntity
  8
Layer_1
 62
7
100
AcDbLine
 10
87.973958
 20
261.754063
 30
0.0
 11
87.973958
 21
258.755451
 31
0.0
  0
LINE
  5
213
100
AcDbEntity
  8
Layer_1
 62
7
100
AcDbLine
 10
87.973958
 20
261.754063
 30
0.0
 11
95.117708
 21
261.754063
 31
0.0
  0
LINE
  5
214
100
AcDbEntity
  8
Layer_1
 62
7
100
AcDbLine
 10
95.117708
 20
261.754063
 30
0.0
 11
95.117708
 21
258.755451
 31
0.0
  0
LINE
  5
215
100
AcDbEntity
  8
Layer_1
 62
7
100
AcDbLine
 10
95.117708
 20
258.755451
 30
0.0
 11
102.261458
 21
258.755451
 31
0.0
  0
LINE
  5
216
100
AcDbEntity
  8
Layer_1
 62
7
100
AcDbLine
 10
102.261458
 20
261.754063
 30
0.0
 11
102.261458
 21
258.755451
 31
0.0
  0
LINE
  5
217
100
AcDbEntity
  8
Layer_1
 62
7
100
AcDbLine
 10
102.261458
 20
261.754063
 30
0.0
 11
109.405208
 21
261.754063
 31
0.0
  0
LINE
  5
218
100
AcDbEntity
  8
Layer_1
 62
7
100
AcDbLine
 10
109.405208
 20
261.754063
 30
0.0
 11
109.405208
 21
258.755451
 31
0.0
  0
LINE
  5
219
100
AcDbEntity
  8
Layer_1
 62
7
100
AcDbLine
 10
109.405208
 20
258.755451
 30
0.0
 11
116.545431
 21
258.755451
 31
0.0
  0
LINE
  5
21a
100
AcDbEntity
  8
Layer_1
 62
7
100
AcDbLine
 10
116.545431
 20
261.754063
 30
0.0
 11
116.545431
 21
258.755451
 31
0.0
  0
LINE
  5
21b
100
AcDbEntity
  8
Layer_1
 62
7
100
AcDbLine
 10
116.545431
 20
261.754063
 30
0.0
 11
123.689181
 21
261.754063
 31
0.0
  0
LINE
  5
21c
100
AcDbEntity
  8
Layer_1
 62
7
100
AcDbLine
 10
123.689181
 20
261.754063
 30
0.0
 11
123.689181
 21
258.755451
 31
0.0
  0
LINE
  5
21d
100
AcDbEntity
  8
Layer_1
 62
7
100
AcDbLine
 10
123.689181
 20
258.755451
 30
0.0
 11
127.830792
 21
258.755451
 31
0.0
  0
LINE
  5
21e
100
AcDbEntity
  8
Layer_1
 62
7
100
AcDbLine
 10
83.832347
 20
214.757007
 30
0.0
 11
83.832347
 21
218.898618
 31
0.0
  0
LINE
  5
21f
100
AcDbEntity
  8
Layer_1
 62
7
100
AcDbLine
 10
83.832347
 20
218.898618
 30
0.0
 11
80.833736
 21
218.898618
 31
0.0
  0
LINE
  5
220
100
AcDbEntity
  8
Layer_1
 62
7
100
AcDbLine
 10
80.833736
 20
218.898618
 30
0.0
 11
80.833736
 21
226.042368
 31
0.0
  0
LINE
  5
221
100
AcDbEntity
  8
Layer_1
 62
7
100
AcDbLine
 10
83.832347
 20
226.042368
 30
0.0
 11
80.833736
 21
226.042368
 31
0.0
  0
LINE
  5
222
100
AcDbEntity
  8
Layer_1
 62
7
100
AcDbLine
 10
83.832347
 20
226.042368
 30
0.0
 11
83.832347
 21
233.186118
 31
0.0
  0
LINE
  5
223
100
AcDbEntity
  8
Layer_1
 62
7
100
AcDbLine
 10
83.832347
 20
233.186118
 30
0.0
 11
80.833736
 21
233.186118
 31
0.0
  0
LINE
  5
224
100
AcDbEntity
  8
Layer_1
 62
7
100
AcDbLine
 10
80.833736
 20
233.186118
 30
0.0
 11
80.833736
 21
240.326340
 31
0.0
  0
LINE
  5
225
100
AcDbEntity
  8
Layer_1
 62
7
100
AcDbLine
 10
83.832347
 20
240.326340
 30
0.0
 11
80.833736
 21
240.326340
 31
0.0
  0
LINE
  5
226
100
AcDbEntity
  8
Layer_1
 62
7
100
AcDbLine
 10
83.832347
 20
240.326340
 30
0.0
 11
83.832347
 21
247.470090
 31
0.0
  0
LINE
  5
227
100
AcDbEntity
  8
Layer_1
 62
7
100
AcDbLine
 10
83.832347
 20
247.470090
 30
0.0
 11
80.833736
 21
247.470090
 31
0.0
  0
LINE
  5
228
100
AcDbEntity
  8
Layer_1
 62
7
100
AcDbLine
 10
80.833736
 20
247.470090
 30
0.0
 11
80.833736
 21
254.613840
 31
0.0
  0
LINE
  5
229
100
AcDbEntity
  8
Layer_1
 62
7
100
AcDbLine
 10
83.832347
 20
254.613840
 30
0.0
 11
80.833736
 21
254.613840
 31
0.0
  0
LINE
  5
22a
100
AcDbEntity
  8
Layer_1
 62
7
100
AcDbLine
 10
83.832347
 20
254.613840
 30
0.0
 11
83.832347
 21
258.755451
 31
0.0
  0
LINE
  5
22b
100
AcDbEntity
  8
Layer_1
 62
7
100
AcDbLine
 10
127.830792
 20
214.757007
 30
0.0
 11
127.830792
 21
218.898618
 31
0.0
  0
LINE
  5
22c
100
AcDbEntity
  8
Layer_1
 62
7
100
AcDbLine
 10
130.832931
 20
218.898618
 30
0.0
 11
127.830792
 21
218.898618
 31
0.0
  0
LINE
  5
22d
100
AcDbEntity
  8
Layer_1
 62
7
100
AcDbLine
 10
130.832931
 20
218.898618
 30
0.0
 11
130.832931
 21
226.042368
 31
0.0
  0
LINE
  5
22e
100
AcDbEntity
  8
Layer_1
 62
7
100
AcDbLine
 10
130.832931
 20
226.042368
 30
0.0
 11
127.830792
 21
226.042368
 31
0.0
  0
LINE
  5
22f
100
AcDbEntity
  8
Layer_1
 62
7
100
AcDbLine
 10
127.830792
 20
226.042368
 30
0.0
 11
127.830792
 21
233.186118
 31
0.0
  0
LINE
  5
230
100
AcDbEntity
  8
Layer_1
 62
7
100
AcDbLine
 10
130.832931
 20
233.186118
 30
0.0
 11
127.830792
 21
233.186118
 31
0.0
  0
LINE
  5
231
100
AcDbEntity
  8
Layer_1
 62
7
100
AcDbLine
 10
130.832931
 20
233.186118
 30
0.0
 11
130.832931
 21
240.326340
 31
0.0
  0
LINE
  5
232
100
AcDbEntity
  8
Layer_1
 62
7
100
AcDbLine
 10
130.832931
 20
240.326340
 30
0.0
 11
127.830792
 21
240.326340
 31
0.0
  0
LINE
  5
233
100
AcDbEntity
  8
Layer_1
 62
7
100
AcDbLine
 10
127.830792
 20
240.326340
 30
0.0
 11
127.830792
 21
247.470090
 31
0.0
  0
LINE
  5
234
100
AcDbEntity
  8
Layer_1
 62
7
100
AcDbLine
 10
130.832931
 20
247.470090
 30
0.0
 11
127.830792
 21
247.470090
 31
0.0
  0
LINE
  5
235
100
AcDbEntity
  8
Layer_1
 62
7
100
AcDbLine
 10
130.832931
 20
247.470090
 30
0.0
 11
130.832931
 21
254.613840
 31
0.0
  0
LINE
  5
236
100
AcDbEntity
  8
Layer_1
 62
7
100
AcDbLine
 10
130.832931
 20
254.613840
 30
0.0
 11
127.830792
 21
254.613840
 31
0.0
  0
LINE
  5
237
100
AcDbEntity
  8
Layer_1
 62
7
100
AcDbLine
 10
127.830792
 20
254.613840
 30
0.0
 11
127.830792
 21
258.755451
 31
0.0
  0
LINE
  5
238
100
AcDbEntity
  8
Layer_1
 62
7
100
AcDbLine
 10
85.836749
 20
251.753538
 30
0.0
 11
85.836749
 21
221.758607
 31
0.0
  0
SPLINE
  5
239
100
AcDbEntity
  8
Layer_1
 62
7
100
AcDbSpline
 70
0
 71
3
 72
10
 73
6
 74
4
 40
0.000000
 40
0.000000
 40
0.000000
 40
0.000000
 40
2.617678
 40
5.152164
 40
7.769842
 40
7.769842
 40
7.769842
 40
7.769842
 10
90.837374
 20
256.754163
 30
0.0
 10
89.959808
 20
256.617657
 30
0.0
 10
88.232565
 20
256.348982
 30
0.0
 10
86.241929
 20
254.358346
 30
0.0
 10
85.973255
 20
252.631104
 30
0.0
 10
85.836749
 20
251.753538
 30
0.0
 11
90.837374
 21
256.754163
 31
0.0
 11
88.309804
 21
256.073260
 31
0.0
 11
86.517652
 21
254.281107
 31
0.0
 11
85.836749
 21
251.753538
 31
0.0
  0
LINE
  5
23a
100
AcDbEntity
  8
Layer_1
 62
7
100
AcDbLine
 10
90.837374
 20
216.757982
 30
0.0
 11
120.832304
 21
216.757982
 31
0.0
  0
SPLINE
  5
23b
100
AcDbEntity
  8
Layer_1
 62
7
100
AcDbSpline
 70
0
 71
3
 72
10
 73
6
 74
4
 40
0.000000
 40
0.000000
 40
0.000000
 40
0.000000
 40
2.617678
 40
5.152164
 40
7.769842
 40
7.769842
 40
7.769842
 40
7.769842
 10
85.836749
 20
221.758607
 30
0.0
 10
85.973255
 20
220.881041
 30
0.0
 10
86.241929
 20
219.153799
 30
0.0
 10
88.232565
 20
217.163163
 30
0.0
 10
89.959808
 20
216.894489
 30
0.0
 10
90.837374
 20
216.757982
 30
0.0
 11
85.836749
 21
221.758607
 31
0.0
 11
86.517652
 21
219.231038
 31
0.0
 11
88.309804
 21
217.438885
 31
0.0
 11
90.837374
 21
216.757982
 31
0.0
  0
LINE
  5
23c
100
AcDbEntity
  8
Layer_1
 62
7
100
AcDbLine
 10
125.832929
 20
221.758607
 30
0.0
 11
125.832929
 21
251.753538
 31
0.0
  0
SPLINE
  5
23d
100
AcDbEntity
  8
Layer_1
 62
7
100
AcDbSpline
 70
0
 71
3
 72
10
 73
6
 74
4
 40
0.000000
 40
0.000000
 40
0.000000
 40
0.000000
 40
2.617678
 40
5.152164
 40
7.769842
 40
7.769842
 40
7.769842
 40
7.769842
 10
120.832304
 20
216.757982
 30
0.0
 10
121.709870
 20
216.894489
 30
0.0
 10
123.437113
 20
217.163163
 30
0.0
 10
125.427749
 20
219.153799
 30
0.0
 10
125.696423
 20
220.881041
 30
0.0
 10
125.832929
 20
221.758607
 30
0.0
 11
120.832304
 21
216.757982
 31
0.0
 11
123.359874
 21
217.438885
 31
0.0
 11
125.152026
 21
219.231038
 31
0.0
 11
125.832929
 21
221.758607
 31
0.0
  0
LINE
  5
23e
100
AcDbEntity
  8
Layer_1
 62
7
100
AcDbLine
 10
120.832304
 20
256.754163
 30
0.0
 11
90.837374
 21
256.754163
 31
0.0
  0
LINE
  5
23f
100
AcDbEntity
  8
Layer_1
 62
7
100
AcDbLine
 10
90.837374
 20
256.754163
 30
0.0
 11
90.837374
 21
256.754163
 31
0.0
  0
SPLINE
  5
240
100
AcDbEntity
  8
Layer_1
 62
7
100
AcDbSpline
 70
0
 71
3
 72
10
 73
6
 74
4
 40
0.000000
 40
0.000000
 40
0.000000
 40
0.000000
 40
2.617678
 40
5.152164
 40
7.769842
 40
7.769842
 40
7.769842
 40
7.769842
 10
125.832929
 20
251.753538
 30
0.0
 10
125.696423
 20
252.631104
 30
0.0
 10
125.427749
 20
254.358346
 30
0.0
 10
123.437113
 20
256.348982
 30
0.0
 10
121.709870
 20
256.617657
 30
0.0
 10
120.832304
 20
256.754163
 30
0.0
 11
125.832929
 21
251.753538
 31
0.0
 11
125.152026
 21
254.281107
 31
0.0
 11
123.359874
 21
256.073260
 31
0.0
 11
120.832304
 21
256.754163
 31
0.0
  0
LINE
  5
241
100
AcDbEntity
  8
Layer_1
 62
7
100
AcDbLine
 10
106.941679
 20
248.446246
 30
0.0
 11
106.941679
 21
247.211524
 31
0.0
  0
SPLINE
  5
242
100
AcDbEntity
  8
Layer_1
 62
7
100
AcDbSpline
 70
0
 71
3
 72
10
 73
6
 74
4
 40
0.000000
 40
0.000000
 40
0.000000
 40
0.000000
 40
0.455052
 40
1.118879
 40
2.156423
 40
2.156423
 40
2.156423
 40
2.156423
 10
106.227304
 20
250.307149
 30
0.0
 10
106.378124
 20
250.253766
 30
0.0
 10
106.748960
 20
250.122507
 30
0.0
 10
106.918792
 20
249.333967
 30
0.0
 10
106.933009
 20
248.782529
 30
0.0
 10
106.941679
 20
248.446246
 30
0.0
 11
106.227304
 21
250.307149
 31
0.0
 11
106.633001
 21
250.101035
 31
0.0
 11
106.871125
 21
249.481388
 31
0.0
 11
106.941679
 21
248.446246
 31
0.0
  0
SPLINE
  5
243
100
AcDbEntity
  8
Layer_1
 62
7
100
AcDbSpline
 70
0
 71
3
 72
13
 73
9
 74
7
 40
0.000000
 40
0.000000
 40
0.000000
 40
0.000000
 40
0.390248
 40
0.792829
 40
1.208990
 40
4.301403
 40
7.836197
 40
11.811730
 40
11.811730
 40
11.811730
 40
11.811730
 10
106.941679
 20
247.211524
 30
0.0
 10
106.933987
 20
247.081661
 30
0.0
 10
106.918361
 20
246.817831
 30
0.0
 10
106.908230
 20
246.414891
 30
0.0
 10
106.901684
 20
245.111185
 30
0.0
 10
106.923909
 20
242.763383
 30
0.0
 10
106.980591
 20
239.229579
 30
0.0
 10
107.047417
 20
236.727006
 30
0.0
 10
107.082790
 20
235.402288
 30
0.0
 11
106.941679
 21
247.211524
 31
0.0
 11
106.920780
 21
246.821836
 31
0.0
 11
106.909671
 21
246.419409
 31
0.0
 11
106.906401
 21
246.003260
 31
0.0
 11
106.925674
 21
242.910907
 31
0.0
 11
106.984144
 21
239.376597
 31
0.0
 11
107.082790
 21
235.402288
 31
0.0
  0
SPLINE
  5
244
100
AcDbEntity
  8
Layer_1
 62
7
100
AcDbSpline
 70
0
 71
3
 72
16
 73
12
 74
10
 40
0.000000
 40
0.000000
 40
0.000000
 40
0.000000
 40
3.983432
 40
7.519444
 40
10.611214
 40
11.502201
 40
12.154564
 40
12.816760
 40
13.603908
 40
14.607340
 40
16.123212
 40
16.123212
 40
16.123212
 40
16.123212
 10
107.082790
 20
235.402288
 30
0.0
 10
107.115753
 20
234.075332
 30
0.0
 10
107.177976
 20
231.570464
 30
0.0
 10
107.212021
 20
228.027687
 30
0.0
 10
107.277822
 20
225.536714
 30
0.0
 10
107.211123
 20
223.971941
 30
0.0
 10
106.781103
 20
223.309634
 30
0.0
 10
106.048413
 20
223.125258
 30
0.0
 10
105.217977
 20
223.467649
 30
0.0
 10
104.831371
 20
224.589017
 30
0.0
 10
104.810882
 20
225.420862
 30
0.0
 10
104.798554
 20
225.921385
 30
0.0
 11
107.082790
 21
235.402288
 31
0.0
 11
107.170987
 21
231.419833
 31
0.0
 11
107.223903
 21
227.884216
 31
0.0
 11
107.241540
 21
224.792496
 31
0.0
 11
107.114803
 21
223.910569
 31
0.0
 11
106.733280
 21
223.381403
 31
0.0
 11
106.095013
 21
223.204996
 31
0.0
 11
105.367901
 21
223.506509
 31
0.0
 11
104.934768
 21
224.411645
 31
0.0
 11
104.798554
 21
225.921385
 31
0.0
  0
LINE
  5
245
100
AcDbEntity
  8
Layer_1
 62
7
100
AcDbLine
 10
104.842651
 20
226.856246
 30
0.0
 11
104.842651
 21
227.782288
 31
0.0
  0
SPLINE
  5
246
100
AcDbEntity
  8
Layer_1
 62
7
100
AcDbSpline
 70
0
 71
3
 72
10
 73
6
 74
4
 40
0.000000
 40
0.000000
 40
0.000000
 40
0.000000
 40
0.342386
 40
0.654710
 40
0.936240
 40
0.936240
 40
0.936240
 40
0.936240
 10
104.798554
 20
225.921385
 30
0.0
 10
104.799636
 20
226.035515
 30
0.0
 10
104.801704
 20
226.253753
 30
0.0
 10
104.816743
 20
226.565585
 30
0.0
 10
104.834319
 20
226.762768
 30
0.0
 10
104.842651
 20
226.856246
 30
0.0
 11
104.798554
 21
225.921385
 31
0.0
 11
104.804110
 21
226.263726
 31
0.0
 11
104.819461
 21
226.575673
 31
0.0
 11
104.842651
 21
226.856246
 31
0.0
  0
SPLINE
  5
247
100
AcDbEntity
  8
Layer_1
 62
7
100
AcDbSpline
 70
0
 71
3
 72
10
 73
6
 74
4
 40
0.000000
 40
0.000000
 40
0.000000
 40
0.000000
 40
1.848977
 40
4.590387
 40
8.222426
 40
8.222426
 40
8.222426
 40
8.222426
 10
104.842651
 20
227.782288
 30
0.0
 10
104.836397
 20
228.398591
 30
0.0
 10
104.820869
 20
229.928665
 30
0.0
 10
104.744196
 20
232.668508
 30
0.0
 10
104.677699
 20
234.791933
 30
0.0
 10
104.639804
 20
236.002010
 30
0.0
 11
104.842651
 21
227.782288
 31
0.0
 11
104.819462
 21
229.631119
 31
0.0
 11
104.751194
 21
232.371679
 31
0.0
 11
104.639804
 21
236.002010
 31
0.0
  0
SPLINE
  5
248
100
AcDbEntity
  8
Layer_1
 62
7
100
AcDbSpline
 70
0
 71
3
 72
13
 73
9
 74
7
 40
0.000000
 40
0.000000
 40
0.000000
 40
0.000000
 40
3.621219
 40
6.358417
 40
8.213898
 40
10.251433
 40
12.079582
 40
13.701814
 40
13.701814
 40
13.701814
 40
13.701814
 10
104.639804
 20
236.002010
 30
0.0
 10
104.598075
 20
237.208371
 30
0.0
 10
104.524804
 20
239.326593
 30
0.0
 10
104.452604
 20
242.063589
 30
0.0
 10
104.417996
 20
244.273601
 30
0.0
 10
104.447592
 20
246.180571
 30
0.0
 10
104.531285
 20
248.008994
 30
0.0
 10
104.659090
 20
249.152267
 30
0.0
 10
104.719179
 20
249.689788
 30
0.0
 11
104.639804
 21
236.002010
 31
0.0
 11
104.520254
 21
239.621255
 31
0.0
 11
104.450678
 21
242.357568
 31
0.0
 11
104.428138
 21
244.212913
 31
0.0
 11
104.459498
 21
246.250206
 31
0.0
 11
104.555532
 21
248.075831
 31
0.0
 11
104.719179
 21
249.689788
 31
0.0
  0
LINE
  5
249
100
AcDbEntity
  8
Layer_1
 62
7
100
AcDbLine
 10
106.227304
 20
250.307149
 30
0.0
 11
106.227304
 21
250.307149
 31
0.0
  0
SPLINE
  5
24a
100
AcDbEntity
  8
Layer_1
 62
7
100
AcDbSpline
 70
0
 71
3
 72
10
 73
6
 74
4
 40
0.000000
 40
0.000000
 40
0.000000
 40
0.000000
 40
0.645124
 40
1.188446
 40
1.652205
 40
1.652205
 40
1.652205
 40
1.652205
 10
104.719179
 20
249.689788
 30
0.0
 10
104.897687
 20
249.809434
 30
0.0
 10
105.226533
 20
250.029845
 30
0.0
 10
105.736948
 20
250.257884
 30
0.0
 10
106.072694
 20
250.291616
 30
0.0
 10
106.227304
 20
250.307149
 30
0.0
 11
104.719179
 21
249.689788
 31
0.0
 11
105.265988
 21
250.032112
 31
0.0
 11
105.768696
 21
250.238226
 31
0.0
 11
106.227304
 21
250.307149
 31
0.0
  0
LINE
  5
24b
100
AcDbEntity
  8
Layer_1
 62
7
100
AcDbLine
 10
25.829249
 20
131.756177
 30
0.0
 11
25.829249
 21
101.761246
 31
0.0
  0
SPLINE
  5
24c
100
AcDbEntity
  8
Layer_1
 62
7
100
AcDbSpline
 70
0
 71
3
 72
10
 73
6
 74
4
 40
0.000000
 40
0.000000
 40
0.000000
 40
0.000000
 40
2.617678
 40
5.152164
 40
7.769842
 40
7.769842
 40
7.769842
 40
7.769842
 10
30.829874
 20
136.756802
 30
0.0
 10
29.952308
 20
136.620295
 30
0.0
 10
28.225065
 20
136.351621
 30
0.0
 10
26.234429
 20
134.360985
 30
0.0
 10
25.965755
 20
132.633743
 30
0.0
 10
25.829249
 20
131.756177
 30
0.0
 11
30.829874
 21
136.756802
 31
0.0
 11
28.302304
 21
136.075899
 31
0.0
 11
26.510152
 21
134.283746
 31
0.0
 11
25.829249
 21
131.756177
 31
0.0
  0
LINE
  5
24d
100
AcDbEntity
  8
Layer_1
 62
7
100
AcDbLine
 10
30.829874
 20
96.760621
 30
0.0
 11
60.833624
 21
96.760621
 31
0.0
  0
SPLINE
  5
24e
100
AcDbEntity
  8
Layer_1
 62
7
100
AcDbSpline
 70
0
 71
3
 72
10
 73
6
 74
4
 40
0.000000
 40
0.000000
 40
0.000000
 40
0.000000
 40
2.617678
 40
5.152164
 40
7.769842
 40
7.769842
 40
7.769842
 40
7.769842
 10
25.829249
 20
101.761246
 30
0.0
 10
25.965755
 20
100.883680
 30
0.0
 10
26.234429
 20
99.156438
 30
0.0
 10
28.225065
 20
97.165802
 30
0.0
 10
29.952308
 20
96.897127
 30
0.0
 10
30.829874
 20
96.760621
 30
0.0
 11
25.829249
 21
101.761246
 31
0.0
 11
26.510152
 21
99.233677
 31
0.0
 11
28.302304
 21
97.441524
 31
0.0
 11
30.829874
 21
96.760621
 31
0.0
  0
LINE
  5
24f
100
AcDbEntity
  8
Layer_1
 62
7
100
AcDbLine
 10
65.834249
 20
101.761246
 30
0.0
 11
65.834249
 21
131.756177
 31
0.0
  0
SPLINE
  5
250
100
AcDbEntity
  8
Layer_1
 62
7
100
AcDbSpline
 70
0
 71
3
 72
10
 73
6
 74
4
 40
0.000000
 40
0.000000
 40
0.000000
 40
0.000000
 40
2.617678
 40
5.152164
 40
7.769842
 40
7.769842
 40
7.769842
 40
7.769842
 10
60.833624
 20
96.760621
 30
0.0
 10
61.711190
 20
96.897127
 30
0.0
 10
63.438432
 20
97.165802
 30
0.0
 10
65.429068
 20
99.156438
 30
0.0
 10
65.697742
 20
100.883680
 30
0.0
 10
65.834249
 20
101.761246
 30
0.0
 11
60.833624
 21
96.760621
 31
0.0
 11
63.361193
 21
97.441524
 31
0.0
 11
65.153346
 21
99.233677
 31
0.0
 11
65.834249
 21
101.761246
 31
0.0
  0
LINE
  5
251
100
AcDbEntity
  8
Layer_1
 62
7
100
AcDbLine
 10
60.833624
 20
136.756802
 30
0.0
 11
30.829874
 21
136.756802
 31
0.0
  0
LINE
  5
252
100
AcDbEntity
  8
Layer_1
 62
7
100
AcDbLine
 10
30.829874
 20
136.756802
 30
0.0
 11
30.829874
 21
136.756802
 31
0.0
  0
SPLINE
  5
253
100
AcDbEntity
  8
Layer_1
 62
7
100
AcDbSpline
 70
0
 71
3
 72
10
 73
6
 74
4
 40
0.000000
 40
0.000000
 40
0.000000
 40
0.000000
 40
2.617678
 40
5.152164
 40
7.769842
 40
7.769842
 40
7.769842
 40
7.769842
 10
65.834249
 20
131.756177
 30
0.0
 10
65.697742
 20
132.633743
 30
0.0
 10
65.429068
 20
134.360985
 30
0.0
 10
63.438432
 20
136.351621
 30
0.0
 10
61.711190
 20
136.620295
 30
0.0
 10
60.833624
 20
136.756802
 30
0.0
 11
65.834249
 21
131.756177
 31
0.0
 11
65.153346
 21
134.283746
 31
0.0
 11
63.361193
 21
136.075899
 31
0.0
 11
60.833624
 21
136.756802
 31
0.0
  0
SPLINE
  5
254
100
AcDbEntity
  8
Layer_1
 62
7
100
AcDbSpline
 70
0
 71
3
 72
13
 73
9
 74
7
 40
0.000000
 40
0.000000
 40
0.000000
 40
0.000000
 40
0.813475
 40
1.861817
 40
3.445965
 40
4.610228
 40
6.092485
 40
7.892901
 40
7.892901
 40
7.892901
 40
7.892901
 10
51.661401
 20
124.982843
 30
0.0
 10
51.938183
 20
124.908805
 30
0.0
 10
52.571659
 20
124.739353
 30
0.0
 10
52.961697
 20
123.516658
 30
0.0
 10
53.025702
 20
122.289965
 30
0.0
 10
52.995068
 20
120.870619
 30
0.0
 10
52.954380
 20
119.391787
 30
0.0
 10
52.911062
 20
118.297923
 30
0.0
 10
52.887304
 20
117.697982
 30
0.0
 11
51.661401
 21
124.982843
 31
0.0
 11
52.411043
 21
124.666966
 31
0.0
 11
52.860835
 21
123.720019
 31
0.0
 11
53.010776
 21
122.142982
 31
0.0
 11
52.996393
 21
120.978808
 31
0.0
 11
52.954583
 21
119.497141
 31
0.0
 11
52.887304
 21
117.697982
 31
0.0
  0
SPLINE
  5
255
100
AcDbEntity
  8
Layer_1
 62
7
100
AcDbSpline
 70
0
 71
3
 72
13
 73
9
 74
7
 40
0.000000
 40
0.000000
 40
0.000000
 40
0.000000
 40
1.782718
 40
3.238410
 40
4.367360
 40
5.579181
 40
6.730734
 40
7.826805
 40
7.826805
 40
7.826805
 40
7.826805
 10
52.887304
 20
117.697982
 30
0.0
 10
52.864239
 20
117.104183
 30
0.0
 10
52.822339
 20
116.025512
 30
0.0
 10
52.784452
 20
114.570207
 30
0.0
 10
52.765915
 20
113.304738
 30
0.0
 10
52.789473
 20
112.140623
 30
0.0
 10
52.864134
 20
110.989091
 30
0.0
 10
52.962707
 20
110.246221
 30
0.0
 10
53.010776
 20
109.883955
 30
0.0
 11
52.887304
 21
117.697982
 31
0.0
 11
52.822292
 21
115.916450
 31
0.0
 11
52.784727
 21
114.461243
 31
0.0
 11
52.772651
 21
113.332357
 31
0.0
 11
52.799099
 21
112.120825
 31
0.0
 11
52.878474
 21
110.972011
 31
0.0
 11
53.010776
 21
109.883955
 31
0.0
  0
SPLINE
  5
256
100
AcDbEntity
  8
Layer_1
 62
7
100
AcDbSpline
 70
0
 71
3
 72
10
 73
6
 74
4
 40
0.000000
 40
0.000000
 40
0.000000
 40
0.000000
 40
0.833364
 40
1.472989
 40
1.957891
 40
1.957891
 40
1.957891
 40
1.957891
 10
53.010776
 20
109.883955
 30
0.0
 10
52.820453
 20
109.683109
 30
0.0
 10
52.484053
 20
109.328110
 30
0.0
 10
51.954092
 20
108.918120
 30
0.0
 10
51.583205
 20
108.841166
 30
0.0
 10
51.423276
 20
108.807982
 30
0.0
 11
53.010776
 21
109.883955
 31
0.0
 11
52.419863
 21
109.296318
 31
0.0
 11
51.890697
 21
108.937008
 31
0.0
 11
51.423276
 21
108.807982
 31
0.0
  0
SPLINE
  5
257
100
AcDbEntity
  8
Layer_1
 62
7
100
AcDbSpline
 70
0
 71
3
 72
10
 73
6
 74
4
 40
0.000000
 40
0.000000
 40
0.000000
 40
0.000000
 40
0.406061
 40
1.038744
 40
2.018397
 40
2.018397
 40
2.018397
 40
2.018397
 10
51.423276
 20
108.807982
 30
0.0
 10
51.292079
 20
108.860604
 30
0.0
 10
50.956463
 20
108.995215
 30
0.0
 10
50.773355
 20
109.716606
 30
0.0
 10
50.716804
 20
110.237648
 30
0.0
 10
50.682443
 20
110.554232
 30
0.0
 11
51.423276
 21
108.807982
 31
0.0
 11
51.066571
 21
109.002010
 31
0.0
 11
50.818647
 21
109.584093
 31
0.0
 11
50.682443
 21
110.554232
 31
0.0
  0
SPLINE
  5
258
100
AcDbEntity
  8
Layer_1
 62
7
100
AcDbSpline
 70
0
 71
3
 72
13
 73
9
 74
7
 40
0.000000
 40
0.000000
 40
0.000000
 40
0.000000
 40
2.086541
 40
4.017714
 40
5.895257
 40
7.859217
 40
9.697818
 40
11.605087
 40
11.605087
 40
11.605087
 40
11.605087
 10
50.682443
 20
110.554232
 30
0.0
 10
50.111856
 20
110.152438
 30
0.0
 10
49.013169
 20
109.378767
 30
0.0
 10
47.147627
 20
108.689916
 30
0.0
 10
45.221668
 20
108.455672
 30
0.0
 10
43.321430
 20
108.691903
 30
0.0
 10
41.548256
 20
109.512985
 30
0.0
 10
40.710748
 20
110.454223
 30
0.0
 10
40.284318
 20
110.933468
 30
0.0
 11
50.682443
 21
110.554232
 31
0.0
 11
48.924101
 21
109.430896
 31
0.0
 11
47.113828
 21
108.758332
 31
0.0
 11
45.249665
 21
108.534580
 31
0.0
 11
43.303831
 21
108.800796
 31
0.0
 11
41.648063
 21
109.600098
 31
0.0
 11
40.284318
 21
110.933468
 31
0.0
  0
SPLINE
  5
259
100
AcDbEntity
  8
Layer_1
 62
7
100
AcDbSpline
 70
0
 71
3
 72
19
 73
15
 74
13
 40
0.000000
 40
0.000000
 40
0.000000
 40
0.000000
 40
1.780471
 40
3.659006
 40
5.730564
 40
7.885274
 40
10.025715
 40
12.313087
 40
14.600443
 40
16.740884
 40
18.895607
 40
20.085947
 40
21.240999
 40
22.387840
 40
22.387840
 40
22.387840
 40
22.387840
 10
40.284318
 20
110.933468
 30
0.0
 10
39.955718
 20
111.431622
 30
0.0
 10
39.280418
 20
112.455366
 30
0.0
 10
38.771470
 20
114.324078
 30
0.0
 10
38.588606
 20
116.356383
 30
0.0
 10
38.839589
 20
118.490092
 30
0.0
 10
39.739980
 20
120.525774
 30
0.0
 10
41.162995
 20
122.278201
 30
0.0
 10
42.915877
 20
123.702717
 30
0.0
 10
44.951275
 20
124.597886
 30
0.0
 10
46.790258
 20
124.830562
 30
0.0
 10
48.289189
 20
124.724867
 30
0.0
 10
49.434936
 20
124.479097
 30
0.0
 10
50.138092
 20
124.167799
 30
0.0
 10
50.488415
 20
124.012705
 30
0.0
 11
40.284318
 21
110.933468
 31
0.0
 11
39.381468
 21
112.468049
 31
0.0
 11
38.841196
 21
114.267215
 31
0.0
 11
38.661540
 21
116.330968
 31
0.0
 11
38.945396
 21
118.466899
 31
0.0
 11
39.797615
 21
120.430369
 31
0.0
 11
41.219179
 21
122.222357
 31
0.0
 11
43.011157
 21
123.643911
 31
0.0
 11
44.974626
 21
124.496131
 31
0.0
 11
47.110568
 21
124.779996
 31
0.0
 11
48.297920
 21
124.695712
 31
0.0
 11
49.424522
 21
124.440927
 31
0.0
 11
50.488415
 21
124.012705
 31
0.0
  0
LINE
  5
25a
100
AcDbEntity
  8
Layer_1
 62
7
100
AcDbLine
 10
51.661401
 20
124.982843
 30
0.0
 11
51.661401
 21
124.982843
 31
0.0
  0
SPLINE
  5
25b
100
AcDbEntity
  8
Layer_1
 62
7
100
AcDbSpline
 70
0
 71
3
 72
10
 73
6
 74
4
 40
0.000000
 40
0.000000
 40
0.000000
 40
0.000000
 40
0.589152
 40
1.096593
 40
1.652268
 40
1.652268
 40
1.652268
 40
1.652268
 10
50.488415
 20
124.012705
 30
0.0
 10
50.549393
 20
124.202261
 30
0.0
 10
50.662893
 20
124.555085
 30
0.0
 10
51.113427
 20
124.934985
 30
0.0
 10
51.473301
 20
124.966415
 30
0.0
 10
51.661401
 20
124.982843
 30
0.0
 11
50.488415
 21
124.012705
 31
0.0
 11
50.724898
 21
124.552312
 31
0.0
 11
51.116220
 21
124.875365
 31
0.0
 11
51.661401
 21
124.982843
 31
0.0
  0
SPLINE
  5
25c
100
AcDbEntity
  8
Layer_1
 62
7
100
AcDbSpline
 70
0
 71
3
 72
16
 73
12
 74
10
 40
0.000000
 40
0.000000
 40
0.000000
 40
0.000000
 40
1.514590
 40
2.999902
 40
4.578667
 40
6.169978
 40
7.678915
 40
9.206180
 40
10.427719
 40
11.581923
 40
12.713260
 40
12.713260
 40
12.713260
 40
12.713260
 10
47.075290
 20
122.142982
 30
0.0
 10
46.568233
 20
122.105922
 30
0.0
 10
45.563920
 20
122.032518
 30
0.0
 10
44.152184
 20
121.371562
 30
0.0
 10
42.965211
 20
120.353823
 30
0.0
 10
42.016899
 20
119.097587
 30
0.0
 10
41.419439
 20
117.655151
 30
0.0
 10
41.253004
 20
116.228974
 30
0.0
 10
41.364914
 20
114.928766
 30
0.0
 10
41.665974
 20
113.786699
 30
0.0
 10
42.045534
 20
113.122933
 30
0.0
 10
42.233415
 20
112.794371
 30
0.0
 11
47.075290
 21
122.142982
 31
0.0
 11
45.574347
 21
121.940126
 31
0.0
 11
44.219418
 21
121.331585
 31
0.0
 11
43.009526
 21
120.317357
 31
0.0
 11
42.060290
 21
119.040164
 31
0.0
 11
41.489313
 21
117.643427
 31
0.0
 11
41.298554
 21
116.128121
 31
0.0
 11
41.402752
 21
114.911035
 31
0.0
 11
41.714699
 21
113.799785
 31
0.0
 11
42.233415
 21
112.794371
 31
0.0
  0
LINE
  5
25d
100
AcDbEntity
  8
Layer_1
 62
7
100
AcDbLine
 10
50.409040
 20
113.773330
 30
0.0
 11
50.409040
 21
117.380482
 31
0.0
  0
SPLINE
  5
25e
100
AcDbEntity
  8
Layer_1
 62
7
100
AcDbSpline
 70
0
 71
3
 72
13
 73
9
 74
7
 40
0.000000
 40
0.000000
 40
0.000000
 40
0.000000
 40
1.171147
 40
2.270489
 40
3.442455
 40
5.278424
 40
7.237193
 40
9.460621
 40
9.460621
 40
9.460621
 40
9.460621
 10
42.233415
 20
112.794371
 30
0.0
 10
42.469804
 20
112.478885
 30
0.0
 10
42.928088
 20
111.867255
 30
0.0
 10
43.972757
 20
111.307547
 30
0.0
 10
45.349309
 20
111.133018
 30
0.0
 10
47.007637
 20
111.418373
 30
0.0
 10
48.834728
 20
112.317618
 30
0.0
 10
49.862588
 20
113.268044
 30
0.0
 10
50.409040
 20
113.773330
 30
0.0
 11
42.233415
 21
112.794371
 31
0.0
 11
43.003971
 21
111.912425
 31
0.0
 11
43.967577
 21
111.383258
 31
0.0
 11
45.126193
 21
111.206871
 31
0.0
 11
46.939727
 21
111.493011
 31
0.0
 11
48.701329
 21
112.349477
 31
0.0
 11
50.409040
 21
113.773330
 31
0.0
  0
SPLINE
  5
25f
100
AcDbEntity
  8
Layer_1
 62
7
100
AcDbSpline
 70
0
 71
3
 72
10
 73
6
 74
4
 40
0.000000
 40
0.000000
 40
0.000000
 40
0.000000
 40
1.546396
 40
2.769608
 40
3.670913
 40
3.670913
 40
3.670913
 40
3.670913
 10
50.409040
 20
117.380482
 30
0.0
 10
50.431679
 20
117.895446
 30
0.0
 10
50.472226
 20
118.817749
 30
0.0
 10
50.513539
 20
120.040788
 30
0.0
 10
50.520668
 20
120.748943
 30
0.0
 10
50.523693
 20
121.049371
 30
0.0
 11
50.409040
 21
117.380482
 31
0.0
 11
50.474034
 21
118.925511
 31
0.0
 11
50.511599
 21
120.148147
 31
0.0
 11
50.523693
 21
121.049371
 31
0.0
  0
SPLINE
  5
260
100
AcDbEntity
  8
Layer_1
 62
7
100
AcDbSpline
 70
0
 71
3
 72
10
 73
6
 74
4
 40
0.000000
 40
0.000000
 40
0.000000
 40
0.000000
 40
0.484117
 40
1.092584
 40
1.827878
 40
1.827878
 40
1.827878
 40
1.827878
 10
50.523693
 20
121.049371
 30
0.0
 10
50.369000
 20
121.095576
 30
0.0
 10
50.019878
 20
121.199853
 30
0.0
 10
49.454512
 20
121.428924
 30
0.0
 10
49.045402
 20
121.611129
 30
0.0
 10
48.821540
 20
121.710830
 30
0.0
 11
50.523693
 21
121.049371
 31
0.0
 11
50.061808
 21
121.194394
 31
0.0
 11
49.495077
 21
121.415860
 31
0.0
 11
48.821540
 21
121.710830
 31
0.0
  0
LINE
  5
261
100
AcDbEntity
  8
Layer_1
 62
7
100
AcDbLine
 10
47.075290
 20
122.142982
 30
0.0
 11
47.075290
 21
122.142982
 31
0.0
  0
SPLINE
  5
262
100
AcDbEntity
  8
Layer_1
 62
7
100
AcDbSpline
 70
0
 71
3
 72
10
 73
6
 74
4
 40
0.000000
 40
0.000000
 40
0.000000
 40
0.000000
 40
0.674323
 40
1.273809
 40
1.813168
 40
1.813168
 40
1.813168
 40
1.813168
 10
48.821540
 20
121.710830
 30
0.0
 10
48.615056
 20
121.799792
 30
0.0
 10
48.225002
 20
121.967843
 30
0.0
 10
47.635592
 20
122.122300
 30
0.0
 10
47.255366
 20
122.136335
 30
0.0
 10
47.075290
 20
122.142982
 30
0.0
 11
48.821540
 21
121.710830
 31
0.0
 11
48.195353
 21
121.961031
 31
0.0
 11
47.613270
 21
122.104429
 31
0.0
 11
47.075290
 21
122.142982
 31
0.0
  0
LINE
  5
263
100
AcDbEntity
  8
Layer_1
 62
7
100
AcDbLine
 10
85.836749
 20
191.754857
 30
0.0
 11
85.836749
 21
161.759927
 31
0.0
  0
SPLINE
  5
264
100
AcDbEntity
  8
Layer_1
 62
7
100
AcDbSpline
 70
0
 71
3
 72
10
 73
6
 74
4
 40
0.000000
 40
0.000000
 40
0.000000
 40
0.000000
 40
2.617678
 40
5.152164
 40
7.769842
 40
7.769842
 40
7.769842
 40
7.769842
 10
90.837374
 20
196.755482
 30
0.0
 10
89.959808
 20
196.618976
 30
0.0
 10
88.232565
 20
196.350302
 30
0.0
 10
86.241929
 20
194.359666
 30
0.0
 10
85.973255
 20
192.632423
 30
0.0
 10
85.836749
 20
191.754857
 30
0.0
 11
90.837374
 21
196.755482
 31
0.0
 11
88.309804
 21
196.074579
 31
0.0
 11
86.517652
 21
194.282427
 31
0.0
 11
85.836749
 21
191.754857
 31
0.0
  0
LINE
  5
265
100
AcDbEntity
  8
Layer_1
 62
7
100
AcDbLine
 10
90.837374
 20
156.759302
 30
0.0
 11
120.832304
 21
156.759302
 31
0.0
  0
SPLINE
  5
266
100
AcDbEntity
  8
Layer_1
 62
7
100
AcDbSpline
 70
0
 71
3
 72
10
 73
6
 74
4
 40
0.000000
 40
0.000000
 40
0.000000
 40
0.000000
 40
2.617678
 40
5.152164
 40
7.769842
 40
7.769842
 40
7.769842
 40
7.769842
 10
85.836749
 20
161.759927
 30
0.0
 10
85.973255
 20
160.882361
 30
0.0
 10
86.241929
 20
159.155118
 30
0.0
 10
88.232565
 20
157.164482
 30
0.0
 10
89.959808
 20
156.895808
 30
0.0
 10
90.837374
 20
156.759302
 30
0.0
 11
85.836749
 21
161.759927
 31
0.0
 11
86.517652
 21
159.232357
 31
0.0
 11
88.309804
 21
157.440205
 31
0.0
 11
90.837374
 21
156.759302
 31
0.0
  0
LINE
  5
267
100
AcDbEntity
  8
Layer_1
 62
7
100
AcDbLine
 10
125.832929
 20
161.759927
 30
0.0
 11
125.832929
 21
191.754857
 31
0.0
  0
SPLINE
  5
268
100
AcDbEntity
  8
Layer_1
 62
7
100
AcDbSpline
 70
0
 71
3
 72
10
 73
6
 74
4
 40
0.000000
 40
0.000000
 40
0.000000
 40
0.000000
 40
2.617678
 40
5.152164
 40
7.769842
 40
7.769842
 40
7.769842
 40
7.769842
 10
120.832304
 20
156.759302
 30
0.0
 10
121.709870
 20
156.895808
 30
0.0
 10
123.437113
 20
157.164482
 30
0.0
 10
125.427749
 20
159.155118
 30
0.0
 10
125.696423
 20
160.882361
 30
0.0
 10
125.832929
 20
161.759927
 30
0.0
 11
120.832304
 21
156.759302
 31
0.0
 11
123.359874
 21
157.440205
 31
0.0
 11
125.152026
 21
159.232357
 31
0.0
 11
125.832929
 21
161.759927
 31
0.0
  0
LINE
  5
269
100
AcDbEntity
  8
Layer_1
 62
7
100
AcDbLine
 10
120.832304
 20
196.755482
 30
0.0
 11
90.837374
 21
196.755482
 31
0.0
  0
LINE
  5
26a
100
AcDbEntity
  8
Layer_1
 62
7
100
AcDbLine
 10
90.837374
 20
196.755482
 30
0.0
 11
90.837374
 21
196.755482
 31
0.0
  0
SPLINE
  5
26b
100
AcDbEntity
  8
Layer_1
 62
7
100
AcDbSpline
 70
0
 71
3
 72
10
 73
6
 74
4
 40
0.000000
 40
0.000000
 40
0.000000
 40
0.000000
 40
2.617678
 40
5.152164
 40
7.769842
 40
7.769842
 40
7.769842
 40
7.769842
 10
125.832929
 20
191.754857
 30
0.0
 10
125.696423
 20
192.632423
 30
0.0
 10
125.427749
 20
194.359666
 30
0.0
 10
123.437113
 20
196.350302
 30
0.0
 10
121.709870
 20
196.618976
 30
0.0
 10
120.832304
 20
196.755482
 30
0.0
 11
125.832929
 21
191.754857
 31
0.0
 11
125.152026
 21
194.282427
 31
0.0
 11
123.359874
 21
196.074579
 31
0.0
 11
120.832304
 21
196.755482
 31
0.0
  0
SPLINE
  5
26c
100
AcDbEntity
  8
Layer_1
 62
7
100
AcDbSpline
 70
0
 71
3
 72
10
 73
6
 74
4
 40
0.000000
 40
0.000000
 40
0.000000
 40
0.000000
 40
0.547567
 40
1.101404
 40
1.787728
 40
1.787728
 40
1.787728
 40
1.787728
 10
110.672304
 20
190.308468
 30
0.0
 10
110.857954
 20
190.285876
 30
0.0
 10
111.231380
 20
190.240432
 30
0.0
 10
111.680740
 20
189.790070
 30
0.0
 10
111.815056
 20
189.397071
 30
0.0
 10
111.889388
 20
189.179580
 30
0.0
 11
110.672304
 21
190.308468
 31
0.0
 11
111.205383
 21
190.183344
 31
0.0
 11
111.612057
 21
189.807375
 31
0.0
 11
111.889388
 21
189.179580
 31
0.0
  0
SPLINE
  5
26d
100
AcDbEntity
  8
Layer_1
 62
7
100
AcDbSpline
 70
0
 71
3
 72
10
 73
6
 74
4
 40
0.000000
 40
0.000000
 40
0.000000
 40
0.000000
 40
0.503613
 40
1.331442
 40
2.488747
 40
2.488747
 40
2.488747
 40
2.488747
 10
111.889388
 20
189.179580
 30
0.0
 10
111.922656
 20
189.014844
 30
0.0
 10
112.010610
 20
188.579319
 30
0.0
 10
112.044542
 20
187.747832
 30
0.0
 10
112.057956
 20
187.086729
 30
0.0
 10
112.065776
 20
186.701316
 30
0.0
 11
111.889388
 21
189.179580
 31
0.0
 11
111.979206
 21
188.684041
 31
0.0
 11
112.037676
 21
187.858279
 31
0.0
 11
112.065776
 21
186.701316
 31
0.0
  0
SPLINE
  5
26e
100
AcDbEntity
  8
Layer_1
 62
7
100
AcDbSpline
 70
0
 71
3
 72
13
 73
9
 74
7
 40
0.000000
 40
0.000000
 40
0.000000
 40
0.000000
 40
3.712413
 40
7.755330
 40
12.128166
 40
16.185296
 40
19.679753
 40
22.614446
 40
22.614446
 40
22.614446
 40
22.614446
 10
112.065776
 20
186.701316
 30
0.0
 10
112.097786
 20
185.464249
 30
0.0
 10
112.164656
 20
182.879985
 30
0.0
 10
112.215691
 20
178.837448
 30
0.0
 10
112.220496
 20
174.679777
 30
0.0
 10
112.245640
 20
170.705131
 30
0.0
 10
112.345858
 20
167.210093
 30
0.0
 10
112.504767
 20
165.072720
 30
0.0
 10
112.577304
 20
164.097080
 30
0.0
 11
112.065776
 21
186.701316
 31
0.0
 11
112.153962
 21
182.989951
 31
0.0
 11
112.206878
 21
178.947379
 31
0.0
 11
112.224526
 21
174.574580
 31
0.0
 11
112.263062
 21
170.517632
 31
0.0
 11
112.380002
 21
167.025133
 31
0.0
 11
112.577304
 21
164.097080
 31
0.0
  0
SPLINE
  5
26f
100
AcDbEntity
  8
Layer_1
 62
7
100
AcDbSpline
 70
0
 71
3
 72
13
 73
9
 74
7
 40
0.000000
 40
0.000000
 40
0.000000
 40
0.000000
 40
0.644539
 40
1.202382
 40
1.704743
 40
2.071971
 40
2.455177
 40
2.998131
 40
2.998131
 40
2.998131
 40
2.998131
 10
112.577304
 20
164.097080
 30
0.0
 10
112.404757
 20
163.967949
 30
0.0
 10
112.082872
 20
163.727056
 30
0.0
 10
111.553473
 20
163.504736
 30
0.0
 10
111.084927
 20
163.411611
 30
0.0
 10
110.644915
 20
163.509655
 30
0.0
 10
110.422567
 20
163.923978
 30
0.0
 10
110.418768
 20
164.233263
 30
0.0
 10
110.416540
 20
164.414580
 30
0.0
 11
112.577304
 21
164.097080
 31
0.0
 11
112.044863
 21
163.733850
 31
0.0
 11
111.531048
 21
163.516630
 31
0.0
 11
111.033901
 21
163.444441
 31
0.0
 11
110.682750
 21
163.551907
 31
0.0
 11
110.476636
 21
163.874961
 31
0.0
 11
110.416540
 21
164.414580
 31
0.0
  0
SPLINE
  5
270
100
AcDbEntity
  8
Layer_1
 62
7
100
AcDbSpline
 70
0
 71
3
 72
10
 73
6
 74
4
 40
0.000000
 40
0.000000
 40
0.000000
 40
0.000000
 40
0.107479
 40
0.219003
 40
0.335759
 40
0.335759
 40
0.335759
 40
0.335759
 10
110.416540
 20
164.414580
 30
0.0
 10
110.416849
 20
164.450406
 30
0.0
 10
110.417477
 20
164.523407
 30
0.0
 10
110.422907
 20
164.635247
 30
0.0
 10
110.430365
 20
164.710983
 30
0.0
 10
110.434179
 20
164.749718
 30
0.0
 11
110.416540
 21
164.414580
 31
0.0
 11
110.418167
 21
164.522046
 31
0.0
 11
110.423721
 21
164.633432
 31
0.0
 11
110.434179
 21
164.749718
 31
0.0
  0
SPLINE
  5
271
100
AcDbEntity
  8
Layer_1
 62
7
100
AcDbSpline
 70
0
 71
3
 72
13
 73
9
 74
7
 40
0.000000
 40
0.000000
 40
0.000000
 40
0.000000
 40
1.623233
 40
3.146791
 40
4.648654
 40
6.589639
 40
8.462140
 40
10.442353
 40
10.442353
 40
10.442353
 40
10.442353
 10
110.434179
 20
164.749718
 30
0.0
 10
109.986883
 20
164.441990
 30
0.0
 10
109.119756
 20
163.845430
 30
0.0
 10
107.641232
 20
163.321859
 30
0.0
 10
105.984441
 20
163.136228
 30
0.0
 10
104.206034
 20
163.373025
 30
0.0
 10
102.411423
 20
164.196807
 30
0.0
 10
101.512380
 20
165.127070
 30
0.0
 10
101.050290
 20
165.605205
 30
0.0
 11
110.434179
 21
164.749718
 31
0.0
 11
109.056707
 21
163.890965
 31
0.0
 11
107.622405
 21
163.377151
 31
0.0
 11
106.130290
 21
163.206316
 31
0.0
 11
104.207648
 21
163.472532
 31
0.0
 11
102.514316
 21
164.271836
 31
0.0
 11
101.050290
 21
165.605205
 31
0.0
  0
SPLINE
  5
272
100
AcDbEntity
  8
Layer_1
 62
7
100
AcDbSpline
 70
0
 71
3
 72
13
 73
9
 74
7
 40
0.000000
 40
0.000000
 40
0.000000
 40
0.000000
 40
1.926802
 40
3.841798
 40
5.864509
 40
7.925485
 40
9.959451
 40
12.078936
 40
12.078936
 40
12.078936
 40
12.078936
 10
101.050290
 20
165.605205
 30
0.0
 10
100.656138
 20
166.116823
 30
0.0
 10
99.870249
 20
167.136925
 30
0.0
 10
99.219668
 20
169.013580
 30
0.0
 10
99.010170
 20
171.015342
 30
0.0
 10
99.236456
 20
173.057608
 30
0.0
 10
99.941556
 20
175.035229
 30
0.0
 10
100.757427
 20
176.160913
 30
0.0
 10
101.173763
 20
176.735343
 30
0.0
 11
101.050290
 21
165.605205
 31
0.0
 11
99.958312
 21
167.192702
 31
0.0
 11
99.302407
 21
168.991868
 31
0.0
 11
99.083554
 21
171.002705
 31
0.0
 11
99.316779
 21
173.050442
 31
0.0
 11
100.014495
 21
174.960994
 31
0.0
 11
101.173763
 21
176.735343
 31
0.0
  0
LINE
  5
273
100
AcDbEntity
  8
Layer_1
 62
7
100
AcDbLine
 10
109.825638
 20
178.481593
 30
0.0
 11
109.825638
 21
183.323468
 31
0.0
  0
SPLINE
  5
274
100
AcDbEntity
  8
Layer_1
 62
7
100
AcDbSpline
 70
0
 71
3
 72
13
 73
9
 74
7
 40
0.000000
 40
0.000000
 40
0.000000
 40
0.000000
 40
2.221905
 40
4.229215
 40
6.214293
 40
7.310475
 40
8.461489
 40
9.704223
 40
9.704223
 40
9.704223
 40
9.704223
 10
101.173763
 20
176.735343
 30
0.0
 10
101.681031
 20
177.281321
 30
0.0
 10
102.646574
 20
178.320545
 30
0.0
 10
104.526327
 20
179.288617
 30
0.0
 10
106.231582
 20
179.560449
 30
0.0
 10
107.642272
 20
179.415542
 30
0.0
 10
108.763158
 20
179.070101
 30
0.0
 10
109.462545
 20
178.682710
 30
0.0
 10
109.825638
 20
178.481593
 30
0.0
 11
101.173763
 21
176.735343
 31
0.0
 11
102.782165
 21
178.268283
 31
0.0
 11
104.565979
 21
179.188772
 31
0.0
 11
106.527165
 21
179.495830
 31
0.0
 11
107.617504
 21
179.382800
 31
0.0
 11
108.717647
 21
179.044393
 31
0.0
 11
109.825638
 21
178.481593
 31
0.0
  0
SPLINE
  5
275
100
AcDbEntity
  8
Layer_1
 62
7
100
AcDbSpline
 70
0
 71
3
 72
10
 73
6
 74
4
 40
0.000000
 40
0.000000
 40
0.000000
 40
0.000000
 40
0.756962
 40
1.731265
 40
2.922172
 40
2.922172
 40
2.922172
 40
2.922172
 10
109.825638
 20
183.323468
 30
0.0
 10
109.822073
 20
183.575778
 30
0.0
 10
109.813919
 20
184.152842
 30
0.0
 10
109.767619
 20
185.125939
 30
0.0
 10
109.725391
 20
185.846424
 30
0.0
 10
109.702165
 20
186.242705
 30
0.0
 11
109.825638
 21
183.323468
 31
0.0
 11
109.811258
 21
184.080294
 31
0.0
 11
109.769447
 21
185.053699
 31
0.0
 11
109.702165
 21
186.242705
 31
0.0
  0
LINE
  5
276
100
AcDbEntity
  8
Layer_1
 62
7
100
AcDbLine
 10
110.672304
 20
190.308468
 30
0.0
 11
110.672304
 21
190.308468
 31
0.0
  0
SPLINE
  5
277
100
AcDbEntity
  8
Layer_1
 62
7
100
AcDbSpline
 70
0
 71
3
 72
13
 73
9
 74
7
 40
0.000000
 40
0.000000
 40
0.000000
 40
0.000000
 40
1.201189
 40
2.180868
 40
2.939452
 40
3.578528
 40
4.099487
 40
4.716927
 40
4.716927
 40
4.716927
 40
4.716927
 10
109.702165
 20
186.242705
 30
0.0
 10
109.678648
 20
186.642204
 30
0.0
 10
109.635949
 20
187.367533
 30
0.0
 10
109.603025
 20
188.349283
 30
0.0
 10
109.572273
 20
189.134529
 30
0.0
 10
109.625674
 20
189.794242
 30
0.0
 10
110.069422
 20
190.266680
 30
0.0
 10
110.460301
 20
190.293774
 30
0.0
 10
110.672304
 20
190.308468
 30
0.0
 11
109.702165
 21
186.242705
 31
0.0
 11
109.637155
 21
187.442133
 31
0.0
 11
109.599591
 21
188.421091
 31
0.0
 11
109.587513
 21
189.179580
 31
0.0
 11
109.707058
 21
189.807375
 31
0.0
 11
110.067675
 21
190.183344
 31
0.0
 11
110.672304
 21
190.308468
 31
0.0
  0
SPLINE
  5
278
100
AcDbEntity
  8
Layer_1
 62
7
100
AcDbSpline
 70
0
 71
3
 72
10
 73
6
 74
4
 40
0.000000
 40
0.000000
 40
0.000000
 40
0.000000
 40
1.296225
 40
2.599146
 40
4.052847
 40
4.052847
 40
4.052847
 40
4.052847
 10
106.491888
 20
176.894093
 30
0.0
 10
106.057707
 20
176.854135
 30
0.0
 10
105.187102
 20
176.774011
 30
0.0
 10
103.978268
 20
176.073539
 30
0.0
 10
103.389336
 20
175.363521
 30
0.0
 10
103.078763
 20
174.989093
 30
0.0
 11
106.491888
 21
176.894093
 31
0.0
 11
105.213063
 21
176.682417
 31
0.0
 11
104.075355
 21
176.047417
 31
0.0
 11
103.078763
 21
174.989093
 31
0.0
  0
SPLINE
  5
279
100
AcDbEntity
  8
Layer_1
 62
7
100
AcDbSpline
 70
0
 71
3
 72
13
 73
9
 74
7
 40
0.000000
 40
0.000000
 40
0.000000
 40
0.000000
 40
1.485283
 40
2.857432
 40
4.179067
 40
5.511515
 40
6.798864
 40
8.099663
 40
8.099663
 40
8.099663
 40
8.099663
 10
103.078763
 20
174.989093
 30
0.0
 10
102.802755
 20
174.576374
 30
0.0
 10
102.271764
 20
173.782371
 30
0.0
 10
101.793841
 20
172.457569
 30
0.0
 10
101.637020
 20
171.113585
 30
0.0
 10
101.770066
 20
169.798882
 30
0.0
 10
102.149585
 20
168.533546
 30
0.0
 10
102.609490
 20
167.799673
 30
0.0
 10
102.840638
 20
167.430830
 30
0.0
 11
103.078763
 21
174.989093
 31
0.0
 11
102.305916
 21
173.720719
 31
0.0
 11
101.840772
 21
172.429815
 31
0.0
 11
101.685290
 21
171.117357
 31
0.0
 11
101.814314
 21
169.791170
 31
0.0
 11
102.200083
 21
168.562981
 31
0.0
 11
102.840638
 21
167.430830
 31
0.0
  0
SPLINE
  5
27a
100
AcDbEntity
  8
Layer_1
 62
7
100
AcDbSpline
 70
0
 71
3
 72
13
 73
9
 74
7
 40
0.000000
 40
0.000000
 40
0.000000
 40
0.000000
 40
1.322248
 40
2.557970
 40
3.845450
 40
5.407205
 40
6.872774
 40
8.374023
 40
8.374023
 40
8.374023
 40
8.374023
 10
102.840638
 20
167.430830
 30
0.0
 10
103.127419
 20
167.091600
 30
0.0
 10
103.682214
 20
166.435341
 30
0.0
 10
104.854618
 20
165.833898
 30
0.0
 10
106.222775
 20
165.658196
 30
0.0
 10
107.663294
 20
165.842434
 30
0.0
 10
109.084318
 20
166.445526
 30
0.0
 10
109.787379
 20
167.152478
 30
0.0
 10
110.143138
 20
167.510205
 30
0.0
 11
102.840638
 21
167.430830
 31
0.0
 11
103.761122
 21
166.481594
 31
0.0
 11
104.857020
 21
165.910617
 31
0.0
 11
106.130290
 21
165.719857
 31
0.0
 11
107.679241
 21
165.919436
 31
0.0
 11
109.017509
 21
166.516872
 31
0.0
 11
110.143138
 21
167.510205
 31
0.0
  0
SPLINE
  5
27b
100
AcDbEntity
  8
Layer_1
 62
7
100
AcDbSpline
 70
0
 71
3
 72
10
 73
6
 74
4
 40
0.000000
 40
0.000000
 40
0.000000
 40
0.000000
 40
2.110361
 40
4.698941
 40
7.766593
 40
7.766593
 40
7.766593
 40
7.766593
 10
110.143138
 20
167.510205
 30
0.0
 10
110.094489
 20
168.212039
 30
0.0
 10
109.986167
 20
169.774747
 30
0.0
 10
109.918961
 20
172.363445
 30
0.0
 10
109.909917
 20
174.248797
 30
0.0
 10
109.905013
 20
175.271316
 30
0.0
 11
110.143138
 21
167.510205
 31
0.0
 11
110.010838
 21
169.616415
 31
0.0
 11
109.931463
 21
172.203777
 31
0.0
 11
109.905013
 21
175.271316
 31
0.0
  0
LINE
  5
27c
100
AcDbEntity
  8
Layer_1
 62
7
100
AcDbLine
 10
106.491888
 20
176.894093
 30
0.0
 11
106.491888
 21
176.894093
 31
0.0
  0
SPLINE
  5
27d
100
AcDbEntity
  8
Layer_1
 62
7
100
AcDbSpline
 70
0
 71
3
 72
10
 73
6
 74
4
 40
0.000000
 40
0.000000
 40
0.000000
 40
0.000000
 40
1.424952
 40
2.684426
 40
3.871085
 40
3.871085
 40
3.871085
 40
3.871085
 10
109.905013
 20
175.271316
 30
0.0
 10
109.551988
 20
175.590130
 30
0.0
 10
108.886935
 20
176.190734
 30
0.0
 10
107.705970
 20
176.782514
 30
0.0
 10
106.888470
 20
176.857646
 30
0.0
 10
106.491888
 20
176.894093
 30
0.0
 11
109.905013
 21
175.271316
 31
0.0
 11
108.802575
 21
176.174156
 31
0.0
 11
107.664867
 21
176.714429
 31
0.0
 11
106.491888
 21
176.894093
 31
0.0
  0
LINE
  5
27e
100
AcDbEntity
  8
Layer_1
 62
7
100
AcDbLine
 10
85.836749
 20
71.757496
 30
0.0
 11
85.836749
 21
41.753746
 31
0.0
  0
SPLINE
  5
27f
100
AcDbEntity
  8
Layer_1
 62
7
100
AcDbSpline
 70
0
 71
3
 72
10
 73
6
 74
4
 40
0.000000
 40
0.000000
 40
0.000000
 40
0.000000
 40
2.617678
 40
5.152164
 40
7.769842
 40
7.769842
 40
7.769842
 40
7.769842
 10
90.837374
 20
76.758121
 30
0.0
 10
89.959808
 20
76.621615
 30
0.0
 10
88.232565
 20
76.352941
 30
0.0
 10
86.241929
 20
74.362305
 30
0.0
 10
85.973255
 20
72.635062
 30
0.0
 10
85.836749
 20
71.757496
 30
0.0
 11
90.837374
 21
76.758121
 31
0.0
 11
88.309804
 21
76.077218
 31
0.0
 11
86.517652
 21
74.285066
 31
0.0
 11
85.836749
 21
71.757496
 31
0.0
  0
LINE
  5
280
100
AcDbEntity
  8
Layer_1
 62
7
100
AcDbLine
 10
90.837374
 20
36.753121
 30
0.0
 11
120.832304
 21
36.753121
 31
0.0
  0
SPLINE
  5
281
100
AcDbEntity
  8
Layer_1
 62
7
100
AcDbSpline
 70
0
 71
3
 72
10
 73
6
 74
4
 40
0.000000
 40
0.000000
 40
0.000000
 40
0.000000
 40
2.617678
 40
5.152164
 40
7.769842
 40
7.769842
 40
7.769842
 40
7.769842
 10
85.836749
 20
41.753746
 30
0.0
 10
85.973255
 20
40.876180
 30
0.0
 10
86.241929
 20
39.148938
 30
0.0
 10
88.232565
 20
37.158302
 30
0.0
 10
89.959808
 20
36.889627
 30
0.0
 10
90.837374
 20
36.753121
 30
0.0
 11
85.836749
 21
41.753746
 31
0.0
 11
86.517652
 21
39.226177
 31
0.0
 11
88.309804
 21
37.434024
 31
0.0
 11
90.837374
 21
36.753121
 31
0.0
  0
LINE
  5
282
100
AcDbEntity
  8
Layer_1
 62
7
100
AcDbLine
 10
125.832929
 20
41.753746
 30
0.0
 11
125.832929
 21
71.757496
 31
0.0
  0
SPLINE
  5
283
100
AcDbEntity
  8
Layer_1
 62
7
100
AcDbSpline
 70
0
 71
3
 72
10
 73
6
 74
4
 40
0.000000
 40
0.000000
 40
0.000000
 40
0.000000
 40
2.617678
 40
5.152164
 40
7.769842
 40
7.769842
 40
7.769842
 40
7.769842
 10
120.832304
 20
36.753121
 30
0.0
 10
121.709870
 20
36.889627
 30
0.0
 10
123.437113
 20
37.158302
 30
0.0
 10
125.427749
 20
39.148938
 30
0.0
 10
125.696423
 20
40.876180
 30
0.0
 10
125.832929
 20
41.753746
 30
0.0
 11
120.832304
 21
36.753121
 31
0.0
 11
123.359874
 21
37.434024
 31
0.0
 11
125.152026
 21
39.226177
 31
0.0
 11
125.832929
 21
41.753746
 31
0.0
  0
LINE
  5
284
100
AcDbEntity
  8
Layer_1
 62
7
100
AcDbLine
 10
120.832304
 20
76.758121
 30
0.0
 11
90.837374
 21
76.758121
 31
0.0
  0
LINE
  5
285
100
AcDbEntity
  8
Layer_1
 62
7
100
AcDbLine
 10
90.837374
 20
76.758121
 30
0.0
 11
90.837374
 21
76.758121
 31
0.0
  0
SPLINE
  5
286
100
AcDbEntity
  8
Layer_1
 62
7
100
AcDbSpline
 70
0
 71
3
 72
10
 73
6
 74
4
 40
0.000000
 40
0.000000
 40
0.000000
 40
0.000000
 40
2.617678
 40
5.152164
 40
7.769842
 40
7.769842
 40
7.769842
 40
7.769842
 10
125.832929
 20
71.757496
 30
0.0
 10
125.696423
 20
72.635062
 30
0.0
 10
125.427749
 20
74.362305
 30
0.0
 10
123.437113
 20
76.352941
 30
0.0
 10
121.709870
 20
76.621615
 30
0.0
 10
120.832304
 20
76.758121
 30
0.0
 11
125.832929
 21
71.757496
 31
0.0
 11
125.152026
 21
74.285066
 31
0.0
 11
123.359874
 21
76.077218
 31
0.0
 11
120.832304
 21
76.758121
 31
0.0
  0
LINE
  5
287
100
AcDbEntity
  8
Layer_1
 62
7
100
AcDbLine
 10
107.320915
 20
66.677496
 30
0.0
 11
107.320915
 21
63.343746
 31
0.0
  0
SPLINE
  5
288
100
AcDbEntity
  8
Layer_1
 62
7
100
AcDbSpline
 70
0
 71
3
 72
10
 73
6
 74
4
 40
0.000000
 40
0.000000
 40
0.000000
 40
0.000000
 40
0.467579
 40
0.921560
 40
1.535080
 40
1.535080
 40
1.535080
 40
1.535080
 10
106.509526
 20
67.771107
 30
0.0
 10
106.671477
 20
67.751510
 30
0.0
 10
106.990668
 20
67.712886
 30
0.0
 10
107.299602
 20
67.240592
 30
0.0
 10
107.313137
 20
66.883008
 30
0.0
 10
107.320915
 20
66.677496
 30
0.0
 11
106.509526
 21
67.771107
 31
0.0
 11
106.960952
 21
67.649269
 31
0.0
 11
107.231088
 21
67.284405
 31
0.0
 11
107.320915
 21
66.677496
 31
0.0
  0
SPLINE
  5
289
100
AcDbEntity
  8
Layer_1
 62
7
100
AcDbSpline
 70
0
 71
3
 72
13
 73
9
 74
7
 40
0.000000
 40
0.000000
 40
0.000000
 40
0.000000
 40
1.968124
 40
4.344683
 40
7.130078
 40
8.527212
 40
9.627689
 40
10.441805
 40
10.441805
 40
10.441805
 40
10.441805
 10
107.320915
 20
63.343746
 30
0.0
 10
107.280877
 20
62.688880
 30
0.0
 10
107.192490
 20
61.243246
 30
0.0
 10
107.135552
 20
58.866823
 30
0.0
 10
107.136985
 20
56.679904
 30
0.0
 10
107.108518
 20
54.920169
 30
0.0
 10
107.032722
 20
53.815154
 30
0.0
 10
106.888396
 20
53.192672
 30
0.0
 10
106.827026
 20
52.927982
 30
0.0
 11
107.320915
 21
63.343746
 31
0.0
 11
107.211817
 21
61.378648
 31
0.0
 11
107.147794
 21
59.002952
 31
0.0
 11
107.126888
 21
56.217635
 31
0.0
 11
107.093243
 21
54.820906
 31
0.0
 11
106.992963
 21
53.725008
 31
0.0
 11
106.827026
 21
52.927982
 31
0.0
  0
SPLINE
  5
28a
100
AcDbEntity
  8
Layer_1
 62
7
100
AcDbSpline
 70
0
 71
3
 72
13
 73
9
 74
7
 40
0.000000
 40
0.000000
 40
0.000000
 40
0.000000
 40
0.664969
 40
1.200000
 40
1.724252
 40
2.322058
 40
2.842611
 40
3.493625
 40
3.493625
 40
3.493625
 40
3.493625
 10
106.827026
 20
52.927982
 30
0.0
 10
106.753538
 20
52.717118
 30
0.0
 10
106.620921
 20
52.336592
 30
0.0
 10
106.190301
 20
51.910064
 30
0.0
 10
105.631288
 20
51.799535
 30
0.0
 10
105.063339
 20
51.890685
 30
0.0
 10
104.638151
 20
52.367798
 30
0.0
 10
104.616537
 20
52.767573
 30
0.0
 10
104.604526
 20
52.989718
 30
0.0
 11
106.827026
 21
52.927982
 31
0.0
 11
106.555257
 21
52.321085
 31
0.0
 11
106.163936
 21
51.956221
 31
0.0
 11
105.654040
 21
51.834371
 31
0.0
 11
105.070326
 21
51.963407
 31
0.0
 11
104.720815
 21
52.349175
 31
0.0
 11
104.604526
 21
52.989718
 31
0.0
  0
SPLINE
  5
28b
100
AcDbEntity
  8
Layer_1
 62
7
100
AcDbSpline
 70
0
 71
3
 72
13
 73
9
 74
7
 40
0.000000
 40
0.000000
 40
0.000000
 40
0.000000
 40
0.433496
 40
0.901817
 40
1.409619
 40
2.131561
 40
2.896353
 40
3.704989
 40
3.704989
 40
3.704989
 40
3.704989
 10
104.604526
 20
52.989718
 30
0.0
 10
104.580120
 20
53.132197
 30
0.0
 10
104.529345
 20
53.428599
 30
0.0
 10
104.490121
 20
53.897364
 30
0.0
 10
104.474689
 20
54.463387
 30
0.0
 10
104.498596
 20
55.128263
 30
0.0
 10
104.566486
 20
55.890804
 30
0.0
 10
104.644042
 20
56.409613
 30
0.0
 10
104.683901
 20
56.676246
 30
0.0
 11
104.604526
 21
52.989718
 31
0.0
 11
104.537240
 21
53.417960
 31
0.0
 11
104.495430
 21
53.884411
 31
0.0
 11
104.481054
 21
54.392010
 31
0.0
 11
104.504249
 21
55.113579
 31
0.0
 11
104.572518
 21
55.875318
 31
0.0
 11
104.683901
 21
56.676246
 31
0.0
  0
SPLINE
  5
28c
100
AcDbEntity
  8
Layer_1
 62
7
100
AcDbSpline
 70
0
 71
3
 72
13
 73
9
 74
7
 40
0.000000
 40
0.000000
 40
0.000000
 40
0.000000
 40
0.676355
 40
1.406562
 40
2.188667
 40
2.880172
 40
3.367655
 40
3.653156
 40
3.653156
 40
3.653156
 40
3.653156
 10
104.683901
 20
56.676246
 30
0.0
 10
104.692866
 20
56.901520
 30
0.0
 10
104.711507
 20
57.370004
 30
0.0
 10
104.737642
 20
58.099092
 30
0.0
 10
104.762710
 20
58.833272
 30
0.0
 10
104.782825
 20
59.486656
 30
0.0
 10
104.795216
 20
59.974680
 30
0.0
 10
104.797654
 20
60.232332
 30
0.0
 10
104.798554
 20
60.327496
 30
0.0
 11
104.683901
 21
56.676246
 31
0.0
 11
104.710367
 21
57.352084
 31
0.0
 11
104.736823
 21
58.081811
 31
0.0
 11
104.763276
 21
58.863468
 31
0.0
 11
104.784189
 21
59.554657
 31
0.0
 11
104.795293
 21
60.042013
 31
0.0
 11
104.798554
 21
60.327496
 31
0.0
  0
SPLINE
  5
28d
100
AcDbEntity
  8
Layer_1
 62
7
100
AcDbSpline
 70
0
 71
3
 72
10
 73
6
 74
4
 40
0.000000
 40
0.000000
 40
0.000000
 40
0.000000
 40
0.914254
 40
2.093872
 40
3.537002
 40
3.537002
 40
3.537002
 40
3.537002
 10
104.798554
 20
60.327496
 30
0.0
 10
104.807019
 20
60.632134
 30
0.0
 10
104.826405
 20
61.329831
 30
0.0
 10
104.839704
 20
62.508807
 30
0.0
 10
104.841605
 20
63.383052
 30
0.0
 10
104.842651
 20
63.864093
 30
0.0
 11
104.798554
 21
60.327496
 31
0.0
 11
104.821753
 21
61.241456
 31
0.0
 11
104.837103
 21
62.420974
 31
0.0
 11
104.842651
 21
63.864093
 31
0.0
  0
SPLINE
  5
28e
100
AcDbEntity
  8
Layer_1
 62
7
100
AcDbSpline
 70
0
 71
3
 72
10
 73
6
 74
4
 40
0.000000
 40
0.000000
 40
0.000000
 40
0.000000
 40
1.416185
 40
2.620279
 40
3.616898
 40
3.616898
 40
3.616898
 40
3.616898
 10
104.842651
 20
63.864093
 30
0.0
 10
104.871822
 20
64.335219
 30
0.0
 10
104.925794
 20
65.206912
 30
0.0
 10
105.052927
 20
66.407173
 30
0.0
 10
105.193504
 20
67.127430
 30
0.0
 10
105.257165
 20
67.453607
 30
0.0
 11
104.842651
 21
63.864093
 31
0.0
 11
104.941301
 21
65.276838
 31
0.0
 11
105.079146
 21
66.473016
 31
0.0
 11
105.257165
 21
67.453607
 31
0.0
  0
LINE
  5
28f
100
AcDbEntity
  8
Layer_1
 62
7
100
AcDbLine
 10
106.509526
 20
67.771107
 30
0.0
 11
106.509526
 21
67.771107
 31
0.0
  0
SPLINE
  5
290
100
AcDbEntity
  8
Layer_1
 62
7
100
AcDbSpline
 70
0
 71
3
 72
10
 73
6
 74
4
 40
0.000000
 40
0.000000
 40
0.000000
 40
0.000000
 40
0.465255
 40
0.896232
 40
1.301828
 40
1.301828
 40
1.301828
 40
1.301828
 10
105.257165
 20
67.453607
 30
0.0
 10
105.399080
 20
67.516382
 30
0.0
 10
105.672453
 20
67.637306
 30
0.0
 10
106.095301
 20
67.748627
 30
0.0
 10
106.374273
 20
67.763767
 30
0.0
 10
106.509526
 20
67.771107
 30
0.0
 11
105.257165
 21
67.453607
 31
0.0
 11
105.687687
 21
67.629996
 31
0.0
 11
106.105467
 21
67.735830
 31
0.0
 11
106.509526
 21
67.771107
 31
0.0
  0
SPLINE
  5
291
100
AcDbEntity
  8
Layer_1
 62
7
100
AcDbSpline
 70
0
 71
3
 72
10
 73
6
 74
4
 40
0.000000
 40
0.000000
 40
0.000000
 40
0.000000
 40
0.357561
 40
0.735346
 40
1.156901
 40
1.156901
 40
1.156901
 40
1.156901
 10
105.654040
 20
48.659371
 30
0.0
 10
105.773447
 20
48.649805
 30
0.0
 10
106.019013
 20
48.630130
 30
0.0
 10
106.380025
 20
48.475073
 30
0.0
 10
106.591845
 20
48.312799
 30
0.0
 10
106.703554
 20
48.227218
 30
0.0
 11
105.654040
 21
48.659371
 31
0.0
 11
106.008453
 21
48.612021
 31
0.0
 11
106.357964
 21
48.468623
 31
0.0
 11
106.703554
 21
48.227218
 31
0.0
  0
SPLINE
  5
292
100
AcDbEntity
  8
Layer_1
 62
7
100
AcDbSpline
 70
0
 71
3
 72
16
 73
12
 74
10
 40
0.000000
 40
0.000000
 40
0.000000
 40
0.000000
 40
0.417874
 40
0.809732
 40
1.205821
 40
2.012001
 40
2.649202
 40
3.372400
 40
3.811108
 40
4.217006
 40
4.614121
 40
4.614121
 40
4.614121
 40
4.614121
 10
106.703554
 20
48.227218
 30
0.0
 10
106.802447
 20
48.128148
 30
0.0
 10
106.994077
 20
47.936175
 30
0.0
 10
107.171213
 20
47.564322
 30
0.0
 10
107.232259
 20
47.033848
 30
0.0
 10
107.157617
 20
46.401595
 30
0.0
 10
106.657784
 20
45.809129
 30
0.0
 10
106.026892
 20
45.716531
 30
0.0
 10
105.508918
 20
45.769048
 30
0.0
 10
105.110193
 20
45.908834
 30
0.0
 10
104.901673
 20
46.079212
 30
0.0
 10
104.798554
 20
46.163468
 30
0.0
 11
106.703554
 21
48.227218
 31
0.0
 11
106.980877
 21
47.914632
 31
0.0
 11
107.149426
 21
47.560874
 31
0.0
 11
107.206263
 21
47.168885
 31
0.0
 11
107.065151
 21
46.375150
 31
0.0
 11
106.641818
 21
45.898900
 31
0.0
 11
105.936263
 21
45.740135
 31
0.0
 11
105.500192
 21
45.788167
 31
0.0
 11
105.119977
 21
45.930258
 31
0.0
 11
104.798554
 21
46.163468
 31
0.0
  0
LINE
  5
293
100
AcDbEntity
  8
Layer_1
 62
7
100
AcDbLine
 10
105.654040
 20
48.659371
 30
0.0
 11
105.654040
 21
48.659371
 31
0.0
  0
SPLINE
  5
294
100
AcDbEntity
  8
Layer_1
 62
7
100
AcDbSpline
 70
0
 71
3
 72
16
 73
12
 74
10
 40
0.000000
 40
0.000000
 40
0.000000
 40
0.000000
 40
0.381931
 40
0.747784
 40
1.135019
 40
1.520290
 40
1.894653
 40
2.277354
 40
2.634315
 40
2.977642
 40
3.340704
 40
3.340704
 40
3.340704
 40
3.340704
 10
104.798554
 20
46.163468
 30
0.0
 10
104.707944
 20
46.254255
 30
0.0
 10
104.530537
 20
46.432007
 30
0.0
 10
104.377572
 20
46.787774
 30
0.0
 10
104.335015
 20
47.168226
 30
0.0
 10
104.373800
 20
47.551538
 30
0.0
 10
104.498800
 20
47.915045
 30
0.0
 10
104.702226
 20
48.229945
 30
0.0
 10
104.967002
 20
48.481364
 30
0.0
 10
105.295923
 20
48.635267
 30
0.0
 10
105.532465
 20
48.651188
 30
0.0
 10
105.654040
 20
48.659371
 30
0.0
 11
104.798554
 21
46.163468
 31
0.0
 11
104.546713
 21
46.450604
 31
0.0
 11
104.397762
 21
46.784763
 31
0.0
 11
104.348763
 21
47.168885
 31
0.0
 11
104.388942
 21
47.552055
 31
0.0
 11
104.511435
 21
47.905812
 31
0.0
 11
104.719179
 21
48.227218
 31
0.0
 11
104.982133
 21
48.468623
 31
0.0
 11
105.294080
 21
48.612021
 31
0.0
 11
105.654040
 21
48.659371
 31
0.0
  0
LINE
  5
295
100
AcDbEntity
  8
Layer_1
 62
7
100
AcDbLine
 10
145.835429
 20
131.756177
 30
0.0
 11
145.835429
 21
101.761246
 31
0.0
  0
SPLINE
  5
296
100
AcDbEntity
  8
Layer_1
 62
7
100
AcDbSpline
 70
0
 71
3
 72
10
 73
6
 74
4
 40
0.000000
 40
0.000000
 40
0.000000
 40
0.000000
 40
2.617679
 40
5.152165
 40
7.769842
 40
7.769842
 40
7.769842
 40
7.769842
 10
150.836054
 20
136.756802
 30
0.0
 10
149.958488
 20
136.620296
 30
0.0
 10
148.231245
 20
136.351622
 30
0.0
 10
146.240609
 20
134.360985
 30
0.0
 10
145.971935
 20
132.633743
 30
0.0
 10
145.835429
 20
131.756177
 30
0.0
 11
150.836054
 21
136.756802
 31
0.0
 11
148.308484
 21
136.075899
 31
0.0
 11
146.516331
 21
134.283746
 31
0.0
 11
145.835429
 21
131.756177
 31
0.0
  0
LINE
  5
297
100
AcDbEntity
  8
Layer_1
 62
7
100
AcDbLine
 10
150.836054
 20
96.760621
 30
0.0
 11
180.830985
 21
96.760621
 31
0.0
  0
SPLINE
  5
298
100
AcDbEntity
  8
Layer_1
 62
7
100
AcDbSpline
 70
0
 71
3
 72
10
 73
6
 74
4
 40
0.000000
 40
0.000000
 40
0.000000
 40
0.000000
 40
2.617677
 40
5.152164
 40
7.769842
 40
7.769842
 40
7.769842
 40
7.769842
 10
145.835429
 20
101.761246
 30
0.0
 10
145.971935
 20
100.883680
 30
0.0
 10
146.240609
 20
99.156438
 30
0.0
 10
148.231245
 20
97.165801
 30
0.0
 10
149.958488
 20
96.897127
 30
0.0
 10
150.836054
 20
96.760621
 30
0.0
 11
145.835429
 21
101.761246
 31
0.0
 11
146.516331
 21
99.233677
 31
0.0
 11
148.308484
 21
97.441524
 31
0.0
 11
150.836054
 21
96.760621
 31
0.0
  0
LINE
  5
299
100
AcDbEntity
  8
Layer_1
 62
7
100
AcDbLine
 10
185.831610
 20
101.761246
 30
0.0
 11
185.831610
 21
131.756177
 31
0.0
  0
SPLINE
  5
29a
100
AcDbEntity
  8
Layer_1
 62
7
100
AcDbSpline
 70
0
 71
3
 72
10
 73
6
 74
4
 40
0.000000
 40
0.000000
 40
0.000000
 40
0.000000
 40
2.617678
 40
5.152164
 40
7.769842
 40
7.769842
 40
7.769842
 40
7.769842
 10
180.830985
 20
96.760621
 30
0.0
 10
181.708551
 20
96.897127
 30
0.0
 10
183.435793
 20
97.165802
 30
0.0
 10
185.426429
 20
99.156438
 30
0.0
 10
185.695104
 20
100.883680
 30
0.0
 10
185.831610
 20
101.761246
 30
0.0
 11
180.830985
 21
96.760621
 31
0.0
 11
183.358554
 21
97.441524
 31
0.0
 11
185.150707
 21
99.233677
 31
0.0
 11
185.831610
 21
101.761246
 31
0.0
  0
LINE
  5
29b
100
AcDbEntity
  8
Layer_1
 62
7
100
AcDbLine
 10
180.830985
 20
136.756802
 30
0.0
 11
150.836054
 21
136.756802
 31
0.0
  0
LINE
  5
29c
100
AcDbEntity
  8
Layer_1
 62
7
100
AcDbLine
 10
150.836054
 20
136.756802
 30
0.0
 11
150.836054
 21
136.756802
 31
0.0
  0
SPLINE
  5
29d
100
AcDbEntity
  8
Layer_1
 62
7
100
AcDbSpline
 70
0
 71
3
 72
10
 73
6
 74
4
 40
0.000000
 40
0.000000
 40
0.000000
 40
0.000000
 40
2.617678
 40
5.152164
 40
7.769842
 40
7.769842
 40
7.769842
 40
7.769842
 10
185.831610
 20
131.756177
 30
0.0
 10
185.695104
 20
132.633743
 30
0.0
 10
185.426429
 20
134.360985
 30
0.0
 10
183.435793
 20
136.351621
 30
0.0
 10
181.708551
 20
136.620295
 30
0.0
 10
180.830985
 20
136.756802
 30
0.0
 11
185.831610
 21
131.756177
 31
0.0
 11
185.150707
 21
134.283746
 31
0.0
 11
183.358554
 21
136.075899
 31
0.0
 11
180.830985
 21
136.756802
 31
0.0
  0
SPLINE
  5
29e
100
AcDbEntity
  8
Layer_1
 62
7
100
AcDbSpline
 70
0
 71
3
 72
10
 73
6
 74
4
 40
0.000000
 40
0.000000
 40
0.000000
 40
0.000000
 40
0.917723
 40
1.864939
 40
2.895964
 40
2.895964
 40
2.895964
 40
2.895964
 10
167.478346
 20
124.885830
 30
0.0
 10
167.784804
 20
124.862137
 30
0.0
 10
168.407569
 20
124.813991
 30
0.0
 10
169.314701
 20
124.434588
 30
0.0
 10
169.841041
 20
124.035496
 30
0.0
 10
170.115360
 20
123.827496
 30
0.0
 11
167.478346
 21
124.885830
 31
0.0
 11
168.388375
 21
124.767246
 31
0.0
 11
169.267053
 21
124.413489
 31
0.0
 11
170.115360
 21
123.827496
 31
0.0
  0
SPLINE
  5
29f
100
AcDbEntity
  8
Layer_1
 62
7
100
AcDbSpline
 70
0
 71
3
 72
10
 73
6
 74
4
 40
0.000000
 40
0.000000
 40
0.000000
 40
0.000000
 40
1.011599
 40
1.982176
 40
2.970917
 40
2.970917
 40
2.970917
 40
2.970917
 10
170.115360
 20
123.827496
 30
0.0
 10
170.361558
 20
123.595643
 30
0.0
 10
170.843972
 20
123.141338
 30
0.0
 10
171.358042
 20
122.273149
 30
0.0
 10
171.511013
 20
121.635656
 30
0.0
 10
171.588207
 20
121.313955
 30
0.0
 11
170.115360
 21
123.827496
 31
0.0
 11
170.817641
 21
123.099393
 31
0.0
 11
171.309243
 21
122.262526
 31
0.0
 11
171.588207
 21
121.313955
 31
0.0
  0
SPLINE
  5
2a0
100
AcDbEntity
  8
Layer_1
 62
7
100
AcDbSpline
 70
0
 71
3
 72
13
 73
9
 74
7
 40
0.000000
 40
0.000000
 40
0.000000
 40
0.000000
 40
0.804044
 40
1.404813
 40
1.852209
 40
2.067934
 40
2.555262
 40
3.322309
 40
3.322309
 40
3.322309
 40
3.322309
 10
171.588207
 20
121.313955
 30
0.0
 10
171.428656
 20
121.093153
 30
0.0
 10
171.149892
 20
120.707373
 30
0.0
 10
170.698641
 20
120.328715
 30
0.0
 10
170.252484
 20
120.093345
 30
0.0
 10
169.937964
 20
120.359498
 30
0.0
 10
169.635728
 20
120.731003
 30
0.0
 10
169.380604
 20
121.065384
 30
0.0
 10
169.224596
 20
121.269857
 30
0.0
 11
171.588207
 21
121.313955
 31
0.0
 11
171.088757
 21
120.683846
 31
0.0
 11
170.623613
 21
120.303630
 31
0.0
 11
170.194735
 21
120.176246
 31
0.0
 11
170.016705
 21
120.298077
 31
0.0
 11
169.693652
 21
120.662941
 31
0.0
 11
169.224596
 21
121.269857
 31
0.0
  0
SPLINE
  5
2a1
100
AcDbEntity
  8
Layer_1
 62
7
100
AcDbSpline
 70
0
 71
3
 72
13
 73
9
 74
7
 40
0.000000
 40
0.000000
 40
0.000000
 40
0.000000
 40
0.787871
 40
1.444283
 40
2.037863
 40
3.389883
 40
4.855344
 40
6.552077
 40
6.552077
 40
6.552077
 40
6.552077
 10
169.224596
 20
121.269857
 30
0.0
 10
169.058832
 20
121.474360
 30
0.0
 10
168.754963
 20
121.849243
 30
0.0
 10
168.175037
 20
122.236904
 30
0.0
 10
167.303536
 20
122.386317
 30
0.0
 10
166.164037
 20
122.141530
 30
0.0
 10
164.811964
 20
121.441431
 30
0.0
 10
164.056217
 20
120.698403
 30
0.0
 10
163.650707
 20
120.299718
 30
0.0
 11
169.224596
 21
121.269857
 31
0.0
 11
168.695422
 21
121.853566
 31
0.0
 11
168.139798
 21
122.203077
 31
0.0
 11
167.557721
 21
122.319371
 31
0.0
 11
166.224346
 21
122.095610
 31
0.0
 11
164.922335
 21
121.423046
 31
0.0
 11
163.650707
 21
120.299718
 31
0.0
  0
SPLINE
  5
2a2
100
AcDbEntity
  8
Layer_1
 62
7
100
AcDbSpline
 70
0
 71
3
 72
13
 73
9
 74
7
 40
0.000000
 40
0.000000
 40
0.000000
 40
0.000000
 40
1.744100
 40
3.240447
 40
4.581795
 40
5.922102
 40
7.080637
 40
8.099998
 40
8.099998
 40
8.099998
 40
8.099998
 10
163.650707
 20
120.299718
 30
0.0
 10
163.277507
 20
119.852421
 30
0.0
 10
162.584120
 20
119.021367
 30
0.0
 10
161.902737
 20
117.629586
 30
0.0
 10
161.692750
 20
116.233352
 30
0.0
 10
161.803150
 20
114.955450
 30
0.0
 10
162.037194
 20
113.793012
 30
0.0
 10
162.391339
 20
113.154814
 30
0.0
 10
162.557096
 20
112.856107
 30
0.0
 11
163.650707
 21
120.299718
 31
0.0
 11
162.592371
 21
118.913425
 31
0.0
 11
161.957371
 21
117.558498
 31
0.0
 11
161.745707
 21
116.233955
 31
0.0
 11
161.835533
 21
114.896661
 31
0.0
 11
162.105669
 21
113.770060
 31
0.0
 11
162.557096
 21
112.856107
 31
0.0
  0
SPLINE
  5
2a3
100
AcDbEntity
  8
Layer_1
 62
7
100
AcDbSpline
 70
0
 71
3
 72
19
 73
15
 74
13
 40
0.000000
 40
0.000000
 40
0.000000
 40
0.000000
 40
1.149430
 40
2.268652
 40
3.503169
 40
4.533484
 40
5.781398
 40
7.300419
 40
8.712743
 40
9.614680
 40
10.008893
 40
10.352296
 40
10.691220
 40
11.054332
 40
11.054332
 40
11.054332
 40
11.054332
 10
162.557096
 20
112.856107
 30
0.0
 10
162.791233
 20
112.546656
 30
0.0
 10
163.253354
 20
111.935887
 30
0.0
 10
164.337556
 20
111.411423
 30
0.0
 10
165.471083
 20
111.253591
 30
0.0
 10
166.640330
 20
111.448058
 30
0.0
 10
167.803751
 20
111.973719
 30
0.0
 10
168.963114
 20
112.744482
 30
0.0
 10
169.996103
 20
113.512664
 30
0.0
 10
170.741383
 20
113.988584
 30
0.0
 10
171.228158
 20
114.296204
 30
0.0
 10
171.597982
 20
114.211240
 30
0.0
 10
171.918267
 20
114.072309
 30
0.0
 10
172.090188
 20
113.910130
 30
0.0
 10
172.179110
 20
113.826246
 30
0.0
 11
162.557096
 21
112.856107
 31
0.0
 11
163.321118
 21
111.997353
 31
0.0
 11
164.315428
 21
111.483539
 31
0.0
 11
165.538068
 21
111.312705
 31
0.0
 11
166.555565
 21
111.474719
 31
0.0
 11
167.704379
 21
111.962075
 31
0.0
 11
168.986471
 21
112.776732
 31
0.0
 11
170.138543
 21
113.593670
 31
0.0
 11
170.894729
 21
114.085273
 31
0.0
 11
171.253068
 21
114.249580
 31
0.0
 11
171.593098
 21
114.201559
 31
0.0
 11
171.900798
 21
114.059468
 31
0.0
 11
172.179110
 21
113.826246
 31
0.0
  0
SPLINE
  5
2a4
100
AcDbEntity
  8
Layer_1
 62
7
100
AcDbSpline
 70
0
 71
3
 72
13
 73
9
 74
7
 40
0.000000
 40
0.000000
 40
0.000000
 40
0.000000
 40
0.363102
 40
0.702026
 40
1.045437
 40
1.183613
 40
1.390225
 40
1.664700
 40
1.664700
 40
1.664700
 40
1.664700
 10
172.179110
 20
113.826246
 30
0.0
 10
172.262694
 20
113.737473
 30
0.0
 10
172.424296
 20
113.565839
 30
0.0
 10
172.567333
 20
113.243522
 30
0.0
 10
172.619634
 20
112.967815
 30
0.0
 10
172.578424
 20
112.740367
 30
0.0
 10
172.504657
 20
112.546944
 30
0.0
 10
172.437762
 20
112.401246
 30
0.0
 10
172.399596
 20
112.318121
 30
0.0
 11
172.179110
 21
113.826246
 31
0.0
 11
172.412326
 21
113.547942
 31
0.0
 11
172.554417
 21
113.240241
 31
0.0
 11
172.602443
 21
112.900205
 31
0.0
 11
172.579242
 21
112.763990
 31
0.0
 11
172.510973
 21
112.568983
 31
0.0
 11
172.399596
 21
112.318121
 31
0.0
  0
SPLINE
  5
2a5
100
AcDbEntity
  8
Layer_1
 62
7
100
AcDbSpline
 70
0
 71
3
 72
10
 73
6
 74
4
 40
0.000000
 40
0.000000
 40
0.000000
 40
0.000000
 40
1.266455
 40
2.590200
 40
4.012963
 40
4.012963
 40
4.012963
 40
4.012963
 10
172.399596
 20
112.318121
 30
0.0
 10
172.151793
 20
111.975127
 30
0.0
 10
171.644977
 20
111.273622
 30
0.0
 10
170.626618
 20
110.386087
 30
0.0
 10
169.836661
 20
109.921681
 30
0.0
 10
169.427443
 20
109.681107
 30
0.0
 11
172.399596
 21
112.318121
 31
0.0
 11
171.620210
 21
111.319890
 31
0.0
 11
170.630146
 21
110.441212
 31
0.0
 11
169.427443
 21
109.681107
 31
0.0
  0
SPLINE
  5
2a6
100
AcDbEntity
  8
Layer_1
 62
7
100
AcDbSpline
 70
0
 71
3
 72
13
 73
9
 74
7
 40
0.000000
 40
0.000000
 40
0.000000
 40
0.000000
 40
1.421810
 40
2.764555
 40
4.066212
 40
5.851827
 40
7.584834
 40
9.415355
 40
9.415355
 40
9.415355
 40
9.415355
 10
169.427443
 20
109.681107
 30
0.0
 10
169.001274
 20
109.471630
 30
0.0
 10
168.172634
 20
109.064323
 30
0.0
 10
166.853989
 20
108.713901
 30
0.0
 10
165.377442
 20
108.575910
 30
0.0
 10
163.764851
 20
108.782435
 30
0.0
 10
162.101488
 20
109.523194
 30
0.0
 10
161.248838
 20
110.361655
 30
0.0
 10
160.810846
 20
110.792357
 30
0.0
 11
169.427443
 21
109.681107
 31
0.0
 11
168.130979
 21
109.097391
 31
0.0
 11
166.834521
 21
108.747880
 31
0.0
 11
165.538068
 21
108.631593
 31
0.0
 11
163.768622
 21
108.871351
 31
0.0
 11
162.192229
 21
109.591279
 31
0.0
 11
160.810846
 21
110.792357
 31
0.0
  0
SPLINE
  5
2a7
100
AcDbEntity
  8
Layer_1
 62
7
100
AcDbSpline
 70
0
 71
3
 72
13
 73
9
 74
7
 40
0.000000
 40
0.000000
 40
0.000000
 40
0.000000
 40
1.742966
 40
3.488829
 40
5.343903
 40
7.116262
 40
8.861787
 40
10.652282
 40
10.652282
 40
10.652282
 40
10.652282
 10
160.810846
 20
110.792357
 30
0.0
 10
160.460294
 20
111.259666
 30
0.0
 10
159.758608
 20
112.195059
 30
0.0
 10
159.184093
 20
113.910705
 30
0.0
 10
159.005007
 20
115.703736
 30
0.0
 10
159.179033
 20
117.496135
 30
0.0
 10
159.694670
 20
119.207796
 30
0.0
 10
160.306840
 20
120.219557
 30
0.0
 10
160.616818
 20
120.731871
 30
0.0
 11
160.810846
 21
110.792357
 31
0.0
 11
159.840707
 21
112.240377
 31
0.0
 11
159.258624
 21
113.886347
 31
0.0
 11
159.064596
 21
115.731246
 31
0.0
 11
159.237718
 21
117.495130
 31
0.0
 11
159.755778
 21
119.162004
 31
0.0
 11
160.616818
 21
120.731871
 31
0.0
  0
SPLINE
  5
2a8
100
AcDbEntity
  8
Layer_1
 62
7
100
AcDbSpline
 70
0
 71
3
 72
10
 73
6
 74
4
 40
0.000000
 40
0.000000
 40
0.000000
 40
0.000000
 40
1.867574
 40
3.646725
 40
5.403502
 40
5.403502
 40
5.403502
 40
5.403502
 10
160.616818
 20
120.731871
 30
0.0
 10
160.990660
 20
121.230852
 30
0.0
 10
161.720644
 20
122.205188
 30
0.0
 10
163.102232
 20
123.394615
 30
0.0
 10
164.158025
 20
123.925387
 30
0.0
 10
164.682582
 20
124.189093
 30
0.0
 11
160.616818
 21
120.731871
 31
0.0
 11
161.791434
 21
122.183804
 31
0.0
 11
163.146362
 21
123.336864
 31
0.0
 11
164.682582
 21
124.189093
 31
0.0
  0
LINE
  5
2a9
100
AcDbEntity
  8
Layer_1
 62
7
100
AcDbLine
 10
167.478346
 20
124.885830
 30
0.0
 11
167.478346
 21
124.885830
 31
0.0
  0
SPLINE
  5
2aa
100
AcDbEntity
  8
Layer_1
 62
7
100
AcDbSpline
 70
0
 71
3
 72
10
 73
6
 74
4
 40
0.000000
 40
0.000000
 40
0.000000
 40
0.000000
 40
1.053975
 40
2.014162
 40
2.901159
 40
2.901159
 40
2.901159
 40
2.901159
 10
164.682582
 20
124.189093
 30
0.0
 10
165.006199
 20
124.326152
 30
0.0
 10
165.624636
 20
124.588073
 30
0.0
 10
166.566628
 20
124.835075
 30
0.0
 10
167.182575
 20
124.869364
 30
0.0
 10
167.478346
 20
124.885830
 30
0.0
 11
164.682582
 21
124.189093
 31
0.0
 11
165.663168
 21
124.575505
 31
0.0
 11
166.594763
 21
124.808077
 31
0.0
 11
167.478346
 21
124.885830
 31
0.0
  0
LINE
  5
2ab
100
AcDbEntity
  8
Layer_1
 62
7
100
AcDbLine
 10
85.836749
 20
131.756177
 30
0.0
 11
85.836749
 21
101.761246
 31
0.0
  0
SPLINE
  5
2ac
100
AcDbEntity
  8
Layer_1
 62
7
100
AcDbSpline
 70
0
 71
3
 72
10
 73
6
 74
4
 40
0.000000
 40
0.000000
 40
0.000000
 40
0.000000
 40
2.617678
 40
5.152164
 40
7.769842
 40
7.769842
 40
7.769842
 40
7.769842
 10
90.837374
 20
136.756802
 30
0.0
 10
89.959808
 20
136.620295
 30
0.0
 10
88.232565
 20
136.351621
 30
0.0
 10
86.241929
 20
134.360985
 30
0.0
 10
85.973255
 20
132.633743
 30
0.0
 10
85.836749
 20
131.756177
 30
0.0
 11
90.837374
 21
136.756802
 31
0.0
 11
88.309804
 21
136.075899
 31
0.0
 11
86.517652
 21
134.283746
 31
0.0
 11
85.836749
 21
131.756177
 31
0.0
  0
LINE
  5
2ad
100
AcDbEntity
  8
Layer_1
 62
7
100
AcDbLine
 10
90.837374
 20
96.760621
 30
0.0
 11
120.832304
 21
96.760621
 31
0.0
  0
SPLINE
  5
2ae
100
AcDbEntity
  8
Layer_1
 62
7
100
AcDbSpline
 70
0
 71
3
 72
10
 73
6
 74
4
 40
0.000000
 40
0.000000
 40
0.000000
 40
0.000000
 40
2.617678
 40
5.152164
 40
7.769842
 40
7.769842
 40
7.769842
 40
7.769842
 10
85.836749
 20
101.761246
 30
0.0
 10
85.973255
 20
100.883680
 30
0.0
 10
86.241929
 20
99.156438
 30
0.0
 10
88.232565
 20
97.165802
 30
0.0
 10
89.959808
 20
96.897127
 30
0.0
 10
90.837374
 20
96.760621
 30
0.0
 11
85.836749
 21
101.761246
 31
0.0
 11
86.517652
 21
99.233677
 31
0.0
 11
88.309804
 21
97.441524
 31
0.0
 11
90.837374
 21
96.760621
 31
0.0
  0
LINE
  5
2af
100
AcDbEntity
  8
Layer_1
 62
7
100
AcDbLine
 10
125.832929
 20
101.761246
 30
0.0
 11
125.832929
 21
131.756177
 31
0.0
  0
SPLINE
  5
2b0
100
AcDbEntity
  8
Layer_1
 62
7
100
AcDbSpline
 70
0
 71
3
 72
10
 73
6
 74
4
 40
0.000000
 40
0.000000
 40
0.000000
 40
0.000000
 40
2.617678
 40
5.152164
 40
7.769842
 40
7.769842
 40
7.769842
 40
7.769842
 10
120.832304
 20
96.760621
 30
0.0
 10
121.709870
 20
96.897127
 30
0.0
 10
123.437113
 20
97.165802
 30
0.0
 10
125.427749
 20
99.156438
 30
0.0
 10
125.696423
 20
100.883680
 30
0.0
 10
125.832929
 20
101.761246
 30
0.0
 11
120.832304
 21
96.760621
 31
0.0
 11
123.359874
 21
97.441524
 31
0.0
 11
125.152026
 21
99.233677
 31
0.0
 11
125.832929
 21
101.761246
 31
0.0
  0
LINE
  5
2b1
100
AcDbEntity
  8
Layer_1
 62
7
100
AcDbLine
 10
120.832304
 20
136.756802
 30
0.0
 11
90.837374
 21
136.756802
 31
0.0
  0
LINE
  5
2b2
100
AcDbEntity
  8
Layer_1
 62
7
100
AcDbLine
 10
90.837374
 20
136.756802
 30
0.0
 11
90.837374
 21
136.756802
 31
0.0
  0
SPLINE
  5
2b3
100
AcDbEntity
  8
Layer_1
 62
7
100
AcDbSpline
 70
0
 71
3
 72
10
 73
6
 74
4
 40
0.000000
 40
0.000000
 40
0.000000
 40
0.000000
 40
2.617678
 40
5.152164
 40
7.769842
 40
7.769842
 40
7.769842
 40
7.769842
 10
125.832929
 20
131.756177
 30
0.0
 10
125.696423
 20
132.633743
 30
0.0
 10
125.427749
 20
134.360985
 30
0.0
 10
123.437113
 20
136.351621
 30
0.0
 10
121.709870
 20
136.620295
 30
0.0
 10
120.832304
 20
136.756802
 30
0.0
 11
125.832929
 21
131.756177
 31
0.0
 11
125.152026
 21
134.283746
 31
0.0
 11
123.359874
 21
136.075899
 31
0.0
 11
120.832304
 21
136.756802
 31
0.0
  0
SPLINE
  5
2b4
100
AcDbEntity
  8
Layer_1
 62
7
100
AcDbSpline
 70
0
 71
3
 72
10
 73
6
 74
4
 40
0.000000
 40
0.000000
 40
0.000000
 40
0.000000
 40
1.257445
 40
2.469799
 40
3.684078
 40
3.684078
 40
3.684078
 40
3.684078
 10
106.271401
 20
128.766385
 30
0.0
 10
106.690806
 20
128.744984
 30
0.0
 10
107.514574
 20
128.702951
 30
0.0
 10
108.709643
 20
128.359263
 30
0.0
 10
109.412296
 20
127.954627
 30
0.0
 10
109.763901
 20
127.752149
 30
0.0
 11
106.271401
 21
128.766385
 31
0.0
 11
107.523756
 21
128.653355
 31
0.0
 11
108.687922
 21
128.314950
 31
0.0
 11
109.763901
 21
127.752149
 31
0.0
  0
SPLINE
  5
2b5
100
AcDbEntity
  8
Layer_1
 62
7
100
AcDbSpline
 70
0
 71
3
 72
13
 73
9
 74
7
 40
0.000000
 40
0.000000
 40
0.000000
 40
0.000000
 40
0.708765
 40
1.311812
 40
1.831210
 40
2.157143
 40
2.501576
 40
2.953617
 40
2.953617
 40
2.953617
 40
2.953617
 10
109.763901
 20
127.752149
 30
0.0
 10
109.967205
 20
127.873583
 30
0.0
 10
110.343487
 20
128.098337
 30
0.0
 10
110.919968
 20
128.306943
 30
0.0
 10
111.398057
 20
128.400880
 30
0.0
 10
111.806206
 20
128.314316
 30
0.0
 10
112.052565
 20
128.000874
 30
0.0
 10
112.111629
 20
127.740931
 30
0.0
 10
112.145151
 20
127.593399
 30
0.0
 11
109.763901
 21
127.752149
 31
0.0
 11
110.384521
 21
128.094463
 31
0.0
 11
110.951252
 21
128.300577
 31
0.0
 11
111.466054
 21
128.369510
 31
0.0
 11
111.780279
 21
128.282938
 31
0.0
 11
112.007298
 21
128.023908
 31
0.0
 11
112.145151
 21
127.593399
 31
0.0
  0
SPLINE
  5
2b6
100
AcDbEntity
  8
Layer_1
 62
7
100
AcDbSpline
 70
0
 71
3
 72
10
 73
6
 74
4
 40
0.000000
 40
0.000000
 40
0.000000
 40
0.000000
 40
0.630982
 40
1.421345
 40
2.372617
 40
2.372617
 40
2.372617
 40
2.372617
 10
112.145151
 20
127.593399
 30
0.0
 10
112.177995
 20
127.385558
 30
0.0
 10
112.251979
 20
126.917378
 30
0.0
 10
112.301678
 20
126.127094
 30
0.0
 10
112.314524
 20
125.546762
 30
0.0
 10
112.321540
 20
125.229788
 30
0.0
 11
112.145151
 21
127.593399
 31
0.0
 11
112.234970
 21
126.968843
 31
0.0
 11
112.293440
 21
126.180646
 31
0.0
 11
112.321540
 21
125.229788
 31
0.0
  0
SPLINE
  5
2b7
100
AcDbEntity
  8
Layer_1
 62
7
100
AcDbSpline
 70
0
 71
3
 72
10
 73
6
 74
4
 40
0.000000
 40
0.000000
 40
0.000000
 40
0.000000
 40
0.846992
 40
2.092407
 40
3.736593
 40
3.736593
 40
3.736593
 40
3.736593
 10
112.321540
 20
125.229788
 30
0.0
 10
112.327762
 20
124.947504
 30
0.0
 10
112.343133
 20
124.250152
 30
0.0
 10
112.419808
 20
123.006742
 30
0.0
 10
112.486461
 20
122.045889
 30
0.0
 10
112.524388
 20
121.499163
 30
0.0
 11
112.321540
 21
125.229788
 31
0.0
 11
112.344723
 21
124.383113
 31
0.0
 11
112.412992
 21
123.139571
 31
0.0
 11
112.524388
 21
121.499163
 31
0.0
  0
SPLINE
  5
2b8
100
AcDbEntity
  8
Layer_1
 62
7
100
AcDbSpline
 70
0
 71
3
 72
16
 73
12
 74
10
 40
0.000000
 40
0.000000
 40
0.000000
 40
0.000000
 40
1.415500
 40
2.665714
 40
3.752277
 40
11.009889
 40
15.856258
 40
19.750166
 40
20.894385
 40
22.089167
 40
23.378625
 40
23.378625
 40
23.378625
 40
23.378625
 10
112.524388
 20
121.499163
 30
0.0
 10
112.555639
 20
121.028340
 30
0.0
 10
112.614493
 20
120.141672
 30
0.0
 10
112.669532
 20
118.892184
 30
0.0
 10
112.717845
 20
115.691994
 30
0.0
 10
112.445592
 20
111.344866
 30
0.0
 10
110.512960
 20
105.996082
 30
0.0
 10
107.084121
 20
104.597229
 30
0.0
 10
105.013333
 20
104.839609
 30
0.0
 10
103.850246
 20
105.209138
 30
0.0
 10
103.133364
 20
105.627497
 30
0.0
 10
102.761263
 20
105.844649
 30
0.0
 11
112.524388
 21
121.499163
 31
0.0
 11
112.612573
 21
120.086413
 31
0.0
 11
112.665489
 21
118.837319
 31
0.0
 11
112.683138
 21
117.750899
 31
0.0
 11
111.959934
 21
110.529410
 31
0.0
 11
109.790350
 21
106.195797
 31
0.0
 11
106.174388
 21
104.751038
 31
0.0
 11
105.036674
 21
104.872881
 31
0.0
 11
103.898967
 21
105.237745
 31
0.0
 11
102.761263
 21
105.844649
 31
0.0
  0
SPLINE
  5
2b9
100
AcDbEntity
  8
Layer_1
 62
7
100
AcDbSpline
 70
0
 71
3
 72
10
 73
6
 74
4
 40
0.000000
 40
0.000000
 40
0.000000
 40
0.000000
 40
1.319988
 40
2.528700
 40
3.665210
 40
3.665210
 40
3.665210
 40
3.665210
 10
102.761263
 20
105.844649
 30
0.0
 10
102.401393
 20
106.098351
 30
0.0
 10
101.711990
 20
106.584369
 30
0.0
 10
100.851965
 20
107.471169
 30
0.0
 10
100.462781
 20
108.151817
 30
0.0
 10
100.274179
 20
108.481663
 30
0.0
 11
102.761263
 21
105.844649
 31
0.0
 11
101.707826
 21
106.640036
 31
0.0
 11
100.877819
 21
107.518713
 31
0.0
 11
100.274179
 21
108.481663
 31
0.0
  0
SPLINE
  5
2ba
100
AcDbEntity
  8
Layer_1
 62
7
100
AcDbSpline
 70
0
 71
3
 72
13
 73
9
 74
7
 40
0.000000
 40
0.000000
 40
0.000000
 40
0.000000
 40
0.230816
 40
0.454389
 40
0.677205
 40
0.996701
 40
1.315596
 40
1.660525
 40
1.660525
 40
1.660525
 40
1.660525
 10
100.274179
 20
108.481663
 30
0.0
 10
100.242410
 20
108.551903
 30
0.0
 10
100.179868
 20
108.690180
 30
0.0
 10
100.127746
 20
108.911168
 30
0.0
 10
100.105601
 20
109.166363
 30
0.0
 10
100.146862
 20
109.454757
 30
0.0
 10
100.295777
 20
109.754591
 30
0.0
 10
100.455677
 20
109.909366
 30
0.0
 10
100.538763
 20
109.989788
 30
0.0
 11
100.274179
 21
108.481663
 31
0.0
 11
100.185985
 21
108.694965
 31
0.0
 11
100.133068
 21
108.912185
 31
0.0
 11
100.115429
 21
109.134302
 31
0.0
 11
100.163445
 21
109.450170
 31
0.0
 11
100.305535
 21
109.735659
 31
0.0
 11
100.538763
 21
109.989788
 31
0.0
  0
SPLINE
  5
2bb
100
AcDbEntity
  8
Layer_1
 62
7
100
AcDbSpline
 70
0
 71
3
 72
13
 73
9
 74
7
 40
0.000000
 40
0.000000
 40
0.000000
 40
0.000000
 40
0.364294
 40
0.695000
 40
1.011229
 40
1.456517
 40
2.235341
 40
3.373123
 40
3.373123
 40
3.373123
 40
3.373123
 10
100.538763
 20
109.989788
 30
0.0
 10
100.637789
 20
110.061209
 30
0.0
 10
100.826710
 20
110.197467
 30
0.0
 10
101.142266
 20
110.317964
 30
0.0
 10
101.511773
 20
110.389103
 30
0.0
 10
101.994090
 20
110.145605
 30
0.0
 10
102.582951
 20
109.632053
 30
0.0
 10
103.026888
 20
109.170296
 30
0.0
 10
103.290429
 20
108.896177
 30
0.0
 11
100.538763
 21
109.989788
 31
0.0
 11
100.843521
 21
110.189369
 31
0.0
 11
101.151222
 21
110.310556
 31
0.0
 11
101.464804
 21
110.351385
 31
0.0
 11
101.879316
 21
110.188717
 31
0.0
 11
102.487858
 21
109.702667
 31
0.0
 11
103.290429
 21
108.896177
 31
0.0
  0
SPLINE
  5
2bc
100
AcDbEntity
  8
Layer_1
 62
7
100
AcDbSpline
 70
0
 71
3
 72
13
 73
9
 74
7
 40
0.000000
 40
0.000000
 40
0.000000
 40
0.000000
 40
1.223104
 40
2.278241
 40
3.248291
 40
5.193023
 40
7.607293
 40
11.095813
 40
11.095813
 40
11.095813
 40
11.095813
 10
103.290429
 20
108.896177
 30
0.0
 10
103.581033
 20
108.607823
 30
0.0
 10
104.122333
 20
108.070716
 30
0.0
 10
105.094491
 20
107.554270
 30
0.0
 10
106.417174
 20
107.308911
 30
0.0
 10
108.235262
 20
108.019461
 30
0.0
 10
109.480213
 20
110.477052
 30
0.0
 10
109.780476
 20
112.415846
 30
0.0
 10
109.957929
 20
113.561663
 30
0.0
 11
103.290429
 21
108.896177
 31
0.0
 11
104.202748
 21
108.081524
 31
0.0
 11
105.138588
 21
107.594169
 31
0.0
 11
106.095013
 21
107.432149
 31
0.0
 11
107.916711
 21
108.112882
 31
0.0
 11
109.203370
 21
110.155726
 31
0.0
 11
109.957929
 21
113.561663
 31
0.0
  0
SPLINE
  5
2bd
100
AcDbEntity
  8
Layer_1
 62
7
100
AcDbSpline
 70
0
 71
3
 72
13
 73
9
 74
7
 40
0.000000
 40
0.000000
 40
0.000000
 40
0.000000
 40
1.368706
 40
2.645658
 40
3.871530
 40
5.852819
 40
7.812638
 40
9.942260
 40
9.942260
 40
9.942260
 40
9.942260
 10
109.957929
 20
113.561663
 30
0.0
 10
109.551413
 20
113.352623
 30
0.0
 10
108.765632
 20
112.948558
 30
0.0
 10
107.514906
 20
112.594567
 30
0.0
 10
106.020452
 20
112.449811
 30
0.0
 10
104.289439
 20
112.701511
 30
0.0
 10
102.436080
 20
113.620534
 30
0.0
 10
101.501635
 20
114.625707
 30
0.0
 10
101.015013
 20
115.149163
 30
0.0
 11
109.957929
 21
113.561663
 31
0.0
 11
108.719935
 21
112.977946
 31
0.0
 11
107.491746
 21
112.628435
 31
0.0
 11
106.271401
 21
112.512149
 31
0.0
 11
104.311848
 21
112.804824
 31
0.0
 11
102.560045
 21
113.683501
 31
0.0
 11
101.015013
 21
115.149163
 31
0.0
  0
SPLINE
  5
2be
100
AcDbEntity
  8
Layer_1
 62
7
100
AcDbSpline
 70
0
 71
3
 72
13
 73
9
 74
7
 40
0.000000
 40
0.000000
 40
0.000000
 40
0.000000
 40
2.049399
 40
4.051369
 40
6.120321
 40
8.193158
 40
10.154604
 40
12.126879
 40
12.126879
 40
12.126879
 40
12.126879
 10
101.015013
 20
115.149163
 30
0.0
 10
100.609721
 20
115.703024
 30
0.0
 10
99.808517
 20
116.797928
 30
0.0
 10
99.130971
 20
118.753181
 30
0.0
 10
98.913822
 20
120.803771
 30
0.0
 10
99.126723
 20
122.840554
 30
0.0
 10
99.798545
 20
124.761463
 30
0.0
 10
100.608780
 20
125.801799
 30
0.0
 10
101.015013
 20
126.323399
 30
0.0
 11
101.015013
 21
115.149163
 31
0.0
 11
99.889389
 21
116.861765
 31
0.0
 11
99.212579
 21
118.745859
 31
0.0
 11
98.986540
 21
120.802427
 31
0.0
 11
99.212579
 21
122.862903
 31
0.0
 11
99.889389
 21
124.703880
 31
0.0
 11
101.015013
 21
126.323399
 31
0.0
  0
LINE
  5
2bf
100
AcDbEntity
  8
Layer_1
 62
7
100
AcDbLine
 10
106.271401
 20
128.766385
 30
0.0
 11
106.271401
 21
128.766385
 31
0.0
  0
SPLINE
  5
2c0
100
AcDbEntity
  8
Layer_1
 62
7
100
AcDbSpline
 70
0
 71
3
 72
10
 73
6
 74
4
 40
0.000000
 40
0.000000
 40
0.000000
 40
0.000000
 40
2.023125
 40
3.955086
 40
5.977086
 40
5.977086
 40
5.977086
 40
5.977086
 10
101.015013
 20
126.323399
 30
0.0
 10
101.488857
 20
126.808355
 30
0.0
 10
102.415194
 20
127.756414
 30
0.0
 10
104.273705
 20
128.621314
 30
0.0
 10
105.595470
 20
128.717300
 30
0.0
 10
106.271401
 20
128.766385
 30
0.0
 11
101.015013
 21
126.323399
 31
0.0
 11
102.515947
 21
127.679950
 31
0.0
 11
104.267750
 21
128.494605
 31
0.0
 11
106.271401
 21
128.766385
 31
0.0
  0
SPLINE
  5
2c1
100
AcDbEntity
  8
Layer_1
 62
7
100
AcDbSpline
 70
0
 71
3
 72
16
 73
12
 74
10
 40
0.000000
 40
0.000000
 40
0.000000
 40
0.000000
 40
1.291382
 40
2.550856
 40
3.895594
 40
5.269697
 40
6.595903
 40
7.953940
 40
9.374622
 40
10.752136
 40
12.160487
 40
12.160487
 40
12.160487
 40
12.160487
 10
106.386054
 20
126.279302
 30
0.0
 10
105.953468
 20
126.246879
 30
0.0
 10
105.098984
 20
126.182835
 30
0.0
 10
103.906870
 20
125.594056
 30
0.0
 10
102.928225
 20
124.682033
 30
0.0
 10
102.161115
 20
123.558628
 30
0.0
 10
101.683641
 20
122.277626
 30
0.0
 10
101.539522
 20
120.904203
 30
0.0
 10
101.685136
 20
119.518223
 30
0.0
 10
102.133187
 20
118.169832
 30
0.0
 10
102.667525
 20
117.405355
 30
0.0
 10
102.937651
 20
117.018885
 30
0.0
 11
106.386054
 21
126.279302
 31
0.0
 11
105.107231
 21
126.099638
 31
0.0
 11
103.969523
 21
125.559366
 31
0.0
 11
102.972929
 21
124.656524
 31
0.0
 11
102.202369
 21
123.518809
 31
0.0
 11
101.741472
 21
122.275268
 31
0.0
 11
101.588276
 21
120.925899
 31
0.0
 11
101.738205
 21
119.513150
 31
0.0
 11
102.187997
 21
118.211139
 31
0.0
 11
102.937651
 21
117.018885
 31
0.0
  0
LINE
  5
2c2
100
AcDbEntity
  8
Layer_1
 62
7
100
AcDbLine
 10
108.370429
 20
115.687149
 30
0.0
 11
110.116679
 21
116.657288
 31
0.0
  0
SPLINE
  5
2c3
100
AcDbEntity
  8
Layer_1
 62
7
100
AcDbSpline
 70
0
 71
3
 72
13
 73
9
 74
7
 40
0.000000
 40
0.000000
 40
0.000000
 40
0.000000
 40
1.486580
 40
2.822428
 40
4.147985
 40
4.742271
 40
5.405306
 40
6.155656
 40
6.155656
 40
6.155656
 40
6.155656
 10
102.937651
 20
117.018885
 30
0.0
 10
103.264801
 20
116.642064
 30
0.0
 10
103.885927
 20
115.926629
 30
0.0
 10
105.129923
 20
115.257301
 30
0.0
 10
106.222226
 20
115.071406
 30
0.0
 10
107.082750
 20
115.161642
 30
0.0
 10
107.726488
 20
115.360523
 30
0.0
 10
108.147120
 20
115.573880
 30
0.0
 10
108.370429
 20
115.687149
 30
0.0
 11
102.937651
 21
117.018885
 31
0.0
 11
103.981609
 21
115.960550
 31
0.0
 11
105.156881
 21
115.325550
 31
0.0
 11
106.465429
 21
115.113885
 31
0.0
 11
107.056327
 21
115.177253
 31
0.0
 11
107.691327
 21
115.368014
 31
0.0
 11
108.370429
 21
115.687149
 31
0.0
  0
SPLINE
  5
2c4
100
AcDbEntity
  8
Layer_1
 62
7
100
AcDbSpline
 70
0
 71
3
 72
10
 73
6
 74
4
 40
0.000000
 40
0.000000
 40
0.000000
 40
0.000000
 40
1.895134
 40
4.592146
 40
8.091354
 40
8.091354
 40
8.091354
 40
8.091354
 10
110.116679
 20
116.657288
 30
0.0
 10
110.104333
 20
117.288926
 30
0.0
 10
110.074415
 20
118.819464
 30
0.0
 10
109.914815
 20
121.512416
 30
0.0
 10
109.767641
 20
123.572502
 30
0.0
 10
109.684526
 20
124.735899
 30
0.0
 11
110.116679
 21
116.657288
 31
0.0
 11
110.069308
 21
118.551830
 31
0.0
 11
109.925910
 21
121.245027
 31
0.0
 11
109.684526
 21
124.735899
 31
0.0
  0
LINE
  5
2c5
100
AcDbEntity
  8
Layer_1
 62
7
100
AcDbLine
 10
106.386054
 20
126.279302
 30
0.0
 11
106.386054
 21
126.279302
 31
0.0
  0
SPLINE
  5
2c6
100
AcDbEntity
  8
Layer_1
 62
7
100
AcDbSpline
 70
0
 71
3
 72
10
 73
6
 74
4
 40
0.000000
 40
0.000000
 40
0.000000
 40
0.000000
 40
1.306414
 40
2.520630
 40
3.746405
 40
3.746405
 40
3.746405
 40
3.746405
 10
109.684526
 20
124.735899
 30
0.0
 10
109.372140
 20
125.041781
 30
0.0
 10
108.769413
 20
125.631957
 30
0.0
 10
107.611548
 20
126.183235
 30
0.0
 10
106.795840
 20
126.247179
 30
0.0
 10
106.386054
 20
126.279302
 30
0.0
 11
109.684526
 21
124.735899
 31
0.0
 11
108.700008
 21
125.594643
 31
0.0
 11
107.599865
 21
126.108457
 31
0.0
 11
106.386054
 21
126.279302
 31
0.0
  0
ENDSEC
  0
SECTION
  2
OBJECTS
  0
DICTIONARY
  5
C
330
0
100
AcDbDictionary
  3
ACAD_GROUP
350
D
  3
ACAD_MLINESTYLE
350
17
  0
DICTIONARY
  5
D
330
C
100
AcDbDictionary
  0
DICTIONARY
  5
1A
330
C
100
AcDbDictionary
  0
DICTIONARY
  5
17
330
C
100
AcDbDictionary
  3
STANDARD
350
18
  0
DICTIONARY
  5
19
330
C
100
AcDbDictionary
  0
ENDSEC
  0
EOF
