999
DXF created by Inkscape
  0
SECTION
  2
HEADER
  9
$ACADVER
  1
AC1014
  9
$HANDSEED
  5
FFFF
  9
$MEASUREMENT
 70
     1
  0
ENDSEC
  0
SECTION
  2
TABLES
  0
TABLE
  2
VPORT
  5
8
330
0
100
AcDbSymbolTable
 70
     4
  0
VPORT
  5
2E
330
8
100
AcDbSymbolTableRecord
100
AcDbViewportTableRecord
  2
*ACTIVE
 70
     0
 10
0.0
 20
0.0
 11
1.0
 21
1.0
 12
210.0
 22
148.5
 13
0.0
 23
0.0
 14
10.0
 24
10.0
 15
10.0
 25
10.0
 16
0.0
 26
0.0
 36
1.0
 17
0.0
 27
0.0
 37
0.0
 40
341.0
 41
1.24
 42
50.0
 43
0.0
 44
0.0
 50
0.0
 51
0.0
 71
     0
 72
   100
 73
     1
 74
     3
 75
     0
 76
     0
 77
     0
 78
     0
  0
ENDTAB
  0
TABLE
  2
LTYPE
  5
5
330
0
100
AcDbSymbolTable
 70
     1
  0
LTYPE
  5
14
330
5
100
AcDbSymbolTableRecord
100
AcDbLinetypeTableRecord
  2
BYBLOCK
 70
     0
  3

 72
    65
 73
     0
 40
0.0
  0
LTYPE
  5
15
330
5
100
AcDbSymbolTableRecord
100
AcDbLinetypeTableRecord
  2
BYLAYER
 70
     0
  3

 72
    65
 73
     0
 40
0.0
  0
LTYPE
  5
16
330
5
100
AcDbSymbolTableRecord
100
AcDbLinetypeTableRecord
  2
CONTINUOUS
 70
     0
  3
Solid line
 72
    65
 73
     0
 40
0.0
  0
ENDTAB
  0
TABLE
  2
LAYER
  5
2
100
AcDbSymbolTable
 70
2
  0
LAYER
  5
50
100
AcDbSymbolTableRecord
100
AcDbLayerTableRecord
  2
0
 70
0
  6
CONTINUOUS
  0
LAYER
  5
51
100
AcDbSymbolTableRecord
100
AcDbLayerTableRecord
  2
Layer_1
 70
0
  6
CONTINUOUS
  0
ENDTAB
  0
TABLE
  2
STYLE
  5
3
330
0
100
AcDbSymbolTable
 70
     1
  0
STYLE
  5
11
330
3
100
AcDbSymbolTableRecord
100
AcDbTextStyleTableRecord
  2
STANDARD
 70
     0
 40
0.0
 41
1.0
 50
0.0
 71
     0
 42
2.5
  3
txt
  4

  0
ENDTAB
  0
TABLE
  2
VIEW
  5
6
330
0
100
AcDbSymbolTable
 70
     0
  0
ENDTAB
  0
TABLE
  2
UCS
  5
7
330
0
100
AcDbSymbolTable
 70
     0
  0
ENDTAB
  0
TABLE
  2
APPID
  5
9
330
0
100
AcDbSymbolTable
 70
     2
  0
APPID
  5
12
330
9
100
AcDbSymbolTableRecord
100
AcDbRegAppTableRecord
  2
ACAD
 70
     0
  0
ENDTAB
  0
TABLE
  2
DIMSTYLE
  5
A
330
0
100
AcDbSymbolTable
 70
     1
  0
DIMSTYLE
105
27
330
A
100
AcDbSymbolTableRecord
100
AcDbDimStyleTableRecord
  2
ISO-25
 70
     0
  3

  4

  5

  6

  7

 40
1.0
 41
2.5
 42
0.625
 43
3.75
 44
1.25
 45
0.0
 46
0.0
 47
0.0
 48
0.0
140
2.5
141
2.5
142
0.0
143
0.03937007874016
144
1.0
145
0.0
146
1.0
147
0.625
 71
     0
 72
     0
 73
     0
 74
     0
 75
     0
 76
     0
 77
     1
 78
     8
170
     0
171
     3
172
     1
173
     0
174
     0
175
     0
176
     0
177
     0
178
     0
270
     2
271
     2
272
     2
273
     2
274
     3
340
11
275
     0
280
     0
281
     0
282
     0
283
     0
284
     8
285
     0
286
     0
287
     3
288
     0
  0
ENDTAB
  0
TABLE
  2
BLOCK_RECORD
  5
1
330
0
100
AcDbSymbolTable
 70
     1
  0
BLOCK_RECORD
  5
1F
330
1
100
AcDbSymbolTableRecord
100
AcDbBlockTableRecord
  2
*MODEL_SPACE
  0
BLOCK_RECORD
  5
1B
330
1
100
AcDbSymbolTableRecord
100
AcDbBlockTableRecord
  2
*PAPER_SPACE
  0
ENDTAB
  0
ENDSEC
  0
SECTION
  2
BLOCKS
  0
BLOCK
  5
20
330
1F
100
AcDbEntity
  8
0
100
AcDbBlockBegin
  2
*MODEL_SPACE
 70
     0
 10
0.0
 20
0.0
 30
0.0
  3
*MODEL_SPACE
  1

  0
ENDBLK
  5
21
330
1F
100
AcDbEntity
  8
0
100
AcDbBlockEnd
  0
BLOCK
  5
1C
330
1B
100
AcDbEntity
 67
     1
  8
0
100
AcDbBlockBegin
  2
*PAPER_SPACE
  1

  0
ENDBLK
  5
1D
330
1B
100
AcDbEntity
 67
     1
  8
0
100
AcDbBlockEnd
  0
ENDSEC
  0
SECTION
  2
ENTITIES
  0
LINE
  5
100
100
AcDbEntity
  8
Layer_1
 62
7
100
AcDbLine
 10
87.562063
 20
271.162652
 30
0.0
 11
87.562063
 21
241.167721
 31
0.0
  0
SPLINE
  5
101
100
AcDbEntity
  8
Layer_1
 62
7
100
AcDbSpline
 70
0
 71
3
 72
10
 73
6
 74
4
 40
0.000000
 40
0.000000
 40
0.000000
 40
0.000000
 40
2.617677
 40
5.152164
 40
7.769842
 40
7.769842
 40
7.769842
 40
7.769842
 10
92.562688
 20
276.163277
 30
0.0
 10
91.685122
 20
276.026771
 30
0.0
 10
89.957880
 20
275.758097
 30
0.0
 10
87.967244
 20
273.767461
 30
0.0
 10
87.698570
 20
272.040218
 30
0.0
 10
87.562063
 20
271.162652
 30
0.0
 11
92.562688
 21
276.163277
 31
0.0
 11
90.035119
 21
275.482374
 31
0.0
 11
88.242966
 21
273.690222
 31
0.0
 11
87.562063
 21
271.162652
 31
0.0
  0
LINE
  5
102
100
AcDbEntity
  8
Layer_1
 62
7
100
AcDbLine
 10
92.562688
 20
236.167096
 30
0.0
 11
122.557619
 21
236.167096
 31
0.0
  0
SPLINE
  5
103
100
AcDbEntity
  8
Layer_1
 62
7
100
AcDbSpline
 70
0
 71
3
 72
10
 73
6
 74
4
 40
0.000000
 40
0.000000
 40
0.000000
 40
0.000000
 40
2.617678
 40
5.152164
 40
7.769842
 40
7.769842
 40
7.769842
 40
7.769842
 10
87.562063
 20
241.167721
 30
0.0
 10
87.698570
 20
240.290155
 30
0.0
 10
87.967244
 20
238.562912
 30
0.0
 10
89.957880
 20
236.572276
 30
0.0
 10
91.685122
 20
236.303602
 30
0.0
 10
92.562688
 20
236.167096
 30
0.0
 11
87.562063
 21
241.167721
 31
0.0
 11
88.242966
 21
238.640152
 31
0.0
 11
90.035119
 21
236.847999
 31
0.0
 11
92.562688
 21
236.167096
 31
0.0
  0
LINE
  5
104
100
AcDbEntity
  8
Layer_1
 62
7
100
AcDbLine
 10
127.558244
 20
241.167721
 30
0.0
 11
127.558244
 21
271.162652
 31
0.0
  0
SPLINE
  5
105
100
AcDbEntity
  8
Layer_1
 62
7
100
AcDbSpline
 70
0
 71
3
 72
10
 73
6
 74
4
 40
0.000000
 40
0.000000
 40
0.000000
 40
0.000000
 40
2.617678
 40
5.152164
 40
7.769842
 40
7.769842
 40
7.769842
 40
7.769842
 10
122.557619
 20
236.167096
 30
0.0
 10
123.435185
 20
236.303602
 30
0.0
 10
125.162428
 20
236.572276
 30
0.0
 10
127.153064
 20
238.562912
 30
0.0
 10
127.421738
 20
240.290155
 30
0.0
 10
127.558244
 20
241.167721
 30
0.0
 11
122.557619
 21
236.167096
 31
0.0
 11
125.085188
 21
236.847999
 31
0.0
 11
126.877341
 21
238.640152
 31
0.0
 11
127.558244
 21
241.167721
 31
0.0
  0
LINE
  5
106
100
AcDbEntity
  8
Layer_1
 62
7
100
AcDbLine
 10
122.557619
 20
276.163277
 30
0.0
 11
92.562688
 21
276.163277
 31
0.0
  0
LINE
  5
107
100
AcDbEntity
  8
Layer_1
 62
7
100
AcDbLine
 10
92.562688
 20
276.163277
 30
0.0
 11
92.562688
 21
276.163277
 31
0.0
  0
SPLINE
  5
108
100
AcDbEntity
  8
Layer_1
 62
7
100
AcDbSpline
 70
0
 71
3
 72
10
 73
6
 74
4
 40
0.000000
 40
0.000000
 40
0.000000
 40
0.000000
 40
2.617678
 40
5.152164
 40
7.769842
 40
7.769842
 40
7.769842
 40
7.769842
 10
127.558244
 20
271.162652
 30
0.0
 10
127.421738
 20
272.040218
 30
0.0
 10
127.153064
 20
273.767461
 30
0.0
 10
125.162428
 20
275.758097
 30
0.0
 10
123.435185
 20
276.026771
 30
0.0
 10
122.557619
 20
276.163277
 30
0.0
 11
127.558244
 21
271.162652
 31
0.0
 11
126.877341
 21
273.690222
 31
0.0
 11
125.085188
 21
275.482374
 31
0.0
 11
122.557619
 21
276.163277
 31
0.0
  0
LINE
  5
109
100
AcDbEntity
  8
Layer_1
 62
7
100
AcDbLine
 10
108.666994
 20
267.855360
 30
0.0
 11
108.666994
 21
266.620638
 31
0.0
  0
SPLINE
  5
10a
100
AcDbEntity
  8
Layer_1
 62
7
100
AcDbSpline
 70
0
 71
3
 72
10
 73
6
 74
4
 40
0.000000
 40
0.000000
 40
0.000000
 40
0.000000
 40
0.455052
 40
1.118879
 40
2.156423
 40
2.156423
 40
2.156423
 40
2.156423
 10
107.952619
 20
269.716263
 30
0.0
 10
108.103439
 20
269.662880
 30
0.0
 10
108.474274
 20
269.531622
 30
0.0
 10
108.644107
 20
268.743082
 30
0.0
 10
108.658324
 20
268.191643
 30
0.0
 10
108.666994
 20
267.855360
 30
0.0
 11
107.952619
 21
269.716263
 31
0.0
 11
108.358316
 21
269.510150
 31
0.0
 11
108.596440
 21
268.890502
 31
0.0
 11
108.666994
 21
267.855360
 31
0.0
  0
SPLINE
  5
10b
100
AcDbEntity
  8
Layer_1
 62
7
100
AcDbSpline
 70
0
 71
3
 72
13
 73
9
 74
7
 40
0.000000
 40
0.000000
 40
0.000000
 40
0.000000
 40
0.390246
 40
0.792827
 40
1.208990
 40
4.301403
 40
7.836196
 40
11.811730
 40
11.811730
 40
11.811730
 40
11.811730
 10
108.666994
 20
266.620638
 30
0.0
 10
108.659302
 20
266.490775
 30
0.0
 10
108.643675
 20
266.226946
 30
0.0
 10
108.633545
 20
265.824006
 30
0.0
 10
108.626999
 20
264.520299
 30
0.0
 10
108.649224
 20
262.172498
 30
0.0
 10
108.705906
 20
258.638693
 30
0.0
 10
108.772731
 20
256.136120
 30
0.0
 10
108.808105
 20
254.811402
 30
0.0
 11
108.666994
 21
266.620638
 31
0.0
 11
108.646095
 21
266.230952
 31
0.0
 11
108.634986
 21
265.828524
 31
0.0
 11
108.631716
 21
265.412374
 31
0.0
 11
108.650989
 21
262.320021
 31
0.0
 11
108.709459
 21
258.785712
 31
0.0
 11
108.808105
 21
254.811402
 31
0.0
  0
SPLINE
  5
10c
100
AcDbEntity
  8
Layer_1
 62
7
100
AcDbSpline
 70
0
 71
3
 72
16
 73
12
 74
10
 40
0.000000
 40
0.000000
 40
0.000000
 40
0.000000
 40
3.983432
 40
7.519444
 40
10.611214
 40
11.502200
 40
12.154563
 40
12.816760
 40
13.603908
 40
14.607339
 40
16.123212
 40
16.123212
 40
16.123212
 40
16.123212
 10
108.808105
 20
254.811402
 30
0.0
 10
108.841068
 20
253.484446
 30
0.0
 10
108.903291
 20
250.979578
 30
0.0
 10
108.937335
 20
247.436800
 30
0.0
 10
109.003137
 20
244.945828
 30
0.0
 10
108.936438
 20
243.381055
 30
0.0
 10
108.506418
 20
242.718749
 30
0.0
 10
107.773727
 20
242.534372
 30
0.0
 10
106.943291
 20
242.876763
 30
0.0
 10
106.556686
 20
243.998130
 30
0.0
 10
106.536197
 20
244.829975
 30
0.0
 10
106.523869
 20
245.330499
 30
0.0
 11
108.808105
 21
254.811402
 31
0.0
 11
108.896301
 21
250.828946
 31
0.0
 11
108.949218
 21
247.293330
 31
0.0
 11
108.966855
 21
244.201610
 31
0.0
 11
108.840118
 21
243.319684
 31
0.0
 11
108.458594
 21
242.790518
 31
0.0
 11
107.820327
 21
242.614110
 31
0.0
 11
107.093215
 21
242.915623
 31
0.0
 11
106.660083
 21
243.820759
 31
0.0
 11
106.523869
 21
245.330499
 31
0.0
  0
LINE
  5
10d
100
AcDbEntity
  8
Layer_1
 62
7
100
AcDbLine
 10
106.567966
 20
246.265360
 30
0.0
 11
106.567966
 21
247.191402
 31
0.0
  0
SPLINE
  5
10e
100
AcDbEntity
  8
Layer_1
 62
7
100
AcDbSpline
 70
0
 71
3
 72
10
 73
6
 74
4
 40
0.000000
 40
0.000000
 40
0.000000
 40
0.000000
 40
0.342386
 40
0.654711
 40
0.936240
 40
0.936240
 40
0.936240
 40
0.936240
 10
106.523869
 20
245.330499
 30
0.0
 10
106.524951
 20
245.444628
 30
0.0
 10
106.527019
 20
245.662867
 30
0.0
 10
106.542058
 20
245.974700
 30
0.0
 10
106.559634
 20
246.171882
 30
0.0
 10
106.567966
 20
246.265360
 30
0.0
 11
106.523869
 21
245.330499
 31
0.0
 11
106.529425
 21
245.672840
 31
0.0
 11
106.544776
 21
245.984787
 31
0.0
 11
106.567966
 21
246.265360
 31
0.0
  0
SPLINE
  5
10f
100
AcDbEntity
  8
Layer_1
 62
7
100
AcDbSpline
 70
0
 71
3
 72
10
 73
6
 74
4
 40
0.000000
 40
0.000000
 40
0.000000
 40
0.000000
 40
1.848977
 40
4.590387
 40
8.222426
 40
8.222426
 40
8.222426
 40
8.222426
 10
106.567966
 20
247.191402
 30
0.0
 10
106.561712
 20
247.807705
 30
0.0
 10
106.546183
 20
249.337778
 30
0.0
 10
106.469511
 20
252.077622
 30
0.0
 10
106.403014
 20
254.201047
 30
0.0
 10
106.365119
 20
255.411124
 30
0.0
 11
106.567966
 21
247.191402
 31
0.0
 11
106.544777
 21
249.040233
 31
0.0
 11
106.476508
 21
251.780793
 31
0.0
 11
106.365119
 21
255.411124
 31
0.0
  0
SPLINE
  5
110
100
AcDbEntity
  8
Layer_1
 62
7
100
AcDbSpline
 70
0
 71
3
 72
13
 73
9
 74
7
 40
0.000000
 40
0.000000
 40
0.000000
 40
0.000000
 40
3.621219
 40
6.358417
 40
8.213898
 40
10.251434
 40
12.079583
 40
13.701814
 40
13.701814
 40
13.701814
 40
13.701814
 10
106.365119
 20
255.411124
 30
0.0
 10
106.323390
 20
256.617485
 30
0.0
 10
106.250118
 20
258.735707
 30
0.0
 10
106.177919
 20
261.472703
 30
0.0
 10
106.143311
 20
263.682715
 30
0.0
 10
106.172907
 20
265.589685
 30
0.0
 10
106.256600
 20
267.418108
 30
0.0
 10
106.384405
 20
268.561381
 30
0.0
 10
106.444494
 20
269.098902
 30
0.0
 11
106.365119
 21
255.411124
 31
0.0
 11
106.245569
 21
259.030368
 31
0.0
 11
106.175993
 21
261.766682
 31
0.0
 11
106.153452
 21
263.622027
 31
0.0
 11
106.184813
 21
265.659321
 31
0.0
 11
106.280847
 21
267.484946
 31
0.0
 11
106.444494
 21
269.098902
 31
0.0
  0
LINE
  5
111
100
AcDbEntity
  8
Layer_1
 62
7
100
AcDbLine
 10
107.952619
 20
269.716263
 30
0.0
 11
107.952619
 21
269.716263
 31
0.0
  0
SPLINE
  5
112
100
AcDbEntity
  8
Layer_1
 62
7
100
AcDbSpline
 70
0
 71
3
 72
10
 73
6
 74
4
 40
0.000000
 40
0.000000
 40
0.000000
 40
0.000000
 40
0.645125
 40
1.188446
 40
1.652205
 40
1.652205
 40
1.652205
 40
1.652205
 10
106.444494
 20
269.098902
 30
0.0
 10
106.623002
 20
269.218548
 30
0.0
 10
106.951847
 20
269.438960
 30
0.0
 10
107.462263
 20
269.666999
 30
0.0
 10
107.798009
 20
269.700730
 30
0.0
 10
107.952619
 20
269.716263
 30
0.0
 11
106.444494
 21
269.098902
 31
0.0
 11
106.991302
 21
269.441227
 31
0.0
 11
107.494011
 21
269.647341
 31
0.0
 11
107.952619
 21
269.716263
 31
0.0
  0
LINE
  5
113
100
AcDbEntity
  8
Layer_1
 62
7
100
AcDbLine
 10
27.554563
 20
151.165290
 30
0.0
 11
27.554563
 21
121.170360
 31
0.0
  0
SPLINE
  5
114
100
AcDbEntity
  8
Layer_1
 62
7
100
AcDbSpline
 70
0
 71
3
 72
10
 73
6
 74
4
 40
0.000000
 40
0.000000
 40
0.000000
 40
0.000000
 40
2.617678
 40
5.152164
 40
7.769842
 40
7.769842
 40
7.769842
 40
7.769842
 10
32.555188
 20
156.165915
 30
0.0
 10
31.677622
 20
156.029409
 30
0.0
 10
29.950380
 20
155.760735
 30
0.0
 10
27.959744
 20
153.770099
 30
0.0
 10
27.691070
 20
152.042856
 30
0.0
 10
27.554563
 20
151.165290
 30
0.0
 11
32.555188
 21
156.165915
 31
0.0
 11
30.027619
 21
155.485013
 31
0.0
 11
28.235466
 21
153.692860
 31
0.0
 11
27.554563
 21
151.165290
 31
0.0
  0
LINE
  5
115
100
AcDbEntity
  8
Layer_1
 62
7
100
AcDbLine
 10
32.555188
 20
116.169735
 30
0.0
 11
62.558938
 21
116.169735
 31
0.0
  0
SPLINE
  5
116
100
AcDbEntity
  8
Layer_1
 62
7
100
AcDbSpline
 70
0
 71
3
 72
10
 73
6
 74
4
 40
0.000000
 40
0.000000
 40
0.000000
 40
0.000000
 40
2.617678
 40
5.152164
 40
7.769842
 40
7.769842
 40
7.769842
 40
7.769842
 10
27.554563
 20
121.170360
 30
0.0
 10
27.691070
 20
120.292794
 30
0.0
 10
27.959744
 20
118.565551
 30
0.0
 10
29.950380
 20
116.574915
 30
0.0
 10
31.677622
 20
116.306241
 30
0.0
 10
32.555188
 20
116.169735
 30
0.0
 11
27.554563
 21
121.170360
 31
0.0
 11
28.235466
 21
118.642790
 31
0.0
 11
30.027619
 21
116.850638
 31
0.0
 11
32.555188
 21
116.169735
 31
0.0
  0
LINE
  5
117
100
AcDbEntity
  8
Layer_1
 62
7
100
AcDbLine
 10
67.559563
 20
121.170360
 30
0.0
 11
67.559563
 21
151.165290
 31
0.0
  0
SPLINE
  5
118
100
AcDbEntity
  8
Layer_1
 62
7
100
AcDbSpline
 70
0
 71
3
 72
10
 73
6
 74
4
 40
0.000000
 40
0.000000
 40
0.000000
 40
0.000000
 40
2.617678
 40
5.152164
 40
7.769842
 40
7.769842
 40
7.769842
 40
7.769842
 10
62.558938
 20
116.169735
 30
0.0
 10
63.436504
 20
116.306241
 30
0.0
 10
65.163747
 20
116.574915
 30
0.0
 10
67.154383
 20
118.565551
 30
0.0
 10
67.423057
 20
120.292794
 30
0.0
 10
67.559563
 20
121.170360
 30
0.0
 11
62.558938
 21
116.169735
 31
0.0
 11
65.086508
 21
116.850638
 31
0.0
 11
66.878661
 21
118.642790
 31
0.0
 11
67.559563
 21
121.170360
 31
0.0
  0
LINE
  5
119
100
AcDbEntity
  8
Layer_1
 62
7
100
AcDbLine
 10
62.558938
 20
156.165915
 30
0.0
 11
32.555188
 21
156.165915
 31
0.0
  0
LINE
  5
11a
100
AcDbEntity
  8
Layer_1
 62
7
100
AcDbLine
 10
32.555188
 20
156.165915
 30
0.0
 11
32.555188
 21
156.165915
 31
0.0
  0
SPLINE
  5
11b
100
AcDbEntity
  8
Layer_1
 62
7
100
AcDbSpline
 70
0
 71
3
 72
10
 73
6
 74
4
 40
0.000000
 40
0.000000
 40
0.000000
 40
0.000000
 40
2.617678
 40
5.152164
 40
7.769842
 40
7.769842
 40
7.769842
 40
7.769842
 10
67.559563
 20
151.165290
 30
0.0
 10
67.423057
 20
152.042856
 30
0.0
 10
67.154383
 20
153.770099
 30
0.0
 10
65.163747
 20
155.760735
 30
0.0
 10
63.436504
 20
156.029409
 30
0.0
 10
62.558938
 20
156.165915
 30
0.0
 11
67.559563
 21
151.165290
 31
0.0
 11
66.878661
 21
153.692860
 31
0.0
 11
65.086508
 21
155.485013
 31
0.0
 11
62.558938
 21
156.165915
 31
0.0
  0
SPLINE
  5
11c
100
AcDbEntity
  8
Layer_1
 62
7
100
AcDbSpline
 70
0
 71
3
 72
13
 73
9
 74
7
 40
0.000000
 40
0.000000
 40
0.000000
 40
0.000000
 40
0.813475
 40
1.861817
 40
3.445965
 40
4.610228
 40
6.092485
 40
7.892901
 40
7.892901
 40
7.892901
 40
7.892901
 10
53.386716
 20
144.391957
 30
0.0
 10
53.663498
 20
144.317919
 30
0.0
 10
54.296973
 20
144.148466
 30
0.0
 10
54.687011
 20
142.925771
 30
0.0
 10
54.751017
 20
141.699079
 30
0.0
 10
54.720383
 20
140.279733
 30
0.0
 10
54.679695
 20
138.800901
 30
0.0
 10
54.636377
 20
137.707037
 30
0.0
 10
54.612619
 20
137.107096
 30
0.0
 11
53.386716
 21
144.391957
 31
0.0
 11
54.136358
 21
144.076079
 31
0.0
 11
54.586149
 21
143.129133
 31
0.0
 11
54.736091
 21
141.552096
 31
0.0
 11
54.721708
 21
140.387922
 31
0.0
 11
54.679898
 21
138.906255
 31
0.0
 11
54.612619
 21
137.107096
 31
0.0
  0
SPLINE
  5
11d
100
AcDbEntity
  8
Layer_1
 62
7
100
AcDbSpline
 70
0
 71
3
 72
13
 73
9
 74
7
 40
0.000000
 40
0.000000
 40
0.000000
 40
0.000000
 40
1.782718
 40
3.238410
 40
4.367360
 40
5.579181
 40
6.730734
 40
7.826805
 40
7.826805
 40
7.826805
 40
7.826805
 10
54.612619
 20
137.107096
 30
0.0
 10
54.589553
 20
136.513297
 30
0.0
 10
54.547654
 20
135.434626
 30
0.0
 10
54.509767
 20
133.979321
 30
0.0
 10
54.491230
 20
132.713851
 30
0.0
 10
54.514788
 20
131.549736
 30
0.0
 10
54.589449
 20
130.398205
 30
0.0
 10
54.688022
 20
129.655334
 30
0.0
 10
54.736091
 20
129.293068
 30
0.0
 11
54.612619
 21
137.107096
 31
0.0
 11
54.547606
 21
135.325564
 31
0.0
 11
54.510041
 21
133.870356
 31
0.0
 11
54.497966
 21
132.741471
 31
0.0
 11
54.524413
 21
131.529939
 31
0.0
 11
54.603788
 21
130.381124
 31
0.0
 11
54.736091
 21
129.293068
 31
0.0
  0
SPLINE
  5
11e
100
AcDbEntity
  8
Layer_1
 62
7
100
AcDbSpline
 70
0
 71
3
 72
10
 73
6
 74
4
 40
0.000000
 40
0.000000
 40
0.000000
 40
0.000000
 40
0.833364
 40
1.472989
 40
1.957891
 40
1.957891
 40
1.957891
 40
1.957891
 10
54.736091
 20
129.293068
 30
0.0
 10
54.545768
 20
129.092223
 30
0.0
 10
54.209368
 20
128.737224
 30
0.0
 10
53.679407
 20
128.327234
 30
0.0
 10
53.308520
 20
128.250279
 30
0.0
 10
53.148591
 20
128.217096
 30
0.0
 11
54.736091
 21
129.293068
 31
0.0
 11
54.145178
 21
128.705432
 31
0.0
 11
53.616011
 21
128.346121
 31
0.0
 11
53.148591
 21
128.217096
 31
0.0
  0
SPLINE
  5
11f
100
AcDbEntity
  8
Layer_1
 62
7
100
AcDbSpline
 70
0
 71
3
 72
10
 73
6
 74
4
 40
0.000000
 40
0.000000
 40
0.000000
 40
0.000000
 40
0.406061
 40
1.038744
 40
2.018397
 40
2.018397
 40
2.018397
 40
2.018397
 10
53.148591
 20
128.217096
 30
0.0
 10
53.017394
 20
128.269718
 30
0.0
 10
52.681778
 20
128.404329
 30
0.0
 10
52.498669
 20
129.125720
 30
0.0
 10
52.442118
 20
129.646762
 30
0.0
 10
52.407758
 20
129.963346
 30
0.0
 11
53.148591
 21
128.217096
 31
0.0
 11
52.791886
 21
128.411124
 31
0.0
 11
52.543961
 21
128.993207
 31
0.0
 11
52.407758
 21
129.963346
 31
0.0
  0
SPLINE
  5
120
100
AcDbEntity
  8
Layer_1
 62
7
100
AcDbSpline
 70
0
 71
3
 72
13
 73
9
 74
7
 40
0.000000
 40
0.000000
 40
0.000000
 40
0.000000
 40
2.086541
 40
4.017714
 40
5.895257
 40
7.859217
 40
9.697818
 40
11.605087
 40
11.605087
 40
11.605087
 40
11.605087
 10
52.407758
 20
129.963346
 30
0.0
 10
51.837171
 20
129.561551
 30
0.0
 10
50.738484
 20
128.787881
 30
0.0
 10
48.872942
 20
128.099030
 30
0.0
 10
46.946983
 20
127.864785
 30
0.0
 10
45.046745
 20
128.101016
 30
0.0
 10
43.273571
 20
128.922099
 30
0.0
 10
42.436063
 20
129.863336
 30
0.0
 10
42.009633
 20
130.342582
 30
0.0
 11
52.407758
 21
129.963346
 31
0.0
 11
50.649415
 21
128.840010
 31
0.0
 11
48.839143
 21
128.167446
 31
0.0
 11
46.974980
 21
127.943693
 31
0.0
 11
45.029146
 21
128.209909
 31
0.0
 11
43.373378
 21
129.009212
 31
0.0
 11
42.009633
 21
130.342582
 31
0.0
  0
SPLINE
  5
121
100
AcDbEntity
  8
Layer_1
 62
7
100
AcDbSpline
 70
0
 71
3
 72
19
 73
15
 74
13
 40
0.000000
 40
0.000000
 40
0.000000
 40
0.000000
 40
1.780471
 40
3.659006
 40
5.730564
 40
7.885274
 40
10.025715
 40
12.313087
 40
14.600443
 40
16.740884
 40
18.895607
 40
20.085947
 40
21.240999
 40
22.387840
 40
22.387840
 40
22.387840
 40
22.387840
 10
42.009633
 20
130.342582
 30
0.0
 10
41.681033
 20
130.840736
 30
0.0
 10
41.005733
 20
131.864480
 30
0.0
 10
40.496785
 20
133.733192
 30
0.0
 10
40.313921
 20
135.765496
 30
0.0
 10
40.564904
 20
137.899205
 30
0.0
 10
41.465295
 20
139.934887
 30
0.0
 10
42.888310
 20
141.687315
 30
0.0
 10
44.641192
 20
143.111831
 30
0.0
 10
46.676589
 20
144.007000
 30
0.0
 10
48.515573
 20
144.239676
 30
0.0
 10
50.014504
 20
144.133981
 30
0.0
 10
51.160251
 20
143.888211
 30
0.0
 10
51.863406
 20
143.576912
 30
0.0
 10
52.213730
 20
143.421818
 30
0.0
 11
42.009633
 21
130.342582
 31
0.0
 11
41.106783
 21
131.877163
 31
0.0
 11
40.566510
 21
133.676329
 31
0.0
 11
40.386855
 21
135.740082
 31
0.0
 11
40.670710
 21
137.876013
 31
0.0
 11
41.522930
 21
139.839482
 31
0.0
 11
42.944494
 21
141.631471
 31
0.0
 11
44.736471
 21
143.053025
 31
0.0
 11
46.699941
 21
143.905245
 31
0.0
 11
48.835883
 21
144.189110
 31
0.0
 11
50.023235
 21
144.104825
 31
0.0
 11
51.149837
 21
143.850041
 31
0.0
 11
52.213730
 21
143.421818
 31
0.0
  0
LINE
  5
122
100
AcDbEntity
  8
Layer_1
 62
7
100
AcDbLine
 10
53.386716
 20
144.391957
 30
0.0
 11
53.386716
 21
144.391957
 31
0.0
  0
SPLINE
  5
123
100
AcDbEntity
  8
Layer_1
 62
7
100
AcDbSpline
 70
0
 71
3
 72
10
 73
6
 74
4
 40
0.000000
 40
0.000000
 40
0.000000
 40
0.000000
 40
0.589152
 40
1.096593
 40
1.652268
 40
1.652268
 40
1.652268
 40
1.652268
 10
52.213730
 20
143.421818
 30
0.0
 10
52.274708
 20
143.611375
 30
0.0
 10
52.388207
 20
143.964198
 30
0.0
 10
52.838742
 20
144.344099
 30
0.0
 10
53.198616
 20
144.375529
 30
0.0
 10
53.386716
 20
144.391957
 30
0.0
 11
52.213730
 21
143.421818
 31
0.0
 11
52.450213
 21
143.961426
 31
0.0
 11
52.841535
 21
144.284479
 31
0.0
 11
53.386716
 21
144.391957
 31
0.0
  0
SPLINE
  5
124
100
AcDbEntity
  8
Layer_1
 62
7
100
AcDbSpline
 70
0
 71
3
 72
16
 73
12
 74
10
 40
0.000000
 40
0.000000
 40
0.000000
 40
0.000000
 40
1.514590
 40
2.999902
 40
4.578667
 40
6.169978
 40
7.678915
 40
9.206180
 40
10.427719
 40
11.581923
 40
12.713260
 40
12.713260
 40
12.713260
 40
12.713260
 10
48.800605
 20
141.552096
 30
0.0
 10
48.293548
 20
141.515036
 30
0.0
 10
47.289235
 20
141.441632
 30
0.0
 10
45.877498
 20
140.780676
 30
0.0
 10
44.690526
 20
139.762937
 30
0.0
 10
43.742213
 20
138.506701
 30
0.0
 10
43.144754
 20
137.064264
 30
0.0
 10
42.978319
 20
135.638088
 30
0.0
 10
43.090228
 20
134.337879
 30
0.0
 10
43.391289
 20
133.195812
 30
0.0
 10
43.770849
 20
132.532047
 30
0.0
 10
43.958730
 20
132.203485
 30
0.0
 11
48.800605
 21
141.552096
 31
0.0
 11
47.299661
 21
141.349240
 31
0.0
 11
45.944733
 21
140.740699
 31
0.0
 11
44.734841
 21
139.726471
 31
0.0
 11
43.785605
 21
138.449278
 31
0.0
 11
43.214628
 21
137.052540
 31
0.0
 11
43.023869
 21
135.537235
 31
0.0
 11
43.128067
 21
134.320148
 31
0.0
 11
43.440014
 21
133.208899
 31
0.0
 11
43.958730
 21
132.203485
 31
0.0
  0
LINE
  5
125
100
AcDbEntity
  8
Layer_1
 62
7
100
AcDbLine
 10
52.134355
 20
133.182443
 30
0.0
 11
52.134355
 21
136.789596
 31
0.0
  0
SPLINE
  5
126
100
AcDbEntity
  8
Layer_1
 62
7
100
AcDbSpline
 70
0
 71
3
 72
13
 73
9
 74
7
 40
0.000000
 40
0.000000
 40
0.000000
 40
0.000000
 40
1.171147
 40
2.270489
 40
3.442455
 40
5.278424
 40
7.237193
 40
9.460621
 40
9.460621
 40
9.460621
 40
9.460621
 10
43.958730
 20
132.203485
 30
0.0
 10
44.195119
 20
131.887999
 30
0.0
 10
44.653403
 20
131.276369
 30
0.0
 10
45.698072
 20
130.716661
 30
0.0
 10
47.074623
 20
130.542131
 30
0.0
 10
48.732952
 20
130.827487
 30
0.0
 10
50.560043
 20
131.726731
 30
0.0
 10
51.587903
 20
132.677157
 30
0.0
 10
52.134355
 20
133.182443
 30
0.0
 11
43.958730
 21
132.203485
 31
0.0
 11
44.729285
 21
131.321539
 31
0.0
 11
45.692891
 21
130.792372
 31
0.0
 11
46.851508
 21
130.615985
 31
0.0
 11
48.665042
 21
130.902125
 31
0.0
 11
50.426643
 21
131.758590
 31
0.0
 11
52.134355
 21
133.182443
 31
0.0
  0
SPLINE
  5
127
100
AcDbEntity
  8
Layer_1
 62
7
100
AcDbSpline
 70
0
 71
3
 72
10
 73
6
 74
4
 40
0.000000
 40
0.000000
 40
0.000000
 40
0.000000
 40
1.546396
 40
2.769608
 40
3.670913
 40
3.670913
 40
3.670913
 40
3.670913
 10
52.134355
 20
136.789596
 30
0.0
 10
52.156994
 20
137.304559
 30
0.0
 10
52.197541
 20
138.226863
 30
0.0
 10
52.238854
 20
139.449902
 30
0.0
 10
52.245983
 20
140.158057
 30
0.0
 10
52.249008
 20
140.458485
 30
0.0
 11
52.134355
 21
136.789596
 31
0.0
 11
52.199349
 21
138.334625
 31
0.0
 11
52.236914
 21
139.557261
 31
0.0
 11
52.249008
 21
140.458485
 31
0.0
  0
SPLINE
  5
128
100
AcDbEntity
  8
Layer_1
 62
7
100
AcDbSpline
 70
0
 71
3
 72
10
 73
6
 74
4
 40
0.000000
 40
0.000000
 40
0.000000
 40
0.000000
 40
0.484117
 40
1.092584
 40
1.827878
 40
1.827878
 40
1.827878
 40
1.827878
 10
52.249008
 20
140.458485
 30
0.0
 10
52.094314
 20
140.504689
 30
0.0
 10
51.745193
 20
140.608966
 30
0.0
 10
51.179827
 20
140.838038
 30
0.0
 10
50.770717
 20
141.020242
 30
0.0
 10
50.546855
 20
141.119943
 30
0.0
 11
52.249008
 21
140.458485
 31
0.0
 11
51.787123
 21
140.603508
 31
0.0
 11
51.220392
 21
140.824974
 31
0.0
 11
50.546855
 21
141.119943
 31
0.0
  0
LINE
  5
129
100
AcDbEntity
  8
Layer_1
 62
7
100
AcDbLine
 10
48.800605
 20
141.552096
 30
0.0
 11
48.800605
 21
141.552096
 31
0.0
  0
SPLINE
  5
12a
100
AcDbEntity
  8
Layer_1
 62
7
100
AcDbSpline
 70
0
 71
3
 72
10
 73
6
 74
4
 40
0.000000
 40
0.000000
 40
0.000000
 40
0.000000
 40
0.674323
 40
1.273809
 40
1.813168
 40
1.813168
 40
1.813168
 40
1.813168
 10
50.546855
 20
141.119943
 30
0.0
 10
50.340370
 20
141.208905
 30
0.0
 10
49.950316
 20
141.376957
 30
0.0
 10
49.360907
 20
141.531414
 30
0.0
 10
48.980681
 20
141.545449
 30
0.0
 10
48.800605
 20
141.552096
 30
0.0
 11
50.546855
 21
141.119943
 31
0.0
 11
49.920668
 21
141.370144
 31
0.0
 11
49.338585
 21
141.513543
 31
0.0
 11
48.800605
 21
141.552096
 31
0.0
  0
LINE
  5
12b
100
AcDbEntity
  8
Layer_1
 62
7
100
AcDbLine
 10
87.562063
 20
211.163971
 30
0.0
 11
87.562063
 21
181.169040
 31
0.0
  0
SPLINE
  5
12c
100
AcDbEntity
  8
Layer_1
 62
7
100
AcDbSpline
 70
0
 71
3
 72
10
 73
6
 74
4
 40
0.000000
 40
0.000000
 40
0.000000
 40
0.000000
 40
2.617678
 40
5.152164
 40
7.769842
 40
7.769842
 40
7.769842
 40
7.769842
 10
92.562688
 20
216.164596
 30
0.0
 10
91.685122
 20
216.028090
 30
0.0
 10
89.957880
 20
215.759415
 30
0.0
 10
87.967244
 20
213.768780
 30
0.0
 10
87.698570
 20
212.041537
 30
0.0
 10
87.562063
 20
211.163971
 30
0.0
 11
92.562688
 21
216.164596
 31
0.0
 11
90.035119
 21
215.483693
 31
0.0
 11
88.242966
 21
213.691540
 31
0.0
 11
87.562063
 21
211.163971
 31
0.0
  0
LINE
  5
12d
100
AcDbEntity
  8
Layer_1
 62
7
100
AcDbLine
 10
92.562688
 20
176.168415
 30
0.0
 11
122.557619
 21
176.168415
 31
0.0
  0
SPLINE
  5
12e
100
AcDbEntity
  8
Layer_1
 62
7
100
AcDbSpline
 70
0
 71
3
 72
10
 73
6
 74
4
 40
0.000000
 40
0.000000
 40
0.000000
 40
0.000000
 40
2.617678
 40
5.152164
 40
7.769842
 40
7.769842
 40
7.769842
 40
7.769842
 10
87.562063
 20
181.169040
 30
0.0
 10
87.698570
 20
180.291474
 30
0.0
 10
87.967244
 20
178.564232
 30
0.0
 10
89.957880
 20
176.573596
 30
0.0
 10
91.685122
 20
176.304922
 30
0.0
 10
92.562688
 20
176.168415
 30
0.0
 11
87.562063
 21
181.169040
 31
0.0
 11
88.242966
 21
178.641471
 31
0.0
 11
90.035119
 21
176.849318
 31
0.0
 11
92.562688
 21
176.168415
 31
0.0
  0
LINE
  5
12f
100
AcDbEntity
  8
Layer_1
 62
7
100
AcDbLine
 10
127.558244
 20
181.169040
 30
0.0
 11
127.558244
 21
211.163971
 31
0.0
  0
SPLINE
  5
130
100
AcDbEntity
  8
Layer_1
 62
7
100
AcDbSpline
 70
0
 71
3
 72
10
 73
6
 74
4
 40
0.000000
 40
0.000000
 40
0.000000
 40
0.000000
 40
2.617678
 40
5.152164
 40
7.769842
 40
7.769842
 40
7.769842
 40
7.769842
 10
122.557619
 20
176.168415
 30
0.0
 10
123.435185
 20
176.304922
 30
0.0
 10
125.162428
 20
176.573596
 30
0.0
 10
127.153064
 20
178.564232
 30
0.0
 10
127.421738
 20
180.291474
 30
0.0
 10
127.558244
 20
181.169040
 30
0.0
 11
122.557619
 21
176.168415
 31
0.0
 11
125.085188
 21
176.849318
 31
0.0
 11
126.877341
 21
178.641471
 31
0.0
 11
127.558244
 21
181.169040
 31
0.0
  0
LINE
  5
131
100
AcDbEntity
  8
Layer_1
 62
7
100
AcDbLine
 10
122.557619
 20
216.164596
 30
0.0
 11
92.562688
 21
216.164596
 31
0.0
  0
LINE
  5
132
100
AcDbEntity
  8
Layer_1
 62
7
100
AcDbLine
 10
92.562688
 20
216.164596
 30
0.0
 11
92.562688
 21
216.164596
 31
0.0
  0
SPLINE
  5
133
100
AcDbEntity
  8
Layer_1
 62
7
100
AcDbSpline
 70
0
 71
3
 72
10
 73
6
 74
4
 40
0.000000
 40
0.000000
 40
0.000000
 40
0.000000
 40
2.617678
 40
5.152164
 40
7.769842
 40
7.769842
 40
7.769842
 40
7.769842
 10
127.558244
 20
211.163971
 30
0.0
 10
127.421738
 20
212.041537
 30
0.0
 10
127.153064
 20
213.768780
 30
0.0
 10
125.162428
 20
215.759415
 30
0.0
 10
123.435185
 20
216.028090
 30
0.0
 10
122.557619
 20
216.164596
 30
0.0
 11
127.558244
 21
211.163971
 31
0.0
 11
126.877341
 21
213.691540
 31
0.0
 11
125.085188
 21
215.483693
 31
0.0
 11
122.557619
 21
216.164596
 31
0.0
  0
SPLINE
  5
134
100
AcDbEntity
  8
Layer_1
 62
7
100
AcDbSpline
 70
0
 71
3
 72
10
 73
6
 74
4
 40
0.000000
 40
0.000000
 40
0.000000
 40
0.000000
 40
0.547567
 40
1.101404
 40
1.787728
 40
1.787728
 40
1.787728
 40
1.787728
 10
112.397619
 20
209.717582
 30
0.0
 10
112.583269
 20
209.694990
 30
0.0
 10
112.956695
 20
209.649546
 30
0.0
 10
113.406055
 20
209.199184
 30
0.0
 10
113.540370
 20
208.806185
 30
0.0
 10
113.614702
 20
208.588693
 30
0.0
 11
112.397619
 21
209.717582
 31
0.0
 11
112.930698
 21
209.592458
 31
0.0
 11
113.337371
 21
209.216489
 31
0.0
 11
113.614702
 21
208.588693
 31
0.0
  0
SPLINE
  5
135
100
AcDbEntity
  8
Layer_1
 62
7
100
AcDbSpline
 70
0
 71
3
 72
10
 73
6
 74
4
 40
0.000000
 40
0.000000
 40
0.000000
 40
0.000000
 40
0.503613
 40
1.331442
 40
2.488747
 40
2.488747
 40
2.488747
 40
2.488747
 10
113.614702
 20
208.588693
 30
0.0
 10
113.647971
 20
208.423958
 30
0.0
 10
113.735925
 20
207.988433
 30
0.0
 10
113.769857
 20
207.156946
 30
0.0
 10
113.783271
 20
206.495843
 30
0.0
 10
113.791091
 20
206.110429
 30
0.0
 11
113.614702
 21
208.588693
 31
0.0
 11
113.704521
 21
208.093155
 31
0.0
 11
113.762991
 21
207.267393
 31
0.0
 11
113.791091
 21
206.110429
 31
0.0
  0
SPLINE
  5
136
100
AcDbEntity
  8
Layer_1
 62
7
100
AcDbSpline
 70
0
 71
3
 72
13
 73
9
 74
7
 40
0.000000
 40
0.000000
 40
0.000000
 40
0.000000
 40
3.712413
 40
7.755330
 40
12.128166
 40
16.185296
 40
19.679753
 40
22.614446
 40
22.614446
 40
22.614446
 40
22.614446
 10
113.791091
 20
206.110429
 30
0.0
 10
113.823101
 20
204.873363
 30
0.0
 10
113.889971
 20
202.289099
 30
0.0
 10
113.941006
 20
198.246562
 30
0.0
 10
113.945810
 20
194.088891
 30
0.0
 10
113.970955
 20
190.114245
 30
0.0
 10
114.071173
 20
186.619207
 30
0.0
 10
114.230082
 20
184.481833
 30
0.0
 10
114.302619
 20
183.506193
 30
0.0
 11
113.791091
 21
206.110429
 31
0.0
 11
113.879276
 21
202.399064
 31
0.0
 11
113.932193
 21
198.356493
 31
0.0
 11
113.949841
 21
193.983693
 31
0.0
 11
113.988377
 21
189.926746
 31
0.0
 11
114.105317
 21
186.434246
 31
0.0
 11
114.302619
 21
183.506193
 31
0.0
  0
SPLINE
  5
137
100
AcDbEntity
  8
Layer_1
 62
7
100
AcDbSpline
 70
0
 71
3
 72
13
 73
9
 74
7
 40
0.000000
 40
0.000000
 40
0.000000
 40
0.000000
 40
0.644539
 40
1.202382
 40
1.704743
 40
2.071971
 40
2.455177
 40
2.998131
 40
2.998131
 40
2.998131
 40
2.998131
 10
114.302619
 20
183.506193
 30
0.0
 10
114.130072
 20
183.377062
 30
0.0
 10
113.808187
 20
183.136170
 30
0.0
 10
113.278788
 20
182.913849
 30
0.0
 10
112.810242
 20
182.820725
 30
0.0
 10
112.370229
 20
182.918769
 30
0.0
 10
112.147882
 20
183.333091
 30
0.0
 10
112.144082
 20
183.642377
 30
0.0
 10
112.141855
 20
183.823693
 30
0.0
 11
114.302619
 21
183.506193
 31
0.0
 11
113.770177
 21
183.142963
 31
0.0
 11
113.256363
 21
182.925743
 31
0.0
 11
112.759216
 21
182.853554
 31
0.0
 11
112.408064
 21
182.961021
 31
0.0
 11
112.201951
 21
183.284074
 31
0.0
 11
112.141855
 21
183.823693
 31
0.0
  0
SPLINE
  5
138
100
AcDbEntity
  8
Layer_1
 62
7
100
AcDbSpline
 70
0
 71
3
 72
10
 73
6
 74
4
 40
0.000000
 40
0.000000
 40
0.000000
 40
0.000000
 40
0.107479
 40
0.219003
 40
0.335759
 40
0.335759
 40
0.335759
 40
0.335759
 10
112.141855
 20
183.823693
 30
0.0
 10
112.142163
 20
183.859519
 30
0.0
 10
112.142792
 20
183.932521
 30
0.0
 10
112.148221
 20
184.044360
 30
0.0
 10
112.155679
 20
184.120096
 30
0.0
 10
112.159494
 20
184.158832
 30
0.0
 11
112.141855
 21
183.823693
 31
0.0
 11
112.143482
 21
183.931159
 31
0.0
 11
112.149036
 21
184.042545
 31
0.0
 11
112.159494
 21
184.158832
 31
0.0
  0
SPLINE
  5
139
100
AcDbEntity
  8
Layer_1
 62
7
100
AcDbSpline
 70
0
 71
3
 72
13
 73
9
 74
7
 40
0.000000
 40
0.000000
 40
0.000000
 40
0.000000
 40
1.623233
 40
3.146791
 40
4.648654
 40
6.589639
 40
8.462140
 40
10.442353
 40
10.442353
 40
10.442353
 40
10.442353
 10
112.159494
 20
184.158832
 30
0.0
 10
111.712198
 20
183.851104
 30
0.0
 10
110.845071
 20
183.254543
 30
0.0
 10
109.366547
 20
182.730972
 30
0.0
 10
107.709756
 20
182.545341
 30
0.0
 10
105.931349
 20
182.782138
 30
0.0
 10
104.136738
 20
183.605921
 30
0.0
 10
103.237694
 20
184.536183
 30
0.0
 10
102.775605
 20
185.014318
 30
0.0
 11
112.159494
 21
184.158832
 31
0.0
 11
110.782022
 21
183.300078
 31
0.0
 11
109.347719
 21
182.786265
 31
0.0
 11
107.855605
 21
182.615429
 31
0.0
 11
105.932963
 21
182.881646
 31
0.0
 11
104.239630
 21
183.680949
 31
0.0
 11
102.775605
 21
185.014318
 31
0.0
  0
SPLINE
  5
13a
100
AcDbEntity
  8
Layer_1
 62
7
100
AcDbSpline
 70
0
 71
3
 72
13
 73
9
 74
7
 40
0.000000
 40
0.000000
 40
0.000000
 40
0.000000
 40
1.926802
 40
3.841798
 40
5.864509
 40
7.925485
 40
9.959451
 40
12.078936
 40
12.078936
 40
12.078936
 40
12.078936
 10
102.775605
 20
185.014318
 30
0.0
 10
102.381453
 20
185.525937
 30
0.0
 10
101.595564
 20
186.546039
 30
0.0
 10
100.944982
 20
188.422693
 30
0.0
 10
100.735484
 20
190.424456
 30
0.0
 10
100.961771
 20
192.466721
 30
0.0
 10
101.666871
 20
194.444343
 30
0.0
 10
102.482742
 20
195.570026
 30
0.0
 10
102.899077
 20
196.144457
 30
0.0
 11
102.775605
 21
185.014318
 31
0.0
 11
101.683627
 21
186.601816
 31
0.0
 11
101.027722
 21
188.400982
 31
0.0
 11
100.808869
 21
190.411818
 31
0.0
 11
101.042094
 21
192.459556
 31
0.0
 11
101.739810
 21
194.370108
 31
0.0
 11
102.899077
 21
196.144457
 31
0.0
  0
LINE
  5
13b
100
AcDbEntity
  8
Layer_1
 62
7
100
AcDbLine
 10
111.550952
 20
197.890707
 30
0.0
 11
111.550952
 21
202.732582
 31
0.0
  0
SPLINE
  5
13c
100
AcDbEntity
  8
Layer_1
 62
7
100
AcDbSpline
 70
0
 71
3
 72
13
 73
9
 74
7
 40
0.000000
 40
0.000000
 40
0.000000
 40
0.000000
 40
2.221905
 40
4.229215
 40
6.214293
 40
7.310475
 40
8.461489
 40
9.704223
 40
9.704223
 40
9.704223
 40
9.704223
 10
102.899077
 20
196.144457
 30
0.0
 10
103.406345
 20
196.690435
 30
0.0
 10
104.371889
 20
197.729659
 30
0.0
 10
106.251641
 20
198.697730
 30
0.0
 10
107.956896
 20
198.969562
 30
0.0
 10
109.367587
 20
198.824655
 30
0.0
 10
110.488473
 20
198.479214
 30
0.0
 10
111.187860
 20
198.091824
 30
0.0
 10
111.550952
 20
197.890707
 30
0.0
 11
102.899077
 21
196.144457
 31
0.0
 11
104.507480
 21
197.677397
 31
0.0
 11
106.291294
 21
198.597886
 31
0.0
 11
108.252480
 21
198.904943
 31
0.0
 11
109.342819
 21
198.791913
 31
0.0
 11
110.442962
 21
198.453507
 31
0.0
 11
111.550952
 21
197.890707
 31
0.0
  0
SPLINE
  5
13d
100
AcDbEntity
  8
Layer_1
 62
7
100
AcDbSpline
 70
0
 71
3
 72
10
 73
6
 74
4
 40
0.000000
 40
0.000000
 40
0.000000
 40
0.000000
 40
0.756962
 40
1.731265
 40
2.922172
 40
2.922172
 40
2.922172
 40
2.922172
 10
111.550952
 20
202.732582
 30
0.0
 10
111.547388
 20
202.984892
 30
0.0
 10
111.539234
 20
203.561955
 30
0.0
 10
111.492933
 20
204.535053
 30
0.0
 10
111.450706
 20
205.255538
 30
0.0
 10
111.427480
 20
205.651818
 30
0.0
 11
111.550952
 21
202.732582
 31
0.0
 11
111.536572
 21
203.489407
 31
0.0
 11
111.494762
 21
204.462813
 31
0.0
 11
111.427480
 21
205.651818
 31
0.0
  0
LINE
  5
13e
100
AcDbEntity
  8
Layer_1
 62
7
100
AcDbLine
 10
112.397619
 20
209.717582
 30
0.0
 11
112.397619
 21
209.717582
 31
0.0
  0
SPLINE
  5
13f
100
AcDbEntity
  8
Layer_1
 62
7
100
AcDbSpline
 70
0
 71
3
 72
13
 73
9
 74
7
 40
0.000000
 40
0.000000
 40
0.000000
 40
0.000000
 40
1.201189
 40
2.180868
 40
2.939452
 40
3.578528
 40
4.099487
 40
4.716927
 40
4.716927
 40
4.716927
 40
4.716927
 10
111.427480
 20
205.651818
 30
0.0
 10
111.403963
 20
206.051318
 30
0.0
 10
111.361264
 20
206.776646
 30
0.0
 10
111.328340
 20
207.758397
 30
0.0
 10
111.297588
 20
208.543643
 30
0.0
 10
111.350989
 20
209.203356
 30
0.0
 10
111.794736
 20
209.675794
 30
0.0
 10
112.185616
 20
209.702887
 30
0.0
 10
112.397619
 20
209.717582
 30
0.0
 11
111.427480
 21
205.651818
 31
0.0
 11
111.362470
 21
206.851247
 31
0.0
 11
111.324906
 21
207.830205
 31
0.0
 11
111.312827
 21
208.588693
 31
0.0
 11
111.432373
 21
209.216489
 31
0.0
 11
111.792990
 21
209.592458
 31
0.0
 11
112.397619
 21
209.717582
 31
0.0
  0
SPLINE
  5
140
100
AcDbEntity
  8
Layer_1
 62
7
100
AcDbSpline
 70
0
 71
3
 72
10
 73
6
 74
4
 40
0.000000
 40
0.000000
 40
0.000000
 40
0.000000
 40
1.296225
 40
2.599146
 40
4.052847
 40
4.052847
 40
4.052847
 40
4.052847
 10
108.217202
 20
196.303207
 30
0.0
 10
107.783021
 20
196.263248
 30
0.0
 10
106.912417
 20
196.183124
 30
0.0
 10
105.703583
 20
195.482652
 30
0.0
 10
105.114650
 20
194.772634
 30
0.0
 10
104.804077
 20
194.398207
 30
0.0
 11
108.217202
 21
196.303207
 31
0.0
 11
106.938378
 21
196.091531
 31
0.0
 11
105.800670
 21
195.456531
 31
0.0
 11
104.804077
 21
194.398207
 31
0.0
  0
SPLINE
  5
141
100
AcDbEntity
  8
Layer_1
 62
7
100
AcDbSpline
 70
0
 71
3
 72
13
 73
9
 74
7
 40
0.000000
 40
0.000000
 40
0.000000
 40
0.000000
 40
1.485283
 40
2.857432
 40
4.179067
 40
5.511515
 40
6.798864
 40
8.099663
 40
8.099663
 40
8.099663
 40
8.099663
 10
104.804077
 20
194.398207
 30
0.0
 10
104.528070
 20
193.985487
 30
0.0
 10
103.997078
 20
193.191484
 30
0.0
 10
103.519156
 20
191.866682
 30
0.0
 10
103.362335
 20
190.522699
 30
0.0
 10
103.495380
 20
189.207995
 30
0.0
 10
103.874900
 20
187.942660
 30
0.0
 10
104.334805
 20
187.208787
 30
0.0
 10
104.565952
 20
186.839943
 30
0.0
 11
104.804077
 21
194.398207
 31
0.0
 11
104.031231
 21
193.129833
 31
0.0
 11
103.566087
 21
191.838928
 31
0.0
 11
103.410605
 21
190.526471
 31
0.0
 11
103.539628
 21
189.200284
 31
0.0
 11
103.925397
 21
187.972095
 31
0.0
 11
104.565952
 21
186.839943
 31
0.0
  0
SPLINE
  5
142
100
AcDbEntity
  8
Layer_1
 62
7
100
AcDbSpline
 70
0
 71
3
 72
13
 73
9
 74
7
 40
0.000000
 40
0.000000
 40
0.000000
 40
0.000000
 40
1.322248
 40
2.557970
 40
3.845450
 40
5.407205
 40
6.872774
 40
8.374023
 40
8.374023
 40
8.374023
 40
8.374023
 10
104.565952
 20
186.839943
 30
0.0
 10
104.852734
 20
186.500714
 30
0.0
 10
105.407529
 20
185.844454
 30
0.0
 10
106.579933
 20
185.243012
 30
0.0
 10
107.948090
 20
185.067309
 30
0.0
 10
109.388609
 20
185.251547
 30
0.0
 10
110.809632
 20
185.854640
 30
0.0
 10
111.512694
 20
186.561591
 30
0.0
 10
111.868452
 20
186.919318
 30
0.0
 11
104.565952
 21
186.839943
 31
0.0
 11
105.486437
 21
185.890708
 31
0.0
 11
106.582335
 21
185.319730
 31
0.0
 11
107.855605
 21
185.128971
 31
0.0
 11
109.404556
 21
185.328550
 31
0.0
 11
110.742824
 21
185.925986
 31
0.0
 11
111.868452
 21
186.919318
 31
0.0
  0
SPLINE
  5
143
100
AcDbEntity
  8
Layer_1
 62
7
100
AcDbSpline
 70
0
 71
3
 72
10
 73
6
 74
4
 40
0.000000
 40
0.000000
 40
0.000000
 40
0.000000
 40
2.110361
 40
4.698941
 40
7.766593
 40
7.766593
 40
7.766593
 40
7.766593
 10
111.868452
 20
186.919318
 30
0.0
 10
111.819803
 20
187.621153
 30
0.0
 10
111.711482
 20
189.183861
 30
0.0
 10
111.644276
 20
191.772558
 30
0.0
 10
111.635232
 20
193.657910
 30
0.0
 10
111.630327
 20
194.680429
 30
0.0
 11
111.868452
 21
186.919318
 31
0.0
 11
111.736153
 21
189.025528
 31
0.0
 11
111.656778
 21
191.612891
 31
0.0
 11
111.630327
 21
194.680429
 31
0.0
  0
LINE
  5
144
100
AcDbEntity
  8
Layer_1
 62
7
100
AcDbLine
 10
108.217202
 20
196.303207
 30
0.0
 11
108.217202
 21
196.303207
 31
0.0
  0
SPLINE
  5
145
100
AcDbEntity
  8
Layer_1
 62
7
100
AcDbSpline
 70
0
 71
3
 72
10
 73
6
 74
4
 40
0.000000
 40
0.000000
 40
0.000000
 40
0.000000
 40
1.424952
 40
2.684426
 40
3.871085
 40
3.871085
 40
3.871085
 40
3.871085
 10
111.630327
 20
194.680429
 30
0.0
 10
111.277303
 20
194.999243
 30
0.0
 10
110.612249
 20
195.599848
 30
0.0
 10
109.431284
 20
196.191628
 30
0.0
 10
108.613785
 20
196.266760
 30
0.0
 10
108.217202
 20
196.303207
 30
0.0
 11
111.630327
 21
194.680429
 31
0.0
 11
110.527890
 21
195.583270
 31
0.0
 11
109.390182
 21
196.123542
 31
0.0
 11
108.217202
 21
196.303207
 31
0.0
  0
LINE
  5
146
100
AcDbEntity
  8
Layer_1
 62
7
100
AcDbLine
 10
87.562063
 20
61.162849
 30
0.0
 11
87.562063
 21
91.166599
 31
0.0
  0
SPLINE
  5
147
100
AcDbEntity
  8
Layer_1
 62
7
100
AcDbSpline
 70
0
 71
3
 72
10
 73
6
 74
4
 40
0.000000
 40
0.000000
 40
0.000000
 40
0.000000
 40
2.617678
 40
5.152164
 40
7.769842
 40
7.769842
 40
7.769842
 40
7.769842
 10
92.562688
 20
56.162224
 30
0.0
 10
91.685122
 20
56.298730
 30
0.0
 10
89.957880
 20
56.567404
 30
0.0
 10
87.967244
 20
58.558040
 30
0.0
 10
87.698570
 20
60.285283
 30
0.0
 10
87.562063
 20
61.162849
 30
0.0
 11
92.562688
 21
56.162224
 31
0.0
 11
90.035119
 21
56.843126
 31
0.0
 11
88.242966
 21
58.635279
 31
0.0
 11
87.562063
 21
61.162849
 31
0.0
  0
LINE
  5
148
100
AcDbEntity
  8
Layer_1
 62
7
100
AcDbLine
 10
92.562688
 20
96.167224
 30
0.0
 11
122.557619
 21
96.167224
 31
0.0
  0
SPLINE
  5
149
100
AcDbEntity
  8
Layer_1
 62
7
100
AcDbSpline
 70
0
 71
3
 72
10
 73
6
 74
4
 40
0.000000
 40
0.000000
 40
0.000000
 40
0.000000
 40
2.617678
 40
5.152164
 40
7.769842
 40
7.769842
 40
7.769842
 40
7.769842
 10
87.562063
 20
91.166599
 30
0.0
 10
87.698570
 20
92.044165
 30
0.0
 10
87.967244
 20
93.771407
 30
0.0
 10
89.957880
 20
95.762043
 30
0.0
 10
91.685122
 20
96.030717
 30
0.0
 10
92.562688
 20
96.167224
 30
0.0
 11
87.562063
 21
91.166599
 31
0.0
 11
88.242966
 21
93.694168
 31
0.0
 11
90.035119
 21
95.486321
 31
0.0
 11
92.562688
 21
96.167224
 31
0.0
  0
LINE
  5
14a
100
AcDbEntity
  8
Layer_1
 62
7
100
AcDbLine
 10
127.558244
 20
91.166599
 30
0.0
 11
127.558244
 21
61.162849
 31
0.0
  0
SPLINE
  5
14b
100
AcDbEntity
  8
Layer_1
 62
7
100
AcDbSpline
 70
0
 71
3
 72
10
 73
6
 74
4
 40
0.000000
 40
0.000000
 40
0.000000
 40
0.000000
 40
2.617678
 40
5.152164
 40
7.769842
 40
7.769842
 40
7.769842
 40
7.769842
 10
122.557619
 20
96.167224
 30
0.0
 10
123.435185
 20
96.030717
 30
0.0
 10
125.162428
 20
95.762043
 30
0.0
 10
127.153064
 20
93.771407
 30
0.0
 10
127.421738
 20
92.044165
 30
0.0
 10
127.558244
 20
91.166599
 30
0.0
 11
122.557619
 21
96.167224
 31
0.0
 11
125.085188
 21
95.486321
 31
0.0
 11
126.877341
 21
93.694168
 31
0.0
 11
127.558244
 21
91.166599
 31
0.0
  0
LINE
  5
14c
100
AcDbEntity
  8
Layer_1
 62
7
100
AcDbLine
 10
122.557619
 20
56.162224
 30
0.0
 11
92.562688
 21
56.162224
 31
0.0
  0
LINE
  5
14d
100
AcDbEntity
  8
Layer_1
 62
7
100
AcDbLine
 10
92.562688
 20
56.162224
 30
0.0
 11
92.562688
 21
56.162224
 31
0.0
  0
SPLINE
  5
14e
100
AcDbEntity
  8
Layer_1
 62
7
100
AcDbSpline
 70
0
 71
3
 72
10
 73
6
 74
4
 40
0.000000
 40
0.000000
 40
0.000000
 40
0.000000
 40
2.617678
 40
5.152164
 40
7.769842
 40
7.769842
 40
7.769842
 40
7.769842
 10
127.558244
 20
61.162849
 30
0.0
 10
127.421738
 20
60.285283
 30
0.0
 10
127.153064
 20
58.558040
 30
0.0
 10
125.162428
 20
56.567404
 30
0.0
 10
123.435185
 20
56.298730
 30
0.0
 10
122.557619
 20
56.162224
 30
0.0
 11
127.558244
 21
61.162849
 31
0.0
 11
126.877341
 21
58.635279
 31
0.0
 11
125.085188
 21
56.843126
 31
0.0
 11
122.557619
 21
56.162224
 31
0.0
  0
LINE
  5
14f
100
AcDbEntity
  8
Layer_1
 62
7
100
AcDbLine
 10
109.046230
 20
66.242849
 30
0.0
 11
109.046230
 21
69.576599
 31
0.0
  0
SPLINE
  5
150
100
AcDbEntity
  8
Layer_1
 62
7
100
AcDbSpline
 70
0
 71
3
 72
10
 73
6
 74
4
 40
0.000000
 40
0.000000
 40
0.000000
 40
0.000000
 40
0.467579
 40
0.921560
 40
1.535080
 40
1.535080
 40
1.535080
 40
1.535080
 10
108.234841
 20
65.149237
 30
0.0
 10
108.396792
 20
65.168834
 30
0.0
 10
108.715983
 20
65.207459
 30
0.0
 10
109.024917
 20
65.679753
 30
0.0
 10
109.038451
 20
66.037336
 30
0.0
 10
109.046230
 20
66.242849
 30
0.0
 11
108.234841
 21
65.149237
 31
0.0
 11
108.686267
 21
65.271076
 31
0.0
 11
108.956403
 21
65.635939
 31
0.0
 11
109.046230
 21
66.242849
 31
0.0
  0
SPLINE
  5
151
100
AcDbEntity
  8
Layer_1
 62
7
100
AcDbSpline
 70
0
 71
3
 72
13
 73
9
 74
7
 40
0.000000
 40
0.000000
 40
0.000000
 40
0.000000
 40
1.968124
 40
4.344683
 40
7.130078
 40
8.527212
 40
9.627689
 40
10.441805
 40
10.441805
 40
10.441805
 40
10.441805
 10
109.046230
 20
69.576599
 30
0.0
 10
109.006191
 20
70.231465
 30
0.0
 10
108.917805
 20
71.677099
 30
0.0
 10
108.860867
 20
74.053522
 30
0.0
 10
108.862300
 20
76.240440
 30
0.0
 10
108.833832
 20
78.000175
 30
0.0
 10
108.758037
 20
79.105191
 30
0.0
 10
108.613711
 20
79.727673
 30
0.0
 10
108.552341
 20
79.992362
 30
0.0
 11
109.046230
 21
69.576599
 31
0.0
 11
108.937132
 21
71.541696
 31
0.0
 11
108.873108
 21
73.917393
 31
0.0
 11
108.852202
 21
76.702710
 31
0.0
 11
108.818558
 21
78.099439
 31
0.0
 11
108.718278
 21
79.195337
 31
0.0
 11
108.552341
 21
79.992362
 31
0.0
  0
SPLINE
  5
152
100
AcDbEntity
  8
Layer_1
 62
7
100
AcDbSpline
 70
0
 71
3
 72
13
 73
9
 74
7
 40
0.000000
 40
0.000000
 40
0.000000
 40
0.000000
 40
0.664969
 40
1.200000
 40
1.724252
 40
2.322058
 40
2.842611
 40
3.493625
 40
3.493625
 40
3.493625
 40
3.493625
 10
108.552341
 20
79.992362
 30
0.0
 10
108.478853
 20
80.203227
 30
0.0
 10
108.346236
 20
80.583752
 30
0.0
 10
107.915616
 20
81.010281
 30
0.0
 10
107.356603
 20
81.120810
 30
0.0
 10
106.788654
 20
81.029659
 30
0.0
 10
106.363466
 20
80.552547
 30
0.0
 10
106.341852
 20
80.152772
 30
0.0
 10
106.329841
 20
79.930626
 30
0.0
 11
108.552341
 21
79.992362
 31
0.0
 11
108.280572
 21
80.599260
 31
0.0
 11
107.889250
 21
80.964124
 31
0.0
 11
107.379355
 21
81.085974
 31
0.0
 11
106.795641
 21
80.956938
 31
0.0
 11
106.446129
 21
80.571169
 31
0.0
 11
106.329841
 21
79.930626
 31
0.0
  0
SPLINE
  5
153
100
AcDbEntity
  8
Layer_1
 62
7
100
AcDbSpline
 70
0
 71
3
 72
13
 73
9
 74
7
 40
0.000000
 40
0.000000
 40
0.000000
 40
0.000000
 40
0.433496
 40
0.901817
 40
1.409619
 40
2.131561
 40
2.896353
 40
3.704989
 40
3.704989
 40
3.704989
 40
3.704989
 10
106.329841
 20
79.930626
 30
0.0
 10
106.305434
 20
79.788148
 30
0.0
 10
106.254660
 20
79.491746
 30
0.0
 10
106.215436
 20
79.022981
 30
0.0
 10
106.200004
 20
78.456958
 30
0.0
 10
106.223911
 20
77.792082
 30
0.0
 10
106.291800
 20
77.029541
 30
0.0
 10
106.369357
 20
76.510732
 30
0.0
 10
106.409216
 20
76.244099
 30
0.0
 11
106.329841
 21
79.930626
 31
0.0
 11
106.262555
 21
79.502385
 31
0.0
 11
106.220745
 21
79.035934
 31
0.0
 11
106.206369
 21
78.528335
 31
0.0
 11
106.229564
 21
77.806765
 31
0.0
 11
106.297832
 21
77.045027
 31
0.0
 11
106.409216
 21
76.244099
 31
0.0
  0
SPLINE
  5
154
100
AcDbEntity
  8
Layer_1
 62
7
100
AcDbSpline
 70
0
 71
3
 72
13
 73
9
 74
7
 40
0.000000
 40
0.000000
 40
0.000000
 40
0.000000
 40
0.676355
 40
1.406562
 40
2.188667
 40
2.880172
 40
3.367655
 40
3.653156
 40
3.653156
 40
3.653156
 40
3.653156
 10
106.409216
 20
76.244099
 30
0.0
 10
106.418180
 20
76.018825
 30
0.0
 10
106.436822
 20
75.550341
 30
0.0
 10
106.462957
 20
74.821253
 30
0.0
 10
106.488025
 20
74.087073
 30
0.0
 10
106.508140
 20
73.433689
 30
0.0
 10
106.520531
 20
72.945665
 30
0.0
 10
106.522969
 20
72.688013
 30
0.0
 10
106.523869
 20
72.592849
 30
0.0
 11
106.409216
 21
76.244099
 31
0.0
 11
106.435681
 21
75.568261
 31
0.0
 11
106.462137
 21
74.838534
 31
0.0
 11
106.488591
 21
74.056876
 31
0.0
 11
106.509504
 21
73.365688
 31
0.0
 11
106.520608
 21
72.878332
 31
0.0
 11
106.523869
 21
72.592849
 31
0.0
  0
SPLINE
  5
155
100
AcDbEntity
  8
Layer_1
 62
7
100
AcDbSpline
 70
0
 71
3
 72
10
 73
6
 74
4
 40
0.000000
 40
0.000000
 40
0.000000
 40
0.000000
 40
0.914254
 40
2.093872
 40
3.537002
 40
3.537002
 40
3.537002
 40
3.537002
 10
106.523869
 20
72.592849
 30
0.0
 10
106.532334
 20
72.288211
 30
0.0
 10
106.551720
 20
71.590514
 30
0.0
 10
106.565019
 20
70.411538
 30
0.0
 10
106.566920
 20
69.537292
 30
0.0
 10
106.567966
 20
69.056251
 30
0.0
 11
106.523869
 21
72.592849
 31
0.0
 11
106.547068
 21
71.678889
 31
0.0
 11
106.562418
 21
70.499370
 31
0.0
 11
106.567966
 21
69.056251
 31
0.0
  0
SPLINE
  5
156
100
AcDbEntity
  8
Layer_1
 62
7
100
AcDbSpline
 70
0
 71
3
 72
10
 73
6
 74
4
 40
0.000000
 40
0.000000
 40
0.000000
 40
0.000000
 40
1.416185
 40
2.620279
 40
3.616898
 40
3.616898
 40
3.616898
 40
3.616898
 10
106.567966
 20
69.056251
 30
0.0
 10
106.597137
 20
68.585126
 30
0.0
 10
106.651109
 20
67.713432
 30
0.0
 10
106.778242
 20
66.513171
 30
0.0
 10
106.918818
 20
65.792914
 30
0.0
 10
106.982480
 20
65.466737
 30
0.0
 11
106.567966
 21
69.056251
 31
0.0
 11
106.666616
 21
67.643506
 31
0.0
 11
106.804461
 21
66.447329
 31
0.0
 11
106.982480
 21
65.466737
 31
0.0
  0
LINE
  5
157
100
AcDbEntity
  8
Layer_1
 62
7
100
AcDbLine
 10
108.234841
 20
65.149237
 30
0.0
 11
108.234841
 21
65.149237
 31
0.0
  0
SPLINE
  5
158
100
AcDbEntity
  8
Layer_1
 62
7
100
AcDbSpline
 70
0
 71
3
 72
10
 73
6
 74
4
 40
0.000000
 40
0.000000
 40
0.000000
 40
0.000000
 40
0.465255
 40
0.896232
 40
1.301828
 40
1.301828
 40
1.301828
 40
1.301828
 10
106.982480
 20
65.466737
 30
0.0
 10
107.124394
 20
65.403963
 30
0.0
 10
107.397767
 20
65.283039
 30
0.0
 10
107.820616
 20
65.171718
 30
0.0
 10
108.099587
 20
65.156578
 30
0.0
 10
108.234841
 20
65.149237
 30
0.0
 11
106.982480
 21
65.466737
 31
0.0
 11
107.413002
 21
65.290349
 31
0.0
 11
107.830782
 21
65.184515
 31
0.0
 11
108.234841
 21
65.149237
 31
0.0
  0
SPLINE
  5
159
100
AcDbEntity
  8
Layer_1
 62
7
100
AcDbSpline
 70
0
 71
3
 72
10
 73
6
 74
4
 40
0.000000
 40
0.000000
 40
0.000000
 40
0.000000
 40
0.357561
 40
0.735346
 40
1.156901
 40
1.156901
 40
1.156901
 40
1.156901
 10
107.379355
 20
84.260974
 30
0.0
 10
107.498762
 20
84.270540
 30
0.0
 10
107.744328
 20
84.290214
 30
0.0
 10
108.105340
 20
84.445271
 30
0.0
 10
108.317160
 20
84.607546
 30
0.0
 10
108.428869
 20
84.693126
 30
0.0
 11
107.379355
 21
84.260974
 31
0.0
 11
107.733767
 21
84.308324
 31
0.0
 11
108.083279
 21
84.451722
 31
0.0
 11
108.428869
 21
84.693126
 31
0.0
  0
SPLINE
  5
15a
100
AcDbEntity
  8
Layer_1
 62
7
100
AcDbSpline
 70
0
 71
3
 72
16
 73
12
 74
10
 40
0.000000
 40
0.000000
 40
0.000000
 40
0.000000
 40
0.417874
 40
0.809732
 40
1.205821
 40
2.012001
 40
2.649202
 40
3.372400
 40
3.811108
 40
4.217006
 40
4.614121
 40
4.614121
 40
4.614121
 40
4.614121
 10
108.428869
 20
84.693126
 30
0.0
 10
108.527762
 20
84.792197
 30
0.0
 10
108.719391
 20
84.984170
 30
0.0
 10
108.896528
 20
85.356023
 30
0.0
 10
108.957574
 20
85.886497
 30
0.0
 10
108.882932
 20
86.518749
 30
0.0
 10
108.383099
 20
87.111216
 30
0.0
 10
107.752207
 20
87.203813
 30
0.0
 10
107.234233
 20
87.151297
 30
0.0
 10
106.835507
 20
87.011510
 30
0.0
 10
106.626988
 20
86.841133
 30
0.0
 10
106.523869
 20
86.756876
 30
0.0
 11
108.428869
 21
84.693126
 31
0.0
 11
108.706192
 21
85.005713
 31
0.0
 11
108.874741
 21
85.359471
 31
0.0
 11
108.931577
 21
85.751460
 31
0.0
 11
108.790466
 21
86.545195
 31
0.0
 11
108.367133
 21
87.021445
 31
0.0
 11
107.661577
 21
87.180210
 31
0.0
 11
107.225507
 21
87.132178
 31
0.0
 11
106.845292
 21
86.990087
 31
0.0
 11
106.523869
 21
86.756876
 31
0.0
  0
LINE
  5
15b
100
AcDbEntity
  8
Layer_1
 62
7
100
AcDbLine
 10
107.379355
 20
84.260974
 30
0.0
 11
107.379355
 21
84.260974
 31
0.0
  0
SPLINE
  5
15c
100
AcDbEntity
  8
Layer_1
 62
7
100
AcDbSpline
 70
0
 71
3
 72
16
 73
12
 74
10
 40
0.000000
 40
0.000000
 40
0.000000
 40
0.000000
 40
0.381931
 40
0.747784
 40
1.135019
 40
1.520290
 40
1.894653
 40
2.277354
 40
2.634315
 40
2.977642
 40
3.340704
 40
3.340704
 40
3.340704
 40
3.340704
 10
106.523869
 20
86.756876
 30
0.0
 10
106.433259
 20
86.666089
 30
0.0
 10
106.255852
 20
86.488337
 30
0.0
 10
106.102886
 20
86.132570
 30
0.0
 10
106.060330
 20
85.752119
 30
0.0
 10
106.099114
 20
85.368806
 30
0.0
 10
106.224115
 20
85.005300
 30
0.0
 10
106.427540
 20
84.690400
 30
0.0
 10
106.692317
 20
84.438980
 30
0.0
 10
107.021238
 20
84.285077
 30
0.0
 10
107.257780
 20
84.269156
 30
0.0
 10
107.379355
 20
84.260974
 30
0.0
 11
106.523869
 21
86.756876
 31
0.0
 11
106.272027
 21
86.469741
 31
0.0
 11
106.123076
 21
86.135582
 31
0.0
 11
106.074077
 21
85.751460
 31
0.0
 11
106.114257
 21
85.368290
 31
0.0
 11
106.236750
 21
85.014533
 31
0.0
 11
106.444494
 21
84.693126
 31
0.0
 11
106.707448
 21
84.451722
 31
0.0
 11
107.019394
 21
84.308324
 31
0.0
 11
107.379355
 21
84.260974
 31
0.0
  0
LINE
  5
15d
100
AcDbEntity
  8
Layer_1
 62
7
100
AcDbLine
 10
147.560744
 20
151.165290
 30
0.0
 11
147.560744
 21
121.170360
 31
0.0
  0
SPLINE
  5
15e
100
AcDbEntity
  8
Layer_1
 62
7
100
AcDbSpline
 70
0
 71
3
 72
10
 73
6
 74
4
 40
0.000000
 40
0.000000
 40
0.000000
 40
0.000000
 40
2.617679
 40
5.152165
 40
7.769842
 40
7.769842
 40
7.769842
 40
7.769842
 10
152.561369
 20
156.165915
 30
0.0
 10
151.683803
 20
156.029409
 30
0.0
 10
149.956560
 20
155.760735
 30
0.0
 10
147.965924
 20
153.770099
 30
0.0
 10
147.697250
 20
152.042856
 30
0.0
 10
147.560744
 20
151.165290
 30
0.0
 11
152.561369
 21
156.165915
 31
0.0
 11
150.033798
 21
155.485013
 31
0.0
 11
148.241646
 21
153.692860
 31
0.0
 11
147.560744
 21
151.165290
 31
0.0
  0
LINE
  5
15f
100
AcDbEntity
  8
Layer_1
 62
7
100
AcDbLine
 10
152.561369
 20
116.169735
 30
0.0
 11
182.556300
 21
116.169735
 31
0.0
  0
SPLINE
  5
160
100
AcDbEntity
  8
Layer_1
 62
7
100
AcDbSpline
 70
0
 71
3
 72
10
 73
6
 74
4
 40
0.000000
 40
0.000000
 40
0.000000
 40
0.000000
 40
2.617677
 40
5.152164
 40
7.769842
 40
7.769842
 40
7.769842
 40
7.769842
 10
147.560744
 20
121.170360
 30
0.0
 10
147.697250
 20
120.292794
 30
0.0
 10
147.965924
 20
118.565551
 30
0.0
 10
149.956560
 20
116.574915
 30
0.0
 10
151.683803
 20
116.306241
 30
0.0
 10
152.561369
 20
116.169735
 30
0.0
 11
147.560744
 21
121.170360
 31
0.0
 11
148.241646
 21
118.642790
 31
0.0
 11
150.033798
 21
116.850638
 31
0.0
 11
152.561369
 21
116.169735
 31
0.0
  0
LINE
  5
161
100
AcDbEntity
  8
Layer_1
 62
7
100
AcDbLine
 10
187.556925
 20
121.170360
 30
0.0
 11
187.556925
 21
151.165290
 31
0.0
  0
SPLINE
  5
162
100
AcDbEntity
  8
Layer_1
 62
7
100
AcDbSpline
 70
0
 71
3
 72
10
 73
6
 74
4
 40
0.000000
 40
0.000000
 40
0.000000
 40
0.000000
 40
2.617678
 40
5.152164
 40
7.769842
 40
7.769842
 40
7.769842
 40
7.769842
 10
182.556300
 20
116.169735
 30
0.0
 10
183.433866
 20
116.306241
 30
0.0
 10
185.161108
 20
116.574915
 30
0.0
 10
187.151744
 20
118.565551
 30
0.0
 10
187.420418
 20
120.292794
 30
0.0
 10
187.556925
 20
121.170360
 30
0.0
 11
182.556300
 21
116.169735
 31
0.0
 11
185.083869
 21
116.850638
 31
0.0
 11
186.876022
 21
118.642790
 31
0.0
 11
187.556925
 21
121.170360
 31
0.0
  0
LINE
  5
163
100
AcDbEntity
  8
Layer_1
 62
7
100
AcDbLine
 10
182.556300
 20
156.165915
 30
0.0
 11
152.561369
 21
156.165915
 31
0.0
  0
LINE
  5
164
100
AcDbEntity
  8
Layer_1
 62
7
100
AcDbLine
 10
152.561369
 20
156.165915
 30
0.0
 11
152.561369
 21
156.165915
 31
0.0
  0
SPLINE
  5
165
100
AcDbEntity
  8
Layer_1
 62
7
100
AcDbSpline
 70
0
 71
3
 72
10
 73
6
 74
4
 40
0.000000
 40
0.000000
 40
0.000000
 40
0.000000
 40
2.617678
 40
5.152164
 40
7.769842
 40
7.769842
 40
7.769842
 40
7.769842
 10
187.556925
 20
151.165290
 30
0.0
 10
187.420418
 20
152.042856
 30
0.0
 10
187.151744
 20
153.770099
 30
0.0
 10
185.161108
 20
155.760735
 30
0.0
 10
183.433866
 20
156.029409
 30
0.0
 10
182.556300
 20
156.165915
 30
0.0
 11
187.556925
 21
151.165290
 31
0.0
 11
186.876022
 21
153.692860
 31
0.0
 11
185.083869
 21
155.485013
 31
0.0
 11
182.556300
 21
156.165915
 31
0.0
  0
SPLINE
  5
166
100
AcDbEntity
  8
Layer_1
 62
7
100
AcDbSpline
 70
0
 71
3
 72
10
 73
6
 74
4
 40
0.000000
 40
0.000000
 40
0.000000
 40
0.000000
 40
0.917723
 40
1.864939
 40
2.895964
 40
2.895964
 40
2.895964
 40
2.895964
 10
169.203661
 20
144.294943
 30
0.0
 10
169.510119
 20
144.271251
 30
0.0
 10
170.132884
 20
144.223105
 30
0.0
 10
171.040016
 20
143.843702
 30
0.0
 10
171.566356
 20
143.444610
 30
0.0
 10
171.840675
 20
143.236610
 30
0.0
 11
169.203661
 21
144.294943
 31
0.0
 11
170.113690
 21
144.176360
 31
0.0
 11
170.992368
 21
143.822602
 31
0.0
 11
171.840675
 21
143.236610
 31
0.0
  0
SPLINE
  5
167
100
AcDbEntity
  8
Layer_1
 62
7
100
AcDbSpline
 70
0
 71
3
 72
10
 73
6
 74
4
 40
0.000000
 40
0.000000
 40
0.000000
 40
0.000000
 40
1.011599
 40
1.982176
 40
2.970917
 40
2.970917
 40
2.970917
 40
2.970917
 10
171.840675
 20
143.236610
 30
0.0
 10
172.086873
 20
143.004756
 30
0.0
 10
172.569287
 20
142.550451
 30
0.0
 10
173.083356
 20
141.682263
 30
0.0
 10
173.236327
 20
141.044770
 30
0.0
 10
173.313522
 20
140.723068
 30
0.0
 11
171.840675
 21
143.236610
 31
0.0
 11
172.542955
 21
142.508507
 31
0.0
 11
173.034558
 21
141.671639
 31
0.0
 11
173.313522
 21
140.723068
 31
0.0
  0
SPLINE
  5
168
100
AcDbEntity
  8
Layer_1
 62
7
100
AcDbSpline
 70
0
 71
3
 72
13
 73
9
 74
7
 40
0.000000
 40
0.000000
 40
0.000000
 40
0.000000
 40
0.804044
 40
1.404813
 40
1.852209
 40
2.067934
 40
2.555262
 40
3.322309
 40
3.322309
 40
3.322309
 40
3.322309
 10
173.313522
 20
140.723068
 30
0.0
 10
173.153971
 20
140.502267
 30
0.0
 10
172.875206
 20
140.116487
 30
0.0
 10
172.423955
 20
139.737829
 30
0.0
 10
171.977798
 20
139.502458
 30
0.0
 10
171.663279
 20
139.768611
 30
0.0
 10
171.361043
 20
140.140116
 30
0.0
 10
171.105919
 20
140.474498
 30
0.0
 10
170.949911
 20
140.678971
 30
0.0
 11
173.313522
 21
140.723068
 31
0.0
 11
172.814072
 21
140.092960
 31
0.0
 11
172.348928
 21
139.712744
 31
0.0
 11
171.920050
 21
139.585360
 31
0.0
 11
171.742020
 21
139.707191
 31
0.0
 11
171.418967
 21
140.072054
 31
0.0
 11
170.949911
 21
140.678971
 31
0.0
  0
SPLINE
  5
169
100
AcDbEntity
  8
Layer_1
 62
7
100
AcDbSpline
 70
0
 71
3
 72
13
 73
9
 74
7
 40
0.000000
 40
0.000000
 40
0.000000
 40
0.000000
 40
0.787871
 40
1.444283
 40
2.037863
 40
3.389883
 40
4.855344
 40
6.552077
 40
6.552077
 40
6.552077
 40
6.552077
 10
170.949911
 20
140.678971
 30
0.0
 10
170.784147
 20
140.883474
 30
0.0
 10
170.480278
 20
141.258357
 30
0.0
 10
169.900351
 20
141.646017
 30
0.0
 10
169.028851
 20
141.795431
 30
0.0
 10
167.889352
 20
141.550644
 30
0.0
 10
166.537279
 20
140.850545
 30
0.0
 10
165.781532
 20
140.107517
 30
0.0
 10
165.376022
 20
139.708832
 30
0.0
 11
170.949911
 21
140.678971
 31
0.0
 11
170.420737
 21
141.262679
 31
0.0
 11
169.865112
 21
141.612191
 31
0.0
 11
169.283036
 21
141.728485
 31
0.0
 11
167.949661
 21
141.504724
 31
0.0
 11
166.647650
 21
140.832159
 31
0.0
 11
165.376022
 21
139.708832
 31
0.0
  0
SPLINE
  5
16a
100
AcDbEntity
  8
Layer_1
 62
7
100
AcDbSpline
 70
0
 71
3
 72
13
 73
9
 74
7
 40
0.000000
 40
0.000000
 40
0.000000
 40
0.000000
 40
1.744100
 40
3.240447
 40
4.581795
 40
5.922102
 40
7.080637
 40
8.099998
 40
8.099998
 40
8.099998
 40
8.099998
 10
165.376022
 20
139.708832
 30
0.0
 10
165.002822
 20
139.261535
 30
0.0
 10
164.309435
 20
138.430480
 30
0.0
 10
163.628052
 20
137.038699
 30
0.0
 10
163.418064
 20
135.642466
 30
0.0
 10
163.528465
 20
134.364564
 30
0.0
 10
163.762509
 20
133.202125
 30
0.0
 10
164.116654
 20
132.563928
 30
0.0
 10
164.282411
 20
132.265221
 30
0.0
 11
165.376022
 21
139.708832
 31
0.0
 11
164.317685
 21
138.322539
 31
0.0
 11
163.682686
 21
136.967611
 31
0.0
 11
163.471022
 21
135.643068
 31
0.0
 11
163.560847
 21
134.305775
 31
0.0
 11
163.830983
 21
133.179173
 31
0.0
 11
164.282411
 21
132.265221
 31
0.0
  0
SPLINE
  5
16b
100
AcDbEntity
  8
Layer_1
 62
7
100
AcDbSpline
 70
0
 71
3
 72
19
 73
15
 74
13
 40
0.000000
 40
0.000000
 40
0.000000
 40
0.000000
 40
1.149430
 40
2.268652
 40
3.503169
 40
4.533484
 40
5.781398
 40
7.300419
 40
8.712743
 40
9.614680
 40
10.008893
 40
10.352296
 40
10.691220
 40
11.054332
 40
11.054332
 40
11.054332
 40
11.054332
 10
164.282411
 20
132.265221
 30
0.0
 10
164.516548
 20
131.955770
 30
0.0
 10
164.978669
 20
131.345000
 30
0.0
 10
166.062871
 20
130.820537
 30
0.0
 10
167.196398
 20
130.662705
 30
0.0
 10
168.365645
 20
130.857172
 30
0.0
 10
169.529065
 20
131.382832
 30
0.0
 10
170.688429
 20
132.153596
 30
0.0
 10
171.721418
 20
132.921778
 30
0.0
 10
172.466698
 20
133.397697
 30
0.0
 10
172.953473
 20
133.705317
 30
0.0
 10
173.323297
 20
133.620354
 30
0.0
 10
173.643582
 20
133.481422
 30
0.0
 10
173.815503
 20
133.319243
 30
0.0
 10
173.904425
 20
133.235360
 30
0.0
 11
164.282411
 21
132.265221
 31
0.0
 11
165.046432
 21
131.406466
 31
0.0
 11
166.040743
 21
130.892652
 31
0.0
 11
167.263383
 21
130.721818
 31
0.0
 11
168.280880
 21
130.883833
 31
0.0
 11
169.429694
 21
131.371189
 31
0.0
 11
170.711786
 21
132.185846
 31
0.0
 11
171.863858
 21
133.002784
 31
0.0
 11
172.620044
 21
133.494386
 31
0.0
 11
172.978383
 21
133.658693
 31
0.0
 11
173.318413
 21
133.610673
 31
0.0
 11
173.626113
 21
133.468582
 31
0.0
 11
173.904425
 21
133.235360
 31
0.0
  0
SPLINE
  5
16c
100
AcDbEntity
  8
Layer_1
 62
7
100
AcDbSpline
 70
0
 71
3
 72
13
 73
9
 74
7
 40
0.000000
 40
0.000000
 40
0.000000
 40
0.000000
 40
0.363102
 40
0.702026
 40
1.045437
 40
1.183613
 40
1.390225
 40
1.664700
 40
1.664700
 40
1.664700
 40
1.664700
 10
173.904425
 20
133.235360
 30
0.0
 10
173.988008
 20
133.146587
 30
0.0
 10
174.149611
 20
132.974953
 30
0.0
 10
174.292648
 20
132.652636
 30
0.0
 10
174.344948
 20
132.376929
 30
0.0
 10
174.303739
 20
132.149481
 30
0.0
 10
174.229972
 20
131.956058
 30
0.0
 10
174.163077
 20
131.810360
 30
0.0
 10
174.124911
 20
131.727235
 30
0.0
 11
173.904425
 21
133.235360
 31
0.0
 11
174.137640
 21
132.957055
 31
0.0
 11
174.279731
 21
132.649354
 31
0.0
 11
174.327758
 21
132.309318
 31
0.0
 11
174.304556
 21
132.173104
 31
0.0
 11
174.236287
 21
131.978097
 31
0.0
 11
174.124911
 21
131.727235
 31
0.0
  0
SPLINE
  5
16d
100
AcDbEntity
  8
Layer_1
 62
7
100
AcDbSpline
 70
0
 71
3
 72
10
 73
6
 74
4
 40
0.000000
 40
0.000000
 40
0.000000
 40
0.000000
 40
1.266455
 40
2.590200
 40
4.012963
 40
4.012963
 40
4.012963
 40
4.012963
 10
174.124911
 20
131.727235
 30
0.0
 10
173.877108
 20
131.384240
 30
0.0
 10
173.370292
 20
130.682735
 30
0.0
 10
172.351933
 20
129.795201
 30
0.0
 10
171.561976
 20
129.330795
 30
0.0
 10
171.152758
 20
129.090221
 30
0.0
 11
174.124911
 21
131.727235
 31
0.0
 11
173.345524
 21
130.729004
 31
0.0
 11
172.355460
 21
129.850326
 31
0.0
 11
171.152758
 21
129.090221
 31
0.0
  0
SPLINE
  5
16e
100
AcDbEntity
  8
Layer_1
 62
7
100
AcDbSpline
 70
0
 71
3
 72
13
 73
9
 74
7
 40
0.000000
 40
0.000000
 40
0.000000
 40
0.000000
 40
1.421810
 40
2.764555
 40
4.066212
 40
5.851827
 40
7.584834
 40
9.415355
 40
9.415355
 40
9.415355
 40
9.415355
 10
171.152758
 20
129.090221
 30
0.0
 10
170.726588
 20
128.880743
 30
0.0
 10
169.897949
 20
128.473437
 30
0.0
 10
168.579304
 20
128.123015
 30
0.0
 10
167.102756
 20
127.985024
 30
0.0
 10
165.490166
 20
128.191549
 30
0.0
 10
163.826803
 20
128.932308
 30
0.0
 10
162.974152
 20
129.770769
 30
0.0
 10
162.536161
 20
130.201471
 30
0.0
 11
171.152758
 21
129.090221
 31
0.0
 11
169.856293
 21
128.506505
 31
0.0
 11
168.559835
 21
128.156993
 31
0.0
 11
167.263383
 21
128.040707
 31
0.0
 11
165.493937
 21
128.280465
 31
0.0
 11
163.917544
 21
129.000393
 31
0.0
 11
162.536161
 21
130.201471
 31
0.0
  0
SPLINE
  5
16f
100
AcDbEntity
  8
Layer_1
 62
7
100
AcDbSpline
 70
0
 71
3
 72
13
 73
9
 74
7
 40
0.000000
 40
0.000000
 40
0.000000
 40
0.000000
 40
1.742966
 40
3.488829
 40
5.343903
 40
7.116262
 40
8.861787
 40
10.652282
 40
10.652282
 40
10.652282
 40
10.652282
 10
162.536161
 20
130.201471
 30
0.0
 10
162.185609
 20
130.668779
 30
0.0
 10
161.483923
 20
131.604173
 30
0.0
 10
160.909407
 20
133.319818
 30
0.0
 10
160.730321
 20
135.112850
 30
0.0
 10
160.904348
 20
136.905249
 30
0.0
 10
161.419985
 20
138.616910
 30
0.0
 10
162.032155
 20
139.628671
 30
0.0
 10
162.342133
 20
140.140985
 30
0.0
 11
162.536161
 21
130.201471
 31
0.0
 11
161.566022
 21
131.649491
 31
0.0
 11
160.983938
 21
133.295460
 31
0.0
 11
160.789911
 21
135.140360
 31
0.0
 11
160.963032
 21
136.904243
 31
0.0
 11
161.481093
 21
138.571118
 31
0.0
 11
162.342133
 21
140.140985
 31
0.0
  0
SPLINE
  5
170
100
AcDbEntity
  8
Layer_1
 62
7
100
AcDbSpline
 70
0
 71
3
 72
10
 73
6
 74
4
 40
0.000000
 40
0.000000
 40
0.000000
 40
0.000000
 40
1.867574
 40
3.646725
 40
5.403502
 40
5.403502
 40
5.403502
 40
5.403502
 10
162.342133
 20
140.140985
 30
0.0
 10
162.715975
 20
140.639966
 30
0.0
 10
163.445959
 20
141.614302
 30
0.0
 10
164.827546
 20
142.803729
 30
0.0
 10
165.883340
 20
143.334501
 30
0.0
 10
166.407897
 20
143.598207
 30
0.0
 11
162.342133
 21
140.140985
 31
0.0
 11
163.516749
 21
141.592918
 31
0.0
 11
164.871677
 21
142.745978
 31
0.0
 11
166.407897
 21
143.598207
 31
0.0
  0
LINE
  5
171
100
AcDbEntity
  8
Layer_1
 62
7
100
AcDbLine
 10
169.203661
 20
144.294943
 30
0.0
 11
169.203661
 21
144.294943
 31
0.0
  0
SPLINE
  5
172
100
AcDbEntity
  8
Layer_1
 62
7
100
AcDbSpline
 70
0
 71
3
 72
10
 73
6
 74
4
 40
0.000000
 40
0.000000
 40
0.000000
 40
0.000000
 40
1.053975
 40
2.014162
 40
2.901159
 40
2.901159
 40
2.901159
 40
2.901159
 10
166.407897
 20
143.598207
 30
0.0
 10
166.731514
 20
143.735266
 30
0.0
 10
167.349951
 20
143.997186
 30
0.0
 10
168.291943
 20
144.244188
 30
0.0
 10
168.907890
 20
144.278478
 30
0.0
 10
169.203661
 20
144.294943
 30
0.0
 11
166.407897
 21
143.598207
 31
0.0
 11
167.388483
 21
143.984619
 31
0.0
 11
168.320078
 21
144.217190
 31
0.0
 11
169.203661
 21
144.294943
 31
0.0
  0
LINE
  5
173
100
AcDbEntity
  8
Layer_1
 62
7
100
AcDbLine
 10
87.562063
 20
151.165290
 30
0.0
 11
87.562063
 21
121.170360
 31
0.0
  0
SPLINE
  5
174
100
AcDbEntity
  8
Layer_1
 62
7
100
AcDbSpline
 70
0
 71
3
 72
10
 73
6
 74
4
 40
0.000000
 40
0.000000
 40
0.000000
 40
0.000000
 40
2.617678
 40
5.152164
 40
7.769842
 40
7.769842
 40
7.769842
 40
7.769842
 10
92.562688
 20
156.165915
 30
0.0
 10
91.685122
 20
156.029409
 30
0.0
 10
89.957880
 20
155.760735
 30
0.0
 10
87.967244
 20
153.770099
 30
0.0
 10
87.698570
 20
152.042856
 30
0.0
 10
87.562063
 20
151.165290
 30
0.0
 11
92.562688
 21
156.165915
 31
0.0
 11
90.035119
 21
155.485013
 31
0.0
 11
88.242966
 21
153.692860
 31
0.0
 11
87.562063
 21
151.165290
 31
0.0
  0
LINE
  5
175
100
AcDbEntity
  8
Layer_1
 62
7
100
AcDbLine
 10
92.562688
 20
116.169735
 30
0.0
 11
122.557619
 21
116.169735
 31
0.0
  0
SPLINE
  5
176
100
AcDbEntity
  8
Layer_1
 62
7
100
AcDbSpline
 70
0
 71
3
 72
10
 73
6
 74
4
 40
0.000000
 40
0.000000
 40
0.000000
 40
0.000000
 40
2.617678
 40
5.152164
 40
7.769842
 40
7.769842
 40
7.769842
 40
7.769842
 10
87.562063
 20
121.170360
 30
0.0
 10
87.698570
 20
120.292794
 30
0.0
 10
87.967244
 20
118.565551
 30
0.0
 10
89.957880
 20
116.574915
 30
0.0
 10
91.685122
 20
116.306241
 30
0.0
 10
92.562688
 20
116.169735
 30
0.0
 11
87.562063
 21
121.170360
 31
0.0
 11
88.242966
 21
118.642790
 31
0.0
 11
90.035119
 21
116.850638
 31
0.0
 11
92.562688
 21
116.169735
 31
0.0
  0
LINE
  5
177
100
AcDbEntity
  8
Layer_1
 62
7
100
AcDbLine
 10
127.558244
 20
121.170360
 30
0.0
 11
127.558244
 21
151.165290
 31
0.0
  0
SPLINE
  5
178
100
AcDbEntity
  8
Layer_1
 62
7
100
AcDbSpline
 70
0
 71
3
 72
10
 73
6
 74
4
 40
0.000000
 40
0.000000
 40
0.000000
 40
0.000000
 40
2.617678
 40
5.152164
 40
7.769842
 40
7.769842
 40
7.769842
 40
7.769842
 10
122.557619
 20
116.169735
 30
0.0
 10
123.435185
 20
116.306241
 30
0.0
 10
125.162428
 20
116.574915
 30
0.0
 10
127.153064
 20
118.565551
 30
0.0
 10
127.421738
 20
120.292794
 30
0.0
 10
127.558244
 20
121.170360
 30
0.0
 11
122.557619
 21
116.169735
 31
0.0
 11
125.085188
 21
116.850638
 31
0.0
 11
126.877341
 21
118.642790
 31
0.0
 11
127.558244
 21
121.170360
 31
0.0
  0
LINE
  5
179
100
AcDbEntity
  8
Layer_1
 62
7
100
AcDbLine
 10
122.557619
 20
156.165915
 30
0.0
 11
92.562688
 21
156.165915
 31
0.0
  0
LINE
  5
17a
100
AcDbEntity
  8
Layer_1
 62
7
100
AcDbLine
 10
92.562688
 20
156.165915
 30
0.0
 11
92.562688
 21
156.165915
 31
0.0
  0
SPLINE
  5
17b
100
AcDbEntity
  8
Layer_1
 62
7
100
AcDbSpline
 70
0
 71
3
 72
10
 73
6
 74
4
 40
0.000000
 40
0.000000
 40
0.000000
 40
0.000000
 40
2.617678
 40
5.152164
 40
7.769842
 40
7.769842
 40
7.769842
 40
7.769842
 10
127.558244
 20
151.165290
 30
0.0
 10
127.421738
 20
152.042856
 30
0.0
 10
127.153064
 20
153.770099
 30
0.0
 10
125.162428
 20
155.760735
 30
0.0
 10
123.435185
 20
156.029409
 30
0.0
 10
122.557619
 20
156.165915
 30
0.0
 11
127.558244
 21
151.165290
 31
0.0
 11
126.877341
 21
153.692860
 31
0.0
 11
125.085188
 21
155.485013
 31
0.0
 11
122.557619
 21
156.165915
 31
0.0
  0
SPLINE
  5
17c
100
AcDbEntity
  8
Layer_1
 62
7
100
AcDbSpline
 70
0
 71
3
 72
10
 73
6
 74
4
 40
0.000000
 40
0.000000
 40
0.000000
 40
0.000000
 40
1.257445
 40
2.469799
 40
3.684078
 40
3.684078
 40
3.684078
 40
3.684078
 10
107.996716
 20
148.175499
 30
0.0
 10
108.416120
 20
148.154098
 30
0.0
 10
109.239889
 20
148.112064
 30
0.0
 10
110.434958
 20
147.768376
 30
0.0
 10
111.137611
 20
147.363741
 30
0.0
 10
111.489216
 20
147.161263
 30
0.0
 11
107.996716
 21
148.175499
 31
0.0
 11
109.249071
 21
148.062468
 31
0.0
 11
110.413237
 21
147.724063
 31
0.0
 11
111.489216
 21
147.161263
 31
0.0
  0
SPLINE
  5
17d
100
AcDbEntity
  8
Layer_1
 62
7
100
AcDbSpline
 70
0
 71
3
 72
13
 73
9
 74
7
 40
0.000000
 40
0.000000
 40
0.000000
 40
0.000000
 40
0.708765
 40
1.311812
 40
1.831210
 40
2.157143
 40
2.501576
 40
2.953617
 40
2.953617
 40
2.953617
 40
2.953617
 10
111.489216
 20
147.161263
 30
0.0
 10
111.692519
 20
147.282696
 30
0.0
 10
112.068801
 20
147.507451
 30
0.0
 10
112.645283
 20
147.716056
 30
0.0
 10
113.123371
 20
147.809994
 30
0.0
 10
113.531521
 20
147.723429
 30
0.0
 10
113.777879
 20
147.409988
 30
0.0
 10
113.836944
 20
147.150044
 30
0.0
 10
113.870466
 20
147.002513
 30
0.0
 11
111.489216
 21
147.161263
 31
0.0
 11
112.109835
 21
147.503577
 31
0.0
 11
112.676566
 21
147.709690
 31
0.0
 11
113.191369
 21
147.778624
 31
0.0
 11
113.505594
 21
147.692052
 31
0.0
 11
113.732613
 21
147.433022
 31
0.0
 11
113.870466
 21
147.002513
 31
0.0
  0
SPLINE
  5
17e
100
AcDbEntity
  8
Layer_1
 62
7
100
AcDbSpline
 70
0
 71
3
 72
10
 73
6
 74
4
 40
0.000000
 40
0.000000
 40
0.000000
 40
0.000000
 40
0.630982
 40
1.421345
 40
2.372617
 40
2.372617
 40
2.372617
 40
2.372617
 10
113.870466
 20
147.002513
 30
0.0
 10
113.903310
 20
146.794672
 30
0.0
 10
113.977294
 20
146.326492
 30
0.0
 10
114.026993
 20
145.536207
 30
0.0
 10
114.039839
 20
144.955876
 30
0.0
 10
114.046855
 20
144.638902
 30
0.0
 11
113.870466
 21
147.002513
 31
0.0
 11
113.960285
 21
146.377957
 31
0.0
 11
114.018755
 21
145.589759
 31
0.0
 11
114.046855
 21
144.638902
 31
0.0
  0
SPLINE
  5
17f
100
AcDbEntity
  8
Layer_1
 62
7
100
AcDbSpline
 70
0
 71
3
 72
10
 73
6
 74
4
 40
0.000000
 40
0.000000
 40
0.000000
 40
0.000000
 40
0.846992
 40
2.092407
 40
3.736593
 40
3.736593
 40
3.736593
 40
3.736593
 10
114.046855
 20
144.638902
 30
0.0
 10
114.053077
 20
144.356618
 30
0.0
 10
114.068447
 20
143.659266
 30
0.0
 10
114.145122
 20
142.415856
 30
0.0
 10
114.211776
 20
141.455003
 30
0.0
 10
114.249702
 20
140.908277
 30
0.0
 11
114.046855
 21
144.638902
 31
0.0
 11
114.070038
 21
143.792226
 31
0.0
 11
114.138307
 21
142.548685
 31
0.0
 11
114.249702
 21
140.908277
 31
0.0
  0
SPLINE
  5
180
100
AcDbEntity
  8
Layer_1
 62
7
100
AcDbSpline
 70
0
 71
3
 72
16
 73
12
 74
10
 40
0.000000
 40
0.000000
 40
0.000000
 40
0.000000
 40
1.415500
 40
2.665714
 40
3.752277
 40
11.009889
 40
15.856258
 40
19.750166
 40
20.894385
 40
22.089167
 40
23.378625
 40
23.378625
 40
23.378625
 40
23.378625
 10
114.249702
 20
140.908277
 30
0.0
 10
114.280954
 20
140.437454
 30
0.0
 10
114.339808
 20
139.550786
 30
0.0
 10
114.394847
 20
138.301298
 30
0.0
 10
114.443160
 20
135.101108
 30
0.0
 10
114.170906
 20
130.753980
 30
0.0
 10
112.238275
 20
125.405196
 30
0.0
 10
108.809435
 20
124.006342
 30
0.0
 10
106.738647
 20
124.248722
 30
0.0
 10
105.575560
 20
124.618252
 30
0.0
 10
104.858679
 20
125.036611
 30
0.0
 10
104.486577
 20
125.253763
 30
0.0
 11
114.249702
 21
140.908277
 31
0.0
 11
114.337887
 21
139.495527
 31
0.0
 11
114.390804
 21
138.246433
 31
0.0
 11
114.408452
 21
137.160013
 31
0.0
 11
113.685249
 21
129.938524
 31
0.0
 11
111.515665
 21
125.604911
 31
0.0
 11
107.899702
 21
124.160152
 31
0.0
 11
106.761989
 21
124.281995
 31
0.0
 11
105.624281
 21
124.646859
 31
0.0
 11
104.486577
 21
125.253763
 31
0.0
  0
SPLINE
  5
181
100
AcDbEntity
  8
Layer_1
 62
7
100
AcDbSpline
 70
0
 71
3
 72
10
 73
6
 74
4
 40
0.000000
 40
0.000000
 40
0.000000
 40
0.000000
 40
1.319988
 40
2.528700
 40
3.665210
 40
3.665210
 40
3.665210
 40
3.665210
 10
104.486577
 20
125.253763
 30
0.0
 10
104.126707
 20
125.507465
 30
0.0
 10
103.437305
 20
125.993483
 30
0.0
 10
102.577280
 20
126.880283
 30
0.0
 10
102.188095
 20
127.560930
 30
0.0
 10
101.999494
 20
127.890777
 30
0.0
 11
104.486577
 21
125.253763
 31
0.0
 11
103.433141
 21
126.049150
 31
0.0
 11
102.603134
 21
126.927827
 31
0.0
 11
101.999494
 21
127.890777
 31
0.0
  0
SPLINE
  5
182
100
AcDbEntity
  8
Layer_1
 62
7
100
AcDbSpline
 70
0
 71
3
 72
13
 73
9
 74
7
 40
0.000000
 40
0.000000
 40
0.000000
 40
0.000000
 40
0.230816
 40
0.454389
 40
0.677205
 40
0.996701
 40
1.315596
 40
1.660525
 40
1.660525
 40
1.660525
 40
1.660525
 10
101.999494
 20
127.890777
 30
0.0
 10
101.967725
 20
127.961017
 30
0.0
 10
101.905183
 20
128.099294
 30
0.0
 10
101.853060
 20
128.320281
 30
0.0
 10
101.830916
 20
128.575477
 30
0.0
 10
101.872177
 20
128.863871
 30
0.0
 10
102.021092
 20
129.163705
 30
0.0
 10
102.180992
 20
129.318479
 30
0.0
 10
102.264077
 20
129.398902
 30
0.0
 11
101.999494
 21
127.890777
 31
0.0
 11
101.911300
 21
128.104079
 31
0.0
 11
101.858383
 21
128.321299
 31
0.0
 11
101.840744
 21
128.543415
 31
0.0
 11
101.888760
 21
128.859283
 31
0.0
 11
102.030850
 21
129.144772
 31
0.0
 11
102.264077
 21
129.398902
 31
0.0
  0
SPLINE
  5
183
100
AcDbEntity
  8
Layer_1
 62
7
100
AcDbSpline
 70
0
 71
3
 72
13
 73
9
 74
7
 40
0.000000
 40
0.000000
 40
0.000000
 40
0.000000
 40
0.364294
 40
0.695000
 40
1.011229
 40
1.456517
 40
2.235341
 40
3.373123
 40
3.373123
 40
3.373123
 40
3.373123
 10
102.264077
 20
129.398902
 30
0.0
 10
102.363103
 20
129.470323
 30
0.0
 10
102.552025
 20
129.606581
 30
0.0
 10
102.867581
 20
129.727078
 30
0.0
 10
103.237087
 20
129.798216
 30
0.0
 10
103.719404
 20
129.554719
 30
0.0
 10
104.308266
 20
129.041167
 30
0.0
 10
104.752203
 20
128.579410
 30
0.0
 10
105.015744
 20
128.305290
 30
0.0
 11
102.264077
 21
129.398902
 31
0.0
 11
102.568836
 21
129.598483
 31
0.0
 11
102.876537
 21
129.719669
 31
0.0
 11
103.190119
 21
129.760499
 31
0.0
 11
103.604631
 21
129.597831
 31
0.0
 11
104.213173
 21
129.111781
 31
0.0
 11
105.015744
 21
128.305290
 31
0.0
  0
SPLINE
  5
184
100
AcDbEntity
  8
Layer_1
 62
7
100
AcDbSpline
 70
0
 71
3
 72
13
 73
9
 74
7
 40
0.000000
 40
0.000000
 40
0.000000
 40
0.000000
 40
1.223104
 40
2.278241
 40
3.248291
 40
5.193023
 40
7.607293
 40
11.095813
 40
11.095813
 40
11.095813
 40
11.095813
 10
105.015744
 20
128.305290
 30
0.0
 10
105.306348
 20
128.016937
 30
0.0
 10
105.847647
 20
127.479830
 30
0.0
 10
106.819806
 20
126.963384
 30
0.0
 10
108.142489
 20
126.718024
 30
0.0
 10
109.960577
 20
127.428575
 30
0.0
 10
111.205528
 20
129.886166
 30
0.0
 10
111.505791
 20
131.824959
 30
0.0
 10
111.683244
 20
132.970777
 30
0.0
 11
105.015744
 21
128.305290
 31
0.0
 11
105.928062
 21
127.490638
 31
0.0
 11
106.863903
 21
127.003282
 31
0.0
 11
107.820327
 21
126.841263
 31
0.0
 11
109.642025
 21
127.521996
 31
0.0
 11
110.928685
 21
129.564840
 31
0.0
 11
111.683244
 21
132.970777
 31
0.0
  0
SPLINE
  5
185
100
AcDbEntity
  8
Layer_1
 62
7
100
AcDbSpline
 70
0
 71
3
 72
13
 73
9
 74
7
 40
0.000000
 40
0.000000
 40
0.000000
 40
0.000000
 40
1.368706
 40
2.645658
 40
3.871530
 40
5.852819
 40
7.812638
 40
9.942260
 40
9.942260
 40
9.942260
 40
9.942260
 10
111.683244
 20
132.970777
 30
0.0
 10
111.276728
 20
132.761737
 30
0.0
 10
110.490946
 20
132.357672
 30
0.0
 10
109.240221
 20
132.003681
 30
0.0
 10
107.745766
 20
131.858925
 30
0.0
 10
106.014753
 20
132.110625
 30
0.0
 10
104.161395
 20
133.029648
 30
0.0
 10
103.226950
 20
134.034821
 30
0.0
 10
102.740327
 20
134.558277
 30
0.0
 11
111.683244
 21
132.970777
 31
0.0
 11
110.445250
 21
132.387059
 31
0.0
 11
109.217060
 21
132.037548
 31
0.0
 11
107.996716
 21
131.921263
 31
0.0
 11
106.037163
 21
132.213937
 31
0.0
 11
104.285360
 21
133.092615
 31
0.0
 11
102.740327
 21
134.558277
 31
0.0
  0
SPLINE
  5
186
100
AcDbEntity
  8
Layer_1
 62
7
100
AcDbSpline
 70
0
 71
3
 72
13
 73
9
 74
7
 40
0.000000
 40
0.000000
 40
0.000000
 40
0.000000
 40
2.049399
 40
4.051369
 40
6.120321
 40
8.193158
 40
10.154604
 40
12.126879
 40
12.126879
 40
12.126879
 40
12.126879
 10
102.740327
 20
134.558277
 30
0.0
 10
102.335036
 20
135.112137
 30
0.0
 10
101.533832
 20
136.207041
 30
0.0
 10
100.856286
 20
138.162294
 30
0.0
 10
100.639137
 20
140.212885
 30
0.0
 10
100.852037
 20
142.249668
 30
0.0
 10
101.523860
 20
144.170577
 30
0.0
 10
102.334095
 20
145.210913
 30
0.0
 10
102.740327
 20
145.732513
 30
0.0
 11
102.740327
 21
134.558277
 31
0.0
 11
101.614704
 21
136.270879
 31
0.0
 11
100.937894
 21
138.154973
 31
0.0
 11
100.711855
 21
140.211540
 31
0.0
 11
100.937894
 21
142.272016
 31
0.0
 11
101.614704
 21
144.112994
 31
0.0
 11
102.740327
 21
145.732513
 31
0.0
  0
LINE
  5
187
100
AcDbEntity
  8
Layer_1
 62
7
100
AcDbLine
 10
107.996716
 20
148.175499
 30
0.0
 11
107.996716
 21
148.175499
 31
0.0
  0
SPLINE
  5
188
100
AcDbEntity
  8
Layer_1
 62
7
100
AcDbSpline
 70
0
 71
3
 72
10
 73
6
 74
4
 40
0.000000
 40
0.000000
 40
0.000000
 40
0.000000
 40
2.023125
 40
3.955086
 40
5.977086
 40
5.977086
 40
5.977086
 40
5.977086
 10
102.740327
 20
145.732513
 30
0.0
 10
103.214172
 20
146.217469
 30
0.0
 10
104.140509
 20
147.165528
 30
0.0
 10
105.999020
 20
148.030428
 30
0.0
 10
107.320784
 20
148.126413
 30
0.0
 10
107.996716
 20
148.175499
 30
0.0
 11
102.740327
 21
145.732513
 31
0.0
 11
104.241262
 21
147.089063
 31
0.0
 11
105.993065
 21
147.903718
 31
0.0
 11
107.996716
 21
148.175499
 31
0.0
  0
SPLINE
  5
189
100
AcDbEntity
  8
Layer_1
 62
7
100
AcDbSpline
 70
0
 71
3
 72
16
 73
12
 74
10
 40
0.000000
 40
0.000000
 40
0.000000
 40
0.000000
 40
1.291382
 40
2.550856
 40
3.895594
 40
5.269697
 40
6.595903
 40
7.953940
 40
9.374622
 40
10.752136
 40
12.160487
 40
12.160487
 40
12.160487
 40
12.160487
 10
108.111369
 20
145.688415
 30
0.0
 10
107.678783
 20
145.655993
 30
0.0
 10
106.824299
 20
145.591948
 30
0.0
 10
105.632185
 20
145.003170
 30
0.0
 10
104.653540
 20
144.091147
 30
0.0
 10
103.886430
 20
142.967742
 30
0.0
 10
103.408955
 20
141.686739
 30
0.0
 10
103.264837
 20
140.313317
 30
0.0
 10
103.410451
 20
138.927337
 30
0.0
 10
103.858502
 20
137.578946
 30
0.0
 10
104.392840
 20
136.814468
 30
0.0
 10
104.662966
 20
136.427999
 30
0.0
 11
108.111369
 21
145.688415
 31
0.0
 11
106.832546
 21
145.508751
 31
0.0
 11
105.694837
 21
144.968479
 31
0.0
 11
104.698244
 21
144.065638
 31
0.0
 11
103.927684
 21
142.927922
 31
0.0
 11
103.466786
 21
141.684381
 31
0.0
 11
103.313591
 21
140.335013
 31
0.0
 11
103.463520
 21
138.922264
 31
0.0
 11
103.913312
 21
137.620253
 31
0.0
 11
104.662966
 21
136.427999
 31
0.0
  0
LINE
  5
18a
100
AcDbEntity
  8
Layer_1
 62
7
100
AcDbLine
 10
110.095744
 20
135.096263
 30
0.0
 11
111.841994
 21
136.066402
 31
0.0
  0
SPLINE
  5
18b
100
AcDbEntity
  8
Layer_1
 62
7
100
AcDbSpline
 70
0
 71
3
 72
13
 73
9
 74
7
 40
0.000000
 40
0.000000
 40
0.000000
 40
0.000000
 40
1.486580
 40
2.822428
 40
4.147985
 40
4.742271
 40
5.405306
 40
6.155656
 40
6.155656
 40
6.155656
 40
6.155656
 10
104.662966
 20
136.427999
 30
0.0
 10
104.990115
 20
136.051178
 30
0.0
 10
105.611242
 20
135.335743
 30
0.0
 10
106.855238
 20
134.666414
 30
0.0
 10
107.947541
 20
134.480520
 30
0.0
 10
108.808065
 20
134.570756
 30
0.0
 10
109.451803
 20
134.769637
 30
0.0
 10
109.872435
 20
134.982994
 30
0.0
 10
110.095744
 20
135.096263
 30
0.0
 11
104.662966
 21
136.427999
 31
0.0
 11
105.706923
 21
135.369664
 31
0.0
 11
106.882196
 21
134.734664
 31
0.0
 11
108.190744
 21
134.522999
 31
0.0
 11
108.781642
 21
134.586367
 31
0.0
 11
109.416642
 21
134.777128
 31
0.0
 11
110.095744
 21
135.096263
 31
0.0
  0
SPLINE
  5
18c
100
AcDbEntity
  8
Layer_1
 62
7
100
AcDbSpline
 70
0
 71
3
 72
10
 73
6
 74
4
 40
0.000000
 40
0.000000
 40
0.000000
 40
0.000000
 40
1.895134
 40
4.592146
 40
8.091354
 40
8.091354
 40
8.091354
 40
8.091354
 10
111.841994
 20
136.066402
 30
0.0
 10
111.829647
 20
136.698040
 30
0.0
 10
111.799730
 20
138.228578
 30
0.0
 10
111.640130
 20
140.921530
 30
0.0
 10
111.492956
 20
142.981615
 30
0.0
 10
111.409841
 20
144.145013
 30
0.0
 11
111.841994
 21
136.066402
 31
0.0
 11
111.794623
 21
137.960944
 31
0.0
 11
111.651225
 21
140.654141
 31
0.0
 11
111.409841
 21
144.145013
 31
0.0
  0
LINE
  5
18d
100
AcDbEntity
  8
Layer_1
 62
7
100
AcDbLine
 10
108.111369
 20
145.688415
 30
0.0
 11
108.111369
 21
145.688415
 31
0.0
  0
LINE
  5
18e
100
AcDbEntity
  8
Layer_1
 62
7
100
AcDbLine
 10
82.559059
 20
51.166176
 30
0.0
 11
92.556782
 21
51.166176
 31
0.0
  0
LINE
  5
18f
100
AcDbEntity
  8
Layer_1
 62
7
100
AcDbLine
 10
92.556782
 20
56.165037
 30
0.0
 11
92.556782
 21
51.166176
 31
0.0
  0
LINE
  5
190
100
AcDbEntity
  8
Layer_1
 62
7
100
AcDbLine
 10
92.556782
 20
56.165037
 30
0.0
 11
102.558032
 21
56.165037
 31
0.0
  0
LINE
  5
191
100
AcDbEntity
  8
Layer_1
 62
7
100
AcDbLine
 10
102.558032
 20
56.165037
 30
0.0
 11
102.558032
 21
51.166176
 31
0.0
  0
LINE
  5
192
100
AcDbEntity
  8
Layer_1
 62
7
100
AcDbLine
 10
102.558032
 20
51.166176
 30
0.0
 11
112.555754
 21
51.166176
 31
0.0
  0
LINE
  5
193
100
AcDbEntity
  8
Layer_1
 62
7
100
AcDbLine
 10
112.555754
 20
56.165037
 30
0.0
 11
112.555754
 21
51.166176
 31
0.0
  0
LINE
  5
194
100
AcDbEntity
  8
Layer_1
 62
7
100
AcDbLine
 10
112.555754
 20
56.165037
 30
0.0
 11
122.557004
 21
56.165037
 31
0.0
  0
LINE
  5
195
100
AcDbEntity
  8
Layer_1
 62
7
100
AcDbLine
 10
122.557004
 20
56.165037
 30
0.0
 11
122.557004
 21
51.166176
 31
0.0
  0
LINE
  5
196
100
AcDbEntity
  8
Layer_1
 62
7
100
AcDbLine
 10
122.557004
 20
51.166176
 30
0.0
 11
127.555865
 21
51.166176
 31
0.0
  0
LINE
  5
197
100
AcDbEntity
  8
Layer_1
 62
7
100
AcDbLine
 10
82.559059
 20
101.165371
 30
0.0
 11
92.556782
 21
101.165371
 31
0.0
  0
LINE
  5
198
100
AcDbEntity
  8
Layer_1
 62
7
100
AcDbLine
 10
92.556782
 20
101.165371
 30
0.0
 11
92.556782
 21
96.166510
 31
0.0
  0
LINE
  5
199
100
AcDbEntity
  8
Layer_1
 62
7
100
AcDbLine
 10
92.556782
 20
96.166510
 30
0.0
 11
102.558032
 21
96.166510
 31
0.0
  0
LINE
  5
19a
100
AcDbEntity
  8
Layer_1
 62
7
100
AcDbLine
 10
102.558032
 20
101.165371
 30
0.0
 11
102.558032
 21
96.166510
 31
0.0
  0
LINE
  5
19b
100
AcDbEntity
  8
Layer_1
 62
7
100
AcDbLine
 10
102.558032
 20
101.165371
 30
0.0
 11
112.555754
 21
101.165371
 31
0.0
  0
LINE
  5
19c
100
AcDbEntity
  8
Layer_1
 62
7
100
AcDbLine
 10
112.555754
 20
101.165371
 30
0.0
 11
112.555754
 21
96.166510
 31
0.0
  0
LINE
  5
19d
100
AcDbEntity
  8
Layer_1
 62
7
100
AcDbLine
 10
112.555754
 20
96.166510
 30
0.0
 11
122.557004
 21
96.166510
 31
0.0
  0
LINE
  5
19e
100
AcDbEntity
  8
Layer_1
 62
7
100
AcDbLine
 10
122.557004
 20
101.165371
 30
0.0
 11
122.557004
 21
96.166510
 31
0.0
  0
LINE
  5
19f
100
AcDbEntity
  8
Layer_1
 62
7
100
AcDbLine
 10
122.557004
 20
101.165371
 30
0.0
 11
127.555865
 21
101.165371
 31
0.0
  0
LINE
  5
1a0
100
AcDbEntity
  8
Layer_1
 62
7
100
AcDbLine
 10
82.559059
 20
51.166176
 30
0.0
 11
82.559059
 21
61.163898
 31
0.0
  0
LINE
  5
1a1
100
AcDbEntity
  8
Layer_1
 62
7
100
AcDbLine
 10
87.557920
 20
61.163898
 30
0.0
 11
82.559059
 21
61.163898
 31
0.0
  0
LINE
  5
1a2
100
AcDbEntity
  8
Layer_1
 62
7
100
AcDbLine
 10
87.557920
 20
61.163898
 30
0.0
 11
87.557920
 21
71.165148
 31
0.0
  0
LINE
  5
1a3
100
AcDbEntity
  8
Layer_1
 62
7
100
AcDbLine
 10
87.557920
 20
71.165148
 30
0.0
 11
82.559059
 21
71.165148
 31
0.0
  0
LINE
  5
1a4
100
AcDbEntity
  8
Layer_1
 62
7
100
AcDbLine
 10
82.559059
 20
71.165148
 30
0.0
 11
82.559059
 21
81.166398
 31
0.0
  0
LINE
  5
1a5
100
AcDbEntity
  8
Layer_1
 62
7
100
AcDbLine
 10
87.557920
 20
81.166398
 30
0.0
 11
82.559059
 21
81.166398
 31
0.0
  0
LINE
  5
1a6
100
AcDbEntity
  8
Layer_1
 62
7
100
AcDbLine
 10
87.557920
 20
81.166398
 30
0.0
 11
87.557920
 21
91.164121
 31
0.0
  0
LINE
  5
1a7
100
AcDbEntity
  8
Layer_1
 62
7
100
AcDbLine
 10
87.557920
 20
91.164121
 30
0.0
 11
82.559059
 21
91.164121
 31
0.0
  0
LINE
  5
1a8
100
AcDbEntity
  8
Layer_1
 62
7
100
AcDbLine
 10
82.559059
 20
91.164121
 30
0.0
 11
82.559059
 21
101.165371
 31
0.0
  0
LINE
  5
1a9
100
AcDbEntity
  8
Layer_1
 62
7
100
AcDbLine
 10
127.555865
 20
51.166176
 30
0.0
 11
127.555865
 21
61.163898
 31
0.0
  0
LINE
  5
1aa
100
AcDbEntity
  8
Layer_1
 62
7
100
AcDbLine
 10
132.558254
 20
61.163898
 30
0.0
 11
127.555865
 21
61.163898
 31
0.0
  0
LINE
  5
1ab
100
AcDbEntity
  8
Layer_1
 62
7
100
AcDbLine
 10
132.558254
 20
61.163898
 30
0.0
 11
132.558254
 21
71.165148
 31
0.0
  0
LINE
  5
1ac
100
AcDbEntity
  8
Layer_1
 62
7
100
AcDbLine
 10
132.558254
 20
71.165148
 30
0.0
 11
127.555865
 21
71.165148
 31
0.0
  0
LINE
  5
1ad
100
AcDbEntity
  8
Layer_1
 62
7
100
AcDbLine
 10
127.555865
 20
71.165148
 30
0.0
 11
127.555865
 21
81.166398
 31
0.0
  0
LINE
  5
1ae
100
AcDbEntity
  8
Layer_1
 62
7
100
AcDbLine
 10
132.558254
 20
81.166398
 30
0.0
 11
127.555865
 21
81.166398
 31
0.0
  0
LINE
  5
1af
100
AcDbEntity
  8
Layer_1
 62
7
100
AcDbLine
 10
132.558254
 20
81.166398
 30
0.0
 11
132.558254
 21
91.164121
 31
0.0
  0
LINE
  5
1b0
100
AcDbEntity
  8
Layer_1
 62
7
100
AcDbLine
 10
132.558254
 20
91.164121
 30
0.0
 11
127.555865
 21
91.164121
 31
0.0
  0
LINE
  5
1b1
100
AcDbEntity
  8
Layer_1
 62
7
100
AcDbLine
 10
127.555865
 20
91.164121
 30
0.0
 11
127.555865
 21
101.165371
 31
0.0
  0
LINE
  5
1b2
100
AcDbEntity
  8
Layer_1
 62
7
100
AcDbLine
 10
22.558615
 20
111.166621
 30
0.0
 11
32.556337
 21
111.166621
 31
0.0
  0
LINE
  5
1b3
100
AcDbEntity
  8
Layer_1
 62
7
100
AcDbLine
 10
32.556337
 20
116.165482
 30
0.0
 11
32.556337
 21
111.166621
 31
0.0
  0
LINE
  5
1b4
100
AcDbEntity
  8
Layer_1
 62
7
100
AcDbLine
 10
32.556337
 20
116.165482
 30
0.0
 11
42.557587
 21
116.165482
 31
0.0
  0
LINE
  5
1b5
100
AcDbEntity
  8
Layer_1
 62
7
100
AcDbLine
 10
42.557587
 20
116.165482
 30
0.0
 11
42.557587
 21
111.166621
 31
0.0
  0
LINE
  5
1b6
100
AcDbEntity
  8
Layer_1
 62
7
100
AcDbLine
 10
42.557587
 20
111.166621
 30
0.0
 11
52.558837
 21
111.166621
 31
0.0
  0
LINE
  5
1b7
100
AcDbEntity
  8
Layer_1
 62
7
100
AcDbLine
 10
52.558837
 20
116.165482
 30
0.0
 11
52.558837
 21
111.166621
 31
0.0
  0
LINE
  5
1b8
100
AcDbEntity
  8
Layer_1
 62
7
100
AcDbLine
 10
52.558837
 20
116.165482
 30
0.0
 11
62.556559
 21
116.165482
 31
0.0
  0
LINE
  5
1b9
100
AcDbEntity
  8
Layer_1
 62
7
100
AcDbLine
 10
62.556559
 20
116.165482
 30
0.0
 11
62.556559
 21
111.166621
 31
0.0
  0
LINE
  5
1ba
100
AcDbEntity
  8
Layer_1
 62
7
100
AcDbLine
 10
62.556559
 20
111.166621
 30
0.0
 11
67.558948
 21
111.166621
 31
0.0
  0
LINE
  5
1bb
100
AcDbEntity
  8
Layer_1
 62
7
100
AcDbLine
 10
22.558615
 20
161.165815
 30
0.0
 11
32.556337
 21
161.165815
 31
0.0
  0
LINE
  5
1bc
100
AcDbEntity
  8
Layer_1
 62
7
100
AcDbLine
 10
32.556337
 20
161.165815
 30
0.0
 11
32.556337
 21
156.163426
 31
0.0
  0
LINE
  5
1bd
100
AcDbEntity
  8
Layer_1
 62
7
100
AcDbLine
 10
32.556337
 20
156.163426
 30
0.0
 11
42.557587
 21
156.163426
 31
0.0
  0
LINE
  5
1be
100
AcDbEntity
  8
Layer_1
 62
7
100
AcDbLine
 10
42.557587
 20
161.165815
 30
0.0
 11
42.557587
 21
156.163426
 31
0.0
  0
LINE
  5
1bf
100
AcDbEntity
  8
Layer_1
 62
7
100
AcDbLine
 10
42.557587
 20
161.165815
 30
0.0
 11
52.558837
 21
161.165815
 31
0.0
  0
LINE
  5
1c0
100
AcDbEntity
  8
Layer_1
 62
7
100
AcDbLine
 10
52.558837
 20
161.165815
 30
0.0
 11
52.558837
 21
156.163426
 31
0.0
  0
LINE
  5
1c1
100
AcDbEntity
  8
Layer_1
 62
7
100
AcDbLine
 10
52.558837
 20
156.163426
 30
0.0
 11
62.556559
 21
156.163426
 31
0.0
  0
LINE
  5
1c2
100
AcDbEntity
  8
Layer_1
 62
7
100
AcDbLine
 10
62.556559
 20
161.165815
 30
0.0
 11
62.556559
 21
156.163426
 31
0.0
  0
LINE
  5
1c3
100
AcDbEntity
  8
Layer_1
 62
7
100
AcDbLine
 10
62.556559
 20
161.165815
 30
0.0
 11
67.558948
 21
161.165815
 31
0.0
  0
LINE
  5
1c4
100
AcDbEntity
  8
Layer_1
 62
7
100
AcDbLine
 10
22.558615
 20
111.166621
 30
0.0
 11
22.558615
 21
121.164343
 31
0.0
  0
LINE
  5
1c5
100
AcDbEntity
  8
Layer_1
 62
7
100
AcDbLine
 10
27.557476
 20
121.164343
 30
0.0
 11
22.558615
 21
121.164343
 31
0.0
  0
LINE
  5
1c6
100
AcDbEntity
  8
Layer_1
 62
7
100
AcDbLine
 10
27.557476
 20
121.164343
 30
0.0
 11
27.557476
 21
131.165593
 31
0.0
  0
LINE
  5
1c7
100
AcDbEntity
  8
Layer_1
 62
7
100
AcDbLine
 10
27.557476
 20
131.165593
 30
0.0
 11
22.558615
 21
131.165593
 31
0.0
  0
LINE
  5
1c8
100
AcDbEntity
  8
Layer_1
 62
7
100
AcDbLine
 10
22.558615
 20
131.165593
 30
0.0
 11
22.558615
 21
141.163315
 31
0.0
  0
LINE
  5
1c9
100
AcDbEntity
  8
Layer_1
 62
7
100
AcDbLine
 10
27.557476
 20
141.163315
 30
0.0
 11
22.558615
 21
141.163315
 31
0.0
  0
LINE
  5
1ca
100
AcDbEntity
  8
Layer_1
 62
7
100
AcDbLine
 10
27.557476
 20
141.163315
 30
0.0
 11
27.557476
 21
151.164565
 31
0.0
  0
LINE
  5
1cb
100
AcDbEntity
  8
Layer_1
 62
7
100
AcDbLine
 10
27.557476
 20
151.164565
 30
0.0
 11
22.558615
 21
151.164565
 31
0.0
  0
LINE
  5
1cc
100
AcDbEntity
  8
Layer_1
 62
7
100
AcDbLine
 10
22.558615
 20
151.164565
 30
0.0
 11
22.558615
 21
161.165815
 31
0.0
  0
LINE
  5
1cd
100
AcDbEntity
  8
Layer_1
 62
7
100
AcDbLine
 10
67.558948
 20
111.166621
 30
0.0
 11
67.558948
 21
121.164343
 31
0.0
  0
LINE
  5
1ce
100
AcDbEntity
  8
Layer_1
 62
7
100
AcDbLine
 10
72.557809
 20
121.164343
 30
0.0
 11
67.558948
 21
121.164343
 31
0.0
  0
LINE
  5
1cf
100
AcDbEntity
  8
Layer_1
 62
7
100
AcDbLine
 10
72.557809
 20
121.164343
 30
0.0
 11
72.557809
 21
131.165593
 31
0.0
  0
LINE
  5
1d0
100
AcDbEntity
  8
Layer_1
 62
7
100
AcDbLine
 10
72.557809
 20
131.165593
 30
0.0
 11
67.558948
 21
131.165593
 31
0.0
  0
LINE
  5
1d1
100
AcDbEntity
  8
Layer_1
 62
7
100
AcDbLine
 10
67.558948
 20
131.165593
 30
0.0
 11
67.558948
 21
141.163315
 31
0.0
  0
LINE
  5
1d2
100
AcDbEntity
  8
Layer_1
 62
7
100
AcDbLine
 10
72.557809
 20
141.163315
 30
0.0
 11
67.558948
 21
141.163315
 31
0.0
  0
LINE
  5
1d3
100
AcDbEntity
  8
Layer_1
 62
7
100
AcDbLine
 10
72.557809
 20
141.163315
 30
0.0
 11
72.557809
 21
151.164565
 31
0.0
  0
LINE
  5
1d4
100
AcDbEntity
  8
Layer_1
 62
7
100
AcDbLine
 10
72.557809
 20
151.164565
 30
0.0
 11
67.558948
 21
151.164565
 31
0.0
  0
LINE
  5
1d5
100
AcDbEntity
  8
Layer_1
 62
7
100
AcDbLine
 10
67.558948
 20
151.164565
 30
0.0
 11
67.558948
 21
161.165815
 31
0.0
  0
LINE
  5
1d6
100
AcDbEntity
  8
Layer_1
 62
7
100
AcDbLine
 10
87.557920
 20
116.165482
 30
0.0
 11
92.556782
 21
116.165482
 31
0.0
  0
LINE
  5
1d7
100
AcDbEntity
  8
Layer_1
 62
7
100
AcDbLine
 10
92.556782
 20
116.165482
 30
0.0
 11
92.556782
 21
111.166621
 31
0.0
  0
LINE
  5
1d8
100
AcDbEntity
  8
Layer_1
 62
7
100
AcDbLine
 10
92.556782
 20
111.166621
 30
0.0
 11
102.558032
 21
111.166621
 31
0.0
  0
LINE
  5
1d9
100
AcDbEntity
  8
Layer_1
 62
7
100
AcDbLine
 10
102.558032
 20
116.165482
 30
0.0
 11
102.558032
 21
111.166621
 31
0.0
  0
LINE
  5
1da
100
AcDbEntity
  8
Layer_1
 62
7
100
AcDbLine
 10
102.558032
 20
116.165482
 30
0.0
 11
112.555754
 21
116.165482
 31
0.0
  0
LINE
  5
1db
100
AcDbEntity
  8
Layer_1
 62
7
100
AcDbLine
 10
112.555754
 20
116.165482
 30
0.0
 11
112.555754
 21
111.166621
 31
0.0
  0
LINE
  5
1dc
100
AcDbEntity
  8
Layer_1
 62
7
100
AcDbLine
 10
112.555754
 20
111.166621
 30
0.0
 11
122.557004
 21
111.166621
 31
0.0
  0
LINE
  5
1dd
100
AcDbEntity
  8
Layer_1
 62
7
100
AcDbLine
 10
122.557004
 20
116.165482
 30
0.0
 11
122.557004
 21
111.166621
 31
0.0
  0
LINE
  5
1de
100
AcDbEntity
  8
Layer_1
 62
7
100
AcDbLine
 10
122.557004
 20
116.165482
 30
0.0
 11
127.555865
 21
116.165482
 31
0.0
  0
LINE
  5
1df
100
AcDbEntity
  8
Layer_1
 62
7
100
AcDbLine
 10
87.557920
 20
156.163426
 30
0.0
 11
92.556782
 21
156.163426
 31
0.0
  0
LINE
  5
1e0
100
AcDbEntity
  8
Layer_1
 62
7
100
AcDbLine
 10
92.556782
 20
161.165815
 30
0.0
 11
92.556782
 21
156.163426
 31
0.0
  0
LINE
  5
1e1
100
AcDbEntity
  8
Layer_1
 62
7
100
AcDbLine
 10
92.556782
 20
161.165815
 30
0.0
 11
102.558032
 21
161.165815
 31
0.0
  0
LINE
  5
1e2
100
AcDbEntity
  8
Layer_1
 62
7
100
AcDbLine
 10
102.558032
 20
161.165815
 30
0.0
 11
102.558032
 21
156.163426
 31
0.0
  0
LINE
  5
1e3
100
AcDbEntity
  8
Layer_1
 62
7
100
AcDbLine
 10
102.558032
 20
156.163426
 30
0.0
 11
112.555754
 21
156.163426
 31
0.0
  0
LINE
  5
1e4
100
AcDbEntity
  8
Layer_1
 62
7
100
AcDbLine
 10
112.555754
 20
161.165815
 30
0.0
 11
112.555754
 21
156.163426
 31
0.0
  0
LINE
  5
1e5
100
AcDbEntity
  8
Layer_1
 62
7
100
AcDbLine
 10
112.555754
 20
161.165815
 30
0.0
 11
122.557004
 21
161.165815
 31
0.0
  0
LINE
  5
1e6
100
AcDbEntity
  8
Layer_1
 62
7
100
AcDbLine
 10
122.557004
 20
161.165815
 30
0.0
 11
122.557004
 21
156.163426
 31
0.0
  0
LINE
  5
1e7
100
AcDbEntity
  8
Layer_1
 62
7
100
AcDbLine
 10
122.557004
 20
156.163426
 30
0.0
 11
127.555865
 21
156.163426
 31
0.0
  0
LINE
  5
1e8
100
AcDbEntity
  8
Layer_1
 62
7
100
AcDbLine
 10
87.557920
 20
116.165482
 30
0.0
 11
87.557920
 21
121.164343
 31
0.0
  0
LINE
  5
1e9
100
AcDbEntity
  8
Layer_1
 62
7
100
AcDbLine
 10
87.557920
 20
121.164343
 30
0.0
 11
82.559059
 21
121.164343
 31
0.0
  0
LINE
  5
1ea
100
AcDbEntity
  8
Layer_1
 62
7
100
AcDbLine
 10
82.559059
 20
121.164343
 30
0.0
 11
82.559059
 21
131.165593
 31
0.0
  0
LINE
  5
1eb
100
AcDbEntity
  8
Layer_1
 62
7
100
AcDbLine
 10
87.557920
 20
131.165593
 30
0.0
 11
82.559059
 21
131.165593
 31
0.0
  0
LINE
  5
1ec
100
AcDbEntity
  8
Layer_1
 62
7
100
AcDbLine
 10
87.557920
 20
131.165593
 30
0.0
 11
87.557920
 21
141.163315
 31
0.0
  0
LINE
  5
1ed
100
AcDbEntity
  8
Layer_1
 62
7
100
AcDbLine
 10
87.557920
 20
141.163315
 30
0.0
 11
82.559059
 21
141.163315
 31
0.0
  0
LINE
  5
1ee
100
AcDbEntity
  8
Layer_1
 62
7
100
AcDbLine
 10
82.559059
 20
141.163315
 30
0.0
 11
82.559059
 21
151.164565
 31
0.0
  0
LINE
  5
1ef
100
AcDbEntity
  8
Layer_1
 62
7
100
AcDbLine
 10
87.557920
 20
151.164565
 30
0.0
 11
82.559059
 21
151.164565
 31
0.0
  0
LINE
  5
1f0
100
AcDbEntity
  8
Layer_1
 62
7
100
AcDbLine
 10
87.557920
 20
151.164565
 30
0.0
 11
87.557920
 21
156.163426
 31
0.0
  0
LINE
  5
1f1
100
AcDbEntity
  8
Layer_1
 62
7
100
AcDbLine
 10
127.555865
 20
116.165482
 30
0.0
 11
127.555865
 21
121.164343
 31
0.0
  0
LINE
  5
1f2
100
AcDbEntity
  8
Layer_1
 62
7
100
AcDbLine
 10
132.558254
 20
121.164343
 30
0.0
 11
127.555865
 21
121.164343
 31
0.0
  0
LINE
  5
1f3
100
AcDbEntity
  8
Layer_1
 62
7
100
AcDbLine
 10
132.558254
 20
121.164343
 30
0.0
 11
132.558254
 21
131.165593
 31
0.0
  0
LINE
  5
1f4
100
AcDbEntity
  8
Layer_1
 62
7
100
AcDbLine
 10
132.558254
 20
131.165593
 30
0.0
 11
127.555865
 21
131.165593
 31
0.0
  0
LINE
  5
1f5
100
AcDbEntity
  8
Layer_1
 62
7
100
AcDbLine
 10
127.555865
 20
131.165593
 30
0.0
 11
127.555865
 21
141.163315
 31
0.0
  0
LINE
  5
1f6
100
AcDbEntity
  8
Layer_1
 62
7
100
AcDbLine
 10
132.558254
 20
141.163315
 30
0.0
 11
127.555865
 21
141.163315
 31
0.0
  0
LINE
  5
1f7
100
AcDbEntity
  8
Layer_1
 62
7
100
AcDbLine
 10
132.558254
 20
141.163315
 30
0.0
 11
132.558254
 21
151.164565
 31
0.0
  0
LINE
  5
1f8
100
AcDbEntity
  8
Layer_1
 62
7
100
AcDbLine
 10
132.558254
 20
151.164565
 30
0.0
 11
127.555865
 21
151.164565
 31
0.0
  0
LINE
  5
1f9
100
AcDbEntity
  8
Layer_1
 62
7
100
AcDbLine
 10
127.555865
 20
151.164565
 30
0.0
 11
127.555865
 21
156.163426
 31
0.0
  0
LINE
  5
1fa
100
AcDbEntity
  8
Layer_1
 62
7
100
AcDbLine
 10
142.555976
 20
111.166621
 30
0.0
 11
152.557226
 21
111.166621
 31
0.0
  0
LINE
  5
1fb
100
AcDbEntity
  8
Layer_1
 62
7
100
AcDbLine
 10
152.557226
 20
116.165482
 30
0.0
 11
152.557226
 21
111.166621
 31
0.0
  0
LINE
  5
1fc
100
AcDbEntity
  8
Layer_1
 62
7
100
AcDbLine
 10
152.557226
 20
116.165482
 30
0.0
 11
162.558476
 21
116.165482
 31
0.0
  0
LINE
  5
1fd
100
AcDbEntity
  8
Layer_1
 62
7
100
AcDbLine
 10
162.558476
 20
116.165482
 30
0.0
 11
162.558476
 21
111.166621
 31
0.0
  0
LINE
  5
1fe
100
AcDbEntity
  8
Layer_1
 62
7
100
AcDbLine
 10
162.558476
 20
111.166621
 30
0.0
 11
172.556198
 21
111.166621
 31
0.0
  0
LINE
  5
1ff
100
AcDbEntity
  8
Layer_1
 62
7
100
AcDbLine
 10
172.556198
 20
116.165482
 30
0.0
 11
172.556198
 21
111.166621
 31
0.0
  0
LINE
  5
200
100
AcDbEntity
  8
Layer_1
 62
7
100
AcDbLine
 10
172.556198
 20
116.165482
 30
0.0
 11
182.557448
 21
116.165482
 31
0.0
  0
LINE
  5
201
100
AcDbEntity
  8
Layer_1
 62
7
100
AcDbLine
 10
182.557448
 20
116.165482
 30
0.0
 11
182.557448
 21
111.166621
 31
0.0
  0
LINE
  5
202
100
AcDbEntity
  8
Layer_1
 62
7
100
AcDbLine
 10
182.557448
 20
111.166621
 30
0.0
 11
187.556309
 21
111.166621
 31
0.0
  0
LINE
  5
203
100
AcDbEntity
  8
Layer_1
 62
7
100
AcDbLine
 10
142.555976
 20
161.165815
 30
0.0
 11
152.557226
 21
161.165815
 31
0.0
  0
LINE
  5
204
100
AcDbEntity
  8
Layer_1
 62
7
100
AcDbLine
 10
152.557226
 20
161.165815
 30
0.0
 11
152.557226
 21
156.163426
 31
0.0
  0
LINE
  5
205
100
AcDbEntity
  8
Layer_1
 62
7
100
AcDbLine
 10
152.557226
 20
156.163426
 30
0.0
 11
162.558476
 21
156.163426
 31
0.0
  0
LINE
  5
206
100
AcDbEntity
  8
Layer_1
 62
7
100
AcDbLine
 10
162.558476
 20
161.165815
 30
0.0
 11
162.558476
 21
156.163426
 31
0.0
  0
LINE
  5
207
100
AcDbEntity
  8
Layer_1
 62
7
100
AcDbLine
 10
162.558476
 20
161.165815
 30
0.0
 11
172.556198
 21
161.165815
 31
0.0
  0
LINE
  5
208
100
AcDbEntity
  8
Layer_1
 62
7
100
AcDbLine
 10
172.556198
 20
161.165815
 30
0.0
 11
172.556198
 21
156.163426
 31
0.0
  0
LINE
  5
209
100
AcDbEntity
  8
Layer_1
 62
7
100
AcDbLine
 10
172.556198
 20
156.163426
 30
0.0
 11
182.557448
 21
156.163426
 31
0.0
  0
LINE
  5
20a
100
AcDbEntity
  8
Layer_1
 62
7
100
AcDbLine
 10
182.557448
 20
161.165815
 30
0.0
 11
182.557448
 21
156.163426
 31
0.0
  0
LINE
  5
20b
100
AcDbEntity
  8
Layer_1
 62
7
100
AcDbLine
 10
182.557448
 20
161.165815
 30
0.0
 11
187.556309
 21
161.165815
 31
0.0
  0
LINE
  5
20c
100
AcDbEntity
  8
Layer_1
 62
7
100
AcDbLine
 10
142.555976
 20
111.166621
 30
0.0
 11
142.555976
 21
121.164343
 31
0.0
  0
LINE
  5
20d
100
AcDbEntity
  8
Layer_1
 62
7
100
AcDbLine
 10
147.558365
 20
121.164343
 30
0.0
 11
142.555976
 21
121.164343
 31
0.0
  0
LINE
  5
20e
100
AcDbEntity
  8
Layer_1
 62
7
100
AcDbLine
 10
147.558365
 20
121.164343
 30
0.0
 11
147.558365
 21
131.165593
 31
0.0
  0
LINE
  5
20f
100
AcDbEntity
  8
Layer_1
 62
7
100
AcDbLine
 10
147.558365
 20
131.165593
 30
0.0
 11
142.555976
 21
131.165593
 31
0.0
  0
LINE
  5
210
100
AcDbEntity
  8
Layer_1
 62
7
100
AcDbLine
 10
142.555976
 20
131.165593
 30
0.0
 11
142.555976
 21
141.163315
 31
0.0
  0
LINE
  5
211
100
AcDbEntity
  8
Layer_1
 62
7
100
AcDbLine
 10
147.558365
 20
141.163315
 30
0.0
 11
142.555976
 21
141.163315
 31
0.0
  0
LINE
  5
212
100
AcDbEntity
  8
Layer_1
 62
7
100
AcDbLine
 10
147.558365
 20
141.163315
 30
0.0
 11
147.558365
 21
151.164565
 31
0.0
  0
LINE
  5
213
100
AcDbEntity
  8
Layer_1
 62
7
100
AcDbLine
 10
147.558365
 20
151.164565
 30
0.0
 11
142.555976
 21
151.164565
 31
0.0
  0
LINE
  5
214
100
AcDbEntity
  8
Layer_1
 62
7
100
AcDbLine
 10
142.555976
 20
151.164565
 30
0.0
 11
142.555976
 21
161.165815
 31
0.0
  0
LINE
  5
215
100
AcDbEntity
  8
Layer_1
 62
7
100
AcDbLine
 10
187.556309
 20
111.166621
 30
0.0
 11
187.556309
 21
121.164343
 31
0.0
  0
LINE
  5
216
100
AcDbEntity
  8
Layer_1
 62
7
100
AcDbLine
 10
192.558698
 20
121.164343
 30
0.0
 11
187.556309
 21
121.164343
 31
0.0
  0
LINE
  5
217
100
AcDbEntity
  8
Layer_1
 62
7
100
AcDbLine
 10
192.558698
 20
121.164343
 30
0.0
 11
192.558698
 21
131.165593
 31
0.0
  0
LINE
  5
218
100
AcDbEntity
  8
Layer_1
 62
7
100
AcDbLine
 10
192.558698
 20
131.165593
 30
0.0
 11
187.556309
 21
131.165593
 31
0.0
  0
LINE
  5
219
100
AcDbEntity
  8
Layer_1
 62
7
100
AcDbLine
 10
187.556309
 20
131.165593
 30
0.0
 11
187.556309
 21
141.163315
 31
0.0
  0
LINE
  5
21a
100
AcDbEntity
  8
Layer_1
 62
7
100
AcDbLine
 10
192.558698
 20
141.163315
 30
0.0
 11
187.556309
 21
141.163315
 31
0.0
  0
LINE
  5
21b
100
AcDbEntity
  8
Layer_1
 62
7
100
AcDbLine
 10
192.558698
 20
141.163315
 30
0.0
 11
192.558698
 21
151.164565
 31
0.0
  0
LINE
  5
21c
100
AcDbEntity
  8
Layer_1
 62
7
100
AcDbLine
 10
192.558698
 20
151.164565
 30
0.0
 11
187.556309
 21
151.164565
 31
0.0
  0
LINE
  5
21d
100
AcDbEntity
  8
Layer_1
 62
7
100
AcDbLine
 10
187.556309
 20
151.164565
 30
0.0
 11
187.556309
 21
161.165815
 31
0.0
  0
LINE
  5
21e
100
AcDbEntity
  8
Layer_1
 62
7
100
AcDbLine
 10
82.559059
 20
171.163537
 30
0.0
 11
92.556782
 21
171.163537
 31
0.0
  0
LINE
  5
21f
100
AcDbEntity
  8
Layer_1
 62
7
100
AcDbLine
 10
92.556782
 20
176.165926
 30
0.0
 11
92.556782
 21
171.163537
 31
0.0
  0
LINE
  5
220
100
AcDbEntity
  8
Layer_1
 62
7
100
AcDbLine
 10
92.556782
 20
176.165926
 30
0.0
 11
102.558032
 21
176.165926
 31
0.0
  0
LINE
  5
221
100
AcDbEntity
  8
Layer_1
 62
7
100
AcDbLine
 10
102.558032
 20
176.165926
 30
0.0
 11
102.558032
 21
171.163537
 31
0.0
  0
LINE
  5
222
100
AcDbEntity
  8
Layer_1
 62
7
100
AcDbLine
 10
102.558032
 20
171.163537
 30
0.0
 11
112.555754
 21
171.163537
 31
0.0
  0
LINE
  5
223
100
AcDbEntity
  8
Layer_1
 62
7
100
AcDbLine
 10
112.555754
 20
176.165926
 30
0.0
 11
112.555754
 21
171.163537
 31
0.0
  0
LINE
  5
224
100
AcDbEntity
  8
Layer_1
 62
7
100
AcDbLine
 10
112.555754
 20
176.165926
 30
0.0
 11
122.557004
 21
176.165926
 31
0.0
  0
LINE
  5
225
100
AcDbEntity
  8
Layer_1
 62
7
100
AcDbLine
 10
122.557004
 20
176.165926
 30
0.0
 11
122.557004
 21
171.163537
 31
0.0
  0
LINE
  5
226
100
AcDbEntity
  8
Layer_1
 62
7
100
AcDbLine
 10
122.557004
 20
171.163537
 30
0.0
 11
127.555865
 21
171.163537
 31
0.0
  0
LINE
  5
227
100
AcDbEntity
  8
Layer_1
 62
7
100
AcDbLine
 10
82.559059
 20
221.166260
 30
0.0
 11
92.556782
 21
221.166260
 31
0.0
  0
LINE
  5
228
100
AcDbEntity
  8
Layer_1
 62
7
100
AcDbLine
 10
92.556782
 20
221.166260
 30
0.0
 11
92.556782
 21
216.163871
 31
0.0
  0
LINE
  5
229
100
AcDbEntity
  8
Layer_1
 62
7
100
AcDbLine
 10
92.556782
 20
216.163871
 30
0.0
 11
102.558032
 21
216.163871
 31
0.0
  0
LINE
  5
22a
100
AcDbEntity
  8
Layer_1
 62
7
100
AcDbLine
 10
102.558032
 20
221.166260
 30
0.0
 11
102.558032
 21
216.163871
 31
0.0
  0
LINE
  5
22b
100
AcDbEntity
  8
Layer_1
 62
7
100
AcDbLine
 10
102.558032
 20
221.166260
 30
0.0
 11
112.555754
 21
221.166260
 31
0.0
  0
LINE
  5
22c
100
AcDbEntity
  8
Layer_1
 62
7
100
AcDbLine
 10
112.555754
 20
221.166260
 30
0.0
 11
112.555754
 21
216.163871
 31
0.0
  0
LINE
  5
22d
100
AcDbEntity
  8
Layer_1
 62
7
100
AcDbLine
 10
112.555754
 20
216.163871
 30
0.0
 11
122.557004
 21
216.163871
 31
0.0
  0
LINE
  5
22e
100
AcDbEntity
  8
Layer_1
 62
7
100
AcDbLine
 10
122.557004
 20
221.166260
 30
0.0
 11
122.557004
 21
216.163871
 31
0.0
  0
LINE
  5
22f
100
AcDbEntity
  8
Layer_1
 62
7
100
AcDbLine
 10
122.557004
 20
221.166260
 30
0.0
 11
127.555865
 21
221.166260
 31
0.0
  0
LINE
  5
230
100
AcDbEntity
  8
Layer_1
 62
7
100
AcDbLine
 10
82.559059
 20
171.163537
 30
0.0
 11
82.559059
 21
181.164787
 31
0.0
  0
LINE
  5
231
100
AcDbEntity
  8
Layer_1
 62
7
100
AcDbLine
 10
87.557920
 20
181.164787
 30
0.0
 11
82.559059
 21
181.164787
 31
0.0
  0
LINE
  5
232
100
AcDbEntity
  8
Layer_1
 62
7
100
AcDbLine
 10
87.557920
 20
181.164787
 30
0.0
 11
87.557920
 21
191.166037
 31
0.0
  0
LINE
  5
233
100
AcDbEntity
  8
Layer_1
 62
7
100
AcDbLine
 10
87.557920
 20
191.166037
 30
0.0
 11
82.559059
 21
191.166037
 31
0.0
  0
LINE
  5
234
100
AcDbEntity
  8
Layer_1
 62
7
100
AcDbLine
 10
82.559059
 20
191.166037
 30
0.0
 11
82.559059
 21
201.163760
 31
0.0
  0
LINE
  5
235
100
AcDbEntity
  8
Layer_1
 62
7
100
AcDbLine
 10
87.557920
 20
201.163760
 30
0.0
 11
82.559059
 21
201.163760
 31
0.0
  0
LINE
  5
236
100
AcDbEntity
  8
Layer_1
 62
7
100
AcDbLine
 10
87.557920
 20
201.163760
 30
0.0
 11
87.557920
 21
211.165010
 31
0.0
  0
LINE
  5
237
100
AcDbEntity
  8
Layer_1
 62
7
100
AcDbLine
 10
87.557920
 20
211.165010
 30
0.0
 11
82.559059
 21
211.165010
 31
0.0
  0
LINE
  5
238
100
AcDbEntity
  8
Layer_1
 62
7
100
AcDbLine
 10
82.559059
 20
211.165010
 30
0.0
 11
82.559059
 21
221.166260
 31
0.0
  0
LINE
  5
239
100
AcDbEntity
  8
Layer_1
 62
7
100
AcDbLine
 10
127.555865
 20
171.163537
 30
0.0
 11
127.555865
 21
181.164787
 31
0.0
  0
LINE
  5
23a
100
AcDbEntity
  8
Layer_1
 62
7
100
AcDbLine
 10
132.558254
 20
181.164787
 30
0.0
 11
127.555865
 21
181.164787
 31
0.0
  0
LINE
  5
23b
100
AcDbEntity
  8
Layer_1
 62
7
100
AcDbLine
 10
132.558254
 20
181.164787
 30
0.0
 11
132.558254
 21
191.166037
 31
0.0
  0
LINE
  5
23c
100
AcDbEntity
  8
Layer_1
 62
7
100
AcDbLine
 10
132.558254
 20
191.166037
 30
0.0
 11
127.555865
 21
191.166037
 31
0.0
  0
LINE
  5
23d
100
AcDbEntity
  8
Layer_1
 62
7
100
AcDbLine
 10
127.555865
 20
191.166037
 30
0.0
 11
127.555865
 21
201.163760
 31
0.0
  0
LINE
  5
23e
100
AcDbEntity
  8
Layer_1
 62
7
100
AcDbLine
 10
132.558254
 20
201.163760
 30
0.0
 11
127.555865
 21
201.163760
 31
0.0
  0
LINE
  5
23f
100
AcDbEntity
  8
Layer_1
 62
7
100
AcDbLine
 10
132.558254
 20
201.163760
 30
0.0
 11
132.558254
 21
211.165010
 31
0.0
  0
LINE
  5
240
100
AcDbEntity
  8
Layer_1
 62
7
100
AcDbLine
 10
132.558254
 20
211.165010
 30
0.0
 11
127.555865
 21
211.165010
 31
0.0
  0
LINE
  5
241
100
AcDbEntity
  8
Layer_1
 62
7
100
AcDbLine
 10
127.555865
 20
211.165010
 30
0.0
 11
127.555865
 21
221.166260
 31
0.0
  0
LINE
  5
242
100
AcDbEntity
  8
Layer_1
 62
7
100
AcDbLine
 10
87.557920
 20
236.166371
 30
0.0
 11
92.556782
 21
236.166371
 31
0.0
  0
LINE
  5
243
100
AcDbEntity
  8
Layer_1
 62
7
100
AcDbLine
 10
92.556782
 20
236.166371
 30
0.0
 11
92.556782
 21
231.163982
 31
0.0
  0
LINE
  5
244
100
AcDbEntity
  8
Layer_1
 62
7
100
AcDbLine
 10
92.556782
 20
231.163982
 30
0.0
 11
102.558032
 21
231.163982
 31
0.0
  0
LINE
  5
245
100
AcDbEntity
  8
Layer_1
 62
7
100
AcDbLine
 10
102.558032
 20
236.166371
 30
0.0
 11
102.558032
 21
231.163982
 31
0.0
  0
LINE
  5
246
100
AcDbEntity
  8
Layer_1
 62
7
100
AcDbLine
 10
102.558032
 20
236.166371
 30
0.0
 11
112.555754
 21
236.166371
 31
0.0
  0
LINE
  5
247
100
AcDbEntity
  8
Layer_1
 62
7
100
AcDbLine
 10
112.555754
 20
236.166371
 30
0.0
 11
112.555754
 21
231.163982
 31
0.0
  0
LINE
  5
248
100
AcDbEntity
  8
Layer_1
 62
7
100
AcDbLine
 10
112.555754
 20
231.163982
 30
0.0
 11
122.557004
 21
231.163982
 31
0.0
  0
LINE
  5
249
100
AcDbEntity
  8
Layer_1
 62
7
100
AcDbLine
 10
122.557004
 20
236.166371
 30
0.0
 11
122.557004
 21
231.163982
 31
0.0
  0
LINE
  5
24a
100
AcDbEntity
  8
Layer_1
 62
7
100
AcDbLine
 10
122.557004
 20
236.166371
 30
0.0
 11
127.555865
 21
236.166371
 31
0.0
  0
LINE
  5
24b
100
AcDbEntity
  8
Layer_1
 62
7
100
AcDbLine
 10
87.557920
 20
276.164315
 30
0.0
 11
92.556782
 21
276.164315
 31
0.0
  0
LINE
  5
24c
100
AcDbEntity
  8
Layer_1
 62
7
100
AcDbLine
 10
92.556782
 20
281.163176
 30
0.0
 11
92.556782
 21
276.164315
 31
0.0
  0
LINE
  5
24d
100
AcDbEntity
  8
Layer_1
 62
7
100
AcDbLine
 10
92.556782
 20
281.163176
 30
0.0
 11
102.558032
 21
281.163176
 31
0.0
  0
LINE
  5
24e
100
AcDbEntity
  8
Layer_1
 62
7
100
AcDbLine
 10
102.558032
 20
281.163176
 30
0.0
 11
102.558032
 21
276.164315
 31
0.0
  0
LINE
  5
24f
100
AcDbEntity
  8
Layer_1
 62
7
100
AcDbLine
 10
102.558032
 20
276.164315
 30
0.0
 11
112.555754
 21
276.164315
 31
0.0
  0
LINE
  5
250
100
AcDbEntity
  8
Layer_1
 62
7
100
AcDbLine
 10
112.555754
 20
281.163176
 30
0.0
 11
112.555754
 21
276.164315
 31
0.0
  0
LINE
  5
251
100
AcDbEntity
  8
Layer_1
 62
7
100
AcDbLine
 10
112.555754
 20
281.163176
 30
0.0
 11
122.557004
 21
281.163176
 31
0.0
  0
LINE
  5
252
100
AcDbEntity
  8
Layer_1
 62
7
100
AcDbLine
 10
122.557004
 20
281.163176
 30
0.0
 11
122.557004
 21
276.164315
 31
0.0
  0
LINE
  5
253
100
AcDbEntity
  8
Layer_1
 62
7
100
AcDbLine
 10
122.557004
 20
276.164315
 30
0.0
 11
127.555865
 21
276.164315
 31
0.0
  0
LINE
  5
254
100
AcDbEntity
  8
Layer_1
 62
7
100
AcDbLine
 10
87.557920
 20
236.166371
 30
0.0
 11
87.557920
 21
241.165232
 31
0.0
  0
LINE
  5
255
100
AcDbEntity
  8
Layer_1
 62
7
100
AcDbLine
 10
87.557920
 20
241.165232
 30
0.0
 11
82.559059
 21
241.165232
 31
0.0
  0
LINE
  5
256
100
AcDbEntity
  8
Layer_1
 62
7
100
AcDbLine
 10
82.559059
 20
241.165232
 30
0.0
 11
82.559059
 21
251.166482
 31
0.0
  0
LINE
  5
257
100
AcDbEntity
  8
Layer_1
 62
7
100
AcDbLine
 10
87.557920
 20
251.166482
 30
0.0
 11
82.559059
 21
251.166482
 31
0.0
  0
LINE
  5
258
100
AcDbEntity
  8
Layer_1
 62
7
100
AcDbLine
 10
87.557920
 20
251.166482
 30
0.0
 11
87.557920
 21
261.164204
 31
0.0
  0
LINE
  5
259
100
AcDbEntity
  8
Layer_1
 62
7
100
AcDbLine
 10
87.557920
 20
261.164204
 30
0.0
 11
82.559059
 21
261.164204
 31
0.0
  0
LINE
  5
25a
100
AcDbEntity
  8
Layer_1
 62
7
100
AcDbLine
 10
82.559059
 20
261.164204
 30
0.0
 11
82.559059
 21
271.165454
 31
0.0
  0
LINE
  5
25b
100
AcDbEntity
  8
Layer_1
 62
7
100
AcDbLine
 10
87.557920
 20
271.165454
 30
0.0
 11
82.559059
 21
271.165454
 31
0.0
  0
LINE
  5
25c
100
AcDbEntity
  8
Layer_1
 62
7
100
AcDbLine
 10
87.557920
 20
271.165454
 30
0.0
 11
87.557920
 21
276.164315
 31
0.0
  0
LINE
  5
25d
100
AcDbEntity
  8
Layer_1
 62
7
100
AcDbLine
 10
127.555865
 20
236.166371
 30
0.0
 11
127.555865
 21
241.165232
 31
0.0
  0
LINE
  5
25e
100
AcDbEntity
  8
Layer_1
 62
7
100
AcDbLine
 10
132.558254
 20
241.165232
 30
0.0
 11
127.555865
 21
241.165232
 31
0.0
  0
LINE
  5
25f
100
AcDbEntity
  8
Layer_1
 62
7
100
AcDbLine
 10
132.558254
 20
241.165232
 30
0.0
 11
132.558254
 21
251.166482
 31
0.0
  0
LINE
  5
260
100
AcDbEntity
  8
Layer_1
 62
7
100
AcDbLine
 10
132.558254
 20
251.166482
 30
0.0
 11
127.555865
 21
251.166482
 31
0.0
  0
LINE
  5
261
100
AcDbEntity
  8
Layer_1
 62
7
100
AcDbLine
 10
127.555865
 20
251.166482
 30
0.0
 11
127.555865
 21
261.164204
 31
0.0
  0
LINE
  5
262
100
AcDbEntity
  8
Layer_1
 62
7
100
AcDbLine
 10
132.558254
 20
261.164204
 30
0.0
 11
127.555865
 21
261.164204
 31
0.0
  0
LINE
  5
263
100
AcDbEntity
  8
Layer_1
 62
7
100
AcDbLine
 10
132.558254
 20
261.164204
 30
0.0
 11
132.558254
 21
271.165454
 31
0.0
  0
LINE
  5
264
100
AcDbEntity
  8
Layer_1
 62
7
100
AcDbLine
 10
132.558254
 20
271.165454
 30
0.0
 11
127.555865
 21
271.165454
 31
0.0
  0
LINE
  5
265
100
AcDbEntity
  8
Layer_1
 62
7
100
AcDbLine
 10
127.555865
 20
271.165454
 30
0.0
 11
127.555865
 21
276.164315
 31
0.0
  0
SPLINE
  5
266
100
AcDbEntity
  8
Layer_1
 62
7
100
AcDbSpline
 70
0
 71
3
 72
10
 73
6
 74
4
 40
0.000000
 40
0.000000
 40
0.000000
 40
0.000000
 40
1.306414
 40
2.520630
 40
3.746405
 40
3.746405
 40
3.746405
 40
3.746405
 10
111.409841
 20
144.145013
 30
0.0
 10
111.097455
 20
144.450894
 30
0.0
 10
110.494727
 20
145.041071
 30
0.0
 10
109.336862
 20
145.592349
 30
0.0
 10
108.521155
 20
145.656292
 30
0.0
 10
108.111369
 20
145.688415
 30
0.0
 11
111.409841
 21
144.145013
 31
0.0
 11
110.425323
 21
145.003757
 31
0.0
 11
109.325180
 21
145.517571
 31
0.0
 11
108.111369
 21
145.688415
 31
0.0
  0
ENDSEC
  0
SECTION
  2
OBJECTS
  0
DICTIONARY
  5
C
330
0
100
AcDbDictionary
  3
ACAD_GROUP
350
D
  3
ACAD_MLINESTYLE
350
17
  0
DICTIONARY
  5
D
330
C
100
AcDbDictionary
  0
DICTIONARY
  5
1A
330
C
100
AcDbDictionary
  0
DICTIONARY
  5
17
330
C
100
AcDbDictionary
  3
STANDARD
350
18
  0
DICTIONARY
  5
19
330
C
100
AcDbDictionary
  0
ENDSEC
  0
EOF
